<?xml version="1.0" standalone="no"?>
<!DOCTYPE svg PUBLIC "-//W3C//DTD SVG 1.1//EN" "http://www.w3.org/Graphics/SVG/1.1/DTD/svg11.dtd" >
<svg xmlns="http://www.w3.org/2000/svg" xmlns:xlink="http://www.w3.org/1999/xlink" version="1.1">
<metadata>
Created by FontForge 20200511 at Tue Jun 18 03:31:34 2024
 By convertio
v1.0  Copyright 1998 Garrett Boge. ALL RIGHTS RESERVED. "Longhand" is a trademark of LetterPerfect Desgin: 526 First Ave. S. #227, Seattle, WA 98104 USA. http://www.letterspace.com
</metadata>
<defs>
<font id="DLDLTTAD" horiz-adv-x="419" >
  <font-face 
    font-family="DL DLTTAD"
    font-weight="700"
    font-stretch="normal"
    units-per-em="1000"
    panose-1="2 0 0 0 0 0 0 0 0 0"
    ascent="800"
    descent="-200"
    x-height="266"
    cap-height="520"
    bbox="-280 -284 1177 882"
    underline-thickness="34"
    underline-position="-117"
    unicode-range="U+0020-FB02"
  />
<missing-glyph horiz-adv-x="1000" 
 />
    <glyph glyph-name=".notdef" horiz-adv-x="1000" 
 />
    <glyph glyph-name=".null" horiz-adv-x="0" 
 />
    <glyph glyph-name="nonmarkingreturn" horiz-adv-x="333" 
 />
    <glyph glyph-name="space" unicode=" " horiz-adv-x="250" 
 />
    <glyph glyph-name="exclam" unicode="!" horiz-adv-x="220" 
d="M296 413q-13 -20 -27 -34q-24 -34 -57 -91q-1 -1 -2.5 -3t-1.5 -3q-1 -1 -1 -2q-1 0 -2 -2l-1 -2q-3 -5 -9.5 -15t-9.5 -16l-9 -18t-8.5 -16t-8.5 -11q-1 1 -2 1l-3 -2q-4 -2 -7 -2q0 -2 1 -4t2 -3v-2q0 -3 -1 -5q-10 -27 -17 -32q-7 -7 -10 -8q2 -6 2 -8q0 -9 -8 -19
q-4 -7 -17 -7q-14 0 -21 9q-6 11 -6 19q0 2 5 27q2 9 10.5 26t10.5 22q9 16 10 24q1 13 13 30q1 1 6.5 3t6.5 4q0 5 -2 11v1q0 3 3 5q5 19 13 29q5 5 8 16q8 3 13 8q3 3 3 8q-1 2 -1 3q0 2 2 8q1 2 5 5t5 4q2 5 3 8q3 5 6 11q2 4 3 5q3 0 5 3t3 7.5t2 6.5q-4 7 -4 15
q0 5 5 13q4 5 7.5 8.5t6 5t3.5 2.5q5 5 15 5t16 2q6 3 11 3q3 0 19 -9q13 -13 13 -31q0 -8 -1 -13zM105 -22q-1 -3 -5 -3l-4 1h-5h-3q-5 -5 -5 -7l1 -1q0 -3 -5 -5l-41 6q-15 17 -27 53q3 15 14.5 23t21.5 9h10q31 0 42 -17q12 -25 12 -37t-6 -22z" />
    <glyph glyph-name="quotedbl" unicode="&#x22;" horiz-adv-x="241" 
d="M211 537l-4 -9q-10 -30 -15 -35q-19 -16 -21 -21q-3 -3 -5 -7h-1v-1v0v-1h-1v-1v0v-1h-1v-1v0v-1q-12 -16 -13 -17l-7 -3q-2 -3 -4.5 -7t-4 -6t-2.5 -6t-1 -9q-3 -3 -8.5 -10t-8 -10t-7.5 -5.5t-10 -2.5q-6 0 -15 6q-13 10 -13 25q0 9 5 19q8 4 9.5 14t11.5 16q3 9 7 16
q1 1 2.5 6t4.5 9q2 3 4 4.5t3 2t2 1.5t1 2v4q0 4 3 8q3 6 8 9q1 9 7 13q5 3 18 34l6 10q14 14 37 14q8 0 11 -1q12 -3 18 -8t6 -7v-5q0 -13 -22 -38zM383 517q-5 -1 -14 -4.5t-11 -4.5q-12 -16 -20 -18l-2 -5q1 -2 1 -5q0 -11 -17 -17h-1l-1 1v-1q-4 -4 -7 -6q-9 -7 -12 -8
q-1 -4 -6 -4q-4 0 -6 1q0 -11 -5 -18q-4 -7 -12.5 -13t-9.5 -9q0 -9 -16 -23l-5 -3q-8 -5 -13 -5q-4 0 -23 12q-1 5 -1 14t1 13q2 10 7.5 19.5t11 16t16 17t15.5 16.5q6 13 24.5 31.5t22.5 23.5q4 6 14.5 14t14.5 13q11 6 23 6q19 0 31 -10q12 -11 12 -23q0 -10 -12 -21z
" />
    <glyph glyph-name="numbersign" unicode="#" horiz-adv-x="449" 
d="M289 227q-6 0 -14.5 0.5t-9.5 0.5q-9 0 -12 -1q-15 -4 -28 -4h-7q-4 -15 -9 -20q-2 -2 -17 -40q8 -2 13 -2q7 0 11 1q1 -3 4 -3q4 0 16 3q6 2 10 2q7 0 11 -1q1 -1 3 -1q5 0 8 3q6 16 10 27v1l1 1v1v1l1 1v1v1l1 1v1v1l1 1v1v1l1 1v1v1l1 1v1q4 12 5 17zM93 32zM93 32z
M93 32zM484 260q-7 -24 -32 -24h-5h-5l-3 1q-3 0 -4 -1q-22 2 -26 2q-15 0 -26 -3q-7 -4 -13 -4h-5q-5 0 -7 -3q-12 -12 -17 -29q1 -3 1 -7q0 -6 -7 -21q3 1 15 1q6 0 28 2q29 0 35 -2q3 -1 11 -8q16 -15 16 -25q0 -9 -10 -16q-13 -7 -24 -7q-6 0 -12 3q-5 -1 -14 -1
q-1 0 -9 0.5t-17 0.5l-4 7q-2 -2 -6 -5t-6 -5h-7h-5l-2 1q-3 0 -9 -2q-7 -9 -18 -63q-1 -6 -2.5 -13.5t-2.5 -11.5t-2 -8.5t-1 -6.5q-6 -31 -22 -31q-1 0 -3 0.5l-2 0.5q-4 0 -6 -1q-26 4 -26 24q0 3 2 11.5t2 12.5q1 1 1 4t-3 10q6 10 6 12v7q1 6 3.5 18.5t7.5 27.5
q0 1 -3 1q-1 0 -4.5 -0.5t-8 -1.5t-7.5 -1q-1 4 -10 4q-19 0 -52 -12v-1v-1h-1v-1v-1v-1v-1q-1 0 -1 -1v-1q0 -2 -1 -5t-1 -4l-10 -34q-6 -6 -7 -9v-5v-11q0 -6 -1 -8q-7 -16 -26 -16q-3 0 -13 2q-8 2 -10.5 6t-2.5 15l3 11q-4 11 -4 16q0 6 8 12q1 5 4 33q-3 -1 -17.5 -6
t-21.5 -5q-4 0 -7 1q-11 1 -16.5 5t-10 12t-7.5 11q-2 8 -2 11q0 9 7.5 15t17.5 6q6 0 9 -0.5t4 -0.5h1l7 6q7 5 14 5t17 2q8 -3 10 -3q1 0 3.5 2t8.5 2l5 1q1 2 2 5q5 7 5 12q3 6 7 18.5t8 18.5v2q0 3 2 9l-17 3q-6 0 -14 -6q-7 0 -13 -1l-9 -1.5t-4 -0.5q-10 0 -18 7
q-21 2 -21 31q0 13 4 21q15 16 25 16q6 0 13 -3q2 0 5 -0.5t4 -0.5q50 -2 57 -2h18q2 6 16 30l25 50q9 17 38 26q8 3 15 3q25 0 30 -22q1 -1 1 -4q0 -9 -18 -25q-1 -22 -25 -39l-3 -9t-4 -10q2 0 8.5 0.5t8.5 0.5q4 0 8.5 1t5.5 1q4 0 6 -1l6 -2l3 1h5h6h1h1h1q1 1 3 1.5
t4 0.5q2 4 9 24t16 26q4 16 4 17q5 13 7 15q12 35 36 35h4q5 3 10 5q3 1 7 1q17 0 25 -17v-12t-2 -9t-2.5 -6t-4 -7.5t-5.5 -9.5q-2 -8 -7.5 -13t-6.5 -11q-7 -2 -9.5 -5.5t-3.5 -10t-4 -11.5q-2 -7 -3 -8h3v0h1h1q5 0 7 -1q10 2 17 2h9q9 -1 17 -1l17 -10q16 -5 23 -21z
" />
    <glyph glyph-name="dollar" unicode="$" horiz-adv-x="373" 
d="M371 344l8 -12v2q1 -6 1 -9q0 -5 -2 -11q-8 -29 -22 -36q-4 -1 -11 -1q-26 0 -33 31q0 7 -2 11q-3 3 -10 3q-4 0 -7 -3l-3 -5q-4 -4 -9 -16.5t-11 -19.5q-1 -3 -2.5 -8.5t-2.5 -9t-3 -6.5t-5 -4l-1 -17q5 -1 11 -4q2 0 16 -4l8 -2q5 0 64 -45q4 -7 4 -15q4 -4 4 -8l-1 -2
q0 -2 -1.5 -6.5t-2.5 -9.5q-4 -20 -20 -35q-4 -4 -19 -17t-18 -16q-1 1 -4 1h-1q-4 -2 -10 -4.5t-9.5 -5.5t-7.5 -8q-48 -16 -57 -16h-1l-19 -8q-6 -2 -12.5 -2.5t-10.5 -2t-10 -6.5q0 -1 -1 -2v-2q-1 -1 -1 -2q-1 -1 -1 -2q-1 -1 -1 -2q-1 -1 -1 -4q0 -2 2 -6
q-6 -13 -11 -17q-2 -6 -2 -8l1 -2q0 -2 -2 -8q0 -2 -2 -5t-2 -5q0 -4 1 -6q-6 -16 -25 -16t-24 14q-1 6 -1 16q0 14 6 27q0 4 8 23q-5 -1 -14 -2.5t-14 -3.5q-3 5 -8 5q-5 2 -12 -11l-31 -4l-6 5q0 -1 -5 -1h-4q-15 9 -19 15t-4 20v6q11 25 41 25l9 -2q4 0 8 4q8 2 11 2
q10 0 17 -4q1 1 4 1q2 0 4 -1h1q3 0 6 4h5q3 0 32 8q4 14 21 48q1 3 5 7t4 8q0 3 -1 5l4 10t3 8l1 3q0 6 6 12l3 9q-6 2 -12 6q-3 -1 -9 -1q-10 0 -30 9.5t-22 10.5q-16 1 -33 15q-2 4 -9 13t-8 15q-3 6 -3 13q0 11 10 29q27 27 32 29q4 8 15 10q66 42 145 44l5 2
q1 3 7 12.5t8 17.5q1 14 8 25q0 9 5 12q8 25 35 25q4 0 7 -1q23 -6 24 -21q0 -4 1 -8t1 -5q0 -3 -1 -4q-3 -11 -7 -16l-4 -4l-2 -6q-1 -1 -1 -4q-2 -9 -8 -19q8 0 15 -4q5 0 9 -2t9 -5.5t8 -4.5q6 -8 6 -25zM224 310h-9q-4 -2 -10 -3.5l-10 -2.5h-4q-8 0 -15 -5
q-44 -21 -48 -24l-6 -6l2 -4q2 -1 6.5 -3.5t8.5 -4.5t8 -2q16 -2 17 -3q18 -6 22 -10q4 3 11 3q2 9 8 19q1 2 4 13t10 16q4 16 5 17zM289 138q2 6 2 11t-5 10q-6 3 -17 5.5t-17 6.5q-9 2 -19 6l-6 -10l-1 -1v-1l-1 -1l-1 -2l-1 -1v-1l-1 -1l-1 -1v-1l-1 -1l-1 -2l-1 -1v-1
l-1 -1q-8 -3 -8 -7q0 -6 3 -6q-3 -9 -11.5 -25t-10.5 -23l1 -1q1 0 4 1t4 1q10 10 31 13q4 3 10.5 6t8.5 4q15 5 17 5l9 7q2 1 5.5 5t5.5 5q2 2 3 2z" />
    <glyph glyph-name="percent" unicode="%" horiz-adv-x="614" 
d="M576 402q-4 -9 -9 -13h-1v-1l-1 -1h-1v-1h-1v-1h-1l-1 -1l-1 -1h-1v-1h-1v-1h-1l-1 -1v-1h-1q-5 -4 -6 -16q-13 -6 -24 -22.5t-23 -21.5q-2 -6 -7.5 -14t-6.5 -10q-4 -1 -9 -3.5l-9 -4.5q-4 -1 -4 -6v-2q-4 -9 -18 -17q-6 -4 -6 -9v-4q-11 -9 -32 -13q-7 -1 -7 -9
q0 -5 -2 -13q-1 -1 -7.5 -11.5t-16.5 -12.5q-5 -8 -18.5 -19t-19.5 -20q-2 0 -4 1h-2q-2 -3 -7.5 -11.5t-10.5 -13.5t-12 -7q-9 -17 -36 -29q-3 -15 -33 -45q-4 -4 -8.5 -7t-7 -6t-5.5 -10h-13l-1 -10q-5 -9 -9.5 -14t-10.5 -9t-7 -5q-7 -7 -16 -17.5t-14 -17.5l-6 -6v1
q-2 -2 -5.5 -4t-5.5 -3q-20 -16 -33 -16q-10 0 -23 6q-5 13 -5 21q0 14 21 34l16 16q3 -1 6 -1t4 1.5t0.5 4t2.5 7.5t10 11q3 10 16 13l18 19q3 3 10 9t10.5 10.5t7.5 14.5q2 5 5.5 8.5t8.5 7.5t7 6q4 4 9.5 10.5t9.5 10.5t8 6q13 13 22 24q8 4 31 32q2 3 5 6q4 6 17.5 18.5
t18.5 23.5q3 1 6 1l3 -1q2 0 6 4l-2 11q40 34 53 49q7 -3 11 -3q2 0 6 2q0 8 3 16q5 9 24.5 28.5l22.5 22.5l-6 4q-23 -13 -47 -19h-2q-2 0 -5 2.5t-4 2.5q-2 0 -9 -5t-10 -6q-13 -5 -17 -5t-7 1q-10 -6 -25 -6q-7 0 -21 2l-6 -6q-6 -4 -6 -21q-4 -5 -6.5 -14t-9.5 -14
q-1 -16 -29 -32q-1 -5 -6 -10l-9 -9q-1 0 -9.5 -6.5t-17.5 -8.5q-12 -14 -29 -18l-16 -7l-5 3l-5 3q-3 -1 -8 -8t-11 -9q-14 -2 -25 -2q-12 0 -27 5l-13 1q-3 5 -12.5 13.5t-13.5 15.5q-2 10 -5.5 22t-3.5 15q0 8 5 18v3q0 6 3 12q0 1 34 65q2 1 15 17q3 4 38 28
q33 22 38 24q19 12 44 12h4h5q3 0 8.5 -0.5t7.5 -0.5h4h2q6 0 12 -17q1 -1 3 -1l2 1q2 1 5 2t6 1q4 0 8 -4q5 -9 12 -9q1 1 2 1q6 0 14 -5q7 4 12 4q1 0 4 -1t7 -1h6q6 0 13 0.5t8 0.5q3 0 13 -2q12 5 54 14l6 1q6 1 8 3q2 -1 6 -1q2 0 6 3t10 5q11 10 33 14t28 10
q12 6 21 6q11 0 26 -9q12 -17 12 -31q0 -9 -4 -16zM239 355q-2 6 -11 12t-12 9q-25 -2 -31 -8q-7 -10 -21 -16q-4 -4 -8 -10.5t-9 -10.5t-15 -7h-2q-3 0 -3 -1q1 -1 1 -2q0 -2 -1 -3q-7 -18 -9 -22q-9 -4 -9 -12q0 -9 -4 -10q-3 -2 -4 -13v-2q0 -1 1 -8t1 -9q4 -4 9 -4
q2 0 3 1v-1q7 4 18 8q2 -1 5 -1t5 1.5t6.5 5t10.5 6.5h2q2 0 5 -1t4 -1t2 1l6 11q9 9 16 11q4 4 11.5 9.5t10.5 8.5q1 3 5 7q17 18 17 51zM587 99q-3 -5 -3 -9q0 -1 1 -3.5t1 -5.5q0 -5 -1 -8q-2 -1 -5 -7t-8.5 -15t-12.5 -16q-5 -5 -12 -11.5t-9 -8.5q-3 0 -20 -17
q-9 -6 -43 -24q-3 -1 -10 -1q-1 -1 -7 -8q-16 -6 -29 -6q-6 -2 -7 -2t-7 2l-12 -3q-2 1 -7 1q-2 0 -5 -0.5t-4 -0.5q-7 0 -14 6q-3 2 -3 6t-1 7q-2 1 -9 1q-4 0 -5 -1q-1 2 -4 6t-5 7.5t-3 7.5q-4 15 -4 22q0 4 2 22q0 14 9 34l11 3q0 1 -2.5 4t-2.5 5q0 3 1 4q7 11 23 33
q2 2 8 10.5t11 10.5t8.5 6t7.5 9t6 7q4 2 6 2q1 0 3 -0.5l2 -0.5q2 0 6 2q2 4 2 7q0 4 4 5q1 1 3 1q1 0 2 1l2 2q19 6 21 6q7 0 16 -9q3 1 8 1q4 0 10 -2q15 -4 44 -19q22 -11 23 -15q2 -3 4 -8.5t3 -8.5l2 -4q1 0 1 1q1 -3 1 -8q0 -1 -1 -4.5t-1 -4.5q0 -3 5 -11zM532 81h1
q-9 5 -9 10q-2 17 -3 17q-4 11 -20 19h-4q-8 0 -12 4l-2 1q-1 0 -3 -6q-2 0 -13 -4v-1h-1q-1 0 -1 -1h-1q-1 -1 -2 -1l-1 -1q-2 0 -3 -1h-1q0 -1 -1 -1h-1v-1h-1q-7 -4 -12 -12q-3 -1 -5 -1.5t-3 -2t-1 -3t-1.5 -4t-3.5 -5.5q-2 -1 -4 -1l-2 -2h-1q0 -8 -4 -12
q-10 -16 -13 -38q0 -18 7 -22q2 1 5 1l6 -2q1 0 1 1v1q0 1 12 3q3 1 8 1q2 0 6 -0.5t5 -0.5v0q3 2 3 4t-1 4l-1 1q0 2 5 2l10 1q1 4 4.5 7.5t8 7t5.5 4.5q12 3 30 32q0 1 7 1t7 1z" />
    <glyph glyph-name="ampersand" unicode="&#x26;" horiz-adv-x="555" 
d="M553 121q-5 -17 -12.5 -24.5t-24 -13t-23.5 -9.5q-1 -1 -3 -1t-5 3.5t-4 3.5l-1 -1q-2 -2 -4 -7.5t-5 -7.5q-10 -6 -31 -14l-17 -6q0 -1 1.5 -3.5t3 -7l3.5 -10.5q8 -6 9 -16q2 -6 2 -10q0 -12 -21 -30q-26 0 -39 25q-18 18 -25 29h-1l-1 -1q-4 -2 -7 -3l-1 -1l-1 -1
q-1 0 -2 -1h-1h-1q0 -1 -1 -1h-1q0 -1 -1 -1t-2 -1t-3 -1q-6 -3 -14 -3q-7 0 -11 1q-8 -5 -25 -10t-24 -9q-16 -1 -35.5 -3.5t-23.5 -2.5q-13 0 -25 3q-12 -5 -23 -5q-9 0 -36 4q-3 0 -13 2t-14 3q-7 2 -8 8v4v3q-2 0 -9 -4t-10 -4t-5 2q-4 6 -24.5 18.5t-20.5 26.5v3
q-5 13 -5 22q0 8 4 27q3 3 7 19.5t18 21.5q7 18 27 26h1h1h1q3 0 7 12q2 4 10 11.5t10 10.5q6 2 18.5 9t20.5 9q7 15 28.5 24t26.5 20q2 1 13.5 9.5t18.5 11.5q-11 36 -12 50q-3 4 -3 12q0 7 2 15v1l3 2q3 2 6.5 4.5t3.5 3.5v1l-2 1l-5 2.5t-4 2.5q1 13 10 29q17 27 30 34
q3 3 19 9h1.5t1.5 1.5t1 5.5q18 8 26 8h4q10 0 17 -7q10 -9 10 -13t-3 -13q-6 -21 -25 -25q-8 -1 -16.5 -18t-8.5 -28q0 -14 10 -27q0 -8 -1 -10q1 -3 4 -3q-1 -3 8 5q7 7 7 8q1 0 2 1q1 0 2 1h2q1 1 2 1q1 1 2 1t2 1q1 0 2 1h2q1 1 2 1q1 1 2 1l12 12q3 3 17 13q3 1 8 1
q13 14 16 19q19 10 19 18q0 5 -8.5 12.5t-18.5 8.5q-20 3 -23 14q-1 3 -1 9q0 15 14 23q7 5 15 5q7 0 10 -1q19 7 30 7q10 0 24 -11l7 -5q39 -23 40 -32q1 -7 1 -17t-1 -15q-18 -28 -20 -30q-1 -1 -7.5 -6t-10.5 -7q-18 -14 -43 -39q-2 0 -3.5 -1t-2.5 -1q-4 0 -14 -10
t-15 -12q-1 -1 -4 -1q-7 0 -13 6q-1 -2 -2.5 -6.5t-3 -7.5t-4.5 -5q-7 -1 -12.5 -5t-12.5 -10.5t-10 -8.5q-2 -2 -2 -4q4 -4 6 -10v-1v-1v-1l1 -1v-1v-1l1 -1v-1v-1l1 -1q2 -11 13 -17q4 -7 4 -15q0 -4 2 -14q2 -7 6 -8q13 -8 19 -26q8 -9 8 -27q3 -3 7.5 -10.5t9.5 -13
t10 -7.5q2 -2 2 -3v-1l18 13q5 0 7 -1h1q1 2 5 4l6 3q9 7 17 9q4 3 15 7.5t15 10.5l11 6q11 7 18 9q3 0 6 0.5t4.5 1t3 0.5h2.5q5 0 7 -1t6 -3.5t6 -3.5q6 -6 7 -10q0 -4 1 -6v-1q1 -1 1 -3q1 -1 1 -4zM324 65q-1 3 -4 17l-1 4v0l-1 1q-2 0 -8 12q-23 27 -24 41v2q0 1 2.5 6
t3.5 8q-2 1 -8 2t-8 3q-8 8 -11 19q-4 2 -6.5 4t-4.5 4t-3.5 5.5t-2 5l-2 6t-1.5 6.5q-12 -8 -31 -12q-11 -26 -47 -38l-9 -12q-4 -4 -33 -19q-39 -12 -39 -44q0 -13 8 -32q14 -10 15 -10q3 0 5 1q14 -9 26 -9h2h3.5t5.5 0.5t9 0.5h12q12 0 25 -3q5 3 25 7l1 -1l1 -1l2 -2
l1 -1l1 -1q3 -3 5 -3q2 2 4.5 6t3.5 6q16 7 44.5 12.5t38.5 8.5z" />
    <glyph glyph-name="quotesingle" unicode="'" horiz-adv-x="146" 
d="M268 515q-4 -1 -12.5 -4t-12.5 -5l3 -8q-11 -10 -23 -11l-2 -4q1 -3 1 -6q0 -9 -17 -17h-1h-1v0v0v0q-4 -4 -7 -6q-6 -5 -12 -7q-1 -4 -5 -4t-6 1q-2 -12 -6 -18q-3 -7 -12 -13.5t-10 -9.5q0 -12 -16 -22l-5 -3q-8 -5 -13 -5q-7 0 -23 12q-1 5 -1 15q0 21 13 39
q5 7 18.5 21t19.5 21q6 12 24.5 31t22.5 24q4 6 14.5 13t14.5 13q10 7 24 7q18 0 30 -10q12 -11 12 -23q0 -10 -12 -21z" />
    <glyph glyph-name="parenleft" unicode="(" horiz-adv-x="274" 
d="M397 559q1 -2 1 -7t-18 -44q-7 -2 -17 -16t-22 -17l-22 -24q-5 3 -7 3q-2 -1 -5 -2q-2 0 -3 -3t-2 -7.5t-3 -7.5t-8 -8t-9 -9q-7 -2 -21 -18q-3 -3 -6.5 -8t-10.5 -14.5t-16 -20.5q-8 -15 -17 -21q-1 -5 -1.5 -8.5t-2.5 -6t-3 -4t-4.5 -5.5t-6.5 -7q-1 1 -4 1q-4 0 -4 -8
q0 -3 1 -8.5t1 -7.5l-20 -21l-2 -14q-1 0 -6.5 -12t-8.5 -15q0 -4 -7 -6.5t-8 -3.5q-2 -4 -2 -7q0 -2 0.5 -5t0.5 -4v-3q2 -6 2 -9q0 -8 -16 -22q7 -3 7 -10q0 -13 -13 -31q2 -4 2 -5q0 -2 -10 -13l5 -14q-3 -2 -3 -8v-1v-6v-1v-2v-1v-1v-2v-9.5v-6.5l1 -3q0 -4 -2 -10
l3 -15q4 -15 6 -24q4 -6 10.5 -19.5t12.5 -21.5q5 0 10 -2.5t7.5 -4.5t7 -8t5.5 -7h4q26 0 26 -21q0 -24 -28 -36q-30 6 -45.5 13.5t-34.5 27.5q-6 4 -10 10.5t-7.5 16t-5.5 13.5v1h-1v0v1v1v0l-6 3q-1 5 -4 15t-5 14q-1 1 -1 3q0 1 10 9q-1 2 -8 7.5t-8 8.5q-2 12 -2 18
t2 18q-4 7 -4 16q0 7 1 11q6 6 6 17q0 2 -0.5 6.5t-0.5 6.5q0 12 6 20q-1 3 -1 10t7.5 26.5t7.5 27.5v6q34 78 36 82q3 4 7 4q2 0 4 -1t3 -1q4 0 8 4q-1 2 -4 4.5t-5 5t-2 3.5v1q2 6 7 14t10 15t6 8q4 7 13 22t16 25t16 18q6 12 16 18v2v1v1v1q0 3 2 9q13 3 19 9q-1 2 -1 6
q0 12 16 16q2 7 7 13t13 12.5t12 10.5t9 10.5t10 11t12 8.5q1 4 2.5 7t3 4.5t5 3t4.5 2t6 1.5t6 1q14 22 32 26q7 4 15 4q19 0 26 -26z" />
    <glyph glyph-name="parenright" unicode=")" horiz-adv-x="275" 
d="M249 367q-2 -10 -2 -17q0 -5 -2 -17v-19q0 -68 -7 -89q-2 -7 -6.5 -23t-7.5 -24q-9 -17 -13 -38q-2 -17 -16 -35q0 -12 -10.5 -28t-10.5 -18q0 -4 1 -5q-5 -12 -12 -19q-2 -2 -8 -2q-5 0 -7 -2v-3q0 -2 1 -5.5t1 -5.5q0 -3 -1 -4q-9 -16 -31 -40t-26 -29q-7 -2 -25 -19.5
t-30 -21.5q-44 -29 -71 -29q-14 0 -22 1q-1 1 -8 4t-9 5q-4 4 -4 11l1 2v5v6q0 10 6.5 18t18.5 8q5 0 8 -1q1 -1 2 -1l15 10q16 10 24 10q4 0 6 -1h1q4 0 5 7q10 6 40 32q3 0 8.5 -1.5t8.5 -1.5l2 9q0 3 -4 7q5 6 9.5 12t8 10t8.5 10q1 5 19 33q1 2 8.5 8t7.5 11v2
q3 5 5 14.5t11 16.5q4 2 8 3l5 1q1 1 3 1q1 0 1 -1q-9 11 -9 13q0 1 2 3q-3 6 -3 10q-1 1 2 6.5t6.5 12t3.5 9.5q-2 14 -2 15q0 4 5 16q-1 3 -1 8q0 16 16 48q-3 17 -3 22t5 17q-4 23 -4 34v1v4v1v1v1v1q0 2 2 12q-3 5 -3 12q0 2 0.5 6t0.5 5q0 6 -4 10q-2 10 -2 13
q0 9 -1 15q0 2 2.5 6t2.5 5v1q0 3 -8 3q-4 0 -6 -1q-1 7 -1.5 11t-2 8t-2.5 6t-4 7.5t-5 8.5l-1 17q-3 2 -3 3t3 4l1 1l2 2v1q0 2 -1 3l-15 5l-9 8q-3 13 -3 23q0 24 17 34q9 6 19 6q28 0 37 -31q12 -5 12 -16q5 -3 7 -8t3.5 -12.5t2.5 -10.5q2 -9 8.5 -22.5t6.5 -19.5
q0 -7 -1 -11q-2 -6 -2 -8t1 -3l3 -3q2 -3 4 -5v-2q0 -2 2 -11.5t2 -13.5q5 -10 5 -19q0 -5 2 -19z" />
    <glyph glyph-name="asterisk" unicode="*" horiz-adv-x="367" 
d="M392 377q1 -2 1 -7q0 -7 -5 -17q-15 -11 -19 -14q-2 -1 -6 -1h-3q-2 1 -4 1q-4 0 -6 -1q-9 -9 -20 -9q-27 -7 -28 -8q-3 -1 -10 -2t-10 -3l-1 -4q14 -11 22 -16q2 -2 10 -8q2 -2 5.5 -3.5t4.5 -2.5q16 -16 17 -25q2 -10 2 -11q0 -4 -5 -11q-9 -6 -18 -6q-4 0 -10 2
q-16 7 -19 10q-2 3 -3.5 7.5t-2.5 5.5q-2 1 -6.5 2.5t-7.5 3t-5 4.5q-7 2 -13 11t-7 10l-3 -2q-1 -2 -3 -9.5t-4 -10.5q-2 -10 -2 -11q0 -2 -5 -9v-4q0 -5 -8 -16q-1 -1 -2.5 -9.5t-5.5 -12.5q-7 -13 -24 -13q-7 0 -10 1q-11 8 -11 14v2v6v1v3v1v1v1v1v1l11 9h-5q-1 2 -1 5
t3.5 10.5t4.5 13.5q0 2 2 7l5 12.5t5 13.5v1h-1h-2q-1 -1 -3 -1h-1q-1 -1 -4 -1v-1q-3 0 -4 -1h-1q-3 0 -4 -1q-3 0 -4 -1q-11 -3 -16 -8l-17 -4q-13 -8 -15 -8q-1 -1 -6 -1q-1 0 -11 2q-1 0 -8.5 2.5t-10.5 5.5q-5 5 -5 15q0 14 7 22q6 2 12 5t12 4q1 1 4 1q1 0 5 -1t7 -1
q6 0 11 8q8 1 20.5 2.5t20.5 3.5l2 2q0 1 -1 1l-5 3q-5 3 -11.5 7t-9.5 5q0 5 -1 7t-5 3t-6 2q-17 7 -19 14q-15 7 -15 24q0 10 9 17q9 6 20 9q27 -5 38 -16q5 -5 7 -14q15 -2 19 -9l18 -22l3 2q6 21 9 30q2 2 6.5 5t6.5 5q0 2 -2.5 5.5t-2.5 5.5v2q2 9 6 21l5 15
q6 17 19 17h5q8 5 15 5q12 0 21 -13q5 -7 5 -12q0 -6 -6 -15q-4 -7 -6 -14q0 -2 -4.5 -5t-4.5 -4l-2 -6q0 -2 1 -3h1q0 -1 -4 -4q-2 -9 -5 -12.5t-3 -5.5v-3q0 -5 -5.5 -13.5t-5.5 -9.5v-2q0 -1 2 -1q6 2 26 11.5t25 11.5q3 -1 6.5 -2.5t5.5 -2.5t4 -1l2 9q11 7 25 7
q2 1 6 1q14 0 20 -14z" />
    <glyph glyph-name="plus" unicode="+" horiz-adv-x="394" 
d="M394 208q1 -3 1 -10q0 -10 -7 -16q-6 -4 -10 -5q-8 -1 -78 -18q-6 -3 -11 -3q-1 0 -4 0.5t-5 0.5q-4 0 -10 -2q-7 -4 -14 -4q-1 0 -5.5 0.5t-6.5 0.5q-7 0 -10 -1q-7 -3 -9 -4v-2q0 -6 -7.5 -14t-9.5 -12q1 -1 1 -5q0 -13 -12 -19q-2 -6 -2 -9v-6q0 -8 -7 -15
q0 -8 -4 -12q0 -5 -4 -13.5t-4 -12.5q-5 -3 -9.5 -7t-8.5 -6.5t-10 -2.5h-5q-18 0 -18 20q0 7 5 19l-2 12q7 7 7 14t6 16q0 3 -0.5 5.5t-0.5 4.5v1q0 4 4 8q2 4 2 7q0 5 1 8q1 2 2 8t3 9l-5 2h-5h-1h-1h-1q-2 0 -6 -2q-5 3 -9 3q-6 0 -9 -1t-9 -1q-7 0 -18 3q-8 1 -24 1
q-12 0 -20 5q-9 5 -9 23q5 19 36 29q9 4 16 4q11 0 18 1q4 0 17.5 -0.5t15.5 -0.5q29 0 44 4v1q2 3 3 10q0 4 2 10q0 1 1 2q0 1 1 2v2q1 1 1 2q1 1 1 2q1 2 8 5t8 5v1q0 2 -4.5 6.5t-4.5 7.5q4 4 4 10v4q0 5 6 10q5 11 8 15.5t10.5 9t18.5 4.5h8q3 -2 9 -4.5t9 -4.5t6.5 -6
t5.5 -9q4 -4 4 -9q0 -4 -4 -15l-13 -12l2 -2q-4 -7 -4 -14q-8 -6 -8 -18q-1 -8 -6 -13q7 1 19 1q10 0 12 -1q1 0 18 3q4 1 8 1.5t6 0.5t4 0.5t3.5 0.5h2.5t3 -0.5t5.5 -1t8.5 -0.5q7 1 20 1q20 0 30 -12z" />
    <glyph glyph-name="comma" unicode="," horiz-adv-x="159" 
d="M144 24q-4 -5 -9.5 -16t-9.5 -15q-5 -6 -17.5 -25t-23.5 -28q-4 -5 -15 -21t-17 -22t-18.5 -12.5t-28.5 -6.5q-18 7 -18 20q0 4 3 10q10 21 19 24q3 2 6 11t9 13q5 7 15 8q-2 6 -2 7q0 3 3 4q1 4 4.5 11t3.5 10q5 19 16 19h2l3 2q17 33 17 46q9 15 22 15q16 0 27 -14
t11 -27q0 -3 -2 -13z" />
    <glyph glyph-name="hyphen" unicode="-" horiz-adv-x="421" 
d="M408 204q-6 -19 -35 -21q-6 2 -10 2q-9 0 -33 -6q-6 2 -8 2q-4 0 -6 -1h-7.5h-6.5l-2 1q-7 0 -11 -4q-12 -3 -18 -3q-4 0 -12 2q-4 -7 -13 -7q-1 0 -5 0.5t-7 0.5q-7 0 -10 -1h-25q-13 0 -28 -3q-5 -2 -14.5 -4t-14.5 -3q-21 -5 -41 -5q-11 0 -16 1q-2 1 -12 3t-16 4
q-15 5 -15 21q0 10 10 23t28 13q8 3 13 3t15 -2l11 -8q4 2 5 3l6 6q11 1 36 5q6 0 14.5 1.5t10.5 1.5q5 0 13 -3q6 0 12.5 -4t7.5 -4t2.5 1.5t3 4t2.5 3.5q15 4 34 4l9 -1q5 0 12 3l60 -1q2 -1 5 -1q2 0 6.5 1.5t7.5 1.5q4 0 7 -1h5q8 0 19 -4q5 -3 7 -7t2.5 -10t1.5 -8z
" />
    <glyph glyph-name="hyphen" unicode="&#xad;" horiz-adv-x="421" 
d="M408 204q-6 -19 -35 -21q-6 2 -10 2q-9 0 -33 -6q-6 2 -8 2q-4 0 -6 -1h-7.5h-6.5l-2 1q-7 0 -11 -4q-12 -3 -18 -3q-4 0 -12 2q-4 -7 -13 -7q-1 0 -5 0.5t-7 0.5q-7 0 -10 -1h-25q-13 0 -28 -3q-5 -2 -14.5 -4t-14.5 -3q-21 -5 -41 -5q-11 0 -16 1q-2 1 -12 3t-16 4
q-15 5 -15 21q0 10 10 23t28 13q8 3 13 3t15 -2l11 -8q4 2 5 3l6 6q11 1 36 5q6 0 14.5 1.5t10.5 1.5q5 0 13 -3q6 0 12.5 -4t7.5 -4t2.5 1.5t3 4t2.5 3.5q15 4 34 4l9 -1q5 0 12 3l60 -1q2 -1 5 -1q2 0 6.5 1.5t7.5 1.5q4 0 7 -1h5q8 0 19 -4q5 -3 7 -7t2.5 -10t1.5 -8z
" />
    <glyph glyph-name="period" unicode="." horiz-adv-x="187" 
d="M116 53q4 -11 4 -25q0 -17 -12 -33q-6 -7 -11 -7q-1 0 -2 0.5t-2 0.5q-4 0 -7 -4q-6 -2 -9 -2l-2 1q-2 0 -6 0.5t-8 0.5h-1h-1h-1l-1 1h-1h-1h-1h-2h-1h-1h-1l-1 1h-1h-1h-1q-22 19 -22 47q0 7 1 10q12 29 48 29q32 0 44 -20z" />
    <glyph glyph-name="slash" unicode="/" horiz-adv-x="307" 
d="M502 515l-16 -28q-14 -4 -18 -18q-4 -11 -11 -18t-19 -14t-17 -12q-8 -6 -15 -22h-1v1h-2v1h-1h-1v1h-1h-1v1h-1q-6 2 -7 2h-1q-2 -2 -2 -6v-6q0 -5 -3 -10q-5 -4 -12 -12.5t-12 -12.5l-5 -9q-14 -3 -20 -16.5t-21 -21.5v-1q-28 -28 -41 -28q-1 -3 -5 -8t-12 -23
q-11 -6 -14 -9q-1 -2 -5 -6q-3 -17 -20 -24.5t-19 -16.5q-5 -8 -9 -12t-14 -9l-12 -6q-4 -10 -15 -18q-20 -35 -45 -47q-3 -11 -17 -17q-5 -2 -9.5 -6.5t-10 -11t-7.5 -8.5q-3 1 -6 1q-5 0 -5 -2q1 -1 1 -2t-2 -3q-6 -4 -16 -23.5t-27 -24.5q-9 -12 -9 -17q0 -4 1 -7
q-4 -5 -23 -17q-4 -8 -6.5 -11.5t-9 -8.5t-9.5 -8q-2 -1 -5 -3t-4 -3t-3 -4t-3 -7q-11 -11 -25 -11q-10 0 -19.5 7.5t-9.5 24.5q11 28 41 51q2 5 5 8.5t8.5 8t7.5 5.5q1 1 5 8t8 11q18 8 27.5 28.5t23.5 28.5q7 10 25.5 24t27.5 32q7 4 15.5 14.5t13.5 12.5q10 5 20.5 19
t13.5 15q36 46 47 54q11 11 23 16q3 2 10.5 14t15.5 18q3 2 13 15.5t21 17.5q6 12 33 31q4 14 23 29.5t21 28.5q12 7 45 40q2 4 26.5 27.5t28.5 29.5q15 19 35 19q6 0 13 -2t15.5 -11t9.5 -23z" />
    <glyph glyph-name="zero" unicode="0" horiz-adv-x="534" 
d="M504 205q-1 -9 -4 -24t-3 -23q0 -4 -15 -44q-4 -2 -19.5 -19t-21.5 -22q-6 -2 -47 -31q-7 -5 -13 -7.5t-13.5 -4.5t-13.5 -5q-6 -1 -12 -7l-17 2q-1 -1 -2.5 -6.5t-4.5 -7.5l-11 1q-7 -4 -14 -4q-4 0 -10 2q-2 -4 -13 -7.5t-12 -4.5q-14 2 -15 2q-4 0 -13 -6q-3 -3 -8 -3
q-3 0 -9 2q-2 1 -5 1q-1 0 -3.5 -0.5t-4.5 -0.5h-6q-8 -3 -12 -3t-16 3q-5 8 -8 8q-6 0 -14 -7q-23 8 -29 11q-21 7 -32 18q-3 2 -3 4v1q1 1 1 2.5t0.5 4t0.5 4.5h-12q-17 31 -18 42q-1 6 -2.5 14t-1.5 10v4q0 22 11 53q5 17 21 43q4 0 7 0.5t5 0.5v5v1v1v1v1v1q0 4 2 10
q2 11 15.5 20.5t16.5 15.5q5 10 32 27l7 -1q6 10 9 13q17 17 35 25q1 1 5 1q5 0 15 -5q2 4 2 6q0 5 1 6q1 2 1 5q7 2 17 7t18 7q3 3 19 5q17 3 20 3q8 0 13 -1q26 -3 32 -13q1 -1 1 -6q1 -1 4 -1l3 1h6q12 0 22 -6q27 -7 36 -22q23 -11 35.5 -21.5t28.5 -32.5q9 -12 16 -49z
M439 229l-16 6q-17 26 -33 34q-2 3 -12 6.5t-14 3.5q-15 5 -29 5q-9 0 -14 -1q-21 -2 -33 -6q-10 -6 -26 -13q-5 4 -9 4q-2 0 -3 -1l-3 -10q-1 -1 -4 -2.5t-7 -5.5q-6 0 -12 -3t-9 -5.5t-9.5 -8.5t-8.5 -7q-5 -5 -10 -7q-6 -8 -23 -22l-15 -17q-2 -3 -6 -8.5t-7 -10.5t-4 -8
l-1 -2q-1 -1 -2 -3l-2 -4h-3q-6 0 -6 -8q0 -3 1 -7.5t1 -5.5q0 -2 -1 -3q-4 -5 -4 -12q0 -1 1 -7.5t1 -11.5v-7q8 -14 8 -17v-3q2 -1 9 -8q12 -1 23 -7h6q5 0 8 -2h1q1 0 5 2h1q1 0 2.5 -1.5t2.5 -3t2.5 -4t2.5 -3.5q2 2 3.5 4.5t2.5 3.5l1 2h1h4q5 0 14 4q15 4 32 4l9 7
q12 1 25 6t21 5q2 1 5 1h2v-1h2v-1h1h1v-1h1h1q4 0 4 11h2q14 0 61 33q20 15 26 22q3 -1 6 -1q4 0 4 4q0 2 -1 5v2q0 1 1 2q12 9 19 35q3 7 3 13q0 10 -8 18q-1 1 -1 4q0 4 4.5 8t4.5 5z" />
    <glyph glyph-name="one" unicode="1" horiz-adv-x="287" 
d="M281 328l-7 -12q-7 -13 -9 -16q-2 -2 -7.5 -3.5t-7.5 -2.5q2 -6 2 -13q0 -8 -5 -13q-1 -2 -20 -38q-3 -5 -6 -12.5l-5 -12.5l-2 -5q-4 0 -10 -17q-8 -21 -17 -31q-1 -15 -12 -27q0 -20 -18 -38q0 -18 -25 -45q1 -1 1 -4q0 -7 -9 -28q-7 -22 -14 -27q-5 -12 -13.5 -19.5
t-15.5 -7.5q-8 0 -17 6q-14 14 -14 25q0 3 3 8l2 3q0 1 1 2l8 16v1v4q0 4 4 13t5 13q0 1 1 1q1 -1 2 -1v3v4q7 3 7 7q-1 2 -1 3q0 2 1 2v6q0 6 6 16t8 17q2 4 7.5 7.5t5.5 5.5l-1 4q-1 3 -1 5v2q3 6 7 20q2 13 13 22q3 11 17 41q2 1 10.5 18t12.5 21l-3 4l-8 -8
q-8 -8 -17 -14q-13 -14 -38 -26h-2q-22 0 -30 23q-1 2 -1 7q0 26 17 29q26 11 40 28q2 2 11.5 6t22.5 16q6 5 18 17t19 18l6 6q3 3 6 5q13 19 32 19q3 0 11 -2h1l1 -1h1h1l1 -1h1q1 0 2.5 -0.5t2.5 -1.5q1 0 2.5 -0.5t2.5 -1.5q16 -7 16 -30q0 -7 -3 -15z" />
    <glyph glyph-name="two" unicode="2" horiz-adv-x="458" 
d="M437 304q2 -12 2 -16q0 -11 -7 -26q-3 -11 -11 -11h-1q2 -2 2 -5q0 -2 -1 -3q-13 -15 -26 -23q-4 -2 -11 -4.5t-9 -3.5q-4 -11 -15 -19q-2 -2 -5.5 -5t-5.5 -5q-9 0 -13.5 -1t-6 -2t-5 -5.5t-7.5 -8.5q-6 -7 -21 -16l-4 1q-11 -11 -26 -16.5t-23 -16.5h-2q-5 0 -15 -8
q-22 -13 -25 -18q-8 -5 -14 -5q-3 0 -13 -2q-3 -6 -15 -15q-4 -4 -10 -7h-2q-2 0 -6 -2q-1 -1 -1 -3q1 -3 2 -3q14 2 22 2h4q4 0 6.5 1.5t3.5 1.5q3 0 4 -1q2 1 6 1q7 0 21 -7q11 8 16 9q11 3 24 3q8 0 11 -1q4 4 9 4q1 0 4.5 -0.5t6.5 -0.5h5q1 1 4 1t5 1h4q2 1 5 1t4 1
q4 1 11 1q8 0 12 -1q6 3 11 3q4 0 5 -1l1 -1q1 -1 1 -2v0l1 -1l3 -3l14 9q6 1 16 1q11 0 22 -3q6 2 10 2q14 0 23 -12q3 -6 3 -12q0 -11 -7 -19q-8 -9 -19 -9q-4 0 -12 3q-4 -2 -23 -5q-4 -7 -9 -7h-1q-7 0 -16 7q-11 -8 -21 -8h-4q-1 -1 -4.5 -2t-5.5 -1h-1h-1l-1 -1h-1h-1
h-1h-1l-1 -1h-1h-1l-21 -3h-9q-11 0 -15 -2q-3 0 -17 -1.5t-19 -1.5h-8q-6 -2 -8 -2q-1 0 -7 -2q0 1 -3 1t-8 -0.5t-9 -2.5q-29 -5 -58 -7q-1 1 -5 1q-6 0 -11 -5q-9 0 -14.5 -1t-7.5 -1.5t-3 -0.5q-7 0 -17 3q-1 -1 -5 -1q-14 0 -28 18q-9 14 -9 23t4 17t11 18t11 17
q13 6 26.5 15.5t17.5 11.5q3 3 7 3q2 0 8 -2l3 13q4 3 21 12t31.5 17t18.5 12q14 7 17 10q3 4 7.5 7t11 6.5t10.5 5.5q1 0 7.5 6t15.5 6q2 2 8 9t12 11.5t15 5.5q6 1 11 5t10.5 10t8.5 8q5 3 10 7.5t10 7.5q3 0 6 1.5t5.5 4t4 4.5t3.5 5t3 4q2 4 2 5q0 2 -2 4q-7 2 -25 4
q-4 1 -12 1h-6h-2h-1h-2h-2q-37 -7 -47 -10q-3 1 -7 1q-2 0 -4.5 -1.5t-6 -3.5t-8.5 -4q-2 0 -7 -1t-7 -2q-7 -7 -15 -7q-4 0 -6 1q-28 -9 -30 -9q-9 0 -25 5q-15 8 -21 24q-2 8 -2 13q0 18 20 32h5q3 0 9.5 2t10.5 2q2 1 11 2t10 2q15 5 37 5l24 3q3 1 9 1l1 1h4l1 1
q6 0 9 1q4 -4 8 -4t7 3q7 4 12 4t14 -5q8 2 12 2l8 -1q8 -2 20 -2q2 0 5.5 0.5t4.5 0.5q8 0 16.5 -2t13 -4t11 -5t7.5 -4q1 -2 3 -6.5t4 -6.5q9 -2 15 -19z" />
    <glyph glyph-name="three" unicode="3" horiz-adv-x="396" 
d="M379 284v-3q0 -11 -16 -27q-18 -18 -22 -23q-10 -10 -17 -13q-6 -3 -33 -21l-3 -3q-4 -3 -8 -5q-4 -5 -9.5 -9t-15 -9t-11.5 -6l-3 3q-1 -2 -4.5 -3.5t-5.5 -2.5l-1 -4q15 -5 33 -5q21 0 31 -9q7 0 14 -5q35 -27 39 -48q2 -12 2 -16q0 -32 -28 -51q-16 -21 -29 -22
q-8 -11 -18 -17q-3 -5 -6 -7t-10 -4.5t-9 -3.5h-1q-1 0 -9 -6.5t-18 -13.5t-16 -9q-8 -14 -23 -15h-2q-3 0 -6 -3q-4 -3 -7 -4q-5 -7 -11.5 -10.5t-16 -6.5t-14.5 -6q-2 -3 -5 -4.5t-7.5 -2.5t-6.5 -2q-3 -1 -8 -2t-7 -3q-6 2 -8 2q-4 0 -7 -2.5t-4 -5t-1 -3.5q-3 -3 -5 -3
t-2 2q-2 2 -3 2q-2 0 -3 -1q-2 -2 -4 -4.5t-3 -3.5t-3.5 -2.5t-5.5 -2.5t-11 -1q-5 0 -11 -3q-5 -4 -14 -4q-4 0 -10 2l-11 5q-8 9 -8 19q0 6 15 28q17 4 39 14v1q1 1 3 1v1q2 0 3 1q1 0 1 1l2 1l1 1q1 1 2 1q1 1 3 1q13 8 18 10q1 1 4 1l4 -1q4 0 12 2.5t9 5.5q1 4 9 10
q2 2 22 11q1 1 19 11l19 14q5 2 58 31q5 5 24 19t26 24q4 5 4 9q0 5 -6 8q-5 5 -8 5q-4 0 -5 1q-7 3 -12 3q-3 0 -4 -1q-8 2 -9 2h-2q-2 1 -5.5 1.5t-6.5 0.5q-14 2 -17 2h-7l-6 1q-3 0 -4 -1l-16 1q0 -1 -14 -6q-3 1 -7 1q-1 0 -25 -6q-10 -2 -17 -2h-4h-4.5t-4.5 0.5
t-5.5 2t-5.5 4t-5.5 6.5t-4.5 10q-4 7 -4 16q0 11 9 20q14 2 16.5 6.5t4.5 5.5l12 4q2 0 2 -2q47 23 49 26q3 3 4 5t8 7q16 13 34 15q14 15 26 20h2q3 0 8 4.5t8 5.5q3 5 18 11l11 8q5 3 10 8.5t8 7.5l4 12q-2 2 -2 4q0 3 -7 3h-5h-1h-1h-1h-2q-4 0 -10 2h-2q-3 0 -6 3
q-4 3 -7 4q-1 -1 -3 -4t-4.5 -5t-6.5 -2q-8 -2 -12 -2q-3 0 -13 2q-1 0 -8 -5q-1 0 -2.5 -1t-2.5 -2t-2 -1q-4 4 -8 4q-3 0 -6 -3l-6 -6q-2 -2 -9 -4q-26 -7 -30 -8q-8 -5 -14 -5q-1 0 -5.5 0.5t-9.5 0.5h-7q-12 11 -19 23q-2 8 -2 12q0 10 4 19q4 13 22 15l9 6h-1q7 2 19 4
t17 3q17 4 22 4q10 2 12 2q3 0 7 2q6 3 31 5q10 -2 12 -2q3 0 8 1.5t9 1.5q3 0 13 -2q8 3 16 3q4 0 15.5 -3t20.5 -4q2 0 4 -1.5t4.5 -4t5.5 -4.5q4 0 16.5 -6t16.5 -11q9 -11 9 -21v-4q5 -5 5 -10q0 -4 -3 -8z" />
    <glyph glyph-name="four" unicode="4" horiz-adv-x="524" 
d="M512 117q-7 -16 -38 -24q-10 -2 -11 -2h-3q-6 2 -8 2q-4 0 -5 1q-6 -9 -16 -9l-3 1q-4 0 -9.5 0.5t-11.5 0.5q-2 -1 -6.5 -3t-7 -3t-5 -4t-2.5 -7l-7 -5q-2 -5 -6 -17q-2 -5 -27 -53q-1 -11 -8.5 -23t-12.5 -13l-4 -15q-8 -8 -15 -8q-2 0 -10 2q-15 9 -15 25q0 4 1 6v0v1
l1 1v1v1q1 1 1 2q1 2 1 5v15q2 2 3.5 5.5t2.5 5.5q4 7 13 13v1q0 2 -3 5t-3 4v1q10 28 13 33q1 1 1 2t-1 1q-2 2 -3 2h-1q-2 0 -5 -1q-4 -1 -5 -1t-7 2q-15 -4 -26 -4h-6q-4 -1 -9.5 -3t-9 -3t-6.5 -1q-4 0 -6 1q-3 1 -8 1q-6 0 -18.5 -4.5t-20.5 -5.5q-1 0 -6 -1l-10 -2
t-8 -2q-1 0 -4.5 -0.5t-6.5 -0.5q-3 5 -5 5l-2 -1q-1 -1 -3 -1q-2 1 -7 1h-1h-2v0h-1h-1q-7 -7 -23 -7q-6 -2 -9 -2q-6 0 -13 3q-7 -4 -16 -4q-12 0 -25 8q-13 11 -13 33q0 8 1 13t4 8.5t5.5 5.5t9 6.5t11.5 7.5q4 0 6 -0.5t3 -0.5l1 -1h1q2 7 7 13q9 12 30 23q2 2 5 2l2 -1
q3 0 5 2q6 18 19 23q21 7 41 27q12 10 36 27q7 4 13 8t10 6.5t5 3.5q14 8 15 13q5 4 14.5 9t16.5 10t12 12q6 8 28 18l21 17l16 3q0 5 2 7q4 6 14 10q1 5 5 7t10 2.5t8 1.5l2 1v0l5 5q8 2 12 2q5 0 16 -3q21 -14 21 -35q0 -9 -4 -16q-2 -6 -2 -7q0 -4 7 -9q20 -5 20 -29
q0 -7 -13 -31t-15 -30q-4 -12 -4 -19v-2q-3 -3 -6.5 -9t-6 -10.5t-3.5 -4.5q-2 -3 -4.5 -5.5t-4 -4.5t-1.5 -3v-1q-3 -4 -3 -9l14 2q5 0 7 -1q9 3 19 3q14 2 21 2h8h1h1h1h1q26 -5 26 -18q0 -5 -4 -12zM393 265v1q0 2 -2 4q-1 1 -4 1q-4 -2 -9.5 -5.5t-9.5 -4.5
q-24 -24 -43 -29q-5 -5 -9 -5q-4 -6 -16.5 -13t-20.5 -14q-3 -3 -7 -5q-3 -2 -17.5 -13.5t-27.5 -17.5q-5 -11 -16 -11h-3q-5 -11 -12 -14q-5 -5 -8 -7q-1 -1 -2 -1l-1 -1q-1 0 -2 -1t-2 -1q0 -1 -1 -1l-17 -9l1 -6q3 0 14 4.5t16 4.5q6 0 13 -3h3q4 0 17 4t15 4q6 0 15 -3
l4 -5l19 11q8 0 11 -1q7 4 14 4h6q7 0 12 1q3 0 8 0.5t7 0.5q3 4 6.5 13t4.5 12t2.5 6l2.5 5l2 4t1.5 3.5t0.5 2.5l1 1q3 8 13 22q4 2 5 17t6 20q8 8 8 14q0 5 2 11z" />
    <glyph glyph-name="five" unicode="5" horiz-adv-x="406" 
d="M493 361q0 -4 -0.5 -7t-1 -5.5t-2.5 -5.5t-2.5 -4.5t-3.5 -3.5t-3.5 -3t-4.5 -3t-4.5 -2.5t-4.5 -2.5l-5 -2q-1 -1 -3 -1t-3 2.5t-3 2.5t-3 -1h-1l-3 -5q-3 -4 -4 -4q-6 2 -11 2h-2q-6 -2 -17 -4.5t-17 -4.5q-1 1 -5 1q-10 0 -11 -6l-10 2q-1 0 -16 -7q-18 -11 -24 -11
t-13 3q-3 -1 -7 -1l-4 -1q-3 0 -10 -4q-6 -3 -16 -5q-1 -1 -2 -1q-2 0 -5 2t-4 2h-2q-2 0 -5.5 -5.5t-6.5 -5.5q-30 -7 -37 -13q-6 -4 -15 -15t-15 -16q-2 -8 -10 -13l-4 -3q-5 -4 -8 -7.5t-3 -7.5q-7 -4 -14 -13.5t-12 -13.5q-3 -5 -5 -15l4 -6q6 2 8 2l2 -1h2q3 0 9 2
q3 1 11.5 3t13.5 6h3h1h1h3q32 0 40 6q4 4 11 4q5 0 13 -3q9 -4 16 -4h3q3 1 5 1q7 0 11 -1q39 -16 48 -39q3 -2 4.5 -4.5t2.5 -6.5t2 -6v-4q0 -4 2 -6q1 -1 1 -3v-5q0 -3 1 -4l1 1q1 0 1 -1l-8 -20l-7 -20v1v1q-9 -3 -18 -18.5t-27 -18.5q-5 -3 -18.5 -20.5t-30.5 -17.5h-5
l-25 -24l-8 -2q-8 -11 -19 -11q-5 -4 -12 -4q-4 0 -6 1q-6 -4 -21.5 -16.5t-17.5 -13.5q-7 -4 -16 -4q-5 -3 -9 -3h-4q-4 0 -5 -1q-3 -5 -17 -11q-7 -6 -14 -8q-2 -10 -18 -16h1q-10 -2 -14 -2h-7h-1h-1h-1h-1h-1q-7 -6 -15 -6q-11 0 -18 11q-4 5 -4 14q0 15 12 26
q6 6 21 13t21 12l10 3q1 0 9 7.5t17 7.5q3 2 15.5 10t16.5 14l16 3q5 10 14 10q4 6 31 23q12 7 20 13q4 4 12.5 7.5t13.5 7.5q7 5 15 8t11.5 5t3.5 8q38 28 38 44q0 4 -1 6q-8 6 -13 6q-5 -1 -14 -1t-14 1q-16 0 -39 -7q-2 -1 -7.5 -3t-16.5 -5.5t-21 -7.5h-1q-2 0 -4.5 2.5
t-3.5 2.5h-1q-3 -1 -9.5 -6.5t-10.5 -5.5q-3 0 -4 1q-30 6 -40 14q-20 17 -20 48q0 15 3 27q2 9 5 18q16 21 23 36l2 1v0v0h1v0h2.5t2.5 3.5t4 11.5q9 10 18 19l8 8l-2 10q-2 2 -3 6.5t-3 6.5q0 23 23 32q26 6 33 6h6q4 2 11 8t10 8q13 8 22 8q8 0 16 -4q7 -9 11 -9t11 3
q2 1 9.5 3.5t13.5 5.5q8 -2 12 -2q6 0 19 4.5t22 5.5q12 3 24 4q53 7 62 10q3 -1 7 -1t19 5q29 0 42 -17z" />
    <glyph glyph-name="six" unicode="6" horiz-adv-x="517" 
d="M476 162q-8 -47 -27 -63q-4 -16 -24 -29q-5 -1 -10 -6l-6 -6l-3 -3q-12 -12 -27 -13q-7 -8 -17.5 -14.5t-23.5 -13.5t-20 -11l-9 4q-1 0 -2 -1q-3 -5 -7.5 -7.5t-13.5 -4.5t-10 -2q-26 -9 -60 -14q-5 1 -15 1q-5 0 -11 -1t-8 -1q-6 0 -14 3h-11q-18 0 -41 7q-4 3 -8 5
l-1 1h-1l-1 1h-1h-1l-1 1v0h-1h-1q-10 6 -15 14l-6 4q0 -1 1 -2q-11 7 -26 39v1q0 4 1 9q-1 0 -1 1l-2 1q-3 7 -3 11q0 2 2 8q-1 3 -1 8q0 9 6 23q1 8 6 17t7 18q2 17 13 26q3 3 7 16q4 5 14 19.5t18.5 24t17.5 16.5h6q0 23 25 35q12 9 16 13q1 4 5.5 9.5t9.5 10t10 9.5l5 4
l5 2l2 2q6 10 25 15q3 12 18 23.5t17 13.5q9 5 20 16t22 15q0 5 11 9q3 1 6 3t7 4.5t6 3.5q8 6 22 9h7q30 0 34 -25q2 -6 2 -10q0 -14 -19 -27l-5 -4q-1 -1 -3.5 -3t-4.5 -4q-10 -4 -22.5 -13t-16.5 -12l-11 -11q-45 -32 -53 -37q-2 -3 -6.5 -6t-6.5 -7q-2 -5 -14 -14
l-34 -30l1 -3q36 18 52 19q2 1 6 1h1q1 -1 3 -2t4 -1l3 8q10 2 26 6t22 4q9 0 18 -3l10 -7q3 1 3 4t3 3h1q14 0 57 -23q2 -3 14.5 -13.5t14.5 -18.5v-2l-1 -5l9 -5h-1q6 -7 6 -14l-2 -7q-2 -6 -2 -15q0 -2 4 -7zM408 171l1 2q1 3 1 8q0 6 -5 17q-7 12 -22 12q-5 6 -9 6h-3
q-3 -1 -6 -1h-6q-3 1 -10 1q-3 0 -9 -2t-10 -2q-2 0 -10 2q-8 -3 -14 -3q-3 0 -11 -2h-1q-2 0 -4 2l-3 2q-1 0 -2 -1l-7 -9q-12 -8 -20 -8q-9 -7 -23 -8q-5 -2 -10 -5l-9 -6q-12 -5 -19 -5t-13 6q-9 9 -12 9t-6 -3l-5 -5t-6 -8q-10 -10 -10 -13v-1q-8 -6 -8 -8v0v0l1 -1
l-2 -2q-1 -3 -3 -11t-4 -12q-3 -6 -9 -25l-2 -6q0 -2 2 -10q-4 -4 -4 -6v-1q1 -1 2.5 -3.5t2.5 -5.5q2 -8 2 -11q7 -12 20 -12l7 -2q3 -1 9 -1t10 -4l19 1l19 4q3 -1 9 -1q2 0 8.5 2t14.5 4q5 5 10 7.5t14.5 4.5t13.5 3q1 1 4 1q4 0 5 1q11 8 18 8q4 0 6 -1q32 30 51 35
q5 12 19 13q15 18 24 39q3 10 4 15z" />
    <glyph glyph-name="seven" unicode="7" horiz-adv-x="398" 
d="M416 292l-7 -18q-7 -17 -14 -24q-9 -8 -19 -10q2 -6 2 -7q0 -2 -8 -12q-2 -5 -5.5 -9t-8 -7.5t-6.5 -6.5l-16 3l3 -9q0 -1 -2 -7q-2 -5 -6.5 -10t-11.5 -10.5t-9 -7.5q-11 -12 -54 -50q-5 -11 -21 -18l-13 -12q-3 -3 -9.5 -11t-11.5 -13t-12 -8q-5 -9 -7 -9h-1q-1 1 -3 1
t-3 -1q-4 -1 -9 -20q-11 -18 -20 -27t-14.5 -11t-5.5 -3q-1 0 -2 -2t-2 -4.5t-2 -3.5q-5 -12 -19 -27q3 -6 3 -11q0 -8 -13 -24q-14 -9 -21 -9q-6 0 -19 6q-12 16 -12 32v4q0 13 7 29q5 12 10.5 19.5t8.5 10t3 5.5q0 6 3 8q2 6 34 43q3 4 9 11t7 8q12 7 28 25t29 29
q22 17 26 24l4 5q2 2 16 11.5t18 19.5q7 15 23 22l16 12q17 18 22 22q1 1 4 1h5q3 0 4 1t1 3q0 1 -0.5 3t-0.5 4t1 3q8 8 10 14.5t8 11.5q9 5 11 13q-1 1 -4 3q0 -1 -3 -1q-7 0 -18 3q-4 -3 -9 -4.5t-11.5 -2t-10.5 -1.5q-2 1 -7 1q-11 0 -19 -3q-3 -1 -9 -1q-3 0 -9 -2
q-10 -9 -18 -9q-4 0 -7 1q-1 0 -7 -2q-24 -2 -26 -2h-9q-4 -5 -13 -9t-18.5 -6t-11.5 -3q-6 -2 -9 -2q-2 0 -8 2q-2 -2 -33 -10q-31 1 -36 28q-1 3 -1 8q0 17 11 28q3 5 9 9t14.5 8t11.5 6l9 -5q11 7 24 7h8l8 -6v-1l1 -1l1 -1l1 -1l1 -1q1 -1 1 -2l11 11q14 6 19 6
q8 2 10 2q4 0 6 -1q7 6 15 6q3 0 11 -2q11 6 19 6q4 0 5 -1q12 4 57 9q3 0 11 2q4 -4 8 -7t5 -4q3 1 3 5v2q0 3 4 4q7 3 15 3q4 0 15.5 -3.5t19.5 -4.5l13 -10q14 -11 22 -53z" />
    <glyph glyph-name="eight" unicode="8" horiz-adv-x="426" 
d="M469 437q8 -12 8 -30q0 -37 -27 -55q-5 -7 -13.5 -13t-20 -13t-16.5 -10q-3 -12 -23 -20q-6 -6 -13 -7q-4 -8 -12 -8q-4 0 -5 1q-1 -1 -3 -7.5t-4 -6.5q-8 -6 -16 -8q-3 -4 -16 -12v-6q4 -2 5 -9q9 -6 14 -17.5t10 -14.5q5 -8 10 -22q16 -9 16 -32q4 -10 7 -10v1
q1 -3 6 -23v-7q0 -8 2 -10q-3 -6 -4.5 -15.5t-2.5 -12.5q-8 -22 -12 -25q-6 -13 -18 -16l-3 -1l-12 -11q-15 -7 -22 -13q-13 -11 -28 -16q-1 4 -3 4q-1 0 -7.5 -4.5t-11.5 -4.5q-16 0 -20 -5q-20 -7 -29 -7h-3q-14 -2 -15 -2q-7 0 -11.5 2t-5.5 2q-3 0 -11 -5q-6 -2 -10 -2
q-7 0 -11 6q-11 -3 -15 -3t-12 5q-3 0 -32 8q-3 1 -9.5 7t-14.5 8q-7 1 -9.5 11.5t-11.5 14.5l-6 32q4 4 4 10v2q0 2 -0.5 5.5t-0.5 7.5l5 17q3 4 14 23q10 16 21 27q3 3 7 3t8 2q4 4 6 10.5t5.5 10.5t13.5 5q4 6 9 11t9.5 8.5t16 12t22.5 17.5q4 2 18.5 11.5t20.5 13.5
q3 2 3 5q0 4 -4 7q-17 9 -21 25q-2 3 -6.5 10.5t-6.5 9.5q-9 8 -16 26q0 2 -0.5 9t-0.5 11v6q0 25 14 33v1q0 3 10.5 12t17.5 13l51 18l2 -1q2 -1 2 -2l1 -1l1 -1l1 -1l1 -1q1 1 3 4t4.5 5.5t6.5 3.5q16 4 26 4h4q1 1 4 1t7.5 -2.5t6.5 -2.5q4 0 8 4q2 2 5 2q1 0 6 -2t8 -2
h2l6 -2h1l2 1q1 0 3 -1t3 -1q8 -3 15.5 -14.5t7.5 -17.5q0 -5 -3 -10q-6 -17 -38 -17l-10 2q-2 0 -8 3q-2 0 -5 1q-4 1 -5 1h-1h-1h-1h-1v0h-1l-6 2q0 -4 -18 -4q-4 0 -8 -1.5t-7 -1.5q-2 2 -4 2q-1 0 -3 -2t-6 -2h-4q-2 -1 -6 -3.5t-6 -3.5q-1 -1 -5.5 -4t-7.5 -7l-1 -12
v-1q0 -1 2 -3l1 -1l1 -1l2 -2l1 -1q2 -5 3 -6l3 -3q2 -4 8 -12.5t12 -17.5q0 -2 1.5 -6t1.5 -5q4 -2 5 -2q3 0 6 -1q2 4 10.5 9t8.5 6l12 9q10 10 15 11q2 3 7 6.5t9 4.5l5 2l16 11q3 0 9.5 7t14 15.5t11.5 11.5q2 3 7 8t7 9l2 6l1 2q0 2 -1 3q-7 8 -7 15l1 3v5q0 6 -1 10
q3 23 26 23q9 0 17 -6l2 -1q3 -2 5 -4v-1l1 -1l3 -3l2 -2l1 -1q1 -1 1 -2q0 -2 -1 -4l-1 -3q0 -2 1 -3t3 -1q1 0 2 0.5t2 0.5t2 -1zM305 107q-6 12 -10 21t-5 12.5t-1.5 6t-1.5 3.5h-1l-1 1l-2 2l-1 1l-1 1q-1 1 -1 3q0 4 1 6q-13 10 -13 13q-11 5 -22 30v1q-1 -1 -4 -1h-2
q-3 0 -4 -1q-8 -6 -9 -7q-4 -8 -22.5 -18.5t-22.5 -15.5q-12 -9 -14 -11q-14 -14 -24 -18q-2 -2 -5 -7.5t-6 -8.5q-6 -8 -12 -10q-5 -15 -15 -25q0 -9 -3 -9h-1q2 -6 2 -13q0 -9 1 -10q13 -6 15 -17q13 -9 24 -9q6 0 9 1q5 1 13 1q4 0 11 -0.5t11 -0.5h12h2h1h2l2 1h1h1h1h1
h1h1h1h1h1h3l1 1h6q2 0 4 2l1 1l1 1l1 1l3 3l17 -2q32 22 37 27q11 0 11 8q0 3 4 36z" />
    <glyph glyph-name="nine" unicode="9" horiz-adv-x="470" 
d="M459 241q-3 -5 -8.5 -18.5t-12.5 -19.5q-1 -4 -3 -7.5t-2 -6.5q-27 -31 -30 -36q-1 -2 -13 -22q-14 -26 -15 -28q-5 -3 -8.5 -6.5t-6.5 -8.5t-5 -8q-1 -1 -2 -3.5t-3.5 -6t-7.5 -6.5v-2q0 -9 -22 -26l-8 -8q2 -6 2 -8q-1 -8 -18 -15l2 -2q0 -1 -1 -1v-1v-1h-1v-1
q0 -1 -1 -1v-1v-1q-1 0 -1 -1v-1h-1v-1q0 -1 -1 -1v-1q-1 -3 -8 -10l-6 -6l-5 -5l-2 -1q-3 -2 -17 -21q-5 -14 -14 -18q-3 -9 -11.5 -17t-9.5 -10q-4 -2 -13.5 -9t-16.5 -7t-14 3q-10 12 -10 21q0 7 3.5 12.5t10 13t10.5 13.5q0 14 18 27q5 3 8 14l18 31q5 3 12 12v1
q0 1 1 2v1h1v1q1 1 1 2q1 3 6 8q0 9 12 17l30 42v-1q4 4 26 40l12 17l19 24q5 17 18 32l1 3q0 1 -1 1q0 -2 -4 -2h-3q-6 -4 -15 -6l-4 -4q-4 -5 -10.5 -10.5t-11.5 -7.5q-2 -4 -8 -7t-7 -4q-6 -13 -15 -13q-4 0 -5 1l-10 -5q2 0 2 -1l-18 -18q-2 0 -9.5 -1t-10 -2l-7.5 -3
t-8 -5t-5 -8q-6 -1 -16.5 -7t-12.5 -6t-3 1q-2 -1 -3.5 -3t-4.5 -4q-4 -2 -15.5 -6t-15.5 -6q-12 -5 -23 -5h-1h-12h-1h-1h-2h-1h-1h-1h-2h-2q-10 6 -21 8q-20 14 -32 43q-4 12 -6 35l7 11q2 6 2 9q0 7 3 14q1 0 2 2l1 2v1q1 1 2.5 3.5t2.5 3.5l1 2q4 6 7 10q3 3 12 15.5
t15 16.5q8 10 28 19q1 0 2.5 4t6 8t11.5 6q5 5 50 34q21 16 35 22q11 7 28 11q1 0 1 -1q-1 0 -2 -1q7 2 16.5 7.5t17.5 7.5h1q2 0 7.5 -3.5t7.5 -3.5l10 8q7 4 12 4h10h9l23 -5q19 -14 25 -22q15 -20 15 -34q0 -10 -6 -22q4 -13 11 -15q1 -1 4 -1q2 0 5 1l2 1q3 0 7 -4
q3 -4 8 -9.5t6.5 -8t4 -7t3 -10t0.5 -13.5zM354 297q-4 3 -9 10t-7 10l-9 3h-1q-1 0 -4.5 2t-5.5 2h-2l-3 -2q-3 -3 -10 -3q-2 -1 -10.5 -3t-14.5 -7q-11 -6 -29 -14.5t-26 -12.5q-20 -11 -28 -19q-4 -3 -39 -31l-9 -12q-13 -17 -16 -20q-1 -2 -5.5 -7.5t-7.5 -10t-3 -7.5
v-2l-3 -10q0 -1 1 -1v-1h1h1l2 -6h1l7 2h3h1h2h1h2h1h2q10 5 21 5q2 1 9 6l10.5 7.5t9.5 5t12 2.5q10 8 26 14q10 10 22 14q29 19 30 19q4 1 10 6v1h1l1 1h1v1h1l1 1v0l1 1h1v1h1v1h1h1v1h1l10 8v-1q1 0 3.5 1t5.5 2t7 2q8 16 24 20q9 6 9 15q0 3 -3 6z" />
    <glyph glyph-name="colon" unicode=":" horiz-adv-x="211" 
d="M203 200q-11 -29 -47 -29q-32 0 -44 20l-6 29q0 13 11 29q5 6 12 6q8 0 9 4q6 2 9 2q1 0 3.5 -0.5t6 -1t7.5 -0.5h1h1h1l1 -1h1h1h1h2h1h1h1l1 -1h1h1h1q23 -20 23 -52v-5zM114 59q6 -16 6 -30t-11 -28q-5 -6 -12 -6q-6 0 -9 -4q-6 -2 -9 -2q-1 0 -3.5 0.5t-6 1t-7.5 0.5
h-1h-1h-1l-1 1h-1h-1h-1h-2h-1h-1h-1l-1 1h-1h-1h-1q-23 20 -23 52v5q11 29 46 29q33 0 45 -20z" />
    <glyph glyph-name="semicolon" unicode=";" horiz-adv-x="205" 
d="M203 200q-11 -29 -47 -29q-32 0 -44 20l-6 29q0 13 11 29q5 6 12 6q8 0 9 4q6 2 9 2q1 0 3.5 -0.5t6 -1t7.5 -0.5h1h1h1l1 -1h1h1h1h2h1h1h1l1 -1h1h1h1q23 -20 23 -52v-5zM122 26q-5 -5 -10.5 -16l-7.5 -15q-4 -5 -17.5 -24t-24.5 -28q-5 -6 -15.5 -21.5t-16.5 -22
t-18.5 -13t-28.5 -6.5q-18 7 -18 21q0 4 3 10q9 20 19 23q3 2 6 11.5t9 13.5q2 2 15 8l-2 6q0 3 3 5q0 4 4 10.5t4 10.5q5 18 15 18h3l3 3q0 10 6 23l8 -2q0 4 1.5 12t1.5 12q9 15 22 15q16 0 27 -14t11 -27q0 -3 -2 -13z" />
    <glyph glyph-name="semicolon" unicode="&#x37e;" horiz-adv-x="205" 
d="M203 200q-11 -29 -47 -29q-32 0 -44 20l-6 29q0 13 11 29q5 6 12 6q8 0 9 4q6 2 9 2q1 0 3.5 -0.5t6 -1t7.5 -0.5h1h1h1l1 -1h1h1h1h2h1h1h1l1 -1h1h1h1q23 -20 23 -52v-5zM122 26q-5 -5 -10.5 -16l-7.5 -15q-4 -5 -17.5 -24t-24.5 -28q-5 -6 -15.5 -21.5t-16.5 -22
t-18.5 -13t-28.5 -6.5q-18 7 -18 21q0 4 3 10q9 20 19 23q3 2 6 11.5t9 13.5q2 2 15 8l-2 6q0 3 3 5q0 4 4 10.5t4 10.5q5 18 15 18h3l3 3q0 10 6 23l8 -2q0 4 1.5 12t1.5 12q9 15 22 15q16 0 27 -14t11 -27q0 -3 -2 -13z" />
    <glyph glyph-name="less" unicode="&#x3c;" horiz-adv-x="483" 
d="M465 283q-5 -5 -5 -10q0 -1 0.5 -2t0.5 -2q0 -2 -2 -8q-3 -7 -15 -19q-7 -2 -19.5 -10t-22.5 -10h-2q-3 0 -8 3.5t-6 3.5q-2 0 -2 -3v-1q1 -1 1 -2q0 -3 -3 -5q-13 -8 -46 -16q-4 -6 -29 -10t-33 -9q-1 -1 -2 -1l-2 1q-2 1 -3 1l-1 -1h-2q-1 0 -2 -1l-2.5 -2.5t-2.5 -1.5
q-7 0 -13 -3.5t-11 -3.5q-4 0 -12 -4t-10 -4t-3 1q-4 -2 -10 -3t-10 -2l-1 -6q11 -5 30.5 -12t31.5 -13h2q9 0 19 -7l6 -12q3 1 7 3.5t5 2.5t2 -1q7 -6 23.5 -10t23.5 -9q20 -11 23 -11h12q3 -11 11 -13q11 -3 13 -4q15 -5 15 -18q0 -2 -2 -6q1 -3 1 -6v-3q-1 -2 -1 -4
q-11 -17 -26 -20q-10 -2 -13 -2q-9 0 -17 6q-3 2 -9 8t-10 8q-2 -1 -6 -1q-7 0 -20 11l-2 2q-22 5 -34 11q-9 4 -36 12.5t-49 16.5l-6 13l-20 -5q-13 10 -37.5 14.5t-35.5 12.5q-20 4 -28 19q-1 3 -1 10q0 23 19 35q16 12 30 12q5 0 8 -1q7 4 22.5 9.5t23.5 10.5q3 -1 7 -1
q2 0 15.5 7t25.5 7q5 4 10.5 5.5t12.5 3t11 2.5h1q1 0 5 -2.5t5 -2.5t2 1l7 11q5 3 23.5 9t27.5 12q19 3 24 11q2 0 23 6q4 7 18 7q25 15 36 18l6 2q6 2 8 2h2q24 -7 33 -27z" />
    <glyph glyph-name="equal" unicode="=" horiz-adv-x="476" 
d="M457 257q8 -5 8 -10q0 -7 -9 -15q-9 -14 -28 -14h-12h-12h-8t-4.5 0.5t-2.5 0.5h-1q-10 0 -22 -4q-1 -1 -8 -1q-14 0 -29 -1h-6q-1 0 -17 2h-1q-2 0 -7.5 -0.5t-8.5 -0.5t-9.5 1.5t-7.5 1.5q-7 0 -15 -7q-7 -5 -14 -5q-6 0 -9 1q-4 -2 -13 -3t-14 -2q-8 -2 -12 -2
q-10 0 -20 7q-4 0 -15 -4t-15 -4q-13 -3 -29 -3q-30 0 -50 13q-21 14 -21 28q0 10 9 23l13 5l3 3l4 4q9 3 17 3q9 0 24 -7q3 -1 7 -1t14 7q8 -7 17 -7q5 3 11 3q4 0 12 -2h1q2 2 7 5q12 -5 14 -5q1 0 3 0.5t5 1t6 0.5t5.5 0.5t4.5 1t3 0.5q4 0 6 -1q1 0 14 -10q2 0 5.5 5
t5.5 5q16 4 24 4q3 0 13 -2q11 4 22 4q1 0 4.5 -0.5t11 -1t15.5 -0.5q7 0 10 1q9 0 24 -1q27 -2 33 -5t8 -3q5 0 10 -1q3 -1 13 -1q9 0 13 -7zM409 116q1 -1 1 -6q0 -11 -10 -18q-11 -4 -22 -4q-6 0 -9 1q-8 -3 -14 -3q-11 0 -25 6q-2 -1 -4 -2.5t-3.5 -2.5l-3 -2t-2.5 -1
q-3 0 -4 1q-5 3 -7 3q-1 0 -3 -1t-4 -1q-6 0 -10 1q-7 -4 -17 -4h-6v1q0 7 -7 7h-2q-3 -1 -7.5 -5.5t-5.5 -4.5q-12 -5 -25 -5q-9 0 -16 4q-7 -2 -22 -3t-23 -2q-42 -7 -55 -15q-17 2 -25 9t-16 23q-2 6 -2 10q0 20 21 31q19 4 39 4q6 0 15.5 1t12.5 1q8 0 12 -1
q10 -2 23 -2q8 0 33.5 1.5t29.5 1.5q9 0 16 3q6 -6 9 -6q1 0 2 1.5t4.5 3.5t10.5 3h4q6 0 9 -1q2 1 8 1q2 0 7 -0.5t7 -0.5q5 0 6 1l1 1q1 0 2.5 -1t2.5 -2.5t2.5 -3.5t3.5 -3l6 6q2 2 3 2t2 -1q8 -2 9 -2h4h1h2v0h1q11 0 22 -5q14 -6 18 -19z" />
    <glyph glyph-name="greater" unicode="&#x3e;" horiz-adv-x="467" 
d="M427 185q1 -3 1 -10q0 -23 -19 -35t-30 -12q-5 0 -8 1q-7 -4 -22.5 -9.5t-23.5 -10.5q-2 1 -7 1q-2 0 -15.5 -7t-25.5 -7q-5 -4 -10.5 -5.5t-12.5 -3t-11 -2.5q-1 0 -5 2.5t-5 2.5q-2 0 -3 -1l-7 -11q-5 -3 -23.5 -9t-27.5 -12q-19 -4 -23 -11q-18 -3 -19 -4h-1h-1v-1h-1
h-1v-1h-1q-4 -7 -17 -7l-2 -1l-2 -1l-1 -1h-1l-1 -1l-2 -1l-2 -1l-1 -1h-1l-1 -1h-1l-1 -1l-2 -1q-12 -6 -19 -8l-6 -2q-6 -2 -8 -2h-2q-23 7 -32 28q4 4 4 10q-1 2 -1 3q0 2 2 8q3 7 15 19q7 2 19.5 10t22.5 10h2q3 0 8 -3.5t6 -3.5q2 0 2 4q0 5 2 7q13 8 46 16
q4 6 29.5 10t32.5 9q1 1 2 1t3 -1l2 -1q1 0 1 1h1q2 0 4.5 2.5t3.5 2.5q7 0 13 3.5t11 3.5q4 0 12 4t10 4t3 -1q4 2 10.5 3t10.5 2v6q-10 5 -30 11.5t-31 13.5h-2q-10 0 -20 7l-6 12q-3 -1 -7 -3.5t-5 -2.5t-2 1q-7 6 -23.5 10.5t-23.5 9.5q-17 10 -23 10h-12q-3 11 -11 13
q-1 0 -3.5 0.5t-5 1.5t-4.5 2q-14 5 -14 17q0 2 2 8l-2 6l1 2v4q11 17 26 20q10 2 13 2q8 0 18 -6l8 -8t11 -8q2 1 6 1q8 0 19 -11l2 -2q22 -5 34 -11q9 -4 36 -12.5t49 -16.5l6 -13l20 5q13 -10 37.5 -14.5t35.5 -12.5q20 -4 28 -19z" />
    <glyph glyph-name="question" unicode="?" horiz-adv-x="307" 
d="M388 364q-14 -29 -28 -34q-3 -11 -16 -19q-1 1 -6 1q-4 0 -4 1l-5 -14l-2 -1q-2 -2 -6.5 -6t-9.5 -7q-21 -18 -30 -21l-12 -10q-33 -26 -34 -27q-1 0 -2 -1h-2h-1h-1q-1 -1 -4 -1q-2 -3 -6 -7l-6 -6q-2 -2 -4.5 -4t-4 -3t-3.5 -2t-3 -2q-3 -2 -8.5 -3.5t-10 -4t-7.5 -8.5
q-3 -7 -9 -10.5t-11.5 -5.5t-6.5 -3q-4 -3 -4 -5q0 -1 3 -3q24 -4 26 -25v-3q0 -14 -17 -23q-13 -5 -24 -5q-8 0 -13 1q-19 1 -31 15q-13 16 -13 32q0 15 20 42q6 5 10.5 10t7.5 7h2v1h2l1 1v0q1 0 1 1h1h1q0 1 1 1l12 16q5 4 14.5 10t13.5 9q3 5 10.5 6t8.5 2l3 4q3 5 7 10
t13 13.5t21 17.5q27 19 34 20q0 11 23.5 24.5t24.5 23.5q9 2 13.5 7.5t4.5 9.5q-1 1 -2.5 4t-3.5 4q-9 4 -17 4q-1 0 -4.5 0.5t-5.5 0.5q-3 -3 -6 -3q-1 0 -16 3q-14 -2 -19 -2q-7 0 -19 -5q-8 2 -9 2t-2 -1t-3.5 -2.5t-7.5 -3.5q-15 -11 -28 -11q-3 0 -4 1q-26 -11 -34 -11
q-7 0 -18 3q-4 2 -7.5 6.5t-5.5 5.5q-10 15 -10 29q0 8 6 16q4 2 11 6.5t11.5 7t8.5 2.5q5 0 7 -1q15 7 44 12q3 -1 8 -1q2 0 17 4q4 1 11 1q3 0 7 -0.5t6 -0.5q4 0 6 1q4 4 10 4t16 -5q8 2 10 2h1l1.5 -0.5t4.5 -0.5t8.5 -0.5t12.5 -0.5q20 -2 38 -7q7 -3 11.5 -5t7 -4
t3.5 -2.5t2 -3.5t1 -4q5 0 8.5 -2.5t5 -6t3.5 -7.5q4 -5 4 -10q0 -3 -1 -3q-2 -3 -2 -37zM123 -22q-3 -5 -26 -15l-41 6q-15 17 -27 53q8 32 46 32q31 0 42 -17q12 -21 12 -37q0 -10 -6 -22z" />
    <glyph glyph-name="at" unicode="@" horiz-adv-x="664" 
d="M664 380l-3 -3q19 -41 19 -91q0 -66 -36 -113q-24 -32 -45 -40q-1 -1 -9.5 -3.5t-12.5 -4t-9.5 -5t-6.5 -7.5q-10 -6 -25 -6h-1h-1h-3h-1h-1h-2h-1q-4 0 -12 -3q-19 9 -28.5 15.5t-18 19t-12.5 32.5q3 5 3 6q-1 1 -1 6q-1 2 -1 7q0 1 1 6.5t1 9.5q0 10 5 22
q-26 -11 -34 -19q-15 -15 -26 -15q-5 0 -8 1q-13 -16 -68 -52q-7 -10 -18 -10q-4 0 -6 1q-1 -2 -2 -5q-7 -7 -17 -11.5t-16 -5.5t-20.5 -2.5t-17.5 -1.5q-34 20 -41 30q-12 15 -12 31q0 14 9 28q5 7 9.5 16t7 13t7.5 10.5t13 14.5q10 10 23.5 25t20.5 22q7 5 11 5
q2 0 5 -0.5t4 -0.5q2 0 4 2q1 1 1 14q10 6 13 8h1v1h1l1 1h1l1 1h1v1h1l1 1h1q0 1 1 1q7 7 42 28q1 1 2 1t5 2.5t6 4.5q20 11 37 11q6 0 11 -3l8 -5h2q3 0 3 3v3q0 3 5 3h2q5 -1 16 -3t16 -4q23 -7 36 -29q0 -5 2 -11l3.5 -10.5t1.5 -5.5q0 -4 -4 -8v-5q-6 -5 -6 -7
q0 -3 4 -4q26 -14 31 -29q-2 -20 -9 -28v-4q0 -3 -6 -19q-1 -2 -5.5 -4.5t-4.5 -3.5t3.5 -4t3.5 -5q1 -3 1 -10q0 -8 -3 -16q1 -5 10 -14l17 4q4 4 13 8.5l11 5.5q18 12 30 30q2 7 7.5 20t8.5 22t3 16q0 4 -2 14v12q0 31 -10 45q-1 4 -1 10t3 17l-14 3q-2 8 -14.5 17.5
t-16.5 16.5q-6 6 -19.5 14.5t-19.5 13.5q-2 2 -5 2h-1h-2h-1h-2q-7 0 -15 6q-29 11 -67 11q-37 0 -56 -14q-19 -12 -25 -12q-5 0 -8 1l-28 -14q-8 6 -10 6t-4 -2l-3 -4q-3 -7 -13 -15q-16 0 -25 -9q-10 -8 -35 -31q-7 -7 -14 -10q-4 -7 -9.5 -13t-15 -13.5t-12.5 -10.5l-6 2
q-4 0 -9 -14q-2 -3 -3.5 -8t-2.5 -8q-4 -6 -9 -16t-8 -15q-1 -9 -9 -17q-3 -3 -3 -5l1 -1v-3q0 -11 -17 -21q-6 -26 -6 -54q-4 -4 -4 -9q0 -2 1.5 -5t4 -7.5t4.5 -9.5q3 -8 34 -44q11 -2 19 -5q1 0 2 -1h1v-1h1q1 -1 2 -1h1q1 0 3 -2t3 -2q7 0 30 -10q1 -1 4 -6t6 -5
q2 0 9 5q4 -6 7 -6l1 2q0 1 2 4t5 5q22 -5 36 -5q19 0 44 5q13 3 38.5 10.5t37.5 10.5l12 -7q2 2 2 4q0 3 10 7q33 15 46 15h6q22 0 22 -12v-4q-3 -23 -42 -42q-2 -1 -6.5 -2.5t-7.5 -4t-7 -7.5q-7 4 -15 4q-16 0 -16 -8q-11 -8 -20 -8q-4 0 -6 1l-13 -8q-4 4 -15 4
q-13 0 -20 -1q-29 -6 -37 -13q-10 0 -17 4t-10 4h-6l-15 -4l-20 2q-4 -4 -10 -4q-1 -1 -6 1.5l-12 6t-10 3.5l-16 -2q-8 6 -35 14.5t-39 24.5q-8 4 -14.5 15t-14.5 15q-3 9 -9 23t-9.5 23.5t-3.5 13.5t2 12l-8 20q9 7 9 8q0 3 -1 5q-1 3 -1 10q0 9 5 14v6q0 6 6 19.5t6 16.5
q0 5 -1 7l30 52q6 2 8 2q4 0 8 2l1 17q6 15 26 37.5t35 31.5q6 7 18.5 12.5t15.5 16.5q4 2 10 7t9 8q75 44 127 50q3 4 7 4q2 0 7 -2.5t8 -2.5t4 1q2 2 2 3l-1 1q0 3 8 9q6 0 20.5 1.5t28 2t25.5 0.5q49 0 70 -12q27 -2 35 -12q28 -11 57.5 -36.5t48.5 -54.5zM446 291
q-3 3 -3 6q0 2 3 13v2q0 10 -6 11l-3 1h-5q-4 0 -6 -1q-19 -7 -28 -12q-4 -3 -10 -5t-8 -3q-3 -1 -14 -1l-8 -13q-7 -7 -25.5 -20t-26.5 -21q-7 -7 -12 -14q-10 -8 -18 -20l-10 -4l-13 -23q-1 -2 -1 -6q0 -6 12 -6h3q10 3 14 6h1l2 1q1 1 2 1h1v1h1q1 0 1 1q2 0 3 1l17 10
q9 4 14.5 8.5t10.5 6.5q1 3 4.5 5t9.5 4.5t10 5.5q1 1 3 1t5 -1l3 -2q3 0 4 3l7 11q13 13 23 16q5 6 17 10.5t17 13.5q13 4 13 6q0 3 -4 7z" />
    <glyph glyph-name="A" unicode="A" horiz-adv-x="640" 
d="M620 182q-8 -3 -25 -5q-12 -3 -34 -5v-1h-1v-1q0 -1 -1 -1v-1v-1h-1v-1q0 -1 -1 -1v-1q-1 -5 -1 -12q0 -4 1 -7t1 -7v-6q-1 -6 -2.5 -8t-1.5 -3q0 -3 1 -5q5 -12 5 -16t-1 -7q-4 -3 -4 -16v-3q2 -10 2 -14v-6q0 -7 4 -16q-1 -11 -2 -17t-1 -8v-4q0 -14 -20 -19
q-2 -1 -6 -1q-17 0 -29 17q-2 2 -2 4t-3 6v4q0 5 -4 12.5t-4 9.5t2 8q-3 10 -3 19l-2 34l4 16v8q0 11 1 18v1q1 0 1 1t1 1v1v1q0 2 -1 3q1 5 1 9q0 2 -1 2v0q-1 0 -1 2q-14 -6 -24 -6q-7 0 -12 1q-28 -7 -46 -7q-6 0 -8 1t-3 1q-1 1 -2 1l-7 -5q-43 -6 -58 -12q-3 1 -8 1
q-2 0 -4 -1h-1q-5 0 -10 3q-26 -11 -42 -11h-4q-3 1 -9 1q-7 0 -20 -7q-15 0 -23 11q-1 -1 -4.5 -7t-5.5 -8q-5 -3 -8 -3l-1 1h-5h-7t-15 -6q-17 -5 -24 -11q-17 -17 -19 -18t-35 -26q-1 -4 -8 -12t-9 -14q-2 -1 -8 -3.5t-8.5 -5t-2.5 -7.5q0 -3 -2.5 -5.5t-7 -6t-6.5 -5.5
q-5 -7 -10 -14.5t-6 -9.5v-4q0 -14 -23 -31q-12 -4 -25 -4q-19 0 -27 16q-2 12 -2 17t1.5 10t3 9t5.5 10.5t6 9.5t8 11.5t9 12.5q30 35 53 43q3 12 13 22q3 5 10 9.5t9 11.5v1q0 5 -11 11q-8 10 -8 19q0 8 6 18t17 15q12 4 21 4q12 0 17 -5l5.5 5.5t6 5t6.5 1.5h2
q10 -2 12 -2q4 4 10 4h2q2 0 5.5 -0.5t7.5 -0.5q11 8 16 16q5 7 33 27q8 5 16.5 11t13 9.5t6.5 4.5q1 1 7 4t8 7l16 13q4 6 12 10.5t11 7.5q4 5 9 9t12 9.5t12 9.5q15 21 36 23q4 2 8 2q5 3 7.5 6.5t3 6t1.5 3.5q22 18 34 22q5 11 16 14l10 10q17 13 28 16l6 6q4 4 7 5
q10 6 10 15q0 6 5 13q8 11 23.5 18t26.5 7q4 0 14 -2l4 -2q4 0 6.5 -2t6 -7t5.5 -7q3 -15 3 -26q0 -6 -6 -17.5t-6 -16.5v-2q1 -3 1 -5q0 -8 -1 -12q0 -6 -2 -13.5t-2 -10.5q-1 0 -1 -3q0 -6 1 -11q-3 -3 -3 -9q1 -3 1 -11q0 -5 -5 -30q1 -3 1 -7q0 -2 -1.5 -5t-1.5 -8l1 -3
v-5q0 -4 -0.5 -7t-0.5 -4q0 -3 1 -7t1 -5q0 -2 -2 -8q0 -5 0.5 -11t0.5 -7q0 -7 -1 -10q1 0 7 0.5t11 1.5t6 2q3 1 7 1q3 0 10.5 -2t10.5 -2q8 -1 12.5 -6.5t4.5 -10.5l1 -5q0 -15 -17 -23zM493 306v14v2l-1 2q-1 3 -1 5q3 9 3 12v8v10q-15 -9 -24 -11q-4 -7 -7.5 -9t-11 -6
t-16.5 -11q-7 -6 -23 -14.5t-23 -15.5q-5 -6 -20 -18l-12 -7q-3 -2 -11 -6t-14 -8t-10 -9q-5 -5 -19 -12l-1 -1h-1l-1 -1h-1q-1 -1 -3 -1v-1h-2v-1h-1h-1v-1h-1q-1 -3 -3 -8q-7 -9 -16 -13v-5q3 0 7 1t7 2l3 1q1 0 1 -1q5 5 10 5q5 -1 13 -1l24 2q10 2 13 2q8 0 12 -3
q8 2 11 5q25 5 28 5q7 0 14 -3q7 3 13 3q2 0 6 -0.5t6 -0.5q3 0 11 2q8 4 20 4h4q9 0 12 1q5 5 5 10q0 2 -1.5 7.5t-1.5 6.5q0 2 2 8q-2 8 -2 12t1.5 10t1.5 7q0 4 -1 5q-1 2 -1 6q0 6 3 10z" />
    <glyph glyph-name="B" unicode="B" horiz-adv-x="581" 
d="M646 440q1 -1 1 -5q0 -3 -1 -5q0 -1 -1 -2v-2q-1 -1 -1 -2q-1 -1 -1 -2q-1 -1 -1 -2q-2 -2 -4 -5.5t-4 -8t-3 -6.5q-1 -1 -7.5 -7t-8.5 -8q-1 -1 -14 -11t-20 -14q-2 1 -4 1q-3 0 -6 -3l-4 -4q-2 -2 -8 -6q-25 -13 -29 -18q-2 -2 -5 -2h-1l-2 1q-4 0 -6 -5q-4 -4 -4 -7
v-2h-2h-3q-7 0 -14 -6q-5 -5 -16 -7q-5 -5 -10.5 -7.5t-12 -3.5t-10.5 -3q-1 -1 -4 -3q-2 -2 -4 -3q-4 -2 -5 -3l2 -2h5q4 0 8.5 0.5t6.5 0.5q7 0 14 -3h1q0 -1 1 -1l1 -1h2v0h1h1h1q4 -6 15 -6q4 0 5 1q24 -8 37 -21q3 -3 8 -6q16 -22 18 -30t2 -14q0 -15 -2 -15l-1 -18
q-1 -2 -3 -6.5t-4 -6.5q0 -1 -2 -9q-2 -5 -5.5 -9t-6 -6.5t-2.5 -3.5q-4 -3 -13 -8.5t-15.5 -10.5t-7.5 -10q-2 -9 -9 -16t-20 -15t-16 -10h-1v1h-1v0v0v0l-2 -2q-14 -14 -30 -14q-1 -1 -3 -4v-1h-1v-1q0 -1 -1 -1v-1v-1h-1v-1q-13 -3 -23 -9l-1 -1l-2 -1l-2 -1l-2 -1h-1
l-2 -2h-1l-1 -1l-2 -1h-1l-1 -1l-1 -1h-1q-1 -1 -2 -1l-1 -1l-2 -1q-28 -16 -43 -16h-4q-13 -20 -31 -20q-4 0 -10 2q-25 -17 -49 -23q-10 -5 -22 -5h-3q-2 -1 -5 -1q-4 0 -16 7q-8 12 -8 20q0 14 17 23q2 0 6 2t11 5t12 5h1v1h1l1 1h1h1l1 1h1l1 1h1h1l1 1h1l1 1h1h1v1h1h1
v1h1h1q9 5 16 6q5 7 18 12q3 8 15 8h3q2 0 4 -1l2 -2q1 0 2 1t2.5 4t3 5.5t2.5 2.5q5 4 11.5 6t11 5t8.5 11h4q12 0 32 13t28 16q8 0 12 13q10 10 24 17q7 9 10 10q5 2 15 12t12 13l2 2t1 2q11 13 11 21q0 7 -10.5 16.5t-18.5 10.5q-10 2 -13 5l-7 -4q-10 1 -22 3t-17 2
q-8 0 -13 -1q-24 -2 -40 -6q-8 4 -12 4q-3 0 -9 -8q-6 -3 -12.5 -5t-9.5 -3t-5 -3q-11 -6 -22 -6q-1 0 -11 -2q-5 2 -13.5 4t-12.5 6t-6 16q-1 3 -1 8q0 32 28 37q7 4 15.5 7t12.5 6q42 21 50 23q2 2 21 14q4 3 11 6.5l21 10.5t27 14l64 36l10 5t9 5q7 0 7 2v1v0v0v1
q0 3 4 4q2 1 9 5t9 7q4 3 8 3q1 0 3 -1t5 -1h4q-2 6 -2 10q0 5 5 7q6 8 6 11q0 1 -0.5 1.5t-5 2.5t-13.5 4q-3 -1 -10 -1q-1 0 -8 0.5t-15 0.5q-11 -3 -22 -3q-8 0 -22 2q-4 -2 -16 -4q-32 -5 -46 -7q-34 -4 -48 -10q-21 -4 -44 -9q-1 -1 -2 -1h-2q-1 0 -1 -3q12 -7 12 -19
q0 -6 -3 -7q-4 -2 -6 -8.5t-3 -7.5q-4 -6 -12.5 -15.5t-19.5 -24.5q-9 -11 -22 -34t-24 -32q0 -3 -10 -16q-1 -1 -3.5 -4.5t-6 -7.5t-8.5 -6q0 -7 -11.5 -28.5t-17.5 -23.5q-1 -7 -6 -12t-29 -62q-2 -3 -6 -11q-1 -1 -1 -2q-1 -2 -1 -3h-1q-1 -3 -3 -7q-12 -24 -12 -46
q-1 -7 -3 -25q-5 -14 -21 -14q-23 0 -27 20q-1 3 -1 5v0v1v0v0v0v0h-1v0l-2 2h-1q-1 5 -1 17q0 13 1 20q0 2 1.5 11t2.5 14q7 6 7 16q0 8 2 18q9 3 13.5 25t11.5 26l15 30q2 6 7.5 14t5.5 10v1q3 4 7 14.5t8 14.5q1 4 16 19l1 1l1 1v1q0 1 -2 7q7 8 25 35q13 22 16 23
q1 13 19 29q6 6 6 10q0 2 -2 8q-9 0 -11 1q-4 3 -10 6.5t-9.5 5.5t-7.5 7t-6 12v5q0 21 27 36q6 3 20.5 5.5t21.5 8.5q10 -2 13 -2t22 7t35 7q3 1 10 1q2 0 5.5 -0.5t4.5 -0.5q4 0 12 2q3 0 5.5 0.5t4.5 1t3 0.5q2 0 7 -1l10 -2l1 1l3 3q3 3 9 3l2 -1h4q9 0 29 5.5t23 5.5
q5 0 15 -2q5 4 13 4q5 0 11 -3l11 -5h1q1 0 3 2l2 2l2 2q6 2 9 2q7 0 10 1q16 -3 34 -3q17 0 35 -8q12 0 19.5 -4.5t15 -13.5t12.5 -13q1 -6 4 -13t3 -9q0 -4 -1 -6z" />
    <glyph glyph-name="C" unicode="C" horiz-adv-x="645" 
d="M642 123q0 -13 -5.5 -22t-11.5 -13t-19 -11q-5 -1 -17 -10.5t-26 -9.5q-38 -29 -54 -29h-2q-2 1 -4 1q-10 0 -38 -10.5t-29 -10.5q-3 0 -8.5 -1t-7.5 -1q-4 -11 -17 -11q-7 0 -11 1q-1 1 -5 1q-3 0 -13 -2.5t-15 -2.5h-3q-20 -6 -66 -6q-22 0 -47 1q-37 1 -45 6
q-5 3 -19 9q-3 1 -11 3t-12 3.5t-9.5 4.5t-9.5 8q-10 1 -18 16q-10 8 -13 13v1h-1v1h-1v1l-1 1v1h-1v1l-1 1l-1 1v1h-1v1l-1 1v1h-1v1h-1v1q-1 2 -10 23q-9 22 -9 28q-1 3 -1 8t1 8q1 1 2 4t1 4q-6 7 -6 14t6 12v2q0 6 6 25.5t12 28.5q3 7 13 19q1 1 6 19l9 9t6.5 7t3.5 4
q18 21 19 24q0 3 3 7q6 6 15 8q3 4 7 10.5t7 10t8.5 7.5t13.5 6q8 10 16 17q7 7 50 37q40 29 48 37q3 5 7 5q2 0 6 -2q7 11 21.5 15t22.5 12l40 18q17 11 59 14.5t50 5.5q15 -2 45 -18q7 -3 28 -31q18 -26 18 -45q0 -24 -15 -37q1 -3 1 -8q0 -14 -14 -25l-6 -5q-2 1 -5 1
q-4 0 -4 -3q1 -1 1 -4q0 -2 -3 -7l-22 -6h-6q-3 1 -7 4.5t-8 4.5q-7 27 -7 37q0 9 4 21q1 1 1 3v1q0 1 0.5 2.5t1.5 2.5l1 2q0 2 1 3v1q0 1 1 3t1 3v1q1 1 1 3t1 3q0 2 1 3v4q0 4 -1 6q-5 3 -10 7.5t-8 4.5q-2 0 -9 -5q-7 4 -14 4q-3 0 -12 -4.5t-18 -6.5q-4 -4 -10 -4h-4
q-4 -5 -12 -9t-22.5 -9t-15.5 -5q-2 -4 -6.5 -7t-7 -4t-9 -3t-8.5 -3q-4 -12 -22 -19q-13 -5 -21 -13q-3 -2 -21.5 -19.5t-29.5 -22.5q-1 -1 -3 -1q-1 0 -5.5 1.5t-7.5 1.5h-3q5 -5 5 -8q0 -4 -4 -8q-31 -31 -34 -35q-19 -25 -32 -33v-3l-10 -9q0 -6 -3 -9q-4 -6 -21 -47
q-1 -4 -5 -11t-7 -7h-2q8 -8 8 -15q0 -4 -1 -7q3 -5 3 -9t-3 -11q1 -3 2.5 -6.5t2 -5t1.5 -3.5l1.5 -3l1 -2t2.5 -2.5t3 -2t4 -3t5 -3.5q1 -1 4.5 -4t5.5 -5q16 -7 39 -12q4 -7 8 -7q1 0 5 3t9 3q3 0 8 -1h2q3 0 5 1q15 -4 19 -4q3 0 7 2q6 2 8 2t6.5 -1t5.5 -1q2 0 3 1
q7 7 15 7q3 0 9 -2q2 -2 5 -2q5 0 7 -1q5 12 46 12q9 7 17 7q4 0 7 -1q4 1 17 4t19 8q10 0 22 5h2q6 0 11 -5q5 11 10 13q4 1 11 4.5t17 4.5q7 5 26 12t26 12q11 3 19.5 5.5t12.5 3.5t5 1q13 0 27 -14z" />
    <glyph glyph-name="D" unicode="D" horiz-adv-x="653" 
d="M688 330l-6 -11q1 -2 1 -6q0 -2 -4 -8.5t-4 -10.5q0 -3 1 -4v-3q0 -4 -3 -8t-8.5 -9.5t-7.5 -8.5q-2 -10 -10 -14q-1 -10 -9.5 -20t-14.5 -14.5t-23 -17.5q-6 -15 -26 -21l-1 -7q-3 -2 -37 -25t-55 -32q-2 -5 -18 -14q-6 0 -14.5 -5t-8.5 -8q-7 -3 -30.5 -16t-40.5 -20
q-2 1 -5 1l-4 -5q-7 -13 -24 -13q-6 -6 -17 -9q-2 0 -8 -8t-8 -8q-1 1 -4 1q-2 0 -16 -7q-9 -5 -16 -5q-4 0 -10 2q-1 -3 -2 -5t-3 -3.5t-3 -3t-3 -2.5l-3 -1.5t-4 -1.5t-4 -1.5t-4.5 -1.5t-4.5 -1q-8 -11 -17 -11q-1 0 -4.5 1t-9.5 2t-13 1q-4 -10 -10 -13.5t-19 -4.5
t-15 -1q-2 -1 -7 -1q-16 0 -26 13q-2 8 -2 12q0 17 15 20q7 2 9 4q1 3 11 9q2 -1 5 -1t17 8.5t23 8.5q4 2 44 21q15 7 21 14q7 7 10 9q5 4 19 7t18 10q5 3 13 6t19 10q3 2 27 12q34 25 40 26q6 8 19.5 13t15.5 6q2 2 6 10q12 2 24 10t19 11q23 21 26 22q2 5 23 19t27 23
q7 3 14 11.5t15 12.5q3 8 15.5 24t12.5 26v4q5 8 5 13q0 1 -1.5 3t-3 9.5t-2.5 21.5q-11 26 -22 33l-11 5q-11 6 -16 10q-13 1 -30 16h-7q-4 0 -16 3t-21 3q-11 0 -17.5 0.5t-8.5 1.5t-2.5 1.5t-1.5 0.5h-2q-1 -1 -4.5 -2.5t-8.5 -1.5q-10 0 -14 4q-29 -5 -64 -6l-13 -11
q-1 -8 -25 -41q-21 -31 -26 -36t-13 -20q-13 -22 -16 -34l-20 -12v-5q0 -13 -7 -26q-2 -3 -13.5 -22t-20.5 -28q-4 -15 -15 -35t-14 -31q-3 -3 -11.5 -15.5t-14.5 -18.5q-1 -6 -11 -20q-1 -1 -1 -2q2 -3 5 -8q-8 -8 -15 -29q0 -10 -19 -26q-36 2 -36 32v6l12 7l-7 5
q-3 3 -3 7q0 2 3.5 11.5t4.5 16.5q6 4 10 14.5t8 14.5q0 1 7 17t16 25q2 2 5 20q20 37 20 40q0 1 -1 2q15 21 24 36q-1 2 -1 5q0 5 8 13q1 1 3 2l2 2q0 8 2 10q2 0 13 21q16 31 23 38l1 2q1 2 1.5 7t1.5 7t2.5 5.5t4.5 5.5t7 3q0 8 8 18.5t9 13.5q-3 -1 -10 -1.5t-10.5 -1.5
t-8.5 -2.5t-9 -4.5t-7 -7q-11 -2 -37 -14q-4 2 -6 2q-3 0 -18.5 -8t-18.5 -8q-4 0 -5 1q-21 2 -31 17q-1 2 -1 5q0 2 1 5l1 2q0 2 -8 7q0 17 14 28q2 2 23 15q3 1 7 1h1h1h1q12 7 15 7t5 -1q18 12 37 12l10 -9q6 17 20 17h2v0h1h1h1q2 0 2 -1l-1 -1l15 6h3q2 0 15.5 4
t16.5 4t11 -2q10 2 14 2q5 0 8 -1q13 8 19 8q4 0 6 -1q10 2 11 2h4v0h2h1l10 -1h5v0h1h1h1q3 0 9 2h23l22 2h1l1 -1h1h1l1 -1h1q1 0 2.5 -0.5t2.5 -1.5q8 0 21 -1t20 -1q2 1 6 1t8.5 -2t6.5 -2t10 2q4 -4 7.5 -6t5 -2.5t6.5 -1.5t9 -2h4q12 0 28 -16q2 1 5 1q11 0 30 -13
l1 -1h1l1 -1q1 0 1 -1h1q0 -1 1 -1q1 -1 2 -1l1 -1l1 -1q1 0 2 -1q1 0 1 -1h1q0 -1 1 -1l1 -1h1l1 -1q6 -4 16 -10q6 -5 9 -11.5t4 -10t3 -3.5q1 0 3 -1t3 -1q23 -65 23 -81v-9z" />
    <glyph glyph-name="E" unicode="E" horiz-adv-x="488" 
d="M610 479q1 -3 1 -8q0 -6 -0.5 -8.5t-6.5 -8t-18 -7.5q-1 0 -6 -1.5t-8 -1.5q-3 -1 -7 -1q-2 0 -5 1h-3q-5 0 -11 -6q-4 4 -8 4q-7 0 -18 -11q-2 0 -10.5 -1.5t-22.5 -4t-28 -4.5q-41 -6 -66 -13q-47 0 -69 -13h-3q-8 -11 -15 -14q-2 -1 -29 -30l-26 -28q-1 -1 -1 -3
q0 -4 1 -7q-8 -5 -13 -14q-8 -10 -14 -13q-1 -2 -3.5 -8t-4.5 -8q-1 -1 -1 -2l2 -2v-1h2v-1h1h1v-1h1h7q11 0 33.5 3.5t29.5 3.5t10 -1q34 3 46 5q9 0 19 8l10 -2q2 1 7 1h1q2 1 7 1h1q2 1 7 1l1 1q4 0 7 1h1q4 0 7 1h1q25 4 40 5h3q11 0 18 -5.5t8.5 -10.5t1.5 -7
q0 -18 -25 -23l-3 -1q-11 -11 -24 -11l-4 1q-3 0 -10.5 0.5t-15.5 0.5q-29 -16 -39 -16q-10 -8 -20 -8q-1 0 -5 0.5t-6 0.5q-6 0 -10 -2q-30 -7 -31 -7q-5 0 -8 1l-3 4q-2 4 -4 4q-1 0 -6 -6t-7 -6q-27 -5 -45 -5q-4 -4 -11 -4t-18 5q-14 7 -19 10q0 -1 -1 -3.5t-2 -4.5
q-3 -3 -7 -13.5t-11 -23.5q-13 -23 -13 -25q-5 -10 -5 -22q0 -2 -2 -16v-4v-1v-1v0v-2q0 -2 -2 -8q1 -2 2.5 -6.5t2.5 -8t3 -7t5 -4.5q22 -5 38 -12q7 3 14 3h2h5h1h1h1h2h1q5 0 12 1t9 1q3 0 8 -0.5t6 -0.5q3 0 8 1.5t12 2.5q6 2 9 2h3q10 3 14 3q5 1 13 1q9 0 12 1
q3 -1 8 -1q2 0 5.5 3t10.5 5q17 5 28 5q13 7 28 7t29 8l23 -1q12 -9 12 -16q0 -3 -2 -7l-1 -2q-1 1 -1 3l-10 -17q-6 -1 -24 -13.5t-30 -12.5h-5q-60 -23 -76 -23h-9q-17 0 -37 -8q-10 -4 -31 -4q-51 -8 -65 -8q-6 0 -8 2l-5 7q0 1 -1 1l-2 -2q-2 -2 -4 -2q-4 1 -12.5 2.5
t-15 3.5t-9.5 7q-4 6 -15 11.5t-15 10.5q-18 23 -18 63q0 11 2 51q4 6 7.5 20.5t10.5 22.5q4 25 19 50h1v1v0h1h1v0q1 1 3 1q-1 1 -1 5q0 12 7 24q9 19 22 32q6 16 23 16q2 0 4 2v1q0 1 -1.5 3t-2.5 4v2q0 2 6 16l4 6q6 8 7 9q7 8 22 28v1q12 4 12 9v3l-1 2q0 2 3 5l2 4v1
q-18 6 -28 22q0 4 -2 12t-2 10q0 5 1 6q5 11 25 20q14 2 16 2q4 0 12 -2q3 -3 18 -5q2 0 5 1t5 1q15 0 23 11q18 20 32 20q7 0 15 -3q13 -3 25 -22q6 2 8 2q5 0 12 -4q13 7 18 7t10 -3q14 5 94 14q5 -4 10 -4l7 4q8 4 13 4h4q6 2 8 2q3 0 7 -2l2 1q1 0 3 1t3 1q4 3 9 3
q3 0 9 -2q2 0 7 -1t6.5 -1.5t5 -1.5t5.5 -3l4.5 -4.5t5.5 -6.5zM213 401zM198 376l1 1z" />
    <glyph glyph-name="F" unicode="F" horiz-adv-x="469" 
d="M630 496q9 -8 9 -21q0 -12 -10 -20q-7 -6 -38 -13q-4 -1 -25.5 -5.5t-33.5 -4.5q-11 4 -16 4t-5 -4q-2 -1 -7 -2.5t-8 -1.5q-6 -6 -12 -6q-4 0 -6 1l-6 -4q-14 -2 -20 -2h-9q-11 0 -22 -9q-6 0 -10 0.5t-6 1.5h-2q-5 0 -14 -3q-2 -1 -18 -5.5t-18 -7.5q-8 -2 -19 -4
t-19 -4q-4 2 -5 2q-2 0 -3 -2t-2.5 -6.5t-4.5 -7.5q-13 -17 -15 -17l-18 -5l5 -4q5 -5 5 -7t-1 -3q-19 -49 -28 -56q-10 -10 -13 -15l1 -2q0 -1 2 -4t4 -7q6 0 12 -3q9 3 13 3t16 -3q10 4 17 5q3 1 10 1q1 -1 4 -1t11 2.5t9 2.5q3 -1 9 -1q1 0 16 2.5t17 2.5q6 0 9 -1
q17 8 39 8q23 0 34 5q3 -1 9 -1q5 0 11 1t7 1q5 0 13 -3q6 2 8 2q11 0 18 -12q4 -5 4 -10v-1q-1 -1 -1 -3q0 -4 1 -7q-5 -15 -24 -15h-5q-5 -4 -13 -4h-5h-1h-1h-2h-1h-1h-5h-1h-2h-1h-1q-5 0 -8 -4q-27 -15 -52 -15h-7q-4 -4 -10 -4q-16 3 -21 3t-6 -1q-11 -5 -25 -7h-1h-1
h-1v-1h-1h-1h-1v0h-1h-1h-1v-1h-1h-1v0q-10 -2 -14 -5q-15 -3 -22 -3q-4 2 -7 2q-6 0 -27 -4q-6 -1 -13 -2t-10 -2t-4 -1q-4 -2 -7 -2q-6 0 -9 -1q-2 0 -8 -6q-1 1 -3 1t-8.5 -2t-10.5 -2q-2 -3 -5.5 -10t-7 -11.5t-8.5 -8.5q1 -2 1 -6q0 -6 -8 -18t-8 -13v-2q-2 -4 -14 -27
q-3 -5 -6.5 -10.5t-5.5 -8.5l-1 -3q-8 -22 -10 -25q1 -1 1 -5q0 -1 -5 -13q-4 -11 -11 -15q-4 -1 -10 -1q-14 0 -19 13v1l-5 8q-3 12 -3 18q0 9 4 24q1 3 3.5 12t4.5 12q2 5 4.5 8.5t3.5 5t2 4t1 5.5q0 6 2 8v4q0 5 7 17l4 6l1 1l1 1q1 1 6 16q5 4 8 26q-15 8 -18 20
q-7 7 -7 15v2q1 2 1.5 6.5t0.5 10.5q11 15 33 15q7 0 10 -1q2 -2 4 -2t10 6q1 0 2 1q1 0 3 1q3 5 8 14t10.5 19t11.5 23q7 15 16 36.5t13 28.5q-10 0 -17 5q-2 1 -6.5 3t-6 3t-4.5 2.5t-4 3.5t-3 4.5t-3 6.5q-11 15 -11 20q0 3 1 5q8 19 9 20q8 10 22 10q3 0 15 -2.5
t21 -3.5q7 -1 17 -1h2h3t2.5 1.5t3 4t2.5 7.5q8 8 9 11q2 5 5 8.5t4.5 5t6 3.5t6 2.5t8 2t7.5 1.5q17 -3 35 -27q3 -4 6 -4q2 0 4 1q11 10 24 10q4 0 18 -2h7q7 0 13 10q7 -3 12 -3q4 0 10 -2q0 4 4 5l1 1q2 0 2 1q41 5 60 9h1l2 -1q0 -1 1 -1q1 -1 2 -1l2 -1v0v0l1 -1v0
l1 -1q9 7 13 7q15 0 25 -1h1q10 0 17 4q2 0 18 1t23 1q15 0 31 -6zM63 4q1 0 2 -1v-1l-1 1v0l-1 1v0z" />
    <glyph glyph-name="G" unicode="G" horiz-adv-x="656" 
d="M660 213v-4q0 -9 -5.5 -19.5t-15.5 -25t-13 -20.5q-1 -10 -16 -25q-12 -11 -12 -20q0 -4 1 -6q-3 -15 -16 -26q-4 -3 -10 -9q-4 -4 -18 -37q-3 -11 -9 -15q-10 -12 -22 -23q2 -6 2 -9q0 -13 -15 -27q-29 -26 -31 -29q-11 -9 -25 -9q-13 0 -23 12q-8 8 -8 14t5 13
q2 3 4.5 7t4.5 7t2 5q5 14 28 35q3 3 9 15.5t13 19.5q10 11 11 20q6 7 10 14.5t8.5 17.5t7.5 16q-33 -18 -37 -21q-31 -23 -59 -38l-42 -22q-21 -11 -33 -11q-4 0 -12 2q-7 -2 -18 -8.5t-16 -8.5q-4 -1 -11 -5.5t-11 -4.5q-3 0 -9 2q-5 -3 -17 -5q-6 -6 -14 -6l-2 1h-5
q-8 0 -12 -1q-1 0 -4 2t-5 2q-6 0 -14 -4q-3 3 -5 7.5t-3 6.5t-2 2q-6 -2 -13 -8t-10 -6q-3 4 -21.5 7.5t-23.5 14.5q-2 1 -11 2.5t-12 4t-4 9.5q-2 7 -3.5 8t-7.5 1q-4 3 -7 6t-5 6t-4 5t-3 5.5t-2 5t-1.5 6t-0.5 6t-1 7t-1 7.5q-3 12 -3 58q3 8 7.5 23.5t7 23.5t8.5 20
t13 21l6 11q6 11 13 18l15 3q0 4 -0.5 7t-1.5 5v1q0 3 2 9q7 4 14 15t16 13q4 4 9.5 13.5t11.5 15t17 8.5q8 11 24.5 27.5t26.5 18.5q7 1 13 5.5t15 14t15 14.5q2 -1 6 -1q6 0 25 14q3 0 5.5 -0.5t3.5 -1.5h2q3 0 3 2q5 12 11 18q9 3 33 17t36 16q18 11 60.5 14.5t50.5 5.5
q17 -5 42.5 -17t25.5 -22l18 -17l8 -33q0 -28 -17 -42q1 -3 1 -7q0 -8 -5 -13l-6 -6l-1 -1l-9 -9q-5 -5 -8 -14q-15 -1 -28 -5l-9 6t-11 7q-6 16 -6 30q0 15 12 47h1q-1 12 -4.5 17.5t-14.5 5.5h-7q-12 5 -18 5q-2 0 -4.5 -1t-8.5 -2.5l-14 -3.5q-5 -4 -15 -4q-4 -5 -13 -10
t-21.5 -10t-16.5 -7q-4 -5 -8.5 -8t-13 -6t-10.5 -4q-2 -6 -3 -7t-3.5 -2.5t-9.5 -3.5l-14 -9q0 -3 -17 -13q-15 -9 -17 -9q-4 0 -10 3v-1q-1 -1 -1 -2v-1l-1 -1v-1q-1 -1 -1 -4l-1 -1v-1q-3 -6 -5 -8q-1 -2 -46 -40q-12 -10 -30 -30.5t-33 -30.5q-1 -6 -8 -18
q-1 -1 -2.5 -3.5t-2.5 -3.5q0 -8 -5.5 -10.5t-7.5 -23.5q0 -4 -5 -15t-6 -17q-2 -14 -2 -20q0 -2 0.5 -5t0.5 -5q0 -6 -2 -14q7 -15 7 -21q0 -4 3 -7.5t6 -5l8 -4t6 -3.5q10 -2 16 -2t18 -2q5 1 30.5 2.5t43.5 5.5q7 -5 10 -5h1.5t3 3t6.5 9q48 19 55 22q5 2 17.5 4t19.5 8
t17 11t13 7q16 12 31 13q18 15 95 57q19 10 26 25q8 26 44 40q11 4 10 1q9 0 17 -8q16 -4 19 -27z" />
    <glyph glyph-name="H" unicode="H" horiz-adv-x="748" 
d="M818 482q0 -32 -9 -41v-4q0 -5 -4 -12.5t-5 -10.5l-2 -6t-1.5 -5t-0.5 -3l-1 -2q-2 -9 -10 -17q-7 -15 -11 -16l-2 -1v-3q0 -3 -2.5 -10t-2.5 -12l-1 -1v-1v-1h-1v-2l-1 -1l-1 -2l-1 -1v-1l-1 -1v-2l-1 -1v-1l-1 -1q-5 -9 -12 -13q-4 -21 -26 -57q-17 -29 -17 -39
q0 -4 1 -5l-6.5 -13t-18 -38t-24.5 -52l-6 -24q-17 -17 -21 -25.5t-4 -22.5q-7 -9 -10 -22q-4 -19 -18 -19q-9 0 -19 7q-13 10 -13 32q0 9 1 13q-1 1 -1 5q0 7 8 20q0 10 5 17v5q0 6 5 14t5 10q0 3 -2 9q9 7 9 12l-1 1q0 4 5 14q-1 2 -1 6q0 3 5 10.5t5 14.5l9 21q2 2 10 26
l-11 -5q-1 1 -2 1q-2 0 -18 -4q-15 -5 -17 -5q-2 -1 -9 8q-1 -1 -7 -5.5t-8 -8.5q-10 -2 -14 -2q-5 0 -20 3q-3 0 -8 -8q-3 1 -10 1q-4 0 -11 -0.5t-9 -0.5q-8 0 -16 2q-7 -6 -14 -6q-6 0 -14 3h-7l-89 -15h-6h-1h-12h-1h-1h-1h-2h-1h-1h-1h-1h-1q-4 0 -5 -1q-5 -5 -59 -17
q-11 1 -31 1q-14 0 -28 -8q-21 -11 -28 -45q-9 -27 -27 -32q-3 -2 -10 -23q-4 -10 -6 -16.5t-2.5 -9t-3 -7.5t-8.5 -14q-11 -17 -11 -25q0 -2 1 -3q-6 -9 -8 -11.5t-7.5 -8t-10.5 -7t-13 -1.5h-4q-16 10 -16 27v7v1v1v1v1v2q0 2 -2 12q7 4 9 7.5t3 9t4 10.5q4 26 16 50l1 11
q16 27 25 34q-1 2 -1 7q0 12 10 28q-14 14 -18 21q0 45 36 53q8 5 26 5q2 3 12.5 23t21.5 27q11 19 12 20q5 21 18 40q0 11 9 20t10 14q1 3 9 11q-1 1 -1 3l25 42q3 5 8 14.5t9 15.5q10 13 18 13q3 0 5 -1q8 2 11 2q4 0 8 -3t9.5 -9t10.5 -9q10 -24 10 -30q0 -4 -2 -16
l-8 -17q-4 -6 -7 -11t-7 -9q-19 -26 -32 -40q-2 -2 -2 -6v-3q-4 -10 -17 -27q0 -1 -4.5 -7l-10.5 -14t-9 -13q-6 -9 -9 -20q-3 -2 -9 -12q12 -2 13 -2q2 0 10 2q5 -4 9 -4q1 0 3.5 3.5t4.5 4.5q9 1 26 4q14 2 16 2q3 0 25 -2q23 5 42 5q3 0 11 -0.5t12 -0.5q21 0 37 4
q8 5 18 5l2 -1h4q10 0 19 3l5 -6q30 8 61 8q15 1 32 1h8h1h1h1h1q1 0 11 1t22.5 2t18.5 1l9 21q2 2 6 2q1 0 3 -1q4 0 6 2q-6 2 -6 8q0 5 11 38q3 5 8 11t8 10t3 6v2q-1 2 -1 4q0 7 4 15q3 3 12 24t9 24q-6 11 -6 21q0 7 8 17q3 4 8 9q6 8 12 11q1 1 2 1q11 10 27 10
q12 0 26.5 -8t20.5 -21z" />
    <glyph glyph-name="I" unicode="I" horiz-adv-x="390" 
d="M538 454q-12 -6 -25 -6h-6q-13 0 -23 -9h-4q-4 0 -30 -3t-28 -3h-3q-11 -3 -23 -14q-7 4 -10 4h-1q-4 -4 -11.5 -16.5t-7.5 -17.5q-2 -2 -6.5 -9t-8.5 -11.5t-9 -5.5q-6 -14 -8 -20q-1 -1 -1 -3v-1q-1 -1 -1 -2q0 -2 -1 -3v-1l-1 -1q0 -3 -1 -4t-1 -3v-1q-1 -1 -1 -2v-1
q-1 -1 -1 -2q-2 -3 -8 -7q-3 -7 -10.5 -18.5t-10.5 -26.5l-12 -20q-23 -27 -26 -54q-7 -5 -9.5 -19.5t-14.5 -20.5q-1 -2 -2 -7t-2.5 -8t-4.5 -5l-12 -23q-2 -8 -10.5 -22.5t-9.5 -21.5q-2 -2 -2 -3t1 -1l32 5h1q4 0 10 -2q8 4 17 4t16 -3q11 4 16 4q3 0 8 -3q7 -5 11 -5
q2 0 4 0.5t3 0.5q3 0 8 -3q3 1 9 1q7 0 12 -1q7 -2 14 -16t7 -20q0 -16 -39 -16h-4q-10 2 -27 2h-38h-11v1q-13 -9 -21 -9t-15 4h-1q-37 -12 -75 -12q-7 -1 -20 -1q-10 0 -14 -3q-4 -6 -9 -6q-1 0 -4 0.5t-5 0.5q-3 0 -9 -2q-19 -8 -33 -8q-8 0 -12 1q-30 3 -33 31
q-1 3 -1 7q0 29 28 35q6 2 32 4q4 1 9 1q2 0 13 -7q5 9 14 10q15 1 30 7q14 14 15 16q1 1 1.5 3t1.5 6.5t3 8.5q16 39 17 40v2q0 5 6.5 12t8.5 10q7 6 7 11q0 1 -0.5 3.5t-0.5 4.5q0 15 11 29q1 1 8.5 21t18.5 32q7 9 11 23.5t7 19.5l3 9v0l1 1v1h1v1l1 1v0l1 1v1h1v1v0l1 1
q2 3 8 7q-1 1 -1 4q0 5 3 14l14 5l-7 9q14 16 20 32q-3 -1 -14.5 -5t-18.5 -5q-6 0 -18 7q-1 -1 -2.5 -3t-2 -2t-1.5 -1t-3.5 -1t-5 -0.5t-7.5 -0.5q-14 2 -19 8t-9 24q5 21 28 34q8 1 18 3.5t15 2.5h5q2 0 6 -3t6 -3q4 1 8 6t8 6q15 5 37 5q3 4 10 15t14.5 19t15.5 12l14 2
q6 6 10 6t6 -1q16 -1 25 -15q8 -8 9 -16q11 1 28.5 3t23.5 2q9 0 14 -1q8 5 14 5q1 0 8.5 -3t13.5 -4q16 0 25.5 -6t9.5 -15q0 -8 -10 -15z" />
    <glyph glyph-name="J" unicode="J" horiz-adv-x="467" 
d="M674 479v-6q0 -8 -5.5 -13.5t-12.5 -5.5q-4 0 -13 -3t-13 -3q-3 0 -9 1t-8 1q-7 0 -10 -3l-36 -11q1 0 2 1q-6 -1 -16.5 -4t-13.5 -3q-7 -2 -14.5 -5t-13.5 -4q-3 -4 -5.5 -14.5t-8.5 -16.5l-11 -20q-5 -11 -11 -22q-10 -6 -12 -30q-1 0 -3.5 -3.5t-4.5 -6.5l-2 -4h-1
q-8 -14 -9 -19q-3 -10 -8 -22q-1 -5 -10 -13q0 -13 -15 -34q-4 -3 -4 -5v-2l1 -2q0 -2 -4 -6q-3 -5 -6.5 -15t-7.5 -15q-3 -4 -8 -13.5t-8.5 -15.5t-4.5 -6q2 -2 2 -3l-4 -3q-4 -4 -7.5 -9t-3.5 -8v-1q-7 -9 -20 -33.5t-24 -36.5q-2 2 -5 2q-1 0 -7 -2q0 -18 -9 -25
q-9 -6 -13 -8q0 -1 -2 -5l-3.5 -7t-6.5 -6t-12 -3q-3 -6 -19 -14t-25 -18q-1 1 -5 1q-11 0 -15 -5q-5 -5 -9 -5q-2 0 -3 1q-1 0 -17 -7q-8 -3 -16 -3q-5 0 -8 1q-6 -2 -8 -2q-3 0 -6 1.5t-4 1.5q-4 0 -12 -5q-1 -1 -5 -1q-7 0 -18 6q-51 13 -58 20q-1 8 -17.5 16t-16.5 18v3
q-4 2 -13.5 18.5t-9.5 21.5q-2 14 -2 18q0 6 1 8q3 8 15 16q6 2 10 2q23 0 27 -24v-10q0 -10 5 -15q4 -4 8 -9t6 -7t6 -2h4q1 -1 3 -1l2 -2q2 0 3 -1l2 -1q1 -1 3 -1l1 -1q1 -1 2 -1h1l1 -1h1q1 -1 4 -1h2q3 0 6.5 -0.5t5.5 -1l4 -1t3 -1t2.5 -1t2.5 -2l2 -3l3 -4.5q4 3 8 3
q2 0 4 -1t3 -1q2 0 3 1q8 -3 12 -3q1 0 4 1t10 4t15 5q3 5 12 5q10 0 19 12q11 8 35 30q4 8 17 22.5t15 17.5t6 10t6 10t8.5 15t10.5 17q1 3 4.5 8.5t6.5 9.5l3 4q4 7 21 46q24 52 25 54t3 4.5t3 3.5q-1 2 -1 5q0 5 11 19t11 22q12 19 12 28v4q1 1 7 4t7 5q1 1 1 2l-2 3
q-3 2 -3 4v1q13 24 15 36q0 2 2 3.5t2 3.5l2 4h-5q-4 0 -7 -1l-9 -3l-12 -4h-5q-6 0 -16.5 -2.5t-13.5 -2.5q-2 0 -4 1h-3q-5 0 -5 -6q-4 -3 -8 -3q-2 0 -6 2.5t-7 2.5q-2 0 -3 -1q-1 -2 -5 -7l-4 -4q-8 0 -23.5 -3t-23.5 -3q-5 2 -13 7t-11 7q-1 5 -7 17.5t-6 21.5
q7 24 37 24q12 0 22 -5h4q9 0 28 6t35 7q21 0 23 3h2v-1q5 0 6 -1h1h1h1q5 0 29 6q8 2 30 7q14 5 15 20q4 7 27 20h5q21 0 30 -13q9 -2 10 -11q1 -1 2 -5t2 -5q9 0 18 3q11 3 17 3l2 -1h2q6 0 19 5q5 -3 7 -3q4 0 8 2t5 2t5 -2q4 3 7 3l2 -1h4q3 0 5 1q3 -1 11 -1
q27 0 29 -15zM304 160z" />
    <glyph glyph-name="K" unicode="K" horiz-adv-x="553" 
d="M694 445q-1 -11 -6 -17t-10.5 -8t-16.5 -4q-6 -2 -17 -9t-15 -9q-9 -4 -29 -10t-37 -14q-19 -8 -37 -17.5t-21 -10.5q-7 -5 -11 -5h-3l-55 -31q-6 -2 -10 -4q-6 -3 -12 -3t-13 3q-3 -3 -9 -11t-10.5 -11t-11.5 -3h-5q-33 -21 -38 -24q-8 -12 -31 -21q-8 -6 -11.5 -9
t-4 -3.5t-0.5 -1.5q0 -5 13 -15q4 -3 13 -8t14 -9l6 -12q2 -4 12.5 -11t15.5 -14q24 -15 34 -26l22 -16v-1q21 -16 25 -18l6 -9q4 -2 10.5 -7t9.5 -8l23 -14q10 -21 15 -21q2 1 6 1q6 0 17 -8q13 -2 21 -11.5t8 -20.5q0 -14 -10 -20q-10 -5 -17 -5q-11 0 -22 4q-21 6 -28 17
q-13 0 -32 19q-15 4 -18.5 6.5t-13.5 14.5q-3 2 -13 5.5t-17 8t-10 12.5q-5 14 -25 22q-8 3 -43 29q-68 50 -90 67q-2 -1 -9 -6t-11 -11q-6 -9 -15 -9q-6 0 -15 3q-1 -15 -12 -30q0 -9 -20 -44q-5 -9 -11 -19.5t-9.5 -16t-4.5 -8.5q-3 -6 -10 -16q1 -6 2.5 -13t1.5 -8
q0 -6 -3 -11q-6 -24 -41 -25q-12 5 -17 11.5t-6 11.5t-2 18l3 3q-1 2 -1 6q0 15 7 27q12 15 12 20q0 3 -3 8q11 13 14 22q1 4 20 43q8 17 16 37t14 33t15 23q0 1 1 3t2.5 4t3.5 5.5t4 7.5l8 18q2 6 17 21l1 14q2 2 6 13.5t13 16.5q1 9 43 80q0 1 5.5 5t7.5 13q1 10 5 17
q3 5 8.5 11t6.5 10q-6 4 -7 11q-1 3 -1 8q0 6 12 25q26 26 48 26q11 0 23 -6q27 -18 27 -48q0 -7 -1 -10q-7 -13 -19 -31q-13 -21 -21 -26q-7 -4 -7 -11v-2q0 -8 -20 -36q-4 -3 -7 -6l-4 -4q-1 -2 -2.5 -10t-4.5 -12t-10 -7q-1 -3 -4.5 -9t-8.5 -14t-8 -12q-2 -6 -2 -8
q0 -3 3 -3q4 0 12 8q14 13 27 18q16 16 40 27q21 8 63 38q3 1 13.5 7t17.5 8q13 9 21 11q2 8 29 19q22 8 43 22q17 11 33 12q13 0 24.5 4.5t17.5 9.5l5 5q7 3 23 11t24 11h8q21 0 35 -9t14 -24q0 -7 -1 -10z" />
    <glyph glyph-name="L" unicode="L" horiz-adv-x="467" 
d="M464 76q-2 -19 -10 -26t-35 -15q-11 -3 -14 -3h-5h-1h-1h-1h-1h-1h-2h-1h-1q-5 -4 -13.5 -6t-11.5 -3q-26 -12 -28 -12q-3 0 -9 2q-26 -12 -32 -12q-6 -3 -24 -8t-27 -5q-10 -11 -20 -11q-6 0 -17 6q-5 -2 -21 -5.5t-19 -4.5t-8 -1q-3 0 -12 4t-12 4q-20 3 -40 15
q-48 32 -48 67q0 3 2 13q0 9 5 27q2 9 5 18q3 7 3 18q0 5 4 8q0 9 4 16t10 15t9 13q1 3 4.5 6.5t3.5 6.5t-1 5l14 8l-3 8l2 8q3 5 8.5 12t8 10.5t5 10t4.5 14.5q5 3 9 8t8 13t6 11q1 1 3 5t4.5 7.5t4.5 7.5q10 4 16.5 19.5t13.5 21.5q1 2 11 21q6 5 9 9t7 10.5t7 10.5
q8 8 9 11q16 39 23 48q1 1 4.5 4t6.5 6.5t4 9.5q29 15 43 15q12 0 25 -11q14 -11 15 -25q3 -6 3 -13q0 -24 -34 -58q-3 -6 -11 -15.5t-11 -12.5l-3 2l-10 -19l-8 -9q-7 -9 -25 -31t-38 -47v-2q0 -4 -1.5 -7.5t-5 -7.5t-5.5 -5.5t-8 -5t-7 -4.5q1 -3 1 -7t-2 -8.5t-4.5 -8
t-7 -8.5t-6.5 -9q-2 -3 -9.5 -9t-7.5 -13v-6q0 -12 -10 -16q0 -1 -4.5 -14.5t-15.5 -18.5q0 -18 -11 -23q-2 -6 -2 -12q0 -8 -4 -12q2 -6 2 -8q0 -1 -1 -6t-1 -7q0 -4 6 -7q6 -6 16 -6q5 0 15 1l10 2q6 0 13 -3q11 7 27 7q17 0 29 4q6 -2 10 -2q5 0 15 5q18 9 27 9l33 7h2
q2 0 9 2.5t9 2.5q3 0 9 -2q14 8 28 8q6 0 16 -2q6 7 13 7q3 0 9 -2q10 2 14 2q13 0 35 -17z" />
    <glyph glyph-name="M" unicode="M" horiz-adv-x="891" 
d="M883 380q-1 -2 -1 -4v-1q1 -1 1 -2q0 -2 -2 -4q0 -7 -12 -50q0 -8 -2 -20q-2 -6 -7 -14t-6 -10q-1 -1 -1 -7q0 -2 1 -6v-4q0 -7 -2 -7v-7q0 -20 -8 -26q-24 -93 -25 -100t-2.5 -14t-3 -11.5t-1.5 -6.5l-8 -17q0 -30 -8 -42q2 -4 7 -9.5t7 -9.5q2 -6 2 -10q0 -8 -6.5 -16
t-17.5 -11q-10 -2 -12 -2q-10 0 -25 14q-13 16 -16 36l-1 9q-1 1 -1 5l1 5q1 6 1 15q0 35 6 41v9q0 22 10 32q-1 5 -1 14q0 19 12 55q2 7 4.5 14.5l4 12t1.5 6.5q1 1 1 4q0 2 -2 6.5t-2 6.5q0 5 5 9q13 35 13 43q0 6 -1 9q5 7 5 14l-1 2q0 7 5 15q9 10 9 14q-3 1 -5 10
q2 2 6 32q-1 1 -1 6t-1 6q-10 -6 -15 -10q-22 -16 -35 -40q-26 -31 -35 -37q-2 -3 -5 -3h-3q-2 1 -4 1q-3 0 -5 -1q0 -2 1 -6l2 -4q0 -5 -5 -10q-2 -3 -6 -11t-8.5 -13.5t-11.5 -9.5q-5 -10 -13 -15v-1q-3 -5 -12.5 -18t-12.5 -20q-4 -9 -11 -17.5t-20.5 -21.5t-19.5 -20v1
q-5 -18 -21 -33q-5 -1 -10 -8.5t-10 -10.5q-12 -7 -12 -13l1 -1q0 -4 -3 -6q-5 -2 -21 -18q-2 -4 -17 -15t-19 -13q-33 -20 -63 -20q-22 0 -37 11q-5 6 -16.5 15.5t-18.5 17.5t-7 16q0 4 1 7q-11 11 -21 93q0 3 -0.5 8t-0.5 6q0 5 2 7q-1 3 -1 9q0 4 1.5 11t1.5 8q0 4 -2 10
q-1 3 -1 8q0 1 0.5 4t0.5 8q0 7 4.5 11.5t4.5 7.5v2q0 1 -4.5 3.5t-4.5 10.5q0 17 4 26q-2 5 -4 5t-4 -2q-4 -2 -24 -29q-17 -10 -24 -27q-1 -4 -18 -22v1q-2 -3 -20 -23q-3 1 -6 1q-7 0 -7 -13q0 -5 -8 -13t-9 -10q-2 -2 -3.5 -4.5t-3 -4t-3 -3.5t-2 -3t-1.5 -2l-1 -1
q-2 -9 -10.5 -17t-10.5 -11q-31 -47 -40 -49q-6 -1 -6 -20q-14 -9 -14 -31q-19 -13 -19 -24v-1q1 -2 1 -5q0 -9 -9 -15q-2 -6 -4.5 -21t-5 -22t-11.5 -15t-23 -11q-1 1 -12 3.5t-14.5 6t-3.5 12.5q-6 10 -6 20t10 33q1 2 2.5 6.5t4.5 10.5q2 6 7 10.5t8 10.5l3 21
q7 20 18 32q6 15 13 19q22 38 38 54q2 15 30 46q30 35 34 39q15 15 15 26q7 6 22 24.5t17 19.5q6 9 32 37q5 5 11 5t11 5q4 4 4 11l-1 2v2q0 7 4 11q13 16 29 27q9 7 10 17q5 7 13 34q1 11 13.5 20.5t28.5 11.5h3q21 0 40 -28q1 0 1 -1q0 -2 -3 -6q-1 -1 -1 -2h-1v-1v-1
q-1 0 -1 -1h-1q-1 -1 -1 -3h-1v-1q0 -4 4 -6.5t4 -5.5v-4q-9 -19 -14 -64q-4 -33 -4 -51q0 -8 1 -10q-6 -7 -6 -9q0 -1 3.5 -2.5t3.5 -6.5q-1 -5 -8 -18l3 -14q-2 -6 -2 -12q0 -2 0.5 -10t0.5 -12v-8q-1 -3 -6.5 -8t-5.5 -6v-1q0 -1 1.5 -3t3.5 -3.5t4 -4t3 -3.5
q-3 -21 -3 -29q-1 -3 -1 -10q0 -16 8 -32q-1 -3 -1 -9q0 -2 2.5 -10t3.5 -15q8 -14 20 -14h2q7 2 13 7.5t9 7.5q9 5 32 33q19 22 26 33q6 8 11 11q2 8 8 13q14 14 50 56q2 2 5 2l2 -1q3 0 5 8q4 1 4 7q-1 2 -1 3q0 4 3 6q9 8 19 23t16 22q3 3 11.5 15t17.5 17q5 9 20.5 25.5
t19.5 25.5q6 13 27 29t25 21q6 1 15.5 10.5t22.5 11.5q14 11 28 11h1q2 0 5 -0.5t6.5 -0.5h8.5h11q29 -13 35 -32q7 -8 7 -23q-3 -1 -3 -8t4 -18l3 -8q0 -1 -2 -7z" />
    <glyph glyph-name="N" unicode="N" horiz-adv-x="707" 
d="M817 501q5 -10 5 -17q0 -12 -16 -25q-5 -4 -7.5 -8.5t-5.5 -10.5l-5 -10t-12 -16q-2 -2 -8.5 -4t-7.5 -4q-3 -3 -3 -8v-4q0 -4 -4.5 -11.5l-10.5 -17.5t-8 -14q-1 -2 -10 -17q-5 -8 -13.5 -23.5t-16.5 -30.5l-8 -14t-6 -11l-3 -6q-6 -12 -20 -14q-1 -5 -1 -15v-8
q0 -9 -14 -17v-1l-1 -1l-1 -1v-1q-1 -1 -1 -2q-1 -2 -1 -3h-1v-1l-1 -1v-1l-1 -1v-1v-1q-1 0 -1 -2t-1 -2l-3 -6t-4 -7.5t-3 -6.5q-2 -23 -12 -39l-7 -19q1 -2 1 -6t-5 -16q5 -22 5 -49q0 -17 -7.5 -25.5t-25.5 -13.5q-6 -2 -11 -2q-19 0 -30 14q-8 10 -8 22q0 1 0.5 5.5
t1.5 12t1 14.5q1 1 1 4q0 4 -3 5q1 1 1 3t-4 5t-4 4q0 3 -2 5.5t-4.5 5.5t-4.5 6l-9 15q-9 7 -42 43q0 8 -43 45l-4 7q-4 6 -10 12t-13 9q-11 4 -20.5 13t-16 17t-7.5 9q0 3 -0.5 4.5t-2 3t-3 2t-3.5 1.5l-4 2q-13 7 -19 26q-8 11 -20 15q-8 6 -11 9q-2 2 -4.5 4t-3.5 3
l-1 1l-1 1l-1 1l-1 1q-8 -20 -16 -25q-6 -4 -10 -17t-7 -15v-1q0 -1 -5 -3q-6 -20 -8 -22q-7 -16 -22 -31q-1 -3 -7 -9.5t-10 -18.5q0 -1 -8.5 -16t-10.5 -25q-4 -16 -17 -34q-3 -3 -5.5 -11t-8.5 -14v-3q0 -18 -12 -32q-6 -13 -6 -19t5 -9q4 -7 4 -16q0 -14 -15 -31
q-11 -11 -26 -11q-26 0 -36 22v4q0 6 -2.5 12.5t-2.5 8.5q0 5 3 11q-2 4 -2 7q0 4 6 13.5t7 12.5q-1 2 -1 7q0 10 11 32q10 20 10 26q-1 1 -1 2q0 3 2 9q13 29 18 33q15 17 15 29q0 5 1 8l3 4q2 5 6.5 15t10.5 21q6 12 14.5 30t11.5 23q8 16 12 20q4 10 9 10h2q4 0 7 3
q1 1 1 4q0 1 -1.5 5t-1.5 6q0 3 1 4q8 17 10 20q4 3 8.5 16t7.5 17q-2 8 -2 11q0 9 4 16q13 40 35 42q13 1 26 1q25 0 33 -6q16 -8 16 -27q0 -8 -3 -16q-5 -2 -10 -9q3 -4 3 -8q3 -3 8 -11t9 -11q12 -7 31 -30q20 -24 26 -29l10 -10q12 -15 20 -22l2 -2q2 -2 5 -5.5t7.5 -8
l11 -11l13.5 -13.5q10 -11 19 -20l13 -13l4 -5v0v0v0v-1h1v-1q3 -3 13 -15.5t18 -17.5q9 -7 9 -19q14 -2 22 -7q1 -1 2 -1q2 0 3 3q7 19 15 38q1 1 7 6.5t9 11.5q2 6 2 8t-1 5t-1 4q0 3 1 4l4 10t3 8q4 2 6 10.5t5 12.5l45 79q9 9 17 34q7 23 17 40q23 40 24 41l13 9
q4 4 4 7q-2 2 -2 3t2 3q0 1 5 8q8 9 24 15q15 6 28 6q6 0 9 -1q14 -4 22 -23z" />
    <glyph glyph-name="O" unicode="O" horiz-adv-x="710" 
d="M723 312q-4 -17 -6.5 -40.5t-9.5 -37.5q-1 -3 -6 -13.5t-7 -14.5t-7 -11.5t-10 -12.5t-11 -9q-15 -17 -15 -19t-3 -4q-2 -4 -11 -14.5t-11 -17.5q-15 -7 -37.5 -27t-37.5 -27l-21 -6q-7 -5 -19 -11.5t-21 -13t-17 -15.5q-9 -3 -12 -3l-2 2q-1 -1 -3 -3.5t-3.5 -4t-4 -3
t-4.5 -1.5q-13 -9 -42 -11q-5 -1 -31 -9t-29 -8q-15 0 -20 -8l-49 -6q-1 0 -6 -2.5t-15 -2.5q-1 0 -43 2q-31 3 -39 6q-11 5 -24 8q-23 6 -37 22q-8 4 -16 17q-6 9 -7 10q-23 29 -23 53q0 4 2 14q-3 6 -3 13t1 10q4 3 6 18t5 18v4q0 8 8.5 22t8.5 18q0 3 -1 5q7 16 16 28
q1 2 13 23l5 10t6 10.5t8 7.5l1 1q0 5 3.5 9t12 12.5t15.5 17.5q18 22 41 45q22 22 40.5 36t20.5 16q-7 10 -7 18q0 15 24 26q7 5 18 7t15 4q6 1 49 12q5 5 11 8t15.5 6t12.5 4q2 0 40 15q24 8 39 8q28 0 32 -22q-1 -3 -1 -8q0 -3 1 -4q14 2 23 2q12 0 24 -5q3 1 8 1
q8 0 29 -15q33 -11 43 -13q16 -18 26 -25q10 -8 15 -13t16 -34t18 -74zM645 333l-5 8q-4 27 -8 30q-2 10 -13 18t-14 15q-1 0 -30 19h-8q-16 0 -23 6q-23 6 -46 6q-3 0 -35 -2q-24 -3 -79 -32q-52 -29 -64 -41l-19 -19q-1 -1 -2.5 -3t-4.5 -5t-8 -7q-2 -2 -6 -2h-2l-2 1
q-5 0 -8 -3q-3 -4 -3 -10q0 -5 -5 -7q-4 -7 -10.5 -13t-15.5 -14t-13 -11q-5 -18 -21 -25q1 -1 1 -2l-1 -3q0 -1 2 -3q-3 -4 -7 -10t-7.5 -10t-8.5 -8q-1 -8 -4 -10l-9 -9q1 -3 1 -7q0 -5 -18 -19q1 -1 1 -4t-5 -16.5t-7 -23.5v-4q0 -13 9 -41q9 -30 16 -37q16 0 35 -12
q3 1 11 1h16q7 0 8 1h6q7 0 12.5 2t7.5 2q4 0 6 -1h6q7 0 18 3t25.5 8.5t19.5 6.5l36 9q13 3 32.5 9.5t30.5 6.5q1 4 37 26q30 18 45 29q4 3 12.5 10.5t13.5 11.5q0 -1 1 -1l3 1h3q1 0 1 -1q3 11 8 16q2 5 4 7t6 3.5t6 3.5q14 9 14 16v2q6 4 10.5 11t8.5 9q10 15 29 56
q10 19 10 32q0 1 -0.5 5t-0.5 9q0 10 1 16z" />
    <glyph glyph-name="P" unicode="P" horiz-adv-x="551" 
d="M644 374q-1 -4 -3 -16q0 -1 -2.5 -6.5t-7 -16t-9.5 -21.5q-8 -13 -14 -18v-1h-1v-1h-1v0v-1h-1v0l-1 -1v0h-1v-1v0h-1q-4 -3 -8 -11q-11 -18 -27 -25q-2 -6 -15 -11q-5 -12 -16 -14q-10 -3 -54 -30q-44 -28 -57 -30q-5 -3 -17.5 -7.5t-20.5 -10.5q-11 -8 -22 -11
q-48 -20 -64 -20h-14q-5 0 -19 -6q-12 -5 -14 -5q-1 0 -1 1h-1v-1q0 -2 -16 -9q-8 -2 -12 -2q-15 0 -23 10t-8 19q0 21 24 25q3 3 11.5 6t15.5 5l7 1q3 0 5 -2q4 6 5 8q2 2 99 44q53 25 54 26q77 42 94 58q14 14 35 28q12 14 29 31q7 5 10 18l2 12q-3 4 -6 9t-4.5 8.5t-6 8
t-10.5 7.5q-2 5 -3 5q-4 0 -7 1q-1 1 -7 3.5t-8 4.5q-3 0 -8.5 4.5t-9.5 4.5t-5 -1q-2 -1 -6 -1q-3 0 -9 2l-39 5q-5 0 -34.5 -1t-35.5 -1q-7 -1 -13 -1q-11 -7 -37 -9q2 -6 2 -10q0 -14 -13 -21q-1 0 -17 -25q-15 -23 -22 -30l-15 -29q-6 -8 -10 -13q-1 -18 -28 -49
q-14 -26 -21 -38q-3 -1 -13 -22q-9 -20 -12 -27q-10 -16 -33 -71q-7 -17 -15 -30.5t-12 -19t-4 -9.5q0 -1 0.5 -2t0.5 -2q0 -5 -8 -13q-1 -5 -2.5 -8t-2.5 -4.5t-1 -2.5q0 -2 2 -6q-3 -10 -6 -17q-8 -28 -29 -28q-8 0 -17 6t-9 18q0 4 1 7q1 0 1 1v2q-4 9 -4 21q0 19 11 31
q0 5 2 15q1 6 21 45q18 36 20 50q2 35 21 46v1q0 5 12 19q7 20 25 58q19 40 24 47q10 16 19 33.5t14 25.5q7 2 14 27q-6 2 -9 2q-5 0 -12.5 -8t-8.5 -8h-1h-2q-2 0 -9.5 2.5t-8.5 2.5q-2 0 -5 -7t-4 -7q-6 -2 -11 -2q-11 0 -21 7q-8 5 -13 9.5t-7 9t-2.5 7t0 8t0.5 6.5
q6 14 13 20t20 9t19 6q2 -1 6 -1q2 0 4.5 1t7 3t7.5 3q10 2 11 2q3 0 13 2q15 5 16 5q10 0 44 9t47 9q5 0 6 -1q14 2 17 2q5 0 15 5q8 3 45 4q27 1 55 1q24 0 41 -4.5t19 -4.5q11 -2 26 -7q32 -6 61 -40q4 -5 13 -16.5t14 -17.5q-1 -1 -1 -5q0 -11 4 -14q1 -4 3 -9t3 -8
t1 -5q0 -5 -3 -9z" />
    <glyph glyph-name="Q" unicode="Q" horiz-adv-x="739" 
d="M767 334l-4 -11q1 -2 1 -6t-1 -6q1 -3 1 -6q0 -1 -16 -35q-4 -16 -16 -29q-3 -8 -8 -13l-7 -7l-4 -4q-44 -47 -58 -63q-11 -13 -16 -16q-2 -1 -5 -4t-5 -4q-1 -1 -4.5 -3.5l-10.5 -7.5l-14 -10q-24 -19 -40 -28l30 -15q17 -8 79 -59q68 -58 72 -63q8 -10 11 -22
q4 -3 6.5 -6t3.5 -5.5t2 -7t2 -7.5l6 -27q0 -13 -15 -20h-7q-24 0 -35 32q0 3 -6 9l-9 8q-8 7 -17 15t-18 18.5t-13 18.5v6h-10q-6 1 -11 4.5t-9.5 9.5t-5.5 7q-5 5 -40 27q-38 22 -51 27l-3 5q-10 0 -41 13q-3 -1 -12.5 -6.5t-15.5 -7.5l-15 -9q-3 1 -8 1q-7 0 -8.5 -5.5
t-4.5 -6.5q-5 -3 -9 -3l-4 1q-4 1 -5 1q-5 0 -8 -7q0 -1 -1 -3h-7q-2 0 -20 -8q-6 -2 -10 -2h-3q-7 -5 -27.5 -8t-27.5 -10h-2h-1h-1h-1h-1h-1h-3h-1h-1h-1h-1h-1q-11 0 -11 2q-8 -2 -17 -7q-40 2 -42 2q-1 0 -8 -0.5t-14 -0.5q-19 0 -33 10q-3 1 -8.5 4t-9.5 6l-4 2l-9 6
q-18 6 -32.5 22t-18.5 33q-9 10 -9 29q0 6 1 9q-2 4 -2 6v2v2v0v1v2q-2 6 -2 8q0 10 13 16q-9 3 -9 10t3 14q2 2 3.5 4t2.5 4l1 1v7q0 2 0.5 4t1 6t0.5 7l18 42q1 1 2 3.5t1 4.5q32 51 43 65t57 60q42 42 99 86q51 39 63 41q38 19 71 20h7q17 0 25 -13q1 1 4 1q13 0 30 -17
q4 -4 6 -7l1 -1q0 -2 1 -2q0 -1 1 -2l1 -1q1 -1 1 -2l15 5q11 6 41 8q16 4 37 4q9 0 13 -1q67 -10 83 -20q12 -8 20 -12q13 -8 22 -24q10 -4 10 -13q0 -4 -1 -5q14 -16 14 -25v-3q5 -5 5 -29v-16zM693 357q0 8 -16 45q-4 12 -8 12t-11 -3q-13 11 -25 11h-4h-1h-1h-1h-1h-2
h-1h-3h-1h-1h-2q-2 0 -12 2q-6 -6 -15 -6q-4 0 -10 2q-1 1 -3 1q-3 0 -4 -1q-10 -8 -37 -13t-36 -9q-11 -6 -22 -9q-1 1 -5 1t-12 -5.5t-13 -7.5q-8 -11 -17 -11q-4 0 -10 2q-18 6 -18 22q0 6 5 16l21 23q-2 0 -2 5h-2q-7 0 -20 -5q-4 -2 -14 -9t-22 -9q-4 -7 -14 -7
q-5 -11 -21 -20t-21 -15q-6 -1 -13 -6.5t-12 -6.5q-1 -7 -5.5 -12t-16 -16.5t-22.5 -24.5q-19 -23 -25 -35q-5 -2 -8 -4t-3.5 -2.5l-1 -1t-1.5 -0.5q-3 -3 -8.5 -19.5t-17.5 -22.5q0 -19 -17 -21q-1 -1 -7 -16t-6 -17q-11 -27 -11 -38q0 -4 2 -14q0 -2 -5.5 -6.5t-5.5 -5.5
h1q2 0 4 -6l2 -10q3 -9 9.5 -17.5t8.5 -12.5q7 -5 13 -8t9.5 -5t5.5 -3l14 -2q13 -1 18 -3q8 0 21.5 2.5t18.5 2.5q14 -5 24 -5q9 0 14 8q10 3 18 3q9 0 10 1q3 1 14 5.5t19 5.5q2 1 8 1q1 1 26 12q6 1 6 4t-6 3h-19q-8 2 -11 2q-1 0 -2 -0.5t-2 -0.5q-4 0 -12 2q-4 1 -11 1
q-5 0 -25 -4q-5 -5 -11 -5q-2 0 -12 2q-6 2 -8 2q-5 0 -8 1l-4 2q-24 6 -24 23q0 16 18 27q4 6 10 6q2 0 4 -1t4 -1q3 0 5 2l16 4q6 2 11 2h1h2.5t4.5 -0.5t7 -0.5h9q20 0 27 -3q6 3 12 3l15 -3q15 -4 17 -4q3 0 11 2q10 -6 17 -9q4 -1 9 -1h1h1h2v0h1h1q2 0 2 1l12 -3
q3 -1 9 -2.5t9 -3.5q6 3 19 8.5t19 9.5q25 15 27 18q43 30 54 43l12 9q3 0 5.5 2.5t4 7t2.5 5.5q7 13 17 17q4 9 21 26q13 13 14 22q12 18 12 26q-1 2 -1 5q0 4 6 10l3 6q1 2 1 5l-1 3q0 3 2 5v4v3v1l1 1v1v1l1 1v1z" />
    <glyph glyph-name="R" unicode="R" horiz-adv-x="611" 
d="M648 371v-3q0 -7 -5.5 -20.5t-9.5 -16.5l4 -3q-18 -15 -28 -27q-9 -13 -76 -54q-1 -3 -24 -17q-9 -5 -23 -12.5t-15 -8.5q-2 -1 -6 -1h-3l-2 1q-4 0 -10 -8q-7 -2 -21.5 -10t-25.5 -10q-5 0 -10 3l-6 3v-12q-4 -4 -9 -5.5t-12 -2.5t-10 -2l-1 -5q4 -2 12.5 -6t12.5 -6
q7 -7 14 -7q9 0 10 -6q21 -2 39 -20q3 -3 3 -6q0 -1 -0.5 -2t-0.5 -2q0 -2 1 -3q8 3 11 3q5 0 10 -4q7 -4 20 -13.5t22 -12.5q18 -6 44 -26l14 -12t11 -9.5t6 -4.5l18 -15q6 -7 6 -25q-6 -20 -26 -20q-11 0 -20 4q-8 3 -14.5 10t-13.5 9q-9 7 -30 16.5t-31 18.5q-2 0 -10 6
t-9 6q-6 3 -8 5q-14 0 -21 10q-2 2 -3 4l-2 2h-2q-14 0 -23 10q-1 2 -3 8t-3 7q0 1 -2 1q-1 0 -6 -1.5t-8 -1.5h-3q-13 1 -21 11q-10 4 -37 18q-2 0 -3 1l-1 1h-1l-2 1l-2 1q-3 2 -8 4.5l-7 3.5h-1h-1v1h-1h-1l-2 2h-1h-1v1h-1q-3 8 -11 8q-3 0 -4 -1h-5q-23 0 -38 21
q-6 8 -6 16q0 14 9 24q4 2 9 6t8 6t7 2q3 0 5 -1q2 2 11 2q15 0 20 -3q1 1 20 7q14 2 25 11h8q7 0 10.5 3.5t6.5 4.5q8 11 26.5 14t19.5 6q3 1 24 14q18 12 24 12t13 5t10 5h4h1h1v0h1q6 0 10 14l4 2l3 2q3 1 5 3q4 2 13 8.5t17 12t13 7.5l32 32q8 13 8 23q0 3 -2 11
q-2 6 -42 37l-36 5q-31 4 -45 4q-18 0 -42 -3q-6 0 -16 -1.5t-13 -1.5q-2 0 -13 9l-2 -2q-1 -2 -3 -4l-6 -6q-10 -9 -36 -9v-1q0 -12 -15 -37q-16 -27 -20 -39q-6 -16 -12 -16h-2h-2q1 -2 1 -6q0 -2 -3 -9.5t-3 -14.5q-12 -2 -15 -11.5t-9 -13.5q0 -8 -3 -13t-8.5 -9
t-7.5 -8q-6 -20 -17 -25q-2 -1 -4 -2.5t-3 -2.5t-2.5 -2t-2 -2.5t-0.5 -3.5q0 -4 1 -7q-2 -2 -3.5 -6.5t-2.5 -6.5q-4 -6 -11 -20t-15 -22q-13 -38 -21 -44q-12 -9 -21 -40q-8 -28 -11 -37q-1 -1 -1 -4q0 -1 5 -6q2 -14 2 -18q0 -14 -6 -23q-9 -13 -31 -13q-7 0 -11 1
q-5 11 -16 19q-2 8 -2 13q0 2 1 4v2q0 7 -5 15q11 50 11 51v0q16 32 26 62q7 14 11 19v4q0 6 18 41q4 7 6.5 12t3.5 8l1.5 4.5t1 2.5t1.5 1l3 6q3 5 5 10q9 13 10 16q2 7 19 33q2 4 4.5 11t4.5 11.5t5.5 10t7.5 9.5q11 21 19 21q5 0 9 -3q0 4 -4 11.5t-4 9.5q0 5 5 8
q0 6 7 15q2 3 6 7l-3 5q-1 1 -5 1q-5 0 -8 -5q-4 -1 -10 -2t-10 -3l-8 -6q-21 -6 -39 -8q-1 0 -5.5 1t-6 1t-5.5 1t-5.5 2t-4.5 2.5t-4.5 3t-3.5 4t-3 5.5t-1 7q-2 6 -2 9q0 4 8 22q3 6 9 9q1 0 2.5 1t2.5 2t2 1q1 1 4 1t4 1q16 9 19 9t5 -1q2 1 6 1q1 0 6.5 -1.5t10.5 -1.5
q3 0 16 9q7 6 103 21q23 12 49 12q10 0 15 -1q8 5 36 5h7h1h15h1h1h1h1h3h1h1h1h1h5h1h1h2h1h1h1h1q8 -3 17 -3q4 0 11.5 1.5t11.5 1.5q9 0 17 -3q56 -10 64 -19q35 -11 57 -46.5t22 -58.5q0 -5 -1 -8z" />
    <glyph glyph-name="S" unicode="S" horiz-adv-x="559" 
d="M560 431q-7 -45 -30 -59q-3 -1 -10 -1q-27 0 -35 26q-4 11 -4 12q0 4 1 6q-1 7 -3 9t-6 3t-8 5q-1 1 -5 1q-3 0 -4 1q-26 -7 -33 -7q-9 0 -17 5q-31 -14 -58 -14q-14 -2 -15 -3q-2 -4 -7 -4h-5l-47 -16q-4 0 -6 1q-12 -4 -15 -6.5t-4 -10.5q-26 -8 -33 -14q-4 -3 -15 -9
q-3 0 -8 -3.5t-5 -6.5q1 -7 5 -9q2 -1 9 -3q19 -8 21 -8l17 -4q4 -3 9 -12q12 3 13 3q2 0 3 -1q2 1 6 1q7 0 24 -15l26 2q21 0 28 -5q7 -1 14 -4.5t8 -3.5q2 0 8 2q17 -2 23 -8q12 0 18 -12h6q5 0 6 1h6q9 0 18 -4q3 -8 4 -8l2 -2q2 1 5 1q15 0 35 -20q1 -3 6 -8
q12 -9 14 -12q5 -7 5 -10l-1 -3v-4q0 -4 1 -7q3 -11 3 -19q0 -6 -5 -14l4 -2q-1 -10 -5 -18t-6.5 -11.5t-11.5 -12.5l-11 -11q-17 -17 -50 -35.5t-39 -27.5q-54 -21 -71 -21h-3q-5 0 -9.5 -2.5t-14 -8.5t-21.5 -11q-21 -10 -41 -10q-7 0 -17 2q-9 -1 -16.5 -5.5t-8.5 -4.5
q-3 0 -4 1l-63 -12q-1 1 -5 1t-18 -6l-38 -1q-11 4 -17 4h-3q-26 13 -26 42v6q12 27 40 27l21 -1q8 0 14 6q10 2 13 2q2 0 26 -8q1 -1 3 -1q1 0 4 5q8 2 28 5.5t32 9.5l90 21q6 0 22 4l4 1q17 8 37 15q6 6 10 6h2q3 0 18 9q8 -2 10 -2q3 0 7 2t8 10.5t8 11.5q7 5 15 7
q2 2 10 8q12 7 12 19q0 4 -2 10q-2 1 -3.5 3.5t-2.5 4.5q-15 5 -23 11q-4 2 -11 4t-10 3t-6 4q-2 1 -4 1q-3 0 -6 -1q-33 6 -46 17q-3 1 -9 1q-3 0 -7.5 -1t-6.5 -1q-5 0 -12 3q-9 3 -28 3q-9 1 -17.5 5.5t-9.5 4.5h-4q-4 0 -12.5 3t-12.5 4t-15.5 7t-16.5 8q-16 3 -25 4h-4
q-7 0 -12 2.5t-7.5 6t-6.5 11.5q-2 -1 -5 -1q-4 0 -10 6q-19 19 -20 32q-3 8 -3 15q0 8 2.5 16t6 15t3.5 8q8 9 14 9q4 0 5 -1l-1 11q13 13 30 17q4 13 17 13q6 6 12 9q1 0 6.5 2.5t17 7t22.5 9.5q37 15 49 17q3 1 7 1.5t7 0.5t5 1.5t2 3.5q20 3 36 8q15 4 22 4t14 -3
q5 5 6 5h1h2h1h1h1h1h2h1h1l-1 1q0 4 11 4q4 0 15 -3t14 -3l9 2q10 3 19 3q6 0 13.5 0.5t9.5 0.5q12 0 21 -5q7 -2 16 -7.5t14 -7.5q12 -15 12 -28q1 -3 1 -9l-1 -4q0 -4 7 -10z" />
    <glyph glyph-name="T" unicode="T" horiz-adv-x="460" 
d="M712 485q2 -6 2 -7q0 -6 -6 -12q-4 -13 -17 -13q-5 0 -11 4l-1 1q-1 0 -2 -1q-4 -9 -43 -10q-29 -5 -40 -12h-6q-10 0 -26 -4q-2 3 -6 3q-3 0 -12 -4t-10 -4q-3 1 -8 1q-4 0 -18 -5l-10 -2q-6 0 -10 4q-13 -8 -20 -8q-3 0 -9 2q-8 -6 -29 -8h-1v-1h-1q-1 0 -1 -1h-1h-1
v-1h-1q-16 -9 -19 -9q-2 -4 -6 -10t-5 -8q-1 -4 -18 -25q-18 -23 -21 -26q0 -9 -9 -22.5t-9 -21.5q-5 -8 -10.5 -14t-8 -7.5t-4 -4.5t-1.5 -9v-4q0 -8 -6.5 -13.5t-7.5 -7.5q0 -1 -8 -19q-2 -3 -4.5 -9t-3.5 -8q-1 -3 -5.5 -11.5t-6.5 -12.5q-1 -2 -4.5 -4t-6.5 -3l-3 -2
q-1 -1 -1 -2v-3q1 -2 1 -5t-2 -5q-7 -27 -11 -47q-1 -5 -7 -11l-4 -2v0v0v-1v0v-1v0l-4 -7q-2 -2 -4.5 -17.5t-10.5 -23.5q6 -11 6 -25q-2 -2 -4 -2h-1q2 -4 2 -6q0 -13 -23 -21h-6q-35 0 -35 44q2 26 6 42q2 6 4 21q6 6 7.5 21t8.5 22q-1 3 -1 7q0 10 13 17v6q0 11 2 16
t8 13.5t11 20.5q7 19 28 69l10 14l-3 6q6 5 12 18.5t15 21.5l3 13q2 4 9 12.5t7 17.5q0 3 -3 4q-1 1 -5 3q-9 -3 -22 -5t-29 -3t-23 -2q-7 -7 -17 -7q-12 0 -18 1q-3 1 -7 1q-2 0 -2 -1t-5 -8q-8 -8 -20 -8h-5q-5 0 -8 1t-4 2.5t-2 1.5l-10 -6q-18 4 -30.5 15.5t-13.5 28.5
q1 5 4 15q1 2 2 5t2 4q19 17 22 17h1l2 -1q1 0 7 2h15q12 2 19 2q1 0 4 -0.5t4 -0.5q14 0 61 9q7 1 12 2.5t7.5 2t4 1t2.5 0.5q5 0 10 -3q2 0 5.5 -0.5t5.5 -0.5q17 10 35 10q6 0 9 -1h8q8 0 22 2q3 1 14 5q13 1 18 16l25 28q6 1 15 7t14 6q3 0 4 -1q3 1 7 1q20 0 34 -18
q6 -14 6 -19q4 0 12 3t14 3t17 -3q1 -1 7 -1q4 0 5 1q15 7 18 7q5 0 11 -3l39 7h6q4 0 8 0.5t5 0.5q2 0 12 -2l9 4q6 -1 14 -1q7 0 17.5 2t16.5 3q25 0 31 -23z" />
    <glyph glyph-name="U" unicode="U" horiz-adv-x="655" 
d="M722 446q-3 -11 -10 -22t-8 -19q-5 -21 -22 -21q0 -6 5 -14q-1 -2 -7 -16.5t-13 -20.5q-4 -4 -7 -10t-5.5 -16t-3.5 -12q-22 -48 -22 -55v-3q0 -9 -15 -21v-2q0 -6 -7.5 -22.5t-13.5 -22.5q0 -27 -14 -41q0 -7 -12 -37t-12 -37q-1 -5 -7 -14t-6 -13q0 -1 0.5 -3t0.5 -4
q0 -5 -5 -10q-1 -3 -1 -9q0 -4 8 -17v-5q0 -14 -11 -21t-19 -7q-21 0 -31 21q-8 24 -8 32q0 4 2 12q-1 3 -1 7q0 2 2 5.5t2 5.5q1 2 4 30q3 26 14 40q-1 3 -1 7q0 1 1 4t1 6q3 11 12 27v4q0 8 8 10v9q0 11 7 21v1v2q0 7 6 13q6 17 12 30t7 15l-4 5q-7 -1 -13 -13
q-1 -2 -1 -3q-2 -2 -4 -6t-4 -6l-26 -20q-25 -21 -35 -25q-11 -18 -25 -26q-27 -32 -81 -53q-3 -10 -8.5 -15.5t-28.5 -21.5l-9 -6q-30 -20 -40 -21h-1h-4h-2h-2h-1q-5 0 -6 -13q-23 -8 -34 -21q-11 -11 -22 -11q-5 -1 -19 -7t-23 -7q-7 -5 -16 -5q-41 5 -56 26
q-15 17 -21.5 30t-7 17t-0.5 18q0 5 -2 9.5t-2 7.5v4q4 10 9 16q4 34 10 41q1 3 14 37q8 8 17 32q7 24 19 32q3 15 18 47q14 30 15 37q2 7 10 15q3 4 7.5 13.5t8.5 13.5l2 2q1 5 5 13t5 11q7 6 7 7t-1.5 2.5t-3.5 6t-2 12.5q12 26 23.5 33.5t33.5 7.5q11 0 17 -1
q15 -23 18 -36q3 -16 3 -24q0 -12 -4 -20q-4 -4 -9.5 -17t-22.5 -26h-1l-3 -13q-1 -8 -3 -12q-1 -6 -23 -35q-7 -2 -13.5 -16.5t-10.5 -19.5q-1 -6 -7 -15.5t-11 -13.5q0 -7 -5 -15.5t-5 -13.5v-5l-3 -3l-1 -1l-1 -1q-4 -3 -8 -5q0 -2 1 -7t1 -6q-5 -9 -15 -25q-2 -8 -2 -11
l1 -4v-6q-5 -3 -5 -4v-1v-1v0v-1q-9 -9 -9 -15q1 -1 1 -5q0 -9 -1 -15v-8v-1v-3q0 -4 2 -8q25 0 42 10q37 22 48 22h2q2 0 6 3.5t4 5.5l-1 1q16 8 27 19q1 1 5.5 3.5t14.5 8t19 10.5l21 17q20 18 31 24q6 7 17 9q14 17 24 20q4 1 7 3.5t6.5 6t6.5 5.5q2 2 25.5 20t38.5 31
q30 24 32 26q13 13 23 16q2 2 5.5 3t4.5 3q6 8 51 53l6 -2l1 1q0 1 -1 3t-1 3q15 15 15 27v3l7 10v2v0v1v0q0 3 1 6q1 2 1.5 7.5t3 10.5t7.5 12q6 7 8 19.5t18 20.5q10 6 20 6q21 0 37 -20q1 -1 1 -5v-4l-1 -3q0 -4 2 -6q-1 -3 -1 -7q0 -2 3 -4t3 -10z" />
    <glyph glyph-name="V" unicode="V" horiz-adv-x="438" 
d="M677 455q-10 -10 -21 -10h-2q-2 0 -4 1q-6 2 -11 5q-3 -5 -6 -5h-3q-2 0 -4 -3q-9 -9 -21 -9h-2q-8 -17 -30 -17l-21 -18q-2 -2 -5 -3.5l-5 -2.5q-9 -9 -18.5 -17.5t-14 -13l-6.5 -6.5l-15 -12l-4 -4q-1 -1 -9 -11q-6 3 -8 3t-2 -2q0 -3 -2 -7q-3 -4 -8.5 -12t-9.5 -12
l-22 -23q0 -2 -17 -17q-17 -16 -24 -17q-19 -6 -22 -13q-2 -6 -5 -13q-5 -8 -15 -12q-3 -2 -11 -6q-6 -11 -12 -13l-15 -19l-9 -18q-5 -6 -10 -8q-2 -5 -6.5 -8.5t-5.5 -6.5q-1 -2 -4.5 -7.5t-4.5 -9.5q0 -1 -6 -3.5t-6 -4.5v-1l-3 -5q-1 -2 -4 -7l-1 -1q0 -1 -1 -2
q-2 -3 -5 -6.5t-9.5 -10.5t-13.5 -16q0 -9 -8 -14q-3 -2 -16.5 -19t-18.5 -21q-2 -1 -6 -2t-6 -3q-1 -1 -1 -3q0 -1 1 -5t1 -5q0 -2 -1 -3q-4 -9 -16 -19q-7 -10 -15 -10q-5 -1 -16 7q-12 11 -12 30v12q3 3 10 50q-5 25 -5 36v7q-2 4 -2 9q0 2 0.5 7.5t0.5 9.5v6v4
q0 2 -1.5 8.5t-1.5 12.5q-2 6 -2 9q0 1 2 12t2 13q0 6 -1 9q-2 12 -2 17v7v1v1v1v2q0 5 0.5 8.5t0.5 5.5v2q0 4 -3 5q2 18 2 25q0 2 -0.5 5t-0.5 5q0 7 2 17q3 17 3 26q0 5 -2 15q-3 8 -3 12q0 3 2 13q2 6 2 13t-2 8q1 8 2 14t1.5 8.5t0.5 4.5q1 2 1 11q-1 2 -1 5t10 15
q-1 3 -1 9q0 9 15 24q16 17 35 17q11 0 24 -8q15 -9 18 -25q2 -8 2 -11q0 -5 -3 -17q-5 -3 -8 -14t-9 -14v-2q0 -2 -4 -14.5t-4 -15.5q-1 -2 -1 -6q0 -1 0.5 -3t0.5 -4q0 -6 -1 -9q-3 -15 -3 -26q5 -39 -2 -73q-4 -17 -4 -28q0 -2 0.5 -5t0.5 -4q0 -8 -4 -13q-1 -2 -1 -6
q0 -2 1 -5t1 -4q0 -5 -4 -10q6 -9 6 -19v-3q-6 -6 -6 -7q1 0 1 -7q4 -4 4 -9q0 -1 -1 -4.5t-1 -6.5q0 -4 1 -7v-1q0 -5 6 -5q2 0 3 1q13 23 15 25q0 3 1.5 6t3 5t7 8.5t10.5 11.5q8 9 22 29t22 28q21 24 22 25q11 11 20 23t15 19q1 1 10 8.5t17.5 15.5t12.5 14q18 31 37 37
q16 0 16 14v3q8 8 14 11t9.5 7.5t11.5 18.5q2 2 11 5.5t11 10.5q20 16 21 17q34 21 37 22q4 1 15 14q15 19 42 27q6 10 16 10q11 11 30 11q5 0 8 -3q3 3 7 3q9 0 28 -13q18 -13 21 -20q2 -10 2 -12q0 -15 -14 -27z" />
    <glyph glyph-name="W" unicode="W" horiz-adv-x="693" 
d="M926 489l-7 -7t-8.5 -8t-8 -6t-9.5 -5t-10 -2q-5 -4 -11 -5.5t-8 -3t-2 -7.5q-1 -3 -12 -11t-12 -9t-2 -2.5t-3 -3t-3 -2.5t-5.5 -4.5l-13.5 -10.5t-17 -14q-4 -8 -15 -10q-9 -16 -24 -25t-21 -15q-1 -2 -2.5 -4.5t-3.5 -3.5q-4 -13 -8.5 -18t-17.5 -8q-11 -8 -19 -30
l-26 -24l3 -3l-18 -18l-2 -1l-6 -10q-3 -1 -8 -10q-2 -3 -32 -45q-8 -9 -14.5 -18.5t-10 -13.5t-8.5 -7q-2 -4 -7 -11.5l-7 -10.5q-17 -11 -22 -25q-8 -16 -22 -24q-1 -9 -6 -18q-4 -12 -10.5 -18.5t-6.5 -14.5q-15 -27 -41 -27q-11 0 -20 4q-13 10 -13 23q0 6 3 14h1v2v7v1
v-1l2 20q-3 9 -3 18v10q0 9 -3 18q4 8 4 15q0 2 -1 6t-1 8q0 7 1 12l-3 14q1 2 1 6q0 2 -2 10.5t-2 12.5q0 38 1 103v20q1 1 1 4q0 1 -1 4t-1 5v2q0 7 -4 7q-2 0 -5 -4q-8 -13 -33 -37q-18 -18 -28 -32q-4 -5 -7 -9t-5 -5l-3 -1.5t-1.5 -1.5t-0.5 -3q0 -3 1 -5
q-9 -15 -24 -26l-20 -23q-36 -39 -49 -57q-1 -2 -24 -28q-22 -25 -25 -42q-1 -4 -18 -24q-13 -33 -30 -39q-8 -2 -11 -2q-16 0 -22 10q-6 9 -6 18q0 6 3 13q2 9 9 19q1 1 2.5 3t3 4.5t2.5 3.5q-1 9 -4 16q5 18 5 31q0 6 -2 12l4 11l-1 -1q-2 6 -2 11q0 8 5 20v1q0 2 -3 6
t-3 7q0 4 3 8q-1 5 -1 16q0 4 0.5 11t0.5 10q0 11 -1 16q3 32 3 46q0 10 -1 12q-3 7 -3 13q0 2 1.5 7t1.5 9t-2 10l2 47q0 2 0.5 4t0.5 3l1 2v2q0 2 3 9q-6 8 -6 16q-8 13 -9 27v3q0 38 37 53q6 2 9 2q1 1 14 -3l6 -2q4 0 7 3q24 -24 24 -46q0 -10 -4 -19l2 -5
q-8 -22 -8 -68q0 -33 -8 -57l-7 -6q6 -8 7 -12l2 -13q0 -7 -4 -11q1 -2 1 -4v-7v-1v-2v-1v-2q-4 -12 -4 -23q0 -5 2 -9t2 -7t-3.5 -9t-3.5 -8q0 -3 2 -7q-2 -4 -2 -10q0 -1 0.5 -7.5t0.5 -8.5l5 1q5 7 10.5 14.5t12 16.5t10.5 14l20 25q7 19 21 24q2 2 11 17l19 23
q12 7 15 10.5t4 9t8 13.5q3 10 9 16l16 20l19 17q0 13 17 26l27 35q5 21 13 33q4 1 7 5.5t5.5 10t3.5 6.5q12 19 36 19q17 0 31 -9q6 -6 8 -31v-16q0 -16 -4 -23q-3 -5 -4.5 -10.5t-2.5 -13t-2 -11.5q-2 -8 -4 -15v-2q0 -5 1 -8q0 1 1 1v-3q0 -2 -1.5 -13t-1.5 -14
q-4 -9 -5 -54q-4 -63 -5 -88q2 0 2 -3l-1 -4v-7q-1 -7 -1 -20q0 -20 3 -32h1q1 0 2 -1l2 -2q1 1 3 5q3 3 5 9q10 19 51 70q17 28 50 66q19 27 20 28q22 25 26 27q3 9 8.5 15.5t13.5 13t13 11.5q5 20 45 39l-2 6q45 52 46 53q2 2 7 6t13.5 11.5t16.5 14.5q31 26 42 33.5
t26 9.5q5 1 14 1q11 0 16 -1t13 -7t15 -19q4 -8 4 -17q0 -7 -1 -10z" />
    <glyph glyph-name="X" unicode="X" horiz-adv-x="486" 
d="M648 524l12 -24v-5q0 -4 1 -8t1 -5q0 -4 -3 -9q-12 -20 -33 -20q-6 0 -9 1q-2 1 -7 1q-8 0 -41 -20q-15 -9 -23 -9l-23 -12q-9 -10 -29 -21.5t-24 -13.5q-4 -4 -15 -12.5t-16 -12.5q-5 -5 -23 -8l-4 -4l-2 -2q-3 -5 -8 -9t-7 -10q-11 -8 -30 -19q-24 -24 -31 -26l-1 -5
q0 -1 3 -5l12 -24q0 -1 1.5 -3.5t3.5 -7t3 -7.5q4 -7 4 -13q0 -1 -0.5 -3.5t-0.5 -4.5q0 -6 5 -11q3 -2 4.5 -4.5t3.5 -8t5 -9.5q1 -4 7 -16.5t7 -21.5q2 -2 2 -5q0 -1 -2 -7l3 -2q2 -2 3 -4q8 -6 8 -15q3 -3 8 -24t5 -26l13 -7l4 -12t3 -9.5t1 -4.5q0 -10 -11 -21
q-12 -4 -18 -4q-4 0 -8 1.5t-10 5t-12 5.5q-12 12 -12 23q0 5 -2 9t-5 8.5t-5 8.5v2q-15 21 -23 45q-6 18 -9 19q-4 2 -5 6q0 1 -1 1v2q-1 1 -1 2q-1 0 -1 1q-1 1 -1 2t-1 2v1h-1v1q-1 1 -1 2v1l-2 2q-8 10 -8 17q-6 6 -12 24q-2 3 -6 15q-3 1 -6 9q-1 0 -1 1v1h-1v1v1
q-1 0 -1 1l-1 1q0 2 -1 2v1v1h-1v1v1h-1v1q-1 1 -2 1q-1 -1 -2 -1t-3 2q-6 -2 -12.5 -10t-12.5 -11q-7 -4 -14 -11.5t-11 -9.5q-6 -11 -26 -30q-20 -17 -31 -25q-23 -12 -24 -15t-8 -12l-10 -10q-11 -8 -21 -8q-4 -6 -6 -17q-2 -3 -6 -6.5t-5 -5.5l-5 -2q-4 -1 -7 -1l-3 -3
q-2 -2 -2 -6q-3 -8 -12 -19q1 -3 1 -7q0 -10 -9 -19q-20 -20 -32 -20q-4 0 -12 3l-4 -4q-18 14 -18 30q0 18 12 27q1 1 4 9t7.5 14.5t12.5 7.5q-1 2 -1 5q0 11 10 15q3 4 19 13q2 0 8 9q3 5 12.5 17.5t12.5 17.5q7 8 23 20l16 20q18 16 21 20q3 3 10 9t10 10q3 3 9 7t10 6.5
t5 2.5v-1q15 23 25 26q7 2 19 15t18 17q1 1 1 2q0 2 -1 5l-1 2l-1 1q-4 4 -6 5q0 6 1 7l-3 6t-3 7l-2 4q-12 3 -23 34l-5 15q-5 1 -16 27q-2 8 -7 12q-13 8 -18 10q-3 4 -5 8.5t-4 7.5t-5 6v7q0 13 7 26q14 14 28 20q12 4 20 4q7 0 14 -5q13 -1 18 -8q1 -2 4 -7l9 -15
t12 -19q12 -8 14 -33q1 -9 7 -21q1 -1 1 -2t-3.5 -5t-3.5 -7v-1h2l6 -2t4 -1q17 -9 17 -29l9 -1q16 18 25 21q5 9 26 16q3 5 9 5l2 -1h2q4 0 10 2q-2 0 -2 3q0 7 6 12q5 5 18 11t22 15q12 11 19 13q4 7 10 7h3q4 0 9 5q0 4 -1 6q4 3 14 9.5t14 9.5q3 2 9.5 7t9.5 6.5t9.5 4
t14.5 3.5q9 9 26 13t23 14q3 0 8 1h2q2 0 6 -2q10 5 17 5q12 0 33 -11z" />
    <glyph glyph-name="Y" unicode="Y" horiz-adv-x="404" 
d="M630 461q-4 -4 -11.5 -10t-11.5 -10q-22 -5 -39 -15l-8 1q-5 0 -5 -6q0 -5 -2 -7q-4 -6 -8.5 -10t-11 -8t-10.5 -7q-9 -14 -29 -26q-4 -1 -7 -10q-19 -13 -20 -14q-3 -6 -14 -12l-1 -1l-4 -4t-5.5 -5t-6.5 -7q-28 -18 -50 -50q-10 -13 -23 -22.5t-19 -20.5q-2 -2 -7 -2
q-12 -12 -20.5 -22.5t-11.5 -15t-5.5 -7.5t-5.5 -4q-7 -3 -14 -10q3 -11 3 -20q0 -7 -1 -10q-1 -18 -15 -26q-4 -8 -12 -8q-5 0 -12 3.5t-9 3.5h-2q-15 -11 -31 -45q-10 -21 -28 -28q-1 -15 -11 -23q-10 -7 -17 -23q-1 -8 -6 -12t-5 -9q0 -1 -2.5 -2.5t-5.5 -3l-5 -2.5
q-1 -2 -1 -5q0 -2 0.5 -3t0.5 -3q0 -4 -1 -6q-1 -6 -12 -13t-22 -7q-23 1 -30 10.5t-7 29.5v5q4 21 23 40q7 1 10 2t3.5 1.5t0.5 1.5q0 3 -3 9q19 24 22 30q2 5 11 14q8 9 15.5 18t11 13t4.5 5q3 6 5 11l16 9q-1 2 -1 5q0 10 15 23q2 5 4.5 8.5t7 8l6.5 6.5q-4 7 -13 32
q-7 17 -9 17q0 1 -0.5 2.5t-1.5 2.5t-1 3q-1 1 -3 6q0 1 -3 17t-12 37q-12 27 -12 36q-7 11 -7 23v3q-7 7 -11 22q-5 17 -5 18q1 1 1 4q0 2 -3 7.5t-5 13.5q-2 10 -2 15q-5 16 -5 30q0 12 4 20q6 13 15 19q11 8 20 8q6 0 23 -3q20 -7 24 -31q6 -16 7 -23v-6q0 -16 -4 -25
q1 -4 2.5 -16.5t3.5 -16.5q1 -1 1 -5q0 -5 -1 -10q3 0 4 -3v-1v-1h1v-1v0v-1l5 -19q2 -15 8 -32q4 -17 7 -24q6 -11 6 -17v-2q1 -3 2.5 -9.5t3.5 -10.5l1 -4q1 -2 4 -6.5t3 -8.5v-1q0 -1 1 -1l6 2q8 5 29 34l18 16q16 25 30 34q0 1 3.5 3.5t3.5 6.5q6 4 15 13.5t15 14.5
q7 6 12 11t16.5 15.5t17.5 17.5q5 9 15.5 16t15.5 13q5 7 15 17q6 5 10 13q12 5 13 6q14 16 21 18q1 5 27 21q26 18 30 19q2 1 5.5 2t4.5 2q11 4 20 4q11 0 34 -19q5 -5 5 -26q0 -9 -1 -15z" />
    <glyph glyph-name="Z" unicode="Z" horiz-adv-x="524" 
d="M594 486q10 -6 10 -15q0 -20 -22 -24q-30 -33 -43 -43q-7 -8 -15 -12h-2q-6 0 -14 -7.5t-9 -8.5l-8.5 -8.5t-16.5 -9.5q-4 -1 -7 -4t-7 -8t-7 -8l-13 -9h-4q-28 -23 -33 -30q-10 -4 -10 -5q-1 0 -2 -1h-1q-3 -2 -7.5 -6t-8 -6.5t-6.5 -2.5t-5 1q-11 -12 -12 -13
q-2 -3 -18 -10q-5 -2 -5 -4q0 -1 -14 -15q-14 -13 -19 -21q-27 -24 -29 -29q-1 -1 -15 -12t-18 -20q-29 -30 -36 -31q-10 -2 -10 -5v-2q-7 -12 -22 -18q-5 -1 -5 -2v-1v0q-1 0 -1 -1v0v-1h-1v0q-1 -4 -9 -4q-5 -7 -15 -17h1q6 -1 10 -1q2 0 10 5q15 1 31 1h9h4q14 0 22 6
q6 1 20 1q12 0 14 2h4h2h12h1h3h2h1h3h1h1h1q4 3 7 3q6 0 11 -1q7 4 13 4q1 0 5 -1t10.5 -2t12.5 -1q5 -1 9.5 -1.5t7 -1l5 -1t4.5 -0.5q4 0 19.5 3t17.5 3q4 1 12 1t16 -4q9 3 11 3q3 1 6 1h4l2 -1h3q1 0 4 -1.5t7 -2.5t9 -1q14 -3 15 -4q19 -2 24 -18q-3 -32 -30 -32h-7
q-12 0 -34 5q-2 2 -3 2t-5 -2q-2 -1 -5 -4q-8 -6 -26 -9q-61 2 -76 8q-5 -5 -11 -5q-2 0 -6 1t-6 1q-6 0 -10 -3q-16 -10 -48 -10q-13 0 -16 1q-16 -9 -21 -9q-2 0 -8 2q-18 -5 -45 -7q-8 -1 -13.5 -2.5t-6.5 -1.5l-2 1h-3q-4 0 -8 -5q-10 -2 -13 -2q-7 0 -18 3
q-4 -2 -10 -3.5t-9 -2.5h-1q-4 0 -16 -4q-14 -10 -32 -10q-2 -1 -5 -1q-6 0 -10 4q-3 -1 -10 -1q-11 0 -22 9q-11 11 -13 26q1 10 12 23q4 4 21 15q3 1 28 9q7 2 8 5q4 12 19.5 21.5t20.5 21.5l19 17q5 6 18 19l4 4l8 8l1 1l8 8q2 2 7 5.5t8 6.5t4 7q12 5 20 15q19 24 34 36
v-1q2 0 5 3t5 3q4 2 5 2l1 -1l6 2q5 16 15 24q11 11 26 22q28 22 59 49q2 1 5.5 4.5t5.5 4.5q15 10 21 11q9 22 48 46q4 6 13.5 11t9.5 6l-1 4l-12 1q-3 -6 -15 -6q-4 0 -5 1t-3 1t-9.5 -3.5t-12.5 -4.5q-14 2 -15 2q-3 0 -20 -5q-11 -1 -20 -1q-12 -5 -23 -5q-10 0 -16 2
q-6 -7 -30 -7q-4 0 -13 -2t-10 -2q-5 -1 -14 -1q-2 0 -6.5 0.5t-6.5 0.5q-9 0 -12 -1q-32 3 -39 14q-3 8 -15 18q-3 11 -3 15q0 8 6 19q1 5 10 12q16 11 43 11q19 0 30 -1q1 -3 3 -5h2q4 -1 11 -1q8 0 12 -1q7 0 13.5 1.5t7.5 1.5q3 0 9 -2q8 5 28 5q1 0 15 -0.5t16 -0.5
q9 4 12 4q4 0 5 -1q7 0 27 1t38 1q3 1 8 1t11 -2q9 3 16 3h3l2 -1q8 0 16 5q4 0 7.5 -1t6 -1.5t4 -1t2.5 -0.5l1 -1h-1q1 3 14 11q9 8 30 11q8 2 12 2q14 0 25 -9q8 -4 13 -16zM393 294z" />
    <glyph glyph-name="bracketleft" unicode="[" horiz-adv-x="271" 
d="M452 573q0 -19 -12 -24q-2 0 -6.5 -1.5t-6.5 -2.5q-6 7 -8 7t-7 -9q-8 -6 -18 -6h-5q-1 1 -5 1q-1 0 -11 -2t-15 -2q-3 1 -8 1t-11.5 -3.5t-15 -9.5t-13.5 -9q-7 -7 -9 -8l4 -13q-11 -6 -19 -12v-5q0 -10 -13 -42q-15 -37 -19 -44q-3 -7 -3 -9q0 -3 3 -9q-4 -2 -7 -7
l-3 -4q-1 -2 -2.5 -6.5t-3.5 -8.5q1 -2 1 -6t-5 -10.5t-7 -11.5q0 -1 -28 -67q-12 -28 -12 -34v-1q-2 -7 -5 -15t-5 -15t-2 -16q-7 -2 -10 -7.5t-5.5 -15t-5.5 -14.5q-1 -1 -6 -4t-7 -5q6 -6 6 -11v-1q-5 -10 -8.5 -28t-5.5 -24q-5 -18 -22 -35v-6q0 -12 -11 -40t-13 -42
q-12 -12 -12 -16q0 -2 2 -4q1 -3 1 -10q0 -18 -11 -27v-3q46 0 51 -3q6 -2 7 -2q13 4 27 4q1 0 4 -0.5t5 -0.5q7 0 25 2q19 -5 19 -23q0 -10 -4 -21q-12 -5 -17 -5h-1h-6h-3h-2h-2h-1h-1q-6 0 -11 -1.5t-11 -3.5t-11 -3q-8 -2 -9 -2q-7 -4 -16 -4q-10 0 -19 4q-2 1 -6 1
t-16 -4t-18 -4q-5 0 -8 1q-10 -9 -23 -9q-3 0 -13 2q-12 6 -18 21q0 4 -2 4l-4 21v7v1v1v1v3q0 6 6 12q0 9 8 17q3 10 14 35t19 49q5 15 8.5 27t4.5 17t2.5 9.5t3.5 8.5q2 8 5 11q0 6 7 25q9 8 18 32q9 31 10 39q5 6 9 21.5t10 21.5q1 4 3.5 13.5t5.5 16t8 12.5q3 7 7 7h1h3
h1h1h1h1h1h1q-8 11 -8 18v2q8 33 19 60q6 13 8 16q5 7 6.5 16.5t5.5 15.5v4q0 10 7 17q12 19 20 55q5 4 8.5 14t6.5 14q0 3 4 9t8 10l4 5l3 -1h2v1q0 2 -6 11q0 6 5 13.5t5 9.5v4q0 15 11 21q3 10 3 18q0 10 9 17q0 7 4 12.5t6 6.5t11 7q6 2 13 8q8 -5 10 -5q3 0 11 -3
q10 -5 14 -10q4 -1 7 -2t4 -2t2 -1.5t2 -0.5q4 0 10 3q9 -6 15 -6q2 0 6.5 1.5t8.5 1.5q8 0 12 -1q6 3 10 3q3 0 9 -2.5t8 -2.5h1l15 -12q10 -8 10 -9z" />
    <glyph glyph-name="backslash" unicode="\" horiz-adv-x="362" 
d="M373 -71v-7q0 -12 -6 -22q-9 -11 -20 -11q-6 0 -13 3q-12 9 -15 15q-8 12 -13 31q-6 6 -12 25q-2 7 -12 9q1 1 1 4l-1 3v5q-2 10 -11 26t-10 29q-15 23 -21 51q-4 4 -5.5 15t-3.5 13q-5 3 -6 12v7q0 7 -2 7h-1q-14 9 -14 18q0 4 1 5q-14 25 -25 65q-7 21 -14 28
q-7 8 -8 16q0 4 -7 14t-7 16q0 4 1 7q-7 8 -13 39q-7 1 -10 8.5t-4.5 18t-3.5 14.5q-1 4 -8 8q-2 7 -12 27t-10 29v3q0 9 -8.5 23t-10.5 19q-1 2 -1 5q0 2 -2 4q-6 11 -6 18q0 10 8 23q10 14 28 14q25 0 33 -18q1 -1 1 -5q0 -3 4 -7q-2 -4 -2 -5q-1 -1 1.5 -3t7.5 -8t7 -15
q6 -29 9 -34q1 -1 1 -4q0 -1 -1.5 -3t-1.5 -3q0 -2 3 -6.5t6 -9.5t4 -6l4 -5q4 -4 4 -9v-4q10 -14 10 -19v-3l4 -9v-2q0 -7 4 -11q7 -7 10 -14q0 -1 0.5 -3.5t1.5 -3.5q0 -2 1 -3v-1q1 -1 1 -3q10 -28 10 -31q0 -6 -3 -11q0 -1 8.5 -10.5t9.5 -15.5q0 -4 9 -22t9 -26v-2
q0 -4 5 -7q9 -9 9 -14q0 -2 -2 -2l7 -9q-1 -3 -1 -7l2 -6v-5v-1v-1v-1l1 -3v-1v-1q1 -1 1 -5q23 -27 23 -50q5 -20 5 -26q1 0 2 -2l2.5 -5l2.5 -5l4 -10q2 -4 5 -12.5t5 -12.5l15 -24v-2q0 -5 -4 -14q7 -9 8 -9q1 -1 6 -2q6 -11 8 -25q7 -11 8 -30q0 -6 10 -10z" />
    <glyph glyph-name="bracketright" unicode="]" horiz-adv-x="271" 
d="M340 548q1 -3 1 -7q0 -9 -13 -25t-13 -27q-7 -13 -13 -17q0 -1 -3 -6t-4.5 -8t-5 -6t-7.5 -3q-1 -1 -3.5 -18.5t-2.5 -20.5q-9 -7 -15 -16q-2 -3 -9 -20t-16 -26q-2 -6 -2 -10q0 -20 -12 -30q-3 -12 -10 -33l-11 -33q-3 -6 -7.5 -13.5l-7.5 -12.5t-3 -7l1 -1q0 -2 -2 -8
q-3 -3 -8.5 -14.5t-10.5 -24.5t-6 -14q2 -6 2 -9q0 -9 -9 -19l-2 -19h1l-1 -3q-1 -3 -2.5 -7t-1.5 -6q0 -4 -13 -23q-13 -20 -13 -29q-1 -8 -3 -23q-1 -2 -7.5 -16.5t-8.5 -23.5q5 -7 5 -11q0 -9 -12 -21q-4 -4 -4 -9v-4q0 -4 -5 -12q0 -9 -6 -27q-2 -8 -2 -9q-1 -2 6 -9
q1 -3 1 -12q4 -4 4 -9q0 -2 -5 -15q-16 -16 -25 -18q-3 1 -9 1h-5l-3 -1q-5 0 -13 5q-3 -1 -7 -1q-9 0 -16 6q-1 1 -3 2l-4 2q-8 -5 -15 -5q-3 0 -11 2q-7 -4 -16 -4h-8h-1h-1h-1h-1h-1h-5v0h-1h-1h-1q-2 0 -8.5 -0.5t-13.5 -0.5q-1 1 -2 3t-1.5 3.5t-1.5 3t-2 1.5
q-2 0 -7.5 -5t-8.5 -5t-11 2h-4q-17 0 -22 15q-1 1 -1 5q0 5 4 12l6 9h2q2 0 4.5 1t5.5 3t6 3q6 2 10 2l4 -1q6 0 11 5q10 0 18.5 2t10.5 2q7 0 11 -1q3 -1 10 -1q6 0 19.5 4t22.5 5q11 5 13 19q1 2 3 12.5t5 18t6 8.5q0 1 5 3t7 6q3 2 3 3t-3 5t-3 7v2q0 12 8 20q1 5 11 39
q7 29 16 38q0 3 7 5.5t7 6.5q0 6 -4 15q1 3 3.5 13.5t6.5 16.5q2 14 3 20q2 10 28 61q3 12 17 42q11 24 13 35q0 8 8 18q0 15 8 20q1 3 5 20.5t13 27.5q0 12 13 33v3q0 7 6.5 16t8.5 14q2 7 10.5 20.5t8.5 18.5q0 4 -1 5q-1 2 -1 5q0 4 6 10.5t9 14.5q1 1 1 4q0 8 -11 10h-3
q-4 0 -17 -7h-3q-2 0 -8 -0.5t-9 -0.5h-5q-1 -1 -2 -1l-4 3q-4 3 -6 3q-4 -1 -9 -3t-7 -2q-3 0 -5 1l-18 -3q-1 3 -7 3h-1q-1 -1 -2 -1q-5 0 -8 3q-7 7 -10 12t-3 6l1 2q0 6 9 20q10 12 35 12q10 3 15 4q1 1 4 1q4 0 5 -1q7 4 13 4q3 0 9 -2q4 1 14.5 6t17.5 6q7 0 15 -0.5
t10 -0.5q23 0 34 15l31 2q14 0 21 -19q2 -7 5 -14.5t3 -9.5q0 -5 -6 -13z" />
    <glyph glyph-name="asciicircum" unicode="^" horiz-adv-x="488" 
d="M470 125q-1 -6 -4.5 -9.5t-5.5 -5t-8.5 -3.5t-7.5 -2h-7q-21 0 -34 28q-3 0 -20 14q1 3 1 7q1 2 -1 4t-6 6.5t-6 10.5q-2 4 -6 12.5t-8 15t-8 8.5q-2 2 -2 4q2 7 2 11q0 7 -9 10q-3 3 -7 6.5t-5.5 5t-3 5.5t-2.5 10q0 1 -0.5 4.5t-0.5 5t-0.5 4.5t-1.5 4.5t-2.5 3t-4 2.5
t-5.5 1q-4 9 -6 11t-4 2q-1 -1 -2 -1t-2 1q-13 -6 -19 -19q-8 -1 -13.5 -4t-9.5 -6t-6 -4q-7 -3 -10 -6l-7.5 -7.5t-11.5 -9.5q-14 -11 -18 -21q-16 -11 -48 -35q-9 -7 -22.5 -22.5t-19.5 -17.5q-6 -3 -10 -7t-10 -12t-6 -9q-12 -14 -31 -14q-6 0 -10 1q-22 7 -33 24
q-3 9 -3 14q0 10 13 21l1 1h1v1h1l1 1l1 1l1 1l1 1h1v1h1l1 1q2 1 6 5t8 6l2 1q4 5 9 6q14 20 32 27q4 3 20 12q6 2 9 2h1q1 -1 2 -1q4 0 4 6v2q2 6 2 8q0 4 4 5q12 6 26.5 19t25.5 19q1 4 9 9q2 1 4.5 2t3.5 1l16 13q5 0 8 10q7 10 16 13q2 2 5 2q2 0 6 2l5 8q1 3 3 7
q8 1 16 6q15 19 21 24q3 2 8 5.5t8 5.5q10 2 15 2q27 0 37 -32q8 -32 32 -78q-1 -1 -1 -3t2 -5t5 -9.5t6 -14.5q6 -18 11 -25v-2q0 -2 2 -5.5t5.5 -8.5t4.5 -6q-3 -5 -3 -8t3 -5q12 -8 13 -9q5 -5 5 -13q0 -3 -1 -5q26 -21 26 -44v-4z" />
    <glyph glyph-name="underscore" unicode="_" horiz-adv-x="400" 
d="M400 -101v-32q-16 0 -24 3q-2 -6 -8 -6l-7 2q-7 1 -14 1q-1 -1 -3 -1q-1 0 -4.5 0.5t-8.5 0.5h-10h-2q-2 0 -8 1.5t-8 1.5q-2 -1 -6 -1q-2 0 -5 1h-4q-6 0 -11 -4q-10 0 -18 -0.5t-11.5 -1t-4.5 -0.5q-8 0 -12 2q-1 -1 -2 -1l-1 2q-1 2 -3 2q-1 0 -2 -1q-3 1 -6 1
q-1 0 -4 -1.5t-9 -1.5q-3 -2 -33 -3q-32 0 -34 -1h-5q-6 0 -11 5q-2 -1 -6 -1h-4q0 1 -1 1h-2h-1l-1 1h-1h-2q0 1 -1 1h-1h-1h-1q-8 2 -11 2q-5 0 -6 -4q-9 0 -12 4q-2 -5 -6 -5l-10 2q-16 4 -15 3q-4 0 -6 -5q-2 1 -8 3q-3 1 -8 1q-8 0 -17 -3v32h8q14 0 22 -3q3 -3 5 -3
q1 0 1.5 1.5t3 3.5t7.5 2q1 -3 6 -3l23 5q3 0 6 -3q1 -1 4 -1t10 1.5t9 1.5q9 0 14 -6q11 4 15 4q2 0 4 -0.5t7.5 -2t12.5 -3.5q2 0 6 3.5t7 3.5h2q6 -2 7 -2q2 0 3 0.5t3 0.5q12 0 83 -3q2 2 10 3q3 1 9 1q8 -4 11 -4q1 0 3 1.5t7 1.5q2 -1 7 -1h4l3 1q7 0 10 -4q2 0 4 0.5
t3 0.5l2 1q2 0 10 3q11 -3 19 -3q3 0 5 2q8 -5 10 -5t3 1q0 1 1 1l1 1l1 1h1q1 1 4 1h3z" />
    <glyph glyph-name="grave" unicode="`" horiz-adv-x="358" 
d="M347 330q-10 -10 -17 -10h-3l-7 1q-13 10 -15 13q-2 1 -20 14q-18 12 -18 18q-18 14 -21 24q-7 2 -18 11.5t-16 12.5q-1 4 -2.5 6t-6 4.5t-5.5 3.5l-1 10q-1 1 -4 1h-6q-3 0 -4 1q-7 7 -7 17q0 7 3 15q1 1 12 11.5t23 10.5q29 -2 35 -12q8 -14 11 -15q6 -3 11.5 -13
t10.5 -14v-13q2 -2 5 -2q1 0 2 0.5t2 0.5q3 0 4 -1t8 -17q4 -13 16 -16q4 -2 11.5 -13t9.5 -13q12 -10 12 -21q0 -8 -5 -15z" />
    <glyph glyph-name="a" unicode="a" horiz-adv-x="454" 
d="M417 163q0 -6 1 -12.5t1 -8.5q0 -9 -8 -22l-8 -27q0 -2 -6 -29q-5 -21 -20 -32q0 -4 5 -14l6 -12q-8 -15 -23 -18.5t-27 7.5q-14 23 -16 52q4 7 6 37q1 11 5 28t2 26q-18 0 -18 -13q-3 -3 -13 -6t-12 -8q-1 -10 -20 -18q-5 -2 -10.5 -4t-8.5 -3.5t-4 -1.5q-3 -2 -6 -5
q-1 -6 -5 -7h-3q-2 -5 -5 -9.5t-9 -9t-9 -6.5t-10.5 -6t-9.5 -5q-5 1 -8 -3.5t-5 -6.5q-1 -1 -2 -3t-1.5 -2t-3 -1t-6.5 0l-9 1l-4 -12q-8 -2 -8 -3l-5 -5q-8 -10 -22 -9q-6 -4 -18 -4t-16 -1q-3 2 -13 7t-13.5 7.5t-11 7.5t-11 9t-7 11t-5.5 14q-2 16 -3 19t6 15t8 15
q1 12 14 27q6 6 15 11q-2 20 18 33l15 24l8 8q9 8 17 16l24 24q4 4 14 7q3 7 8 10.5t10.5 4.5t7.5 3q2 -1 10.5 5.5t9.5 6.5q5 7 12 8q5 1 15.5 4.5t15.5 5.5q3 -1 19.5 4.5t27.5 0.5q1 0 9 -2q8 4 27 -5q25 -9 38 -27q0 -5 3.5 -14.5t3.5 -14.5q0 -4 -5 -11q-4 -9 -11 -19
q17 -1 28 -7t15 -11t14 -21zM316 187q-13 7 -16 20q-1 4 0 12t2 12.5t-1 7.5q-6 6 -36 -9q-6 -3 -12.5 -6t-10 -5t-4.5 -2q-1 -1 -18.5 -16t-26.5 -19q-11 -5 -23 -20q-21 -13 -28 -22q-3 -3 -5 -5.5t-3 -5t-4 -7.5t-8 -12l-4 -6t-3.5 -5t-2.5 -3.5t-2 -2.5l-1 -1
q-1 -1 -2.5 -3t-4 -7l-6.5 -13q-8 -15 -6 -20l2 -2q3 -2 5 -1q3 1 9 3.5t8 3.5t6.5 3.5t7.5 5.5l7 7h13q1 2 1.5 5t2.5 5q2 1 5 2t4 2t3 1q7 11 19 11l31 20q3 5 6.5 8t5.5 4t6.5 3.5t7.5 4.5q12 11 25 16q3 7 21.5 19t29.5 17z" />
    <glyph glyph-name="b" unicode="b" horiz-adv-x="440" 
d="M430 194q-2 -2 -5 -4l-3 -3q1 -1 1 -4q0 -10 -22 -29l-1 -2q-1 -1 -2.5 -3.5t-2.5 -4.5q-5 0 -8 -1h-1q-2 0 -3 1q-5 -13 -14 -27q-5 -12 -20 -16q-3 -9 -21 -19q-2 -1 -7 -1q-2 -5 -7 -9t-11.5 -8.5t-9.5 -7.5q-12 0 -30 -17q-5 0 -7 -4t-3 -8.5t-10.5 -9t-27.5 -5.5
l-3 -6h-10h-8q0 -17 -19 -17h-5q-8 0 -11 -9h-7q-11 0 -35 8l-4 2q-2 0 -10 -5l-12 10q-9 8 -32 15q-11 3 -14 19t-5 19q-2 6 -2 10q0 7 4 14v7q0 29 17 43q-1 2 -1 7t6.5 15.5t8.5 15.5q1 1 6.5 5t9.5 6v3q0 6 8 32q8 25 13 33q3 5 11 15q13 15 13 26v4v1h1v1l1 1v1l1 1v1
h1v1l1 1v1q1 0 1 1l6 9t5 10l10 17q1 6 12 27q11 17 23 19v1q-1 1 -1.5 3t-0.5 4q-2 4 -3 5q4 10 12.5 28t11.5 27q2 4 2 7q0 2 -0.5 5.5t-0.5 5.5q0 3 2 13q8 24 44 29h4q31 0 36 -26q1 -3 1 -9q0 -18 -18 -43q-1 -8 -9 -15t-8 -15q-2 -1 -3 -4.5t-3 -5.5q-17 -29 -20 -32
q-6 -19 -14 -22q0 -3 -4 -12v-1h-1v-1l-1 -1v-1v-1l-1 -1l-1 -1v-1v-1h-1v-1q-9 -12 -10 -16v-1q-1 -1 -1 -2v-1l-1 -1v-1q0 -2 -1 -3l-4 -4q-4 -4 -4 -9q0 -8 -10 -18l-10 -9v-9q0 -3 1 -4q5 7 19 15q6 5 16.5 9.5t12.5 5.5q1 1 3 1t5 -2t5 -2t4 2l8 11q6 6 18.5 9t14.5 4
q14 5 16 8q40 6 47 6q12 0 25 -3q11 -2 13 -4l1 -1l4 -4l2 -2h4q17 0 23 -14q15 -37 15 -53q0 -11 -5 -24zM347 239l-8 -1h-4h-5q-1 0 -3.5 0.5t-3.5 1.5q-1 0 -14 -8q-6 -2 -22 -5.5t-27 -9t-17 -15.5q-1 -1 -5 -1q-6 0 -7 -1q-3 -2 -7.5 -4t-5.5 -3q-1 0 -5 -3t-14 -9.5
t-19 -12.5q-6 -10 -14 -17q-16 -16 -17 -18v-1q-3 -4 -3 -11q-1 -1 -4.5 -3t-5.5 -4q-5 -5 -11 -5q1 -1 1 -3q0 -3 -6 -10.5t-8 -10.5l-2 -4l-1 -2q0 -7 13 -37q1 1 4 1q2 0 7.5 -1.5t6.5 -1.5q9 0 9 9q26 9 36 17q3 1 9.5 3t15.5 5q7 3 10.5 6t6 7.5t5.5 6.5q14 14 17 14
t4 -1h3q3 0 6 2.5t6 6t6 5.5q1 1 3 1q1 0 3.5 -1t3.5 -1q5 0 6 11q12 9 25 22l14 14q5 5 7 9q6 2 7 2q4 0 5 1q1 0 1 2l-1 3q-2 3 -2 5t2 4q1 2 1 12q0 4 -2 34z" />
    <glyph glyph-name="c" unicode="c" horiz-adv-x="384" 
d="M379 89q-7 -22 -36 -33q-7 -3 -17 -9.5t-15 -8.5l-13 -7q-2 -1 -5 -1h-2q-2 1 -4 1q-3 0 -5 -1q-4 -1 -17 -6t-19 -5t-9 1q-2 1 -4.5 -1.5t-3.5 -2.5l-6 -3q-2 0 -3 -1q-19 -15 -30 -15q-5 0 -12.5 -2t-9.5 -2q-4 0 -6 1q-1 0 -5 1.5t-6 1.5q-1 0 -6.5 -3t-11.5 -3
q-8 0 -21 8t-19 8q-2 0 -8.5 -1.5t-9.5 -1.5t-8 5q-24 17 -35 44q-3 8 -3 16q0 12 3 25q1 3 1 9q0 4 -1 8t-1 6q0 5 3 10l1 1v1q1 0 1 1v1h1v1v1h1v1v1h1v1v1h1v1l1 1v1l1 1v1q7 12 8 13q18 19 23 26q9 11 57 47q2 2 2 5v2q2 6 4 8q4 3 14 11q20 7 57 22q41 15 53 15
q22 0 45 -13q3 -2 6.5 -3.5t5.5 -3t4.5 -3t4.5 -3.5t3.5 -5t2.5 -7q0 -3 7 -10.5t7 -16.5q0 -15 -8 -27q-8 -11 -27 -22q-1 -1 -2 2l-2 1h-6q-17 0 -24 9q-15 20 -15 33q0 5 1 7q0 6 -4 6h-1h-2q-4 0 -7 -1q-1 0 -2 -1q-1 0 -3.5 -0.5t-3.5 -1.5t-3 -1q-2 -1 -6 -2.5
t-5 -1.5q-7 -3 -19.5 -11t-16.5 -10q-7 -3 -13 -9l-7 -7l-5 -5q-1 -1 -5 -6.5t-7.5 -10t-5.5 -4.5l-3 -1h-1h1h-1q-1 -1 -3 -2l-15 -5l5 -11q1 -1 1 -2q0 -5 -13 -12q-8 -7 -11 -8q-3 -3 -5 -10q-4 -9 -7 -11v-1q0 -2 3 -10q1 -1 1 -4q0 -2 -3.5 -7.5t-3.5 -10.5v-3
q1 -15 24 -17l6 -1h2h2q9 5 28 3h9q5 0 6 1h1h1l9 -5h2q1 0 4.5 5t6.5 6q5 2 19 5q6 2 18 9q4 2 9 2q2 0 6 -0.5t5 -0.5q6 0 11 3q7 5 17 9t22.5 7.5t19.5 6.5q4 1 17.5 7.5t20.5 6.5t10 -1q13 -3 13 -14q0 -2 -2 -8z" />
    <glyph glyph-name="d" unicode="d" horiz-adv-x="449" 
d="M539 431l-6 -20l-4 -6q-7 -14 -38 -65q-2 -4 -6 -10q-2 -4 -3 -5v-1h-1q-1 -1 -1 -2l-1 -1q0 -1 -1 -2q-11 -15 -20 -24l-9 -13l-5 -5q-4 -3 -11 -14q-39 -74 -41 -87q-2 -10 -12 -21l-1 1q-1 0 -3 -16q-2 -12 -9 -37q-9 -31 -12 -35q-2 -6 -2 -9v-7q0 -5 -1 -7l2 -6
q8 2 11 2q8 0 14 -5.5t6 -14.5q0 -10 -9 -17q-1 -1 -7.5 -5t-10.5 -6q-3 -3 -11 -7q-2 5 -3 5q-5 0 -9 -7q-7 -3 -15 -3q-7 0 -12 1q-22 22 -22 40q0 1 0.5 6.5t1.5 13.5t1 13l6 12q9 30 9 40q0 4 -1 5q1 2 3 7t4 7q1 3 3 7l-6 1l-8 -6q-10 -8 -12 -10q0 -6 -10 -12
q-5 -5 -5 -6v-2q0 -2 -7 -8q-3 -2 -10 -7.5t-11 -8.5q-15 -6 -30 -20.5t-32 -22.5h-5q-11 0 -24 -10q-7 -5 -29 -17q-26 -14 -34 -14t-17 4q-13 13 -34 23q-18 28 -19 51q2 6 7.5 20.5t9 23t9 18.5t11.5 15v7q13 22 29 30q5 14 26 29q1 1 8 1q4 0 5 1t2 6t2 8q3 7 11 9
q13 9 26 18.5t19 14t7 5.5t6 5t9 6q16 13 35 14q7 5 12 5q4 0 14 2q26 2 37 2q18 0 28 -9q22 -3 29 -25l6 1q6 12 12 23q2 15 13 26l3 1q3 1 5.5 5t5.5 15q1 6 7 22q7 16 12.5 26t8.5 18q3 3 12.5 21.5t11.5 21.5q9 5 23 19l8 2h3v0v0h1q5 0 13 4q16 -4 25 -15q7 -15 7 -33z
M317 213l-9 13q-3 7 -3 13q-1 7 -12 7h-5h-1h-1l-1 -1h-1h-1h-1h-1l-1 -1h-1h-1q-2 0 -5.5 -1t-4.5 -2q-2 -2 -7 -4t-8 -4q-3 -1 -11 -7q-5 -3 -9.5 -5.5t-6.5 -4.5l-3 -1l-10 -7q-6 -2 -38 -28q-3 -6 -14 -16q-1 -1 -5 -6t-11 -11q-10 -10 -13 -18.5t-7 -13.5l-3 -3l-1 -1
q-4 -4 -7 -5q-2 -8 -9.5 -19.5t-9.5 -19.5q1 -6 6 -6q8 0 19 9l17 5q11 7 16 12v0h1v1h1v0v1h1v0q1 0 1 1v0h1v1v0h1v1q1 0 4 2t5 3q1 0 12 2.5t16 7.5l22 18q1 1 15 9.5t21 14.5t9 12l13 5q5 14 13 18q14 3 28 29z" />
    <glyph glyph-name="e" unicode="e" horiz-adv-x="395" 
d="M378 87q-11 -23 -36.5 -31.5t-29.5 -17.5l-14 -7l-8 -2h-2q-4 0 -6 1q-20 -13 -59 -17q-1 -1 -3 -1q-2 -2 -7.5 -7t-9 -7t-7.5 -2t-6 1q-6 -3 -57 -6q-9 0 -42 11q-9 6 -19 12l-15 9t-10 8.5t-9 13.5q-6 14 -6 19q0 2 2 8q-6 10 -6 19q0 10 11 32q1 1 4 17q2 13 6.5 20
t12.5 13t9 7q2 2 5.5 6.5t5.5 6.5t6 7.5t5 6.5t5 4.5t8 7.5t10 11.5t9 10.5l15 7h3q10 0 10 5v3q0 6 3 7q6 2 9 2q22 23 60 23q3 0 5.5 -1t3.5 -1t2 0.5t5 2t10 3.5q5 1 13 1q23 0 42 -17q2 -2 7.5 -5.5t9.5 -7.5q4 -2 10.5 -18t6.5 -21l-12 -32q-4 -4 -10.5 -13.5
t-7.5 -10.5q-8 -2 -10 -2h-3q-1 -10 -9 -15l-13 -1q-6 -2 -19 -19l-22 -14q-3 -3 -7 -3h-3l-2 1q-5 0 -10 -11q-8 -3 -18 -3q-8 0 -16 14q-1 3 -1 9q0 13 10 20l12 7q2 3 19 18q10 9 23 13q0 5 3 8.5t8.5 6.5t7.5 5q12 12 13 25l-5 14q-4 4 -8 4q-5 0 -12 -3
q-4 -2 -9.5 -3.5t-9.5 -3.5q-1 -1 -5 -2.5t-7 -3t-4 -5.5q-2 -4 -9.5 -6.5t-9.5 -4.5q-2 -1 -8 -6t-9 -9l-17 -17l-1 -1l-2 -2q-1 -2 -3.5 -5.5t-5.5 -5.5q-1 -10 -13 -18t-12 -11l-3 -9q-2 -10 -17 -25q0 -6 -0.5 -12t-1 -9.5t-0.5 -4.5q0 -5 1 -8h1q1 0 3.5 -8.5
t8.5 -10.5q5 -1 7 -2.5t3 -1.5q5 4 11 4l2 -1h6h9q6 -1 13 -1h4q3 0 9 -3q19 14 31 14h6q10 0 26 4t19 9q44 23 58 24q12 12 48 12q11 -5 11 -16v-6z" />
    <glyph glyph-name="f" unicode="f" horiz-adv-x="276" 
d="M438 454v-4q0 -8 -3 -15q3 -6 3 -12q0 -2 -1 -4.5l-3 -7.5l-4 -10v-2q0 -5 1 -8q-7 -23 -29 -23q-24 0 -29 31q-1 4 -1 12l1 6q0 7 -5 12q3 5 3 8q-12 14 -21 14q-2 0 -8 -2q-4 -2 -21 -19q-9 -9 -24 -22q-23 -20 -23 -27v-1v-2q0 -4 -4.5 -8.5l-11 -11t-9.5 -10.5
q-7 -10 -9 -16q-9 -17 -18 -22q0 -7 -3 -13q3 0 10 2.5t11 2.5t8.5 -0.5t5.5 -0.5q5 0 7 1q2 -2 6.5 -6t6.5 -6q1 1 3 5t4 6q15 4 27 4h6q6 2 7 2q2 0 8 -2q14 -8 14 -24v-2q-4 -8 -10 -12.5t-9 -5.5t-14.5 -1h-12.5q-8 -12 -30 -12q-14 0 -23 2q-7 0 -10 -5h-5t-5 0.5
t-4 0.5h-2q-4 0 -4 -1t1 -2l-25 -8l-7 -6q-20 -16 -20 -31q-10 -17 -10 -24q0 -10 -15 -30q-8 -11 -17 -30l-9 -20q-4 -5 -5 -30q-12 -12 -17 -28q-8 -21 -19 -27l-6 -7q0 -1 1 -3t1 -3q1 -3 1 -13q0 -9 -9 -17q-3 -10 -19 -16q-3 -1 -9 -1q-23 0 -23 23q-1 3 -1 9q0 7 7 23
q0 1 2 3.5t2 4.5v1h1v1v1q1 1 1 2q3 6 3 15q0 2 -0.5 4t-0.5 4q2 2 4 7.5t4 7.5q1 2 4 12t5 12q3 11 11 21v4q0 5 2 9.5t6 10.5l6 9q2 5 12 33t13 32q5 7 5 8l3 19l-3 3q-2 1 -10.5 3.5t-12.5 4.5t-9 6t-6 10q-2 6 -2 9q0 12 15 22l10 -1l2 4q2 6 6 7q5 -1 16 -1q12 0 37 4
q14 28 38 60q5 8 5 14q2 3 6 11t7 13.5t8 11.5t11 8q14 29 42 46q3 12 24 20q2 1 5 5.5t5 5.5q12 5 18 5h2l9 9q19 5 35 5q34 0 83 -56z" />
    <glyph glyph-name="g" unicode="g" horiz-adv-x="422" 
d="M379 151v-10v-1v-1v-1v-1l-1 -1q0 -2 -0.5 -4.5t-0.5 -5.5q-1 -5 -5.5 -9.5t-7.5 -4.5q-2 0 -3 1q3 -5 3 -12q0 -4 -1 -6v-2q0 -3 -19 -36q-2 -3 -4 -9.5t-4 -11t-5 -6.5q-20 -38 -38 -67t-26.5 -40.5t-10.5 -12.5q-3 0 -3 -1l-1 -1q0 -2 -1.5 -4.5t-5.5 -5.5
q-1 -1 -1 -5v-5l1 -4q0 -8 -10 -12q-6 -3 -9 -5t-4 -3.5t-4.5 -7.5t-6.5 -11q-18 -18 -46 -34l-2 -2q-2 -2 -3 -2q-7 -7 -38 -26q-17 -7 -87 -22l-9 3h-11h-3h-2.5t-2.5 0.5t-3 1t-2.5 1.5t-3 2.5t-3.5 4t-4 5.5q-11 -3 -16 -3t-12 4q-2 3 -10.5 7t-12.5 11q0 2 -2 2
q0 2 -1 3l-1 1q0 2 -1 2l-3 6q-4 5 -4 13q0 7 4 14q12 17 29 17q19 0 31 -18q2 -2 5 -5.5t4 -4.5v-1l3 -3l13 -4q2 -2 6 -2q11 0 18 -4q22 6 24 6q5 0 8 -1q6 3 21 8q18 6 20 8q5 19 21 25v2q0 4 3 7t8.5 7t7.5 6q10 8 11 9l4 4l18 4q-5 3 -5 9q0 14 16 30q4 4 7 9q1 2 3 5
t3 5l1 1l1 1q1 1 1 2l9 -1l2 14l-1 2q0 4 10 13q0 7 26 42l9 15q2 10 9 22l8 11q2 10 11 27q1 1 1 3t-1 2h-1q-1 0 -5 -2q-2 -1 -12 -8t-21 -13q-2 -12 -18 -16l-16 -23q-20 -17 -33 -18l-5 -1q-6 0 -7 -1q-25 -22 -39 -22l-2 -4q-4 -12 -18 -12q-5 0 -8 1v-3
q-3 -1 -13.5 -5t-15.5 -4q-3 0 -5 1q-2 5 -7 5t-12 -3q-36 19 -48 42q3 9 4 10q-5 5 -5 13q-2 6 -2 9t1 5.5t5.5 11t9.5 20.5q10 23 13 26q3 7 18 16q1 1 3 1q1 0 2.5 6.5t6.5 18t14 21.5q20 20 28 25q3 8 10 12q1 1 2 1t4 -1t4 -1q3 16 13 24q16 14 28 14v1l2 -2
q11 21 43 37l6 4q11 8 14 8q0 -1 12 -1q8 4 16 4q4 0 10 -2q9 -6 16 -7v-1h1h1h1v-1h2h1l1 -1h1h2v-1h1h2v-1h1h1h1q19 -7 25 -22q6 -18 6 -26q0 -23 -25 -35q-3 -2 -8 -3.5t-8 -2.5q-21 2 -21 21v3q-9 16 -13 16q-3 0 -11 -4t-10 -4q-8 -6 -17.5 -13t-14.5 -10.5t-7 -4.5
q-2 -2 -5 -3l-3 -2q-3 -3 -6 -3q-3 1 -8 1q0 -1 2.5 -4.5t2.5 -5.5v-1q-2 -4 -5 -7.5t-8 -7.5t-7 -6q-12 -8 -13 -8q-3 -2 -8 -14q-1 -2 -12 -13q-4 -2 -6.5 -8.5t-6.5 -10.5q-32 -31 -32 -54l-7 -8v-5v-1v-1q0 -4 -1 -7q2 -1 7 -1q8 0 28 11q2 0 10 10.5t21 10.5
q10 10 18 11q6 -2 8 -2q4 0 4 3v4l-1 2q0 1 1 1q7 13 17 13h3q12 12 20 13q2 2 7 8t9 9.5t9 5.5h2q10 0 15 -4v7v5l-1 2q0 5 3 6q4 4 19.5 11t20.5 16q4 1 9.5 2.5t7.5 1.5h3v4v1v1v1q0 3 4 4l10 9q14 6 19 6t15 -5q18 -14 18 -32q0 -7 -5 -22z" />
    <glyph glyph-name="h" unicode="h" horiz-adv-x="485" 
d="M449 245q13 -29 -11 -65q6 -17 -10 -42q-6 -4 -6 -11q0 -2 0.5 -9.5t0.5 -13t-2.5 -13.5t-7.5 -15l-3 -8q3 -7 -3 -22q-2 -9 5 -21t8 -15q5 -14 -15 -31q-23 -4 -38 14q-2 2 -2 7.5t-4 6.5q0 4 -6 4q-16 0 -16 33v31q-3 12 0 27q0 21 7 39.5t6 24.5q1 6 7 21t7 26h-2
q-1 0 -1 1q-9 2 -24 -8t-25 -10q-3 -2 -10.5 -8.5t-13 -9.5t-14.5 -4q-6 -10 -21.5 -18t-18.5 -10q-1 0 -7 -5t-18 -14t-26 -16q-7 -3 -37 -24q-26 -19 -31 -25q-8 -11 -8 -17q-5 -2 -11.5 -10t-12.5 -15.5t-18.5 -13t-27.5 -2.5q-28 28 -21 46q0 9 6 18t8 14t-5 19
q11 8 14 19q2 17 10 25q1 7 10.5 19.5t14.5 31.5q9 29 23 49q15 23 15 25v6q0 2 2 8q1 3 7.5 10.5t12.5 19.5q16 32 22 39l8 12q11 16 22 37q2 2 9.5 4.5t8.5 5.5t-1 14q23 34 39 44q21 13 28 14q15 5 33.5 -4.5t13.5 -27.5v-8q-14 -28 -18 -32q-7 -7 -9 -8q-3 -10 -18 -16
q-7 -5 -24 -29q-18 -26 -20 -28q-3 -3 -10.5 -9t-9.5 -8l-1 -6q-2 -4 -17 -23q0 -1 -3.5 -6.5t-11 -19t-15.5 -26.5q-1 -3 -5.5 -7.5t-7 -8t-0.5 -7.5q2 -3 0 -7t-6.5 -8.5t-5.5 -7.5l-18 -33q-4 -6 -6 -13l7 -3q2 1 9.5 6t11.5 7q2 1 16 15q18 12 45 31l15 5q2 2 5.5 4
t5.5 4l4 3q3 3 6 5.5t9.5 7t13.5 8t17.5 7.5t21.5 7q16 16 28 11q3 -1 5 2t4 5q5 5 15 8q14 3 24 6q44 9 73 -35z" />
    <glyph glyph-name="i" unicode="i" horiz-adv-x="195" 
d="M229 352q-4 -7 -10 -7h-3q-4 0 -7 -4q-6 -2 -12 -2h-1h-5h-1h-2h-1h-1h-1h-1q-11 0 -16 1q-28 21 -31 55q10 32 48 32q30 0 41 -17q9 -19 9 -34q0 -10 -6 -24zM182 267q9 -14 9 -23q0 -16 -23 -49l-1 -1q-3 -3 -6 -5q-4 -3 -7 -6v-1q-1 0 -1 -1q-1 -1 -1 -2l-2 -2v-1
q-1 0 -1 -1q-1 -1 -6.5 -8t-9 -13.5t-3.5 -14.5q0 -9 -18 -29q-11 -12 -11 -17q0 -3 3 -5q-11 -26 -11 -33q0 -2 2 -8q4 -7 15 -7q14 -8 14 -19q0 -20 -36 -36q-2 0 -16.5 1t-21.5 5t-11 13q-8 18 -8 29q0 6 1 9v4q0 1 0.5 4t0.5 6q3 2 3 5q0 2 -2 8q0 11 3 23q1 3 4.5 9
t3.5 9t-1 5v2q0 4 11 28q11 23 12 24q9 21 15 24q2 2 2 4q0 1 -0.5 3l-0.5 2q0 4 6 10q-4 7 -4 14q0 10 10 17q3 2 15 12t20 15t17 7q3 1 9 1q12 0 26 -11z" />
    <glyph glyph-name="j" unicode="j" horiz-adv-x="197" 
d="M237 397l-6 -6q-7 -8 -7 -14t1 -11q-2 -1 -6 -4.5t-8 -5.5q-12 -4 -26 -4q-9 0 -19 2q-17 7 -23 16q-8 30 -8 33v6q1 7 6.5 11.5t15.5 7.5t16 4.5t19 3t14 1.5q7 0 12 5h17q12 -11 12 -24q0 -11 -10 -21zM181 245q1 -3 1 -10q0 -23 -11 -44q-1 -1 -6.5 -2t-7.5 -3v-5
q0 -3 1 -7t1 -6t-2 -8l-1 -1v-1v-1h-1v-2l-1 -1l-1 -2l-1 -1v-1l-1 -1v-2l-1 -1v-1l-1 -1l-1 -1v-1v-1h-1v-2l-1 -1l-1 -2l-1 -1v-1l-1 -1v-2l-1 -1v-1l-1 -1q-1 -9 -5 -14q-10 -19 -10 -26q-2 -6 -13 -24q-9 -16 -16 -32q-8 -24 -24 -25q-1 -2 -1 -5q0 -2 1 -4l1 -2
q0 -1 -2 -7q-2 -3 -7 -9.5t-9 -12t-4 -9.5q0 -3 1 -4q-7 -15 -23 -33q-18 -18 -21 -33q-2 -7 -11 -16.5t-14 -17.5q-6 -4 -11 -15t-10 -18h-1q-2 0 -6 -3t-5 -3q-4 0 -6 -2.5t-4.5 -6.5t-5.5 -7q-4 -5 -10 -8q-6 -9 -18.5 -15t-16.5 -10q-6 -2 -10 -2q-8 0 -12 4
q-6 -8 -9 -8q-1 0 -2.5 -0.5t-4.5 -1t-6 -0.5q-4 3 -8 3q-1 0 -2 -1t-4 -3t-10 -3l-10 4q-14 2 -17 2q-1 0 -2 -0.5t-2 -0.5q-7 0 -16 11q-11 1 -22 15.5t-16 17.5q-13 18 -17 47q10 30 30 30q4 0 11 -1q9 -1 20 -30q-1 -4 -1 -9t7 -14q6 -10 25 -10q5 0 13 2q2 0 6 -4.5
t6 -4.5q2 6 9.5 12t13.5 7q6 0 10 -2h1q3 0 5 6q5 11 35 33q12 22 22 26q5 9 16.5 21.5t14.5 16.5q20 27 44 83q4 4 18 29l16 32q0 2 1 3t1 3l1 1q1 1 1 3t1 3v1l1 1q0 2 1 2q7 20 15 26q0 20 8 27q0 1 2 10t6 11q7 4 7 22q6 8 6 18q0 2 -0.5 7t-0.5 9q0 6 4 13
q1 21 14 31.5t32 10.5h6q5 -1 9 -3l6 -3t5.5 -5.5t4.5 -5.5t4.5 -6.5t3.5 -6.5z" />
    <glyph glyph-name="k" unicode="k" horiz-adv-x="441" 
d="M430 273q-1 -21 -32 -31q-13 -2 -23.5 -6t-16.5 -4q-13 0 -31 7q-50 -13 -65 -20l-3 1q-3 1 -5 3l-6 3l-2 -4q-1 -3 -5 -7q-15 -5 -17 -7q-6 2 -8 2q-1 0 -4.5 -2t-10.5 -3q-2 0 -5.5 -2.5t-3.5 -4.5t2 -4q9 -7 17.5 -11.5t22 -9.5t18.5 -7q11 -6 22 -10.5t16 -7.5t9 -8
h1l7 2q4 0 10 -7l1 -1l1 -1l1 -1l1 -1l1 -1h1l3 -3v0h1v0h1v0q1 0 6 -3q26 -15 38 -41q49 -23 49 -67q0 -22 -20 -22h-5q-18 3 -26 14t-12.5 20t-14.5 9q-7 1 -12.5 4.5t-7 5t-7 9.5t-5.5 9q-9 0 -29 9q-1 0 -5.5 2.5t-11.5 3.5q-23 10 -30 15h-2q-8 0 -16 10l-4 5l-1 -1h-1
q-4 0 -17 7l-1 1v0l-1 1v0q0 4 -7 4h-1l-2 -1q-1 0 -2 1q-1 3 -14 6q-10 4 -17 11q-4 4 -10 4q-4 0 -8 -4q-11 -27 -16 -36q0 -19 -22 -33q1 -5 1 -14q0 -17 -13 -28q-8 -2 -8 -7l1 -3q0 -2 1 -6t1 -7q0 -13 -5 -21q-8 -8 -13 -8h-2q-2 1 -4 1q-7 0 -12 -1l-13 12
q-3 6 -3 12v5q-2 6 -2 8q0 3 5 17q0 1 2.5 2.5t4.5 2.5l2 1q0 2 -6 6q5 18 5 26q7 5 7 15q0 9 6 15q0 6 1.5 9.5t6.5 11.5t10 20q2 19 12 24q7 3 15 37q6 25 30 59q1 3 3.5 7t6.5 11.5t9 16.5q0 5 20 33q1 6 5 10.5t4 5.5q0 2 -1 3q4 15 13 17l2 1q7 19 28 56q8 15 16 23
q5 2 10.5 11.5t15.5 14.5q12 26 43 30q3 1 8 1q14 0 25 -13q10 -11 10 -21q0 -2 -1 -8.5t-1 -11.5q-16 -14 -19 -25q-3 -13 -23 -31q-12 -12 -25 -13q-2 -2 -2 -3q-1 -4 -3 -11q-6 -2 -9.5 -4.5t-5 -5t-3.5 -8t-4 -8.5q-1 -1 -3 -5t-4.5 -6.5t-6.5 -2.5h-2q-1 -9 -7 -15
q-2 -8 -12 -22l-9 -14v-8q3 0 12 3t15 4q8 12 31 14q1 0 14.5 4t27 7.5t16.5 3.5q13 10 30 10q13 0 38 5q3 1 9 1q14 0 25.5 -9.5t11.5 -26.5q0 -4 -1 -7z" />
    <glyph glyph-name="l" unicode="l" horiz-adv-x="198" 
d="M299 438q0 -1 -6 -6.5t-6 -12.5q0 -2 1 -3l-14 -18q-6 -8 -16.5 -16t-17.5 -22q-11 -13 -17 -26q-15 -26 -22 -31q-14 -12 -33 -57q-1 -3 -3.5 -11.5t-5 -14.5t-5.5 -8q-8 -5 -14 -13.5t-8 -15.5t-5.5 -20t-4.5 -18q-1 -2 -3.5 -8t-5 -13t-3.5 -10v-1h-1v-1v-1v-1h-1v-1
v-1l-1 -1v-1v-1h-1v-1v-1v-1h-1v-1v-1v-1h-1v-1q-5 -13 -7 -16q-2 -4 -5 -22v-6q0 -9 -1 -12h5q24 0 24 -23q0 -7 -5 -14q-8 -10 -29.5 -18t-30.5 -8q-5 0 -8 1q-23 10 -24 37q-4 5 -4 14q0 4 1 7q1 4 3.5 12.5t4.5 14.5l2 3q3 15 7 29t4 18q1 8 8 25.5t11 22.5q2 2 9 25
q2 7 8.5 18t8.5 16q9 27 19 37q8 8 8 15q0 2 -1 3q14 31 37 67q1 2 5.5 12.5t6.5 12.5q0 3 23 36l12 21q11 2 11 7q-1 1 -1 2q0 5 3 9q18 27 30 40l11 3q6 11 9 11t4 -1q3 1 8 1q9 0 22 -6q12 -16 12 -32q0 -13 -6 -22z" />
    <glyph glyph-name="m" unicode="m" horiz-adv-x="750" 
d="M703 16q-7 -18 -29 -18q-19 0 -33 14q-21 17 -24 33q-8 8 -8 18q0 4 2 12v2q0 23 -7 25q-3 2 -3 3q1 2 1 7q0 23 -12 35q-20 -2 -32 -15q-5 -4 -15 -4q-9 0 -13 -12q-1 -1 -7.5 -7t-10.5 -11q-7 -2 -16.5 -11t-17.5 -11q-4 -10 -14 -14h-2q-2 0 -3 -0.5t-3 -0.5h-7
q0 -1 -1.5 -3t-2.5 -4q-2 -5 -8 -13q-5 -1 -24.5 -17.5t-41.5 -16.5q-27 2 -38 9q-10 6 -26 33q-7 49 -7 53v8v7q1 3 1 6t-1 4l2 17q0 2 -1 3t-1 8l-1 8q0 10 -5 12q-2 1 -7 1q-11 0 -11 -4q-12 -4 -23 -19q-4 -5 -16.5 -16t-18.5 -13q-10 -2 -17 -3q-1 -4 -2 -7.5t-4 -7.5
t-5 -6.5t-6.5 -6.5t-6 -5.5t-7 -5.5t-6.5 -5l1 1q-9 -9 -24 -9q-1 -2 -1 -5v-4l1 -1q0 -3 -2 -5q-10 -13 -33 -27q-1 -15 -17 -18q0 -3 -0.5 -5t-2 -4t-2 -3t-3 -3t-4.5 -3l-3 -6q-15 -13 -28 -13q-6 0 -9 1q-32 11 -32 35q0 12 6 25q3 0 6 6.5t10 16t17 15.5q-1 1 -1.5 3.5
t-0.5 3.5q-2 10 -2 11q6 24 18 32v4q0 7 6.5 16t8.5 15q13 13 13 19v2q2 6 15 29q14 23 14 29v1q5 4 7 6.5t3 6.5t4 7q-5 20 -5 26q0 3 2 13q5 28 36 36q9 3 18 3q21 0 32 -15q4 -5 4 -15q0 -7 -7 -29.5t-7 -24.5q-1 -9 -10 -18v-2q0 -10 -24 -23l2 -14q-11 -9 -15.5 -19.5
t-11.5 -16.5q0 -4 -1.5 -7.5t-5 -7.5t-4.5 -6l5 -3l9 9q7 7 8 9q5 5 12 6q5 8 19.5 15.5t19.5 15.5q15 7 29 21q3 0 9 3t10 3q21 26 53 28q4 3 10 3q4 0 6 -1q19 -3 26 -7.5t21 -18.5q0 -6 5 -15.5t5 -13.5q0 -3 -1 -5q2 -6 2 -18q0 -4 -0.5 -19.5t-0.5 -21.5v-6
q-5 -7 -5 -9q0 -4 2 -9l1 -4q0 -3 -2 -9q2 -4 2 -7l-1 -1v-2q0 -3 3 -6q2 -2 4 -2t12 6q10 7 28 25h5q3 0 5 -1q2 9 5 14q5 8 13 9q49 44 54 45q6 2 9 2h4q3 12 13 16q10 5 20 11t14.5 8.5t5.5 2.5t4.5 1.5t5.5 2.5l14 6q11 3 19 3q14 0 31 -10q17 -11 18 -21q8 -7 11 -28
q2 -24 3 -25t3 -11q2 -6 2 -13t-3 -13l5 -34q0 -1 5 -6q-3 -8 -3 -10q0 -4 7 -10q11 -9 11 -18q0 -4 -1 -7z" />
    <glyph glyph-name="n" unicode="n" horiz-adv-x="505" 
d="M461 8q-14 -7 -26 -7q-14 0 -37 14q-3 2 -5.5 6t-6.5 11.5t-9 14.5q-12 17 -18 50q1 2 1 6q0 6 -5 14t-5 12v2q-2 27 -6 33l-9 12q-1 3 -6 3q-11 0 -19 -7q-3 -3 -21 -12l-14 -7q-5 -5 -27 -17l-3 1q-4 -5 -27 -22l-4 3q-2 0 -12 -10q-6 -5 -13.5 -13.5t-14.5 -13.5
t-18 -10l-21 -18q-4 -4 -7 -5h-2q0 -1 -1 -1q-1 -1 -2 -1q-2 -1 -3 -1q-6 -4 -7 -10l-17 -7v0v0h1v-1h1q0 -5 -5 -10.5t-12.5 -11t-9.5 -8.5q-12 -5 -19 -5q-8 0 -24 5q-12 11 -15 20.5t-3 29.5q6 4 6 7l2 10q5 21 20 22q2 2 2 6q0 1 2 13q2 11 46 86q6 3 14 19t11 20
q2 7 3 8q-4 5 -4 14v4q2 7 5.5 12t6.5 8.5t10 6.5t10.5 4t12.5 3.5t12 3.5l2 -2q3 1 8 1q23 0 32 -24q1 -2 1 -7q0 -6 -6 -17q-6 -10 -18 -26q-13 -18 -17 -22q-3 -3 -7 -11q-10 0 -10 -3v-3v-2q0 -2 -3 -6q-7 -10 -13 -11l-2 -10q-4 -4 -8.5 -13t-8.5 -14v-1v-3v0v-1v-1v-1
q0 -2 2 -2t3 1l20 15q2 0 10.5 9t15.5 9h4q8 8 25 20q20 16 23 17q46 30 54 33q2 1 5 1q4 0 5 -1l6 -2q0 1 2 7q5 8 14 9q8 2 20 6t20 4t13 -1q21 -4 31 -10q18 -10 26 -24q6 -9 7 -23v-4q0 -7 -5 -15q11 -7 16 -39q3 -32 3 -40v-3v0v-1v-1v-1q0 -4 1 -5q4 -5 7.5 -16
t5.5 -13q16 -11 16 -21q0 -7 -8 -18z" />
    <glyph glyph-name="o" unicode="o" 
d="M403 189q-5 -32 -32 -67q-4 -5 -15 -12l-9 -6q-3 -17 -15 -18q-10 -10 -20 -14q-11 -15 -53 -29q-16 -10 -26 -9q-12 -13 -29 -10q-2 -2 -9.5 -6.5t-11.5 -8.5q-3 0 -10 -1.5t-12 -2t-11 1t-10 5.5l-5.5 -5.5l-4.5 -4.5t-5.5 -2.5t-7.5 0.5q-4 -2 -10 0t-9 2
q-15 0 -26 5.5t-15 10t-13 16.5q-7 7 -12 18.5t-7.5 29t9.5 31.5q-3 14 27 47q8 18 26 39q19 23 41 37q12 9 59 26q41 15 76 3q7 1 33 1q37 0 68 -17q21 -11 22 -24q10 -10 17 -36zM335 209q-23 7 -39.5 8.5t-19.5 0t-8 0.5q-6 -3 -16 -1t-13 2l-33 -15q-11 -4 -22 -13
q-9 -4 -14 -7t-6.5 -6t-2.5 -4q-2 -8 -11.5 -11t-13.5 -18q-3 1 -7.5 -3.5t-5.5 -4.5q0 -1 -6.5 -7.5t-12 -15.5t-5.5 -18q0 -14 -2 -20q1 -2 1 -7q0 -3 2 -7q18 -6 33 -1q6 2 10 0.5t9 0t9 6.5q15 3 29 14q8 0 14 2t15 7t13 7q21 9 33 21q22 16 29 17q5 6 10.5 12.5
t7.5 8.5q5 7 23 52z" />
    <glyph glyph-name="p" unicode="p" horiz-adv-x="447" 
d="M439 209l-4 -32q-9 -18 -12 -23q-8 -4 -17 -17.5t-16 -17.5q-7 -8 -21 -14t-18 -11q-13 -14 -25 -18q-8 -2 -15 -10q-9 -9 -30 -20t-35 -13q-22 -14 -45 -21q-15 -5 -26 -11q-2 1 -6 1t-15 -3.5t-18 -3.5h-4q-12 -2 -16 -2q-23 0 -23 21q0 7 1 12l2 2q2 2 5 6
q41 17 57 18q16 0 41 20q21 17 35 25q4 2 10 2q4 0 6 -1q2 2 2 5q0 4 2 6q8 4 35 23q9 2 23.5 14t17.5 19q3 6 10 13q2 2 7 2q4 0 8 2q3 4 3 8t2 8q3 6 3 9q0 6 -5 8q-7 4 -25 4q-16 0 -73 -3q-10 -6 -31 -6h-10q-6 -2 -15.5 -8t-13.5 -8q-2 -1 -4 -3q-2 -1 -3 -3
q-32 -39 -43 -67q-1 -3 -3 -4t-4.5 -2.5t-3.5 -4.5l-12 -17q-1 -9 -8.5 -19.5t-11.5 -19.5q-18 -19 -29 -56q-28 -69 -47 -81q-2 -9 -7.5 -18t-5.5 -16q0 -20 -7 -31q-4 -5 -4 -11q0 -5 3 -11q-8 -22 -27 -22q-7 0 -13 6q-14 18 -14 34q0 1 3 15.5t3 28.5q1 7 4 12.5t5 8
t6.5 6.5t5.5 5q1 15 12.5 42t11.5 34v4v1q0 4 10 19.5t11 21.5q2 10 11 17q0 6 9 19q4 9 21 36q15 26 17 31q7 17 17 27q3 12 10 19q1 1 1 2q0 3 -3 4q-22 8 -26 19q-3 9 -3 16t3 13q7 15 28 15h5l31 1q16 7 19 17q7 13 18.5 17t14.5 7h9q15 0 27 -9q9 -9 9 -20q22 6 30 6
q7 0 11 -1q7 3 16 3q2 0 6.5 -0.5t7.5 -0.5q6 0 9 1q15 -5 28 -5q3 0 7 0.5t5 0.5q15 0 31 -10q36 -21 52 -62z" />
    <glyph glyph-name="q" unicode="q" horiz-adv-x="455" 
d="M452 213q1 -3 1 -8q0 -7 -4 -13t-13.5 -14t-11.5 -10l-2 -6q-1 -6 -4.5 -16t-6.5 -18q-14 0 -14 -18q0 -4 -3 -5q-14 -8 -20 -28q-1 -6 -15 -29q-13 -22 -21 -30q-2 -2 -4 -3.5t-4 -2.5l-1 -1v-3q0 -6 -13 -19q-14 -15 -19 -38q-3 -11 -7 -19.5t-6.5 -11.5t-6.5 -6t-5 -4
q3 -4 3 -8q0 -2 -3 -6.5t-5 -9.5q-5 -3 -7 -8t-3.5 -12t-3.5 -11q0 -7 -3 -14h1h5q10 0 21 -6q5 -12 5 -22v-3q-17 -36 -43 -36q-7 0 -12 3q-34 14 -42 47q0 14 8 36q2 8 6.5 20.5t5.5 19.5q2 4 5.5 9.5t4.5 7.5v0l1 1v0l1 1q0 1 -1 2q0 1 -1 3q2 4 4 9t4 8q1 1 11.5 24
t10.5 24q13 28 24 41l10 11q1 1 1 2t-2 3l-1 2q0 1 1 2q3 4 8 14t9 14q7 11 13 21.5t9 15.5l-5 6q-4 -4 -9.5 -11t-9 -11t-10 -8.5t-13.5 -6.5q-10 -16 -23 -16h-3q-1 0 -7 2q-1 1 -4 1v-6q0 -6 -2 -8q-3 -3 -9.5 -11.5t-12 -14t-12.5 -9.5q-6 -7 -12 -7h-1h-1h-5h-1h-1h-1
h-2h-2q-9 -4 -12 -8l-4 -6q-10 -16 -22 -16q-4 0 -10 2q-16 -10 -38 -10q-11 0 -25 3q-5 6 -19 13t-20 17l1 14q-9 14 -9 19t5 13q0 10 4 16l4 5q0 1 -2 7q35 65 66 92q1 -1 2 -1l12 17q21 20 28 30q31 28 52 34q3 13 18.5 19t17.5 9q35 20 51 20h7q8 4 18 4q25 0 43 -32
q13 -22 15 -29q1 -3 1 -8t-1.5 -9t-7 -9t-7.5 -6.5t-12 -7.5q-4 -1 -11 -1q-24 0 -30 38q-2 5 -5 5q-3 -1 -10.5 -6.5t-14.5 -5.5q-10 -13 -23.5 -19.5t-16.5 -9.5q-2 -8 -16 -18v-1q-1 -1 -2.5 -3t-4.5 -5h-2q-3 0 -6.5 -3.5t-6.5 -8.5t-4 -6q-2 -2 -9.5 -8t-12.5 -11.5
t-5 -9.5l-17 -11v-2q0 -11 -15 -19v-3q0 -8 -12 -17q-1 -2 -4 -4t-5 -3q-4 -12 -4 -20q-1 -9 11 -10q24 3 47 22q9 7 17 10.5t12 4t8.5 4t8.5 10.5t11.5 12t20 11t18.5 10l9 9q14 14 19 15h1q0 -1 -2 -3l12 9l16 12l10 4q14 15 35 24q6 -2 8 -2q3 0 10 11q2 2 6 8.5t6 9.5
t7 7t10 5q5 8 14 8q4 1 11 1q13 0 23 -11t13 -23zM329 12h1h-1z" />
    <glyph glyph-name="r" unicode="r" horiz-adv-x="328" 
d="M351 252q10 -17 10 -33t-18 -32q-11 -8 -21 -8q-8 0 -19 9q-6 7 -10.5 20.5t-7.5 18.5q-4 -1 -8.5 -3t-8.5 -3q-13 -11 -25 -17q-8 -2 -11 -3q-5 -11 -24 -26q-13 -10 -20 -17q-2 -1 -17 -19q-5 -5 -25 -23q-8 -8 -13.5 -14.5t-8 -9t-5 -5.5t-6.5 -5q-8 -8 -12 -8l-1 1
q-1 0 -1 -2q0 -3 3 -9q-8 -9 -17 -27.5t-13 -22.5q-8 -16 -25 -16q-10 0 -21 4q-17 11 -17 31q0 7 1 10q8 22 12 26q0 3 3 8q6 9 10 19t7 15l6 18q4 7 4 9l-1 1q0 3 6 17q1 8 8 14v3q0 6 6 20q-1 1 -3 8q9 15 9 22l-5 3q-2 10 -2 13q0 4 2 12q-1 1 -1 4q0 11 15 19
q2 2 6.5 4t6.5 4q8 2 12 2q22 0 38 -22q3 -7 3 -12q0 -16 -12 -52q-2 -3 -3 -3t-4 -6v-11q2 2 5.5 4.5t5.5 4.5t3 6q4 3 15 13t20 17q8 9 14 9q4 0 5 -4l2 16q27 22 38 27q37 16 44 18q8 2 10 2q4 0 7 -1h3q13 0 26 -13l3 -3q14 -14 17 -22z" />
    <glyph glyph-name="s" unicode="s" horiz-adv-x="351" 
d="M347 223q-8 -11 -22.5 -17t-28.5 0q-15 7 -17 29l-1 2q-2 2 -3.5 3t-4 1.5t-7.5 0t-12 -2.5q-2 -1 -14 -3.5t-22.5 -4t-10.5 -0.5q-9 -6 -23.5 -10t-18.5 -7q-8 -5 -19 -5q-3 1 -9 1q-7 -13 -21 -19q0 -6 -4 -10q11 -8 22 -5q8 -5 13 -4q2 1 5 2q4 -1 12 -1q9 0 13 -1
q37 -3 55 -8q9 0 22.5 -5.5t17.5 -6.5q29 -14 36 -48t-27 -45q-1 0 -3 -6q-2 -5 -33 -26q-23 -17 -50 -29.5t-36 -18.5q-7 2 -34 -16q-5 -3 -15 -7q-6 -1 -17.5 -2.5t-17.5 -3.5q-2 1 -10.5 5.5t-11 7t-5.5 8.5t-3 14l3 8q6 9 10 13q15 13 40.5 19t39.5 16q12 5 22 6
q10 2 50 30l8 4q3 3 6 6.5t6 7.5l2 6q-7 2 -16 13l-5 -2.5t-5 -1.5q-3 0 -18.5 4t-24.5 2q-12 -8 -24 4l-33 1q-4 9 -7.5 10t-8 -2t-6.5 -3q-7 0 -16.5 8t-14.5 9q-20 23 -16 57q6 3 10 14.5t14 15.5q4 6 12.5 9.5t11.5 5.5q9 9 16 13t18 7t17 6q1 0 41 15q7 2 20 6t21 6
q9 -1 29 3t30 -1l7 -6q1 2 3 4.5t4 3.5q18 5 29 -3q9 -1 16 -14q24 -29 14 -62z" />
    <glyph glyph-name="t" unicode="t" horiz-adv-x="280" 
d="M418 319q12 -8 12 -19q0 -18 -27 -26q-12 6 -21 6q-1 0 -7.5 -1t-12.5 -1q-8 0 -13 1q-7 -5 -62 -10q-11 0 -15 -4q-7 -4 -13 -4q-8 0 -13 4q-6 -10 -17 -10h-5q-22 -5 -29 -11v-4q0 -17 -26 -51q-12 -14 -14 -21q-7 -17 -19 -25q-2 -29 -18 -44q-5 -5 -5 -9q0 -1 1 -2
q-2 -3 -5.5 -6.5t-5 -5.5t-3.5 -5t-2.5 -6t-0.5 -8q0 -14 -11 -26q-9 -9 -10 -13q5 -10 5 -17q0 -9 -9 -16.5t-21 -7.5q-19 0 -23 15q-1 4 -1 12v1v5v1v1v1v2q1 25 18 68q2 2 5.5 13.5t4.5 14.5q12 41 29 67q1 2 3 6.5t4.5 11t4.5 10.5q11 26 16 31q0 1 -1 2t-3 1
q-14 -5 -20 -5t-13 3h-3q-6 0 -9 1q-33 14 -38 37q-2 6 -2 9q0 9 8.5 17.5t18.5 8.5q2 1 6 1l8 -2l11 -8q2 1 5 4.5t5 3.5q10 0 33 2.5t28 2.5q7 0 10 -1q4 4 9.5 12t9.5 13t7 11v1q0 6 14 25q2 0 3.5 4.5t3 9.5t2.5 7q-5 8 -5 16q0 6 5 14q8 13 23 21.5t29 8.5q12 0 21 -10
q16 0 16 -35v-6v-1v-1v-1v-1v-1v-1l-6 -6l-4 -12q-9 -9 -17 -22q-3 -6 -9.5 -18.5t-9.5 -17.5q21 3 24 3q5 0 6 -1q10 9 34 9l9 -1h16h14l6 1q25 0 61 -16z" />
    <glyph glyph-name="u" unicode="u" horiz-adv-x="483" 
d="M461 215v-3q0 -7 -7.5 -25.5t-14.5 -26.5q-7 -20 -11 -24q1 -2 1 -6q0 -5 -4.5 -12.5t-4.5 -8.5q-8 -35 -10 -39q-4 -9 -5 -25q-3 -19 -3 -24v-3q8 -6 8 -12q0 -5 -4 -16q-6 -17 -25 -17q-10 0 -22 5q-22 25 -22 75q0 18 5 40q2 24 13 32v1q0 2 -2 7.5t-2 7.5q0 6 3 12
q2 4 6 13t6 13v1q0 3 -3 3h-2q-17 -17 -21 -19q-4 -4 -7.5 -5t-4.5 -2.5t-2 -6.5q-15 -20 -33 -32l-5 -5l-8 -8q-6 -6 -16 -11q-1 -1 -25 -18q-13 -13 -23 -18l-33 -27l-4 2l-2 1q-11 -18 -25 -18q-3 0 -4 1q-11 -9 -43 -20q-3 -1 -7 -1q-2 0 -16 8t-32 8q-3 6 -9.5 16
t-8.5 14q-5 12 -5 19q0 10 6 27q10 34 19 49q8 6 13.5 21t6.5 16l3 3q-1 1 -1 2q0 2 8 10q3 12 3 20q0 4 -1 6q10 28 15 34l1 1v1l2 2q1 1 3 4h1q0 1 1 2l1 1q8 11 25 17q12 7 16 7t5 -1q7 -2 11.5 -5.5t12.5 -5.5q10 -9 10 -21q0 -14 -11 -34q-15 -17 -16 -22
q-5 -5 -13 -10q1 -3 1 -8q0 -7 -10 -20l-1 -1q-1 -1 -3 -5h-1q0 -1 -1 -2q-1 -2 -3 -5.5t-4 -5.5t-3 -4.5t-1 -3.5v-3q0 -6 -5 -13t-6 -13l-3 -14l2 -14q4 -8 9 -8q2 0 5 1.5t5.5 3.5t5.5 4t4 3q11 6 11 9q9 9 11 10h1h1q0 1 1 1t1 1h1h1v1h1h1l1 1q1 0 2 1q1 0 1 1h1
q8 4 16 15q26 15 44 29t32 28q7 6 24.5 17.5t34.5 27.5q13 13 36 28q27 17 36 20q11 3 14 3q13 0 23 -9q20 -12 27 -46z" />
    <glyph glyph-name="v" unicode="v" horiz-adv-x="341" 
d="M393 253l-17 -9q-5 -5 -12 -6t-11 -3q-2 -1 -4.5 -1.5t-5.5 0t-7 -0.5q-2 -2 -3 -6.5t-2 -5.5q-9 -9 -41 -33q-4 -11 -38 -34q-17 -26 -43.5 -46t-27.5 -22q-3 -4 -8.5 -11t-7.5 -10l-22 -16h-1q-2 -3 -8 -7q-2 -5 -16 -19q-1 -9 -12 -23t-12 -15q-7 -14 -30 -8t-25 28
q1 4 1 16.5t5 20.5q-2 10 0 59q0 14 4 41q4 28 1 26q2 17 13 24q0 1 -4 2.5t-4 3.5q-3 22 3 35q-3 10 3 22l8 14q4 2 8.5 6t8.5 6t13 4q4 -1 12 1t12 2q23 -11 21 -41q-8 -12 -13 -34q0 -2 -3 -2q-4 -1 -5 -5l3 -6q0 -11 -5 -16q0 -7 -7 -28q4 -10 -2 -18q-6 -10 -7 -14
q-1 -1 -1 -3v-3q-1 -2 -1.5 -5.5t0.5 -9.5q-6 -6 -4 -14h7q18 25 42 51q15 16 21 21q3 6 11.5 11t9.5 11q6 8 26 16q3 1 3 3q0 17 15 24q1 2 4 3t5 2l2 1q22 34 43 43q21 11 24 19q30 22 45 22q10 5 37 -1q15 -3 20 -17q8 -12 -21 -45z" />
    <glyph glyph-name="w" unicode="w" horiz-adv-x="621" 
d="M611 177l-7 -14q-4 -7 -11 -27t-15 -31q-18 -40 -55 -70q-20 -17 -37 -23q-6 -6 -26 -6h-3l-8 3l-8 -13q-11 -3 -19 -3t-15 4q-5 -4 -13 -4q-6 0 -24 6q-38 11 -55 44q0 1 -1.5 4l-2.5 5q-3 8 -3 12t5 12q-12 11 -12 24q0 2 1.5 12t1.5 13q0 6 -1 9q3 7 3 16q0 2 -0.5 8
t-0.5 8q0 8 3 16q-20 -18 -29 -20l-2.5 -2.5t-3 -2.5t-3 -2.5t-3.5 -1.5q-16 -10 -31.5 -22t-25.5 -17q-3 -2 -7.5 -7.5t-8.5 -7.5q-1 0 -9 2q0 -1 -2.5 -7.5t-6.5 -9.5h-3q-10 0 -10 -9q0 -3 1 -6q-6 -1 -9.5 -2.5t-5.5 -2t-3 -2.5t-2 -3t-2 -4t-2 -5q-5 -5 -22 -11
q-2 -3 -4.5 -7.5t-4.5 -6.5t-6 -4q-4 -8 -13.5 -12.5t-11.5 -5.5q0 -1 -3 -12q-18 -2 -22 -2q-18 0 -35 15q-6 12 -6 27q0 21 10 33l-2 3q4 19 22 45l18 30q11 20 11 21q1 16 15 30q0 5 3 10v0l1 1v1h1v1l1 1v0l1 1v0v1h1v1v0l1 1q0 12 4 13q0 6 -3 13q-2 8 -2 12q0 9 9 19
q7 2 21 9t22 7q9 0 23 -7q17 -17 17 -30q0 -4 -1 -6l-1 -7q-4 -6 -7 -14t-5 -11q-8 -14 -11 -23q-9 -15 -19 -17v-1l2 -10q-1 -2 -13 -17t-15 -26l4 -4q22 20 30 23q2 1 6.5 3t6 3.5l4 4t3.5 6.5q24 17 28 19q2 4 9.5 8t9.5 7q5 5 8 6l4 2q12 12 16 15l31 22q4 7 15 14.5
t12 8.5q20 16 36 16q7 0 11 -1q18 -6 39 -33q1 -5 1 -13q0 -1 -3 -15.5t-3 -22.5q0 -4 1 -6q-3 -3 -4.5 -9t-2 -11t-1.5 -16.5t-2 -18.5l1 -1q0 -8 0.5 -16t0.5 -11q0 -2 -1 -2l-2 1v-1q8 -10 8 -18q0 -1 -0.5 -3t-0.5 -3q0 -9 8 -12q4 -6 7 -8.5t4 -2.5h2q6 0 16 6
q8 0 17.5 8t15.5 8h4q4 10 14.5 20.5t20.5 12.5t12 4t2 7v1q0 5 -1 8q2 3 12.5 15.5t13.5 14.5q11 19 19 43q11 31 11 41q0 5 -5 19v2q-1 1 -1 3v1q-13 16 -13 30q0 8 3 15q8 22 31 22q12 0 26 -10t14 -30v-6q8 -11 8 -22q0 -5 -1 -8q0 -1 -10 -74z" />
    <glyph glyph-name="x" unicode="x" horiz-adv-x="334" 
d="M386 278q1 -2 1 -7q0 -26 -29 -35q-8 3 -12 3q-2 1 -5.5 -1.5t-9.5 -8t-13 -8.5q-37 -27 -46 -36q-8 -7 -21 -9q-21 -28 -42 -36q-4 -5 -4 -8t1 -5q7 -11 17 -42v-3q0 -11 6 -11h1q0 -2 2 -6t2 -6q1 -1 1.5 -3.5t0.5 -3.5t0.5 -2.5t1.5 -2.5q8 -24 10 -26v-3
q0 -19 -20 -26q-3 -1 -9 -1q-9 0 -17 11t-13 14q1 1 1 3q0 3 -1 5q-1 6 -6 12q-4 5 -10 12t-7 9q0 14 -10 31l-2 2q-15 -7 -25 -25q-7 -10 -29 -18q-2 -2 -7.5 -6t-8.5 -7.5t-3 -8.5q-18 -16 -22 -20q-8 -7 -33 -41q-11 -14 -25 -14q-15 0 -22 10q-8 8 -8 13q0 1 1.5 6.5
t1.5 11.5q1 3 3 5l3 3q11 23 28 34q6 15 16 18q13 16 26 24q7 13 19 21l-2 -1q47 50 64 57l-20 38q-11 14 -12 26q-3 2 -5 8q-7 6 -7 12t1 12v1v4t-3 3.5t-9 3.5q-5 15 -5 19q0 5 5 12q15 17 44 17q23 0 31 -13q8 -10 12 -26.5t6 -21.5q4 -14 6 -16q1 -6 4 -15t4 -15
q3 2 10.5 8.5t12.5 8.5q23 22 27 28q8 12 25 16q35 44 79 49q25 -3 49 -33z" />
    <glyph glyph-name="y" unicode="y" horiz-adv-x="479" 
d="M450 139q-2 -4 -6 -10.5t-5 -7.5q0 -9 -14 -27q-1 -1 -2 -6t-4 -12.5t-10 -15.5q-4 -5 -9.5 -19t-11.5 -20q-4 -7 -15 -23.5l-17 -25.5q-15 -24 -17 -28q-4 -11 -20.5 -34.5t-22.5 -38.5q-10 -24 -11 -27q-2 -6 -11 -16.5t-11 -16.5q-2 -3 -5.5 -13.5t-14.5 -21.5l-2 1
q-4 -15 -4 -37q-10 -24 -31 -24q-9 0 -17 9t-8 23q0 8 3 17q5 4 5 16q0 13 8 21q2 11 8 23.5t15 28t12 22.5q5 8 11 12q4 3 8 4l-5 14q6 13 11 20q3 3 7 12.5t15 26.5q14 23 14 33q3 12 10 22q8 8 8 14l-1 2v2q0 3 10 11q0 22 17 34q8 29 24 34v2q0 1 -1.5 5t-1.5 5q0 3 1 4
q7 21 21 43q2 6 2 9q0 11 -7 11q-1 0 -7 -2q-4 -2 -7 -3t-4 -2t-3 -7q-8 -2 -24 -10l-7 1q-1 0 -3 -2q-4 -10 -36 -34q-31 -25 -43 -31q-11 -6 -53 -42q-40 -36 -68 -39q-12 -18 -34 -20l-4 -4q-10 -9 -17 -9q-6 0 -12 6q-23 7 -31.5 15t-12.5 27q-3 9 -3 16q0 11 6 25l6 15
q6 14 7 23q7 2 10 7t5.5 14t4.5 13q1 4 13 24t13 21q1 2 1 5q0 6 -4 14q0 28 22 41q22 14 42 16h4q14 0 23.5 -10t9.5 -22q0 -4 -2 -10v-5q0 -7 -7.5 -20.5t-8.5 -16.5h-2l-1 -1h-1l-6 -1v-2v0v-1v-1v-1v-2v-1l-5 -20q-9 -2 -20.5 -21t-11.5 -26v-2q-14 -14 -17 -29h8
q3 2 7.5 5.5t8.5 7.5t6 5q12 3 16 7l5 5q4 4 9 7h1q3 0 10 7t11 8q27 21 41 24q1 -1 3 -1q8 0 38 30q2 2 46 31q7 6 20.5 13.5t19.5 12.5q7 1 18 8.5t21 9.5q2 -1 6 -1q2 0 10 5q21 0 52 -23q19 -36 19 -42q0 -16 -13 -62z" />
    <glyph glyph-name="z" unicode="z" horiz-adv-x="382" 
d="M376 264q0 -3 3.5 -12.5t3.5 -13.5q0 -8 -8 -18q-8 -3 -8 -4t-4 -4q-7 -9 -25.5 -18.5t-23.5 -13.5q-2 0 -3 -0.5t-3 -0.5q-13 -7 -22 -13.5t-12.5 -9.5t-6.5 -4q-8 -2 -9 -2h-1q-1 1 -2 1t-9 -2q-10 -4 -21 -9t-14.5 -6.5t-7.5 -4.5t-7 -8q-17 -23 -46 -23q-1 0 -3.5 -2
t-5.5 -5t-6 -5q-15 -13 -26 -16q-12 -15 -20 -18l-1 -8h1h1h4h1h1h1h1q3 0 9 2q3 -1 8 -1q8 0 20.5 4.5t18.5 4.5q5 0 7 -1t7 -1t14.5 1.5t24.5 4t26 4.5q13 2 34 5.5t30 4.5q27 4 28 4q10 0 22 -15q3 -7 3 -12q0 -17 -22 -21h-1q-1 0 -7 -3t-11 -3l-16 -4l-15 -4
q-5 0 -13 5q-17 -18 -48 -18q-5 0 -8 1q-5 -2 -10.5 -4.5t-9.5 -4t-6 -1.5q-5 0 -12 5q-38 -16 -43 -16q-10 0 -18 4q-4 -1 -9.5 -2t-9.5 -3l-45 2q-25 15 -36 30v1q0 3 -6 11q3 20 8 35q4 11 15 16q5 2 5 4q-1 0 -1 9q17 4 24 11l7 7q3 3 10 6l14 8q16 8 36 19.5t23 13.5
q7 4 21.5 10.5t20.5 10.5q20 13 34 16q18 16 30 16h4q2 3 41 21q1 0 1 1l-1 3l-2 3q0 1 1 1q-20 -7 -38 -9q-9 -6 -16 -6h-1l-2 1q-10 0 -38 -7l-45 -1l-6 -7q-25 -5 -34 -5q-8 0 -12 1q-3 -1 -8 -1q-7 0 -17 6q-18 9 -18 24q0 2 1 9t1 12q4 8 17 14q1 1 3.5 4t4.5 5
q6 2 12.5 4t10 3t6.5 1q8 0 12 -1q8 -5 12 -11h8q10 0 28.5 2.5t24.5 2.5h12q6 0 13.5 2.5t11.5 2.5q8 0 13 -0.5t7.5 -1t3.5 -0.5q4 0 15 4q7 3 14 3q5 0 13 -3q15 4 28 4q15 0 35 -11l1 -1q-1 0 -1 -1t1 -2h1l3 -3q2 -3 4 -5z" />
    <glyph glyph-name="braceleft" unicode="{" horiz-adv-x="284" 
d="M461 598q9 -15 9 -23q0 -7 -9 -14q-13 -8 -22 -8q-6 0 -9 1q-3 5 -4 5h-2h-1h-1h-1h-1h-1q-3 3 -6 4.5t-5 1.5h-1q-6 0 -12 -9q-6 -6 -26 -21q0 -3 -0.5 -5.5t-2.5 -4.5t-3 -3.5t-3.5 -3.5t-4.5 -4q-6 -14 -17 -31q-3 -3 -12 -25q-2 -10 -5 -15q0 -7 -4.5 -15.5
t-10.5 -16.5t-7 -10q-6 -9 -7 -10q1 -2 1 -6q0 -7 -13 -27q-2 -7 -5.5 -12t-6 -6.5t-5.5 -3.5t-4 -2q-1 -1 -1 -2v-2q1 -2 1.5 -5.5t0.5 -7.5q0 -3 -4 -7q-1 -1 -18 -28q-20 -20 -47 -30l-3 -5q7 -9 11 -18q13 -64 13 -85q0 -19 -11 -45q-9 -23 -12 -28h-1v-2h-1v-2l-1 -1
q0 -1 -1 -1v-1v-1q-1 0 -1 -1q-1 -14 -18 -20q3 -10 3 -16q0 -3 -9 -18q-1 -7 -8 -16t-10 -23q-3 -13 -16.5 -31t-15.5 -25q-4 -15 -4 -17t1 -7t2 -11v0l1 -1q0 -1 1 -2l1 -1v-1q1 0 1 -1l4 -6q8 -8 26 -8q1 0 7 -0.5t8 -0.5t6.5 -1t6.5 -3t4.5 -5t3.5 -8q1 -3 1 -8
q0 -9 -13 -19q-28 -7 -42 -7q-24 0 -36 12l-1 1v0v0h-1v1h-1h-1q0 1 -1 1q-4 2 -5 3q-4 4 -12.5 11t-12 11.5t-3.5 8.5q0 3 1 4q1 3 1 8q0 4 -4 19.5t-4 18.5q0 4 2 10v4q0 7 9 20q10 9 10 25v5q7 9 11 17t9.5 22.5t10.5 25.5q18 39 26 49q-1 2 -1 6q0 7 11 25q0 9 5 22
q1 2 2.5 15t1.5 15q1 3 1 10q0 8 -3 21q-5 19 -10 26v2q0 3 -3.5 6t-8 5.5t-6.5 4.5q-10 2 -18 2q-10 0 -15 8q-11 8 -11 19q0 6 3 14q19 13 31 13q5 0 8 -1q9 -3 14 -3h2v0h1q2 0 4 -1q9 -6 15 -6t17 9q5 9 10 10q1 1 7.5 13t15.5 29q3 3 3 5q0 6 4 10q20 39 28 57
q12 4 11 8q0 3 -2 5q0 12 3 20t8 17t8 18q5 15 14 32q4 7 9 7q4 17 9 25q4 5 8 10.5t5 7.5q4 7 8.5 12t8 8.5t10 7.5t9.5 5.5l11 5.5t11 5q27 5 36 5h6q3 1 8 1q7 0 14 -4q22 -2 35 -17z" />
    <glyph glyph-name="bar" unicode="|" horiz-adv-x="268" 
d="M195 424l-2 -44q-2 -6 -2 -8q0 -4 3 -8q-3 -37 -6 -49q-1 -3 -1 -7t3 -9t3 -7q0 -4 -3 -10q3 -34 3 -56q0 -25 -4 -30q4 -7 4 -15q0 -10 -1 -15q2 -10 2 -12t-1 -3.5t-3 -6t-4 -9.5q7 -7 7 -13q0 -1 -1 -4.5t-1 -5.5v-1q2 -10 2 -12q5 -38 5 -54q0 -8 -2.5 -22t-2.5 -15
q-1 0 -1 -1t-1 -2q-1 -3 -4 -4q4 -4 4 -9q0 -3 -1 -4q0 -1 -0.5 -3.5t-1.5 -3.5l5 -15l-6 -6q-5 -5 -5 -6q10 -27 10 -33q0 -3 -2 -15v-3q0 -4 -1 -7.5t-2.5 -6t-4 -4.5t-5 -3.5t-5 -2.5t-4.5 -1.5l-4 -1t-3.5 -0.5h-1.5q-12 0 -20.5 8t-8.5 22v8v7l-1 3q0 5 2 13
q-4 5 -4 14v5q1 2 1.5 5.5t0.5 5.5l4 25q1 2 1 7q0 8 -6 14q0 9 -1 21t-1 14q0 9 1 13v3q0 5 4 9q-4 4 -4 13q-1 2 -1 6q0 7 8 18h1q0 1 -6 10q2 6 2 9l-1 7q-2 8 -3 16l-1 9q0 6 3 12q2 6 2 8q0 3 -2 37q-2 42 -2 44q0 15 1 18q-4 7 -4 14q0 5 1 12.5t1 9.5v8q0 4 1 6v31
q0 26 -1 28q-5 14 0 26q4 13 5 21q-4 9 -4 18v5q0 3 -0.5 8t-0.5 6q0 5 1 7l-2 12t-1 7q0 5 5 12q-2 8 -2 12q0 1 0.5 7t0.5 12v5q0 12 9 19.5t21 7.5q14 0 23.5 -7.5t9.5 -21.5v-3q2 -10 2 -15q0 -11 -8 -33q-1 0 -1 -1l2 -1q2 -1 5 -3.5t4 -7.5q-2 -3 -2.5 -7.5t-2.5 -7.5
q4 -9 4 -22q0 -10 -5 -17q1 1 2 1h1q3 0 3 -4z" />
    <glyph glyph-name="braceright" unicode="}" horiz-adv-x="284" 
d="M279 506q1 -2 1 -5q0 -2 -7 -14q1 -1 1 -4q0 -4 -2.5 -8.5t-6.5 -10.5l-6 -9q-2 -2 -11 -24q-7 -7 -18 -36q-8 -2 -8 -7v-3q0 -6 -3 -12l-12 -17l-3 -9q-3 -8 -5.5 -19.5t-6.5 -19.5q0 -1 -5 -26.5t-5 -35.5q0 -8 2 -22q1 -1 1 -2q0 -2 -1.5 -6t-1.5 -5q0 -4 1 -5
q1 -4 7 -4q13 -12 23 -22q6 -2 11 -2h4l2 1q5 0 13 -2q19 -5 19 -24q0 -9 -6 -16q-17 -11 -32 -11q-13 0 -31 5q-10 1 -10 2v1q-1 0 -2 -1q-15 -8 -21 -13q-1 -1 -3 -4t-4.5 -5.5t-5.5 -3.5q-19 -36 -27 -47q-4 -6 -9.5 -14t-6.5 -10v-2v-6q-3 -6 -8.5 -11t-8 -7.5
t-1.5 -4.5q0 -5 4 -10q-2 -17 -8.5 -31.5t-13.5 -25.5t-9 -16q-7 -17 -14 -31q-14 -28 -31 -48q-7 -22 -56 -44q-2 1 -7 1t-14 -3.5t-14 -3.5t-7 1q-3 -1 -8 -1q-8 0 -13 4q-31 2 -44 38v4q0 12 10 15q18 5 21 5q5 0 8 -1l8 -6q14 -6 20 -6q5 -1 16 6q10 6 29 33q1 1 5 15.5
t10 19.5q1 1 10 9q9 9 10 21q1 11 22 57q3 4 6.5 9t4.5 6q-1 3 -1 7q0 6 12 25q0 7 12 28q1 3 4.5 8t9.5 15t11 19l10 10q1 2 4 4t5 4q22 15 49 22q-3 3 -8 7.5t-7.5 7t-5.5 7.5t-4 10q-2 2 -9 19q-1 2 -1 6q0 13 10 23q-11 11 -11 21q0 31 11 44q1 2 4 13.5t7 21.5
q3 2 6 18q4 10 19 38q2 3 5.5 8t6 8.5t2.5 7.5q0 3 -1 4v4q0 4 5.5 11t5.5 9v3v1.5t0.5 1.5t1.5 3.5t2 5.5l3 9t5 13q3 9 10 20.5t7 15.5v4q-3 16 -4 17l-1 2l-3 3l-2 2t-1 2q-10 8 -26 8q-8 1 -11 1t-8.5 2t-8.5 5.5t-5 9.5t-2 8q0 9 19 18q21 7 38 7q11 0 21 -5
q35 -15 36 -18q30 -34 30 -60q0 -13 -4 -25z" />
    <glyph glyph-name="asciitilde" unicode="~" horiz-adv-x="488" 
d="M520 299q-3 -23 -14 -33q-12 -12 -19 -13v-15q-7 -5 -11.5 -10.5t-10 -12t-9.5 -11.5l-8 -6q-7 -12 -15 -13q-8 -18 -20 -18h-5q-2 -2 -6 -9.5t-8 -11.5t-9 -4h-4q-2 -7 -15 -14h-1q-2 0 -7.5 -2.5t-12 -6t-8.5 -4.5q-7 3 -12 3q-1 0 -3.5 -0.5t-5.5 -0.5h-8
q-18 1 -37 17q-17 14 -18 25q-2 2 -2 3t4 4.5t4 5.5t-1 3l-4 1q-3 2 -5 4l-6 3q-6 8 -6 15q0 2 1 4v3q0 7 -4 8q-9 9 -9 25q-4 15 -8 24q-4 10 -12 10q-10 0 -16 -10q-3 -2 -10 -5.5t-10 -6t-3 -6.5v-3q-2 -2 -8 -10t-12 -10l-2 -1l-4 -2l-2 -1v-1q-1 -2 -4 -9t-6 -11t-7 -6
q-3 -7 -12 -16l-5 -7q0 -3 3 -8q-3 -3 -9 -11t-10 -12q-11 -10 -24 -10q-26 0 -35 28q-3 7 -3 14q0 9 13 31q9 4 17 16t13 16q1 2 13 19q2 2 3 2t3 -1t4 -1q1 0 3 2t2 7q0 6 2 6q27 37 53 52q4 2 7 2l3 -1h4q3 0 4 1q8 12 19 16q14 2 19 2q39 0 68 -30q0 -2 0.5 -8.5
t0.5 -8.5l9 -8q2 -10 6 -23.5t4 -17.5q0 -3 -2 -13q13 -15 13 -25v-3q1 -1 4.5 -8t7.5 -9q5 -1 11 -1q3 0 10 5h5q11 0 18 7q2 1 5.5 8t8.5 9q5 6 21 18t23 23q6 10 22.5 27t22.5 27q5 1 7 3.5t3.5 6.5t3.5 6q6 8 15 8q8 2 10 2q17 0 17 -21q0 -4 -2 -12z" />
    <glyph glyph-name="uni00A0" unicode="&#xa0;" horiz-adv-x="250" 
 />
    <glyph glyph-name="exclamdown" unicode="&#xa1;" horiz-adv-x="234" 
d="M310 416q-3 -15 -14.5 -23t-21.5 -9h-10q-31 0 -42 17q-12 25 -12 37t6 22q2 3 5 3l3 -1h6h3q5 5 5 7l-1 1q0 3 5 5l41 -6q15 -17 27 -53zM238 308q-8 -18 -19 -21q1 -1 1 -3l-1 -4q-1 -4 -1 -5q-2 -13 -16 -33q-2 -5 -5 -5q-1 1 -2 1q-2 0 -6 -2q1 -2 2 -4.5t1.5 -4.5
t1.5 -2q-2 -9 -22 -48q-3 -5 -5.5 -10.5t-5 -12t-4.5 -10.5q-1 -3 -3 -7v-1l-1 -1v-1v-1l-1 -1v-1q-1 -2 -3.5 -10.5t-4.5 -10.5q-1 -5 -2 -6.5t-3 -2.5l-4 -2q-3 -1 -5 -1q1 -4 1 -12q0 -4 2 -12q-12 -7 -12 -27v-12l-10 -4l-3 -13q-4 -13 -11 -29q-16 -16 -34 -16
q-6 0 -9 1q-2 1 -5.5 2.5t-5 2.5t-4 3.5t-4 5.5t-2.5 7q-1 2 -6.5 12t-5.5 14v4q0 2 -1 5v4q0 5 4 14q4 15 23 17q1 2 3.5 5t4 5.5t1.5 4.5t-1 3q1 1 1 2q1 2 1 3q1 5 5 11l5 7v0q1 1 1 5q0 1 -0.5 2t-0.5 2q0 3 2 5q2 3 6.5 6.5t6.5 7.5q1 2 1 6q0 3 -2 9q6 6 9 15
q3 13 16 28q0 3 2 5t5.5 3.5t5.5 2.5q1 1 1 2t-1.5 5t-1.5 6v2q9 20 18 27q5 4 7.5 8t4 8.5t2.5 5.5q4 6 12.5 22t14.5 23q2 2 7.5 8t8 8.5t9 5.5t13.5 4q9 -1 16.5 -10t7.5 -17v-3z" />
    <glyph glyph-name="cent" unicode="&#xa2;" horiz-adv-x="394" 
d="M398 309l-2 -28q-18 -16 -32 -16q-9 0 -17 8q-4 4 -13 5h-5q-3 0 -8 -0.5t-6 -0.5h-2q-2 1 -5 1t-9 -6q-2 -4 -3 -8t-2.5 -9t-2.5 -8q-1 -2 -2 -6.5t-3 -9.5t-7 -10q-2 -3 -4 -5.5t-3.5 -4t-2.5 -3t-1.5 -3t-0.5 -3.5q0 -5 1 -8q-10 -21 -19 -34q-4 -22 -20 -51
q-2 -2 -2 -3t2 -1h3q2 1 6 1t7 3h8q19 0 25 10q20 12 59 22q28 15 48 15q12 -8 12 -18v-4q-11 -24 -38.5 -34.5t-30.5 -17.5l-13 -7q-1 -1 -5 -1t-12 3q-4 -3 -11.5 -6t-12 -6.5t-8.5 -12.5q-10 -3 -21.5 -5.5t-22.5 -4.5t-15 -3l-3 -1v0v0h-1v-1h-1h-1q0 -1 -1 -1
q-1 -3 -9 -11l-1 -2l-3 -7q0 -2 3 -6q-3 -10 -9 -16l-2 -1q-1 -2 -2.5 -7.5t-3.5 -10.5q-13 -28 -20 -33q-3 -3 -8 -3q-10 0 -22 14q-2 14 -2 20q0 14 7 27q0 7 6 21q0 1 2 4.5t4 8.5q-1 0 -3.5 3t-4.5 3t-6 -4q-21 0 -47 21q-34 29 -34 63v4q0 8 6 16q-1 3 -1 10
q0 18 11 41q15 28 32 38q3 11 8.5 18.5t15.5 17.5l14 14h6l11 -3q1 0 1 1q0 2 -1 5v3q0 4 4 8q19 19 36 28q3 1 10 5l14 8q3 -2 4.5 -3.5t3 -2.5t4.5 -2q2 2 5 6t4 6q4 3 11.5 5t8.5 3h11q12 32 13 35h1v1h1h1v1h1h1v1h1h1l1 1q1 0 1 1h1q1 0 1 1l2 1q0 2 -2 6.5t-2 5.5t1 2
q13 27 39 27q3 0 9.5 -1.5t15 -7.5t8.5 -15q0 -17 -11 -28l-4 -12q-2 -7 -6 -12t-4 -8v-2q17 0 28 -4q12 -5 16 -7t10.5 -8t9.5 -15zM234 263l-5 5q-2 -1 -6.5 -4.5t-8.5 -6t-7 -2.5q-2 -4 -11.5 -10.5t-12.5 -9.5l-2 -3l-2.5 -5t-3.5 -2.5t-7 -1.5q-2 -2 -9 -5.5t-8 -4.5
q-2 -4 -2 -6v-5q0 -2 -2 -6q-2 -2 -7.5 -8.5t-10 -12.5t-5.5 -6q-1 -1 -4 -10.5t-7 -13.5q1 -3 1 -8q0 -2 -3 -10t-3 -12v-4q0 -1 4 -5t6 -9l14 -6q4 -2 6 -2q6 0 9 -1q3 1 9 1q5 0 7 2l5 13q5 12 8 21q1 5 5 13q6 13 10 19q7 8 7 16q0 9 4 18q1 4 6 13.5t5 10.5q7 7 14 10
v2q0 3 -2 6t-2 4q0 2 3 5q0 1 0.5 3t1.5 4.5t2 4.5q0 2 2 5t2 4z" />
    <glyph glyph-name="sterling" unicode="&#xa3;" horiz-adv-x="452" 
d="M453 402q1 -2 1 -6q0 -2 -0.5 -4.5t-2 -8t-2.5 -11.5q-7 -13 -23 -13q-12 0 -19 4q-5 6 -9.5 12.5t-6.5 9.5t-7 7t-14 8q-17 0 -30 -16q-1 -2 -2 -4.5t-2 -4t-2.5 -3.5t-4 -3.5t-5.5 -2.5l-13 -2v-1q0 -1 1.5 -4t1.5 -5q0 -1 -1 -1q-3 -14 -10 -18q-10 -9 -13 -18
q-4 -13 -13 -36q-2 -6 -2 -8q0 -8 5 -8v1q3 -1 7 -1q5 0 6 1l14 -8l10 8q4 0 6 1t3 2l1 1q3 0 7 -3q9 0 12 -1q6 2 7 2q2 0 6.5 -2.5t6.5 -2.5h2q6 0 16 5q3 1 10 1q14 0 22 -7q10 -5 10 -14q0 -6 -6.5 -14t-14.5 -9q-3 -1 -17 -4q-6 -1 -28 -7q0 2 -0.5 4t-1.5 4v1l-8 -6
q-4 0 -8.5 0.5t-6.5 0.5q-7 0 -21 -9q-7 4 -13 4l-13 -3q-14 -3 -16 -3t-12 2l-10 -3q-2 -4 -3.5 -9.5t-3.5 -8.5q-8 -1 -8 -10v-1v-2v-1v-1v-1v-1q0 -3 -5 -10q-2 -9 -5 -13l-4 -14q-7 -2 -14 -9l6 -11q-1 -6 -7 -12t-15 -10q-8 -9 -8 -15t-3 -13q-1 -2 -3 -4t-5 -4.5
t-4 -3.5l2 -8q36 0 55 9q12 5 18 5h2h1h6h1h1h1h1h1h2h1h2q4 -3 6 -3q1 0 5 2.5t8 4.5q2 1 6 1t5 -1q10 2 14 2h9q7 0 16 3l1 -1h4q6 2 9 2q4 0 6 -1q2 0 2 -1q2 1 5 2q6 2 10 2q2 0 7.5 -1t7.5 -1h2l5 -13q2 2 5 3q5 2 7 5h5q14 0 30 -28q-3 -14 -24 -20q-1 0 -3 1l-2 1
q-1 0 -7 -2q-5 5 -9 5q-6 0 -14 -8q-8 3 -14 3q-28 -6 -35 -6t-10 1q-6 -3 -20.5 -5t-17.5 -3q-7 0 -16 4v0v-1h-1v-1v-1l-2 -2v-1v-1h-1v-2l-1 -1q-14 -3 -22 -3h-4q-4 -3 -6 -3l-2 2l-7 -6h-6q-17 0 -30 -7q-3 1 -8 1q-3 0 -13 -3.5t-18 -3.5q-3 1 -8 1q-6 0 -17 -3.5
t-17 -3.5q-7 0 -11 1l-9 6q-1 1 -3 1t-4.5 -5t-3.5 -5h-1q-3 1 -7 1q-1 0 -3.5 -1t-4.5 -1q-3 0 -10 3h-8q-21 12 -29 22q-10 10 -10 14q0 3 1 4q1 9 6 14q20 14 29 14q13 0 25 -4h1h1h1h3h1h1h1h1h1q2 0 12 2q5 8 9 8q1 -1 4 -1q6 0 9 1q-4 0 -4 1q10 6 12 11l9 9q0 1 3 4
l3 3q8 18 10 36q10 4 10 11q0 6 6 17l10 2q-1 2 -2.5 3.5l-2.5 2.5t-1.5 2.5t-0.5 2.5q0 2 1 3q1 2 2.5 7.5t3.5 8.5v1h1v1v1v1h1v1v1l1 1v1v1l1 1v1v1h1v1v1v1h1v1q4 9 5 19q-20 0 -32 -4q-7 7 -12 7l-8 -10h-7q-15 0 -25 6q-15 4 -15 21q0 6 3 14q2 8 5.5 11t18.5 9
q9 3 14 3h8h1h3h1h2h1h2h1h1l8 -3q2 0 4 5q12 2 18 2q1 0 4.5 -0.5t9.5 -0.5h13q6 0 7 4q1 9 5 20.5t4 17.5v5q13 8 13 14v3q-1 3 -1 7q0 3 9 19q2 2 4.5 6.5t4 6.5t4 4.5t5.5 4t8 2.5v3q0 15 8 26q13 13 15 17q32 24 59 28q2 0 5 -0.5t4.5 -1t2.5 -0.5q2 0 9 5q5 5 14 5
t20 -8q14 0 26 -9q4 -2 11 -4.5t9.5 -4.5t6 -8.5t7.5 -19.5z" />
    <glyph glyph-name="currency" unicode="&#xa4;" horiz-adv-x="452" 
d="M451 339l-5 -23l-18 -17l-19 -5q-3 2 -16.5 6t-16.5 11q-21 -7 -27 -7h-4q-7 -6 -17 -10q-1 -1 -6 -1l-6 1h-7q-3 -2 -3 -7t-3 -6q-10 -10 -22 -13q-2 -4 -4.5 -6.5t-7 -6t-6.5 -5.5q-3 -2 -3 -4l1 -1q1 -1 3 -1q3 0 8 1h2q2 0 8 -2q2 1 5 2t5 1q2 1 6 1q4 -1 4 -3
q0 -1 1 -1q4 4 16 4q10 0 16 -2q5 1 13 4q5 -2 5 -3t-1 -2q5 5 9 5l1 -1q2 0 5 -0.5t8 -0.5q29 -1 29 -20v-2q-1 -9 -8.5 -15.5t-18.5 -6.5q-8 -1 -17 -1q-6 0 -8 1h-3q-2 0 -3 1h-2q-4 0 -9 -1t-9 -1h-3q-3 0 -11 2h-6h-5q-4 0 -8 -4h-1h-2h-1h-1q-1 -1 -2 -1h-1h-1h-2h-1
h-1q-1 0 -2 -1h-1h-1h-2h-1h-7q-8 0 -13 1q-1 -1 -4 -1q-1 0 -3 1.5t-4 1.5q-4 -3 -9 -3h-2q-2 0 -5.5 0.5t-7.5 0.5l-6 -8q0 -7 -15 -22q-2 -2 -2 -6q0 -2 1 -3q1 -4 7 -4q1 0 23 6q4 -3 7 -3q0 1 8 1q3 0 8 1h2q4 0 6 -1q6 3 11 4q3 1 6 1q4 -1 4 -3l-1 -1h1q4 3 13 3
q12 0 19 -3q6 1 13 4q5 -1 9.5 -3.5t6.5 -2.5q1 0 5 2.5t6 2.5q24 0 24 -20q0 -3 -1 -4q-2 -17 -21 -19q-2 0 -7.5 -0.5t-7.5 -0.5q-8 0 -13 1h-1q-1 0 -3 3l-2 3q-4 0 -9 -3.5t-8 -3.5q-4 0 -14 2h-6h-5q-4 0 -8 -4h-1h-2h-1h-1q-1 -1 -2 -1h-1h-1h-2h-1h-1q-1 0 -2 -1h-1
h-1h-2h-1h-7q-8 0 -13 1q-1 -1 -4 -1q-2 0 -3 1.5t-3 1.5h-1l1 1h-1q-7 -4 -10 -4q-2 -1 -6 -1q-2 0 -14 5v1l-10 -5v0v0h-1v0q0 1 -5 1v-3q0 -2 -3 -7t-3 -9v-6v-1v-1v-1v-1v-1q0 -2 2 -12q5 -8 6 -8h1l2 -2q4 -10 18 -16q1 -1 15 -4q6 2 9 2q1 0 6 -1l10 -2h7q9 0 15 2.5
t8 2.5q3 0 5 -1q12 5 21 5l2 -1q10 0 19 10q7 -1 16 -1h1h1h2h2h1h1h1h2q5 0 15 10q8 6 13 6h5h2q10 10 32 10q11 0 17 -1q11 -6 11 -15q0 -5 -1 -8q-10 -19 -27 -24.5t-21 -15.5l-15 -8l-9 -3q-1 0 -7 2h-3h-10q-11 0 -20 -14q-9 -13 -39 -13q-7 0 -8 1l-2 -1q-5 -3 -11 -3
q-1 0 -15 2q-7 5 -8 9q-13 -9 -19 -9h-4q-11 0 -18 9q-6 -6 -14 -6t-21 6q-17 12 -19 15q-41 36 -41 74v4q-1 10 -3 16v1q0 5 4 9q-3 1 -8 1q-6 -2 -7 -2q-2 1 -9 2q-3 1 -7 1q-2 0 -7.5 -1.5t-9.5 -1.5h-4q-23 1 -25 19q0 23 23 25q4 1 8 1l3 -1v0l4 -3l1 2q6 2 11 2h5
q2 -2 3 -2h1q1 1 3 2t4 1q6 2 8 2q5 0 10 -3l4 1h1v0v0v1h1v1v1q1 0 1 1q2 11 8 19.5t7 12.5h1q-2 0 -4 1t-4 1q-7 -3 -8 -3q-3 0 -5 1h-2h-1h-1h-1h-1q-11 0 -17 -3h2h-4q-1 0 -11 2h-3q-21 0 -21 21v5q2 19 22 19h1h1h5v0h1h1h1h1h1v0v0v0v-1v0q1 0 2 -1h1l1 1q3 3 16 3
q2 -2 3 -2q3 0 8 3q3 1 7 1q3 0 9 -2h2q8 3 14 3t11 -3q6 14 23.5 31.5t20.5 21.5l15 -2q2 4 2 7q0 5 3 7q4 8 21 17q14 15 43 31q4 -2 7 -4t4 -2q2 2 5.5 7.5t6.5 7.5q4 2 12.5 4t11.5 3h4q8 0 19.5 5t16.5 5q4 0 10 -2h9h1h1h1h2h1h1q4 0 15 -3q29 -8 36 -36zM114 159z
M114 159z" />
    <glyph glyph-name="yen" unicode="&#xa5;" horiz-adv-x="464" 
d="M541 384v-2q0 -10 -10 -16q-1 -1 -5 -3.5t-7 -6.5q-4 0 -13.5 -6.5t-15.5 -7.5q-8 -5 -13 -5q-9 0 -14 1l1 -1v-3.5v-7.5q-11 -3 -17.5 -6.5t-14 -10.5t-12.5 -10q-7 -3 -28 -15q0 -7 -1.5 -9.5t-9.5 -5.5q-3 -3 -6 -3q-5 0 -10 3l-1 -1q0 -2 -1 -5t-1 -7q-11 -5 -19 -11
t-19.5 -17t-15.5 -15l-14 -6q-1 -1 -11 -10q-2 -1 -5.5 -6.5t-8.5 -7.5h7h1h1h2h1h2h1h1h3h16h1h1h1h3h1h3h2h1h3q43 0 47 5q14 -2 21 -2q8 0 22 -2q15 -4 17 -22q-16 -23 -36 -23q-7 0 -11 1q-2 1 -5 1l-1 -1h-1h-1v-1h-1h-1v-1h-1q-11 0 -23.5 -1.5t-15.5 -1.5q-9 0 -14 1
q-7 -5 -12 -5h-6h-1h-1h-1h-1h-1q-2 2 -6 2q-3 0 -9 -2q-12 -5 -23 -5h-9q-1 -3 -2.5 -10t-3.5 -12l-2 -13q2 -1 8 -1q1 0 9 1t13 1q9 -1 20 -1q4 0 9 1t10 1l8 -6l2 -2q3 0 7 4h7q5 0 12 1t10 1q8 0 12 -1q25 -5 28 -15q1 -2 1 -6q0 -6 -8.5 -11.5t-17.5 -5.5h-8
q-4 0 -11 0.5t-8 0.5q-7 0 -14 -3q-5 1 -13 1q-2 0 -12 -1t-22 -2q-2 0 -6 1l-4 1q-6 0 -16 -8q-4 7 -8 7q-3 0 -13 -10h-10q-1 -1 -1 -2t0.5 -2t0.5 -2t-1 -2q-9 -14 -9 -25v-2q-4 -9 -5.5 -20t-2.5 -13q-1 -1 -7 -5t-8 -10q-8 -7 -18 -7q-4 0 -7 1q-5 2 -9 4t-6 4t-2.5 5
t-0.5 4.5v4.5v2q0 9 1 12q2 5 3.5 13.5t2.5 13.5q0 3 0.5 5t1 4.5t0.5 6.5q-5 -1 -12 -1h-4l-3 1q-7 0 -15 -8q-6 0 -19 -2.5t-19 -2.5q-33 0 -33 23q0 3 2 13q6 20 35 20h7q2 -1 6 -1t5 1h2q1 1 2 1h1q1 1 2 1q2 1 3 1h7q21 0 44 5q0 7 11 39q-2 0 -10 -2.5t-13 -2.5
q-29 0 -38 -9q-7 0 -16 -0.5t-11 -0.5q-30 0 -41 23q2 18 7 24.5t21 11.5q13 -6 15 -6l7 7q1 1 7 1q8 0 12 1q5 1 14 1q6 -6 10 -6q1 0 3 1t5.5 3t6.5 4q8 3 33 3q3 7 4 15q-1 2 -3 6.5t-3 7.5t-4 6t-7 4q0 14 -11 26t-13 22q-5 5 -6 8q-13 0 -18 20q0 7 -16 21t-16 29
q-2 2 -2 4q0 1 1.5 4t1.5 6q-1 1 -4 1q-1 0 -3.5 -3t-4.5 -3q-1 0 -2 1q-4 7 -13 16t-12 16q-1 3 -1 9q0 20 18 35q3 3 24 12q7 -3 10 -3h4q5 -2 9.5 -5.5t6.5 -6t5.5 -8t5.5 -8.5v-2q0 -3 2.5 -5t6.5 -4.5t7 -5.5q0 -4 -0.5 -7.5t-1 -6t-0.5 -3.5q0 -2 2 -3q3 -1 10 -1
q1 -2 2 -9t3 -10q5 -20 6 -22q6 -7 15 -9t15 -18q3 -3 5 -6q14 -24 15 -31l-1 -6q7 -4 13 -12q2 -3 4 -3q1 0 3 2q8 13 20 21q3 -1 6 -1q1 0 6 8q12 20 22 20h4q1 6 6 11q6 6 26 19.5t28 24.5q3 -1 7 -1q3 0 4 1q0 2 10 19q5 3 10.5 4.5t7.5 3.5t3 8q4 2 14.5 8t16.5 8
q1 1 5 1h7h3l7 16q8 8 27 13q3 1 7 1q13 0 30 -11.5t17 -28.5v-3z" />
    <glyph glyph-name="brokenbar" unicode="&#xa6;" horiz-adv-x="268" 
d="M190 404l9 -17q-12 -9 -12 -16q0 -6 7 -7q1 -5 1 -13q0 -2 -2 -12v-2q0 -2 1 -5l1 -4q0 -6 -7 -13q6 -18 6 -19q0 -7 -4 -14q4 -4 4 -16h-67q0 11 1 14q-4 7 -4 14t1 14t2 12l1 4q0 4 -1 6l6 10q-8 11 -8 18q0 4 1 6q0 9 4 13q-4 4 -4 9v3q-1 3 -1 9l1 5v12q5 7 5 9v5v7
q-4 9 -4 18v5q0 3 -0.5 8t-0.5 6q0 5 1 7l-2 12t-1 7q0 5 5 12q-2 8 -2 12q0 1 0.5 7t0.5 12v5q0 12 9 19.5t21 7.5q14 0 23.5 -7.5t9.5 -21.5v-3q2 -10 2 -15q0 -11 -8 -33q-1 0 -1 -1l2 -1q2 -1 5 -3.5t4 -7.5q-2 -3 -2.5 -7.5t-2.5 -7.5q4 -9 4 -22q0 -10 -5 -17q1 1 2 1
t4 -4zM197 63q-6 -11 -6 -20t-3 -18q1 -1 4 -11q1 -2 1 -6q-1 0 -1 -1t-1 -2q-1 -3 -4 -4q4 -4 4 -9q0 -3 -1 -4q0 -1 -0.5 -3.5t-1.5 -3.5l5 -15l-6 -6q-5 -5 -5 -6q10 -27 10 -33q0 -3 -2 -15v-3q0 -4 -1 -7.5t-2.5 -6t-4 -4.5t-5 -3.5t-5 -2.5t-4.5 -1.5l-4 -1t-3.5 -0.5
h-1.5q-12 0 -20.5 8t-8.5 22v8v7l-1 3q0 5 2 13q-4 5 -4 14v5q1 2 1.5 5.5t0.5 5.5l4 25q1 2 1 7q0 8 -6 14q0 9 -1 21t-1 14q0 9 1 13v3q0 5 4 9q-4 4 -4 13q-1 2 -1 6q0 7 8 18l1 1q0 1 -1 2q-1 0 -1 1q-1 1 -1 2l-2 2v1q-1 0 -1 1q2 6 2 9l-1 7q-2 8 -3 16l-1 9q0 6 3 12
q2 4 2 11h62v-5v-1v-1v-2q0 -6 -1 -9q2 -10 2 -12t-1 -3.5t-3 -6t-4 -9.5q7 -7 7 -13q0 -1 -1 -4.5t-1 -5.5v-1q2 -10 2 -12q0 -3 -2 -13q-6 -2 -6 -7q0 -7 12 -16z" />
    <glyph glyph-name="section" unicode="&#xa7;" horiz-adv-x="408" 
d="M480 460q-2 -10 -2 -14q0 -26 -14 -35q0 -1 -2 -3.5t-3 -2.5q-12 -10 -21 -10q-5 0 -13 5q-7 3 -10 8t-3.5 8t-0.5 12q1 3 1 7q0 10 -10 10q-6 0 -10 -1h1h-1q-4 0 -8 3h-1q-1 0 -1 1h-1l-2 1q-1 0 -1 1h-1l-1 1h-1q-8 -11 -11 -12q-5 -1 -19 -3t-19 -4q-43 -9 -56 -18
l-11 -4h-2q2 -2 2 -3q0 -4 -19 -4q-8 -5 -8 -9t4 -9q3 -5 10 -8t10 -9q2 -1 6.5 -4.5t8 -5.5t6.5 -2l9 -10q6 -2 13 -6.5t12 -6.5q12 -3 22 -22q8 -4 21.5 -13.5t15.5 -10.5q4 -7 4 -12q0 -2 -2 -10l1 1q1 1 3 2t6 1h4q3 -4 9 -27q2 -6 2 -9q0 -9 -11 -27q-6 -2 -14.5 -9.5
t-12.5 -7.5h-2q-3 -4 -9.5 -7.5t-8.5 -7.5q-1 0 -21 -11q-16 -9 -27 -9q-4 0 -7 1q-3 -2 -8 -5.5t-6 -4.5l-8 -6q4 -5 5 -6t4 -1.5t7 -2.5q9 -3 15 -9q5 0 12 -6q12 -11 18 -24l11 -7q2 -10 2 -17q0 -26 -20 -41q-4 -4 -10 -4q-2 0 -8 2v-3q0 -10 -5 -18q-27 -7 -47 -21
q-15 -7 -23 -9t-10 -2q-1 0 -9 2l-6 -12h-10q-6 0 -17 -6q-9 -4 -16 -4q-5 0 -11 3l-1 -1q-25 -16 -66 -16h-8q-12 0 -17 2.5t-9.5 8.5t-10.5 10q0 31 33 39q4 -1 12 -1q9 0 20 2.5t26 6t25 5.5q2 -1 6 -1q6 0 10 3q2 0 3 1h1q0 1 1 1t2 1t3 1v1h1l2 1h1v1h1l10 -3v0
q0 1 -1 2h1v1h1h1v1h1h1q0 1 1 1t1 1q1 0 5 1.5t6 2.5q23 8 23 9q2 2 5 3.5t6.5 3.5t5.5 3q10 6 10 10q0 2 -1.5 4t-4 5t-4.5 7q-4 4 -12 7t-11 5q-27 20 -36 22q-3 4 -16 10t-17 11l-2 -2q-8 8 -18 13t-16 10q-12 2 -18 8q-1 1 -1 3q0 1 2.5 6t2.5 6q-6 2 -10 2l-2 -1h-5
q-4 0 -5 1q-2 6 -10.5 16t-8.5 20q-3 5 -3 8q0 5 3 12q0 38 17 48q1 1 5 1h6q4 0 5 1q6 4 6 11q0 3 -1 4q13 9 26 12l20 12q5 3 15.5 6.5t17.5 8.5q4 3 4 5q0 3 -7 10q-28 17 -28 48q0 6 1 9q3 26 38 47q25 16 42 16q10 6 28.5 11.5t23.5 7.5q2 1 5 1q4 0 5 -1l1 -1
q1 0 1 -1h1l2 -1q1 0 1 -1h1l1 -1h1l14 12q9 4 29 8.5t25 6.5q5 0 10 -0.5t8 -1t4 -0.5q6 0 15 4q8 2 12 2q7 0 10 -1h8.5t10 -0.5t8.5 -2t8 -4t6 -7.5q6 -6 8 -22l1 -2q0 -2 1 -5.5t1 -6.5zM315 245q-4 6 -15.5 14.5t-15.5 14.5q-4 2 -16 8.5t-16 6.5h-4h-3q-7 0 -22.5 -6
t-25.5 -7q-3 -5 -8 -9.5t-9 -6t-11.5 -5t-10.5 -4.5q-10 -4 -16 -15q-5 -8 -5 -17t6 -10q7 -7 16 -13q5 -3 11 -6q12 -6 21 -15q5 -5 7 -5q1 1 2 1q2 0 4 -1t5 -1q7 0 8 4q8 22 40 28q17 2 29 11q9 9 28 11q5 5 5 10t-4 12z" />
    <glyph glyph-name="dieresis" unicode="&#xa8;" horiz-adv-x="394" 
d="M434 443q3 -6 3 -16q0 -22 -10 -37q-20 -15 -39 -16q-2 -1 -7 -1q-24 0 -33 24v10q0 29 18 45q8 -3 9 -3q3 0 6 1q1 0 7 6t11 8q5 -4 15 -7t20 -14zM263 438v-10q0 -29 -18 -45q-7 3 -9 3q-3 0 -6 -1q-1 0 -7 -6t-11 -7q-5 4 -15 6.5t-21 13.5q-2 8 -2 17q0 22 10 36
q17 14 39 17q2 1 7 1q23 0 33 -25z" />
    <glyph glyph-name="copyright" unicode="&#xa9;" horiz-adv-x="680" 
d="M676 276q5 -10 5 -18q0 -3 -1 -8t-3 -12.5t-3 -14.5q0 -20 -14 -52q-3 -8 -30 -54q-7 -4 -17.5 -20.5t-24.5 -19.5q-19 -15 -25 -18q0 -2 -2 -6q-7 -7 -20 -11q-6 -7 -7 -10q-6 -3 -24 -10t-26 -13q-1 -1 -5 -1h-5q-4 0 -5 -1q-2 -1 -3.5 -3t-3.5 -3l-1 -1h-9
q-4 -1 -7 -5.5t-9 -6.5q-22 -6 -29 -6l-5 -4q-2 0 -5 0.5t-5 0.5q-4 0 -6 1v-1h-2q-8 -5 -11 -5q-1 0 -2 0.5t-2 0.5q-3 0 -6 -3l-1 -1q-1 0 -6 4t-7 4q-2 -2 -4 -5t-3 -5l-1 -2l-1 1q-6 2 -7 2t-2.5 -1t-5.5 -2.5t-11 -1.5q-2 0 -5 0.5t-4 0.5q-5 -4 -11 -4q-1 0 -5.5 1
t-8.5 1h-5v1l-10 -6l-24 2q-5 0 -6 -1h-5q-7 0 -15 3t-12 5.5t-4 1.5l-6 -2l-16 2q-12 9 -14 9q-4 0 -9 -4q-8 4 -22 12q-6 4 -16.5 9t-15.5 9t-8 7.5l-9 10.5t-14 15q-33 34 -33 82v5q-6 11 -6 18q0 3 4 13t7 20q1 1 1 6q0 3 -2 13l7 5q0 9 7 21.5t9 17.5q10 34 40 64l13 3
q1 2 1 5q0 1 -1 5t-1 8l9 12t10 12q6 4 15.5 14.5t15.5 14.5q48 34 68 43q4 10 17 14t14 5q23 11 25 11q9 7 21.5 12t20.5 7l8 2l19 1q4 -4 7 -4q4 0 7 -4q6 8 13 12q17 10 43 10q28 0 53 -7q20 0 30 -8q1 1 3 1h3q3 -1 5 -1q15 -12 15 -15q0 5 3 5l26 -14q4 -3 6 -8t4 -6h7
h6q3 -2 13 -20q1 1 4 1q16 0 19 -19l9 -4q0 -1 9.5 -11t9.5 -19v-3q0 -7 7.5 -21t9.5 -20q2 -10 2 -16v-4l-1 -2q0 -9 5 -19zM614 252q0 5 2.5 6t2.5 4t-7 16q1 1 1 3q0 1 -11 27q0 5 2 13q-8 9 -14 25v1v1h-1v1v1v1v0v1h-1v1v1q-2 5 -8 6q-8 4 -10 11q-10 3 -13 5.5
t-6 10.5q-21 7 -24 13q-19 6 -27 11l-5 13l-2 -1q-2 -1 -5.5 -2t-6.5 -2q-15 7 -27 8h-11q-5 0 -6 -1q-10 -2 -11 -2q-1 1 -14 1q-13 -8 -38 -10t-32 -5q-15 -11 -48 -25q-4 -2 -56 -32q-4 -16 -30 -23q-6 -2 -14 -12.5t-16 -14.5l-9 -18q-13 -4 -17.5 -10t-7 -16t-8.5 -16
q0 -6 -6 -13.5t-9 -7.5h-1l-1 -15q-2 -12 -22 -38q4 -4 4 -9q0 -7 -5 -19q3 -6 3 -13q0 -3 -2 -11q-1 -2 -1 -5l-1 -2q0 -1 9 -7q-2 -12 -2 -14q0 -4 2 -7.5t6.5 -9.5t6.5 -9q13 -4 17 -11q7 -3 20 -10l4 -6q4 -7 8 -9l14 2q6 3 10 3t11 -4.5t12 -6.5l11 1q8 -4 33 -4
q7 0 19.5 0.5t16.5 0.5q14 2 18 2q9 0 19 6q4 -1 12 -1q11 0 26 5q27 9 38 9q7 7 16 7q2 0 4 -1h2q9 0 12 9q14 2 33.5 14t32.5 13l10 10q39 39 44 39q4 7 15.5 13.5t11.5 15.5q7 3 7 7v2q0 4 4 11q-1 3 -1 7q0 7 8 15h1q2 0 2 6v4v1v2v3v1q2 2 3.5 16t2.5 17zM514 166
q-13 -16 -33.5 -21.5t-26.5 -15.5q-7 -1 -15 -6t-20 -7q-16 -14 -25 -14h-3q-3 -4 -6 -4h-5v0h-1h-1q-12 0 -19 -6q-9 2 -9 4t-1 2t-2 -1l-6 -8h1q0 -1 -7 -3.5t-17 -5t-18 -2.5q-3 -1 -10 -1q-14 0 -40 7h-7q-10 0 -18 5t-11 8.5t-14 18.5q-6 8 -6 25q-7 10 -7 18q0 3 2 15
q0 8 7.5 22.5t8.5 21.5q10 8 14 15l1 1v1l1 1l1 2l1 1v1l1 1l1 1v1l1 1l1 2l1 1v1l1 1q14 21 28 29q2 2 8 6.5t9 8t3 6.5v2q21 18 51 32q13 16 42 27q8 -6 12 -6l1 1l3.5 3.5t6.5 5.5q9 3 20 3q22 0 37 -12q8 0 13.5 -3.5t11.5 -9.5t10 -8q7 -8 7 -14l-6 -20q-7 -22 -26 -22
q-3 0 -17 2q-12 3 -19 12q-8 8 -13 8q-2 0 -20 -6q-11 -8 -42 -25q-1 -1 -32 -23q-5 -1 -11 -1q-4 0 -6 -2q-1 -1 -2 -3.5t-2 -6.5t-2 -7q-7 -7 -16 -23t-18 -23q-5 -15 -5 -23q0 -7 3 -15q5 -5 18 -5q15 0 19 -1q5 5 10 5l2 -1q2 0 5.5 -0.5t6.5 -0.5q12 3 16 3q2 0 16 -2
q3 0 9 9q22 7 43 16q2 0 3.5 -1t3.5 -2h1q1 0 3 2l5 5t8 6q8 1 22 7t20 7l15 7h8q14 0 17.5 -6t4.5 -24z" />
    <glyph glyph-name="ordfeminine" unicode="&#xaa;" horiz-adv-x="422" 
d="M405 361v-1v-2v-9v-1v-1v-1v-1v-1v-1v-1v-1q0 -8 -7 -18l-5 -2q2 -6 2 -9t-8 -21l-10 -6l1 -2v-4v-4v-5q0 -14 -15 -24q2 -8 2 -11q0 -18 -24 -18q-5 0 -8 1q-4 4 -7 10t-3.5 9t-2 12.5t-1.5 12.5q4 4 4 8v4v1v1v1v1v1q0 12 5 22q0 6 3.5 17.5t4.5 17.5q-4 -2 -12 -7.5
t-11 -7.5q-13 -9 -32 -28q-6 3 -7 4q-6 -13 -19 -14q-2 -4 -4.5 -7.5t-4.5 -5.5t-6.5 -5t-6.5 -4l-8 -4t-7 -4q-3 0 -9 -7t-17 -7h-1v0h-1v0v0q0 1 -1 1q0 -3 -3 -9q-6 -1 -13.5 -7.5t-13.5 -6.5h-3q-4 -4 -13 -4l-3 1h-5.5h-7.5q-2 2 -8.5 5.5t-9 5.5t-8 6t-8 7t-6.5 7.5
t-5.5 8.5t-3 9.5t-1.5 11.5q0 8 8.5 25.5t15.5 26.5q3 2 11 4l-2 9q3 3 6 7l1 1q2 4 7.5 10.5t6.5 8.5q2 3 7 8t6 7q9 0 9 5v4q20 25 48 41q9 11 32 24.5t39 18.5q6 -2 8 -2q4 0 11.5 2.5t12.5 2.5q4 0 11.5 -1t12.5 -1q4 0 9 -3t7 -3h2q17 -9 27 -26q0 -4 2 -11t2 -11
q0 -12 -12 -26q9 -1 15 -5t8.5 -6t8.5 -12t8 -12zM324 386q-10 4 -10 16q0 5 0.5 12.5t0.5 11.5q0 2 -4 2l-9 -1q-2 -1 -26 -14h-3q-2 -1 -5 -3t-5 -3t-4 -3t-3 -5l-10 -7q-1 0 -4.5 -1.5t-5.5 -2.5q-18 -20 -39 -35q-3 -2 -8 -3.5t-8 -2.5q0 -9 -4 -13q-21 -28 -27 -37
q-3 -11 -3 -16t5 -5q4 0 12 3l18 11q14 12 29 18q8 10 20 15q5 5 8 5l3 -2q3 -1 5 -1t3 1q4 1 8 14l6 4q6 9 18 13q4 7 14.5 11t14.5 13q1 0 13 5zM397 154q0 -23 -26 -23q-7 0 -10 1q-9 -4 -22 -4q-1 0 -13 1t-24 1h-7h-2q-3 0 -8 -5q-26 -2 -33 -2q-2 0 -7 0.5t-8 0.5
q-8 -2 -18 -2q-5 0 -15 6l-8 -5h-2q-6 0 -15 -3.5t-14 -3.5q-1 0 -10 3h-4q-3 0 -10 2.5t-10 2.5h-1l-1 -1l-3 -1q-3 -1 -5 -3l-3 1q-4 -3 -9 -3q-6 0 -14 3l-11 -6q-5 5 -13 5q-7 0 -14 -4q-16 15 -16 27q0 11 12 26q5 1 15 1q8 0 15 -3q3 3 20 3v1q13 5 17 5t8 -3
q3 0 6 0.5t5 1t3 0.5h2q5 0 11 -3q9 3 12 3l15 -5q11 7 31 7h9q2 -5 3 -5h1v0h1q9 0 15 10q12 -5 16 -5h4q7 0 12 -1l16 5h1v-1h1h1v-1h1h1l2 -2v1q0 2 14 2q5 0 15 -2q9 2 13 5q3 -1 11 -1t12 1l4 -4l2 -1q-1 1 -1 2q0 2 16 2q14 -14 14 -27z" />
    <glyph glyph-name="guillemotleft" unicode="&#xab;" horiz-adv-x="482" 
d="M480 342q-1 -12 -7 -23q-6 -10 -21 -19.5t-21 -17.5q-7 -2 -12.5 -7.5t-6.5 -5.5q-2 -2 -4 -2q-2 1 -3 1q-3 0 -5 -1l-2 -13h-1v-1h-1h-1v-1h-1q-1 -1 -3 -1l-1 -1q-1 0 -2 -1h-1v-1h-1h-1q-5 -3 -8 -11q-4 -8 -19 -14q-3 -5 -21 -18q-9 -5 -9 -10q0 -1 2 -5q5 -5 5 -7
q7 -15 10 -17q1 0 3 -4.5t7 -5.5q0 -3 4 -3q5 0 7 -5q14 -25 20 -28q19 -12 19 -29q3 -3 4 -5q0 -1 1 -1q0 -1 1 -1q0 -2 1 -3q1 0 1 -1v-4q0 -9 -5 -17q-9 -10 -19 -10q-12 0 -23 10q-21 16 -23 20q-6 3 -6 9t-4 9q-4 2 -9 2q-6 0 -8 3q-11 6 -27 25.5t-27 25.5q-5 6 -8 12
t-4 9.5t-1.5 12.5t-1.5 13q2 2 9.5 15t12.5 15l9 9t11 10t11 5q2 1 6 1l3 -1q3 0 6 4q4 5 10 12t8 9.5t5.5 6.5t5.5 5.5t5 3t7 2.5q11 13 32 24.5t28 18.5q17 17 38 17q18 0 26 -15zM283 342q-2 -17 -7 -23q-6 -10 -21 -20t-21 -17q-7 -2 -12.5 -7.5t-6.5 -5.5q-2 -2 -4 -2
q-2 1 -3 1q-3 0 -5 -1l-2 -13q-17 -8 -21 -17q-3 -8 -18 -14q-5 -6 -22 -18q-9 -5 -9 -10q0 -1 2 -5q5 -5 5 -7q7 -15 10 -17q1 0 3 -4.5t7 -5.5q0 -3 4 -3q5 0 7 -5q14 -25 20 -28q19 -12 19 -29q3 -3 4 -5q0 -1 1 -1q0 -1 1 -1q0 -2 1 -3q1 0 1 -1v-4q0 -9 -5 -17
q-9 -10 -18 -10q-12 0 -24 10q-3 2 -8 5.5t-9 7t-6 7.5q-6 3 -6 9t-4 9q-4 2 -9 2t-8 3q-11 6 -27 25.5t-27 25.5q-5 6 -8 12t-4 9.5t-1.5 12.5t-1.5 13q1 1 8.5 14.5t14.5 15.5q2 2 6.5 7t7 7.5t7 5.5t9.5 4q2 1 6 1l3 -1q3 0 6 4q2 2 4 8.5t3 8.5q7 2 16.5 11t17.5 11
q11 13 32 24.5t28 18.5q17 17 38 17q19 0 26 -15z" />
    <glyph glyph-name="logicalnot" unicode="&#xac;" horiz-adv-x="907" 
d="M860 305q-2 -8 -2 -10v-2q0 -2 0.5 -5t0.5 -7q-2 -12 -2 -17q0 -1 0.5 -4t1 -8.5t0.5 -11.5q-5 -8 -11 -33.5t-17 -34.5q0 -8 -1 -11q-8 -7 -10.5 -13.5t-9.5 -11.5q-10 -4 -10 -9v-5v-1v-2v-1v-2v-2v-2q-14 0 -20 -11q-1 -3 -7.5 -9.5t-12.5 -9.5q-1 -1 -18 -14l-10 -15
q-15 -1 -20 -5q-1 -6 -5 -9t-13 -6t-11 -4q-5 -2 -13 -11l-34 -11h3q-6 -10 -28 -15h-1q-8 -8 -11 -8q-8 2 -9 2q-7 0 -17 -14q-10 2 -12 2q-4 0 -14 -7l-18 -9q-8 5 -10 5t-4 -4t-5 -4t-6 1q-2 1 -5 1q-1 0 -3 -1.5t-7.5 -3t-15.5 -1.5q-7 -1 -18.5 -5t-15.5 -4t-6 1
q-6 -2 -10 -2q-7 0 -10 1q-3 0 -15 7q-1 1 -2 1q-2 0 -10 -9q-14 -2 -22 -2q-13 0 -33 4q-2 -2 -4 -2t-8 5t-11 7h-2q-2 0 -7.5 -4t-9.5 -4q-12 7 -60 15q-10 2 -32 13t-28 17q-1 0 -4.5 5t-5.5 5l-3 11q-4 3 -8 3l-5 -1q-6 0 -7 7q-3 2 -7.5 6t-7.5 7l-3 3q-1 0 -1 -1v1h-1
v1v1h-1v1v1h-1v1v1h-1v1v1h-1v1v1h-1v1v1h-1v1v1h-1v1v1h-1v1v1h-1v1q-3 7 -9 19q-5 17 -8 25q-6 20 -6 34q0 6 2 24q-4 4 -4 12q0 1 2 10t2 15v4q5 9 10.5 24t8.5 24.5t4 9.5v-1q2 9 19 37q2 3 8.5 6t8.5 5q3 5 3 10t2 11q4 3 12 12.5t15.5 16.5t11.5 7q9 16 22 20q3 5 7 8
t9 6t8 5q13 8 14 11q4 2 9.5 7.5t11 9.5t12.5 5q14 14 23 15q4 4 22 11q-12 8 -12 21q0 16 14 22q4 4 19 7q9 2 16.5 4.5l10.5 3.5q16 7 30 7h3q6 0 8.5 -1t3.5 -3t2 -3l15 10q7 1 12 2.5t7.5 2.5t4 1.5t2.5 0.5q7 0 19 -7q14 7 25 7q5 0 9.5 1t8.5 1q7 -1 23.5 -2.5
t20.5 -3.5q4 1 12 1q4 0 9.5 -1t14 -3t14.5 -3q7 -6 16 -6h6q8 0 18 -5q10 -1 19 -8t16 -7q15 -2 24 -10q5 0 23 -10.5t20 -15.5q19 -7 24 -20q15 -12 15 -26v-3q10 -2 20 -11q8 -14 8 -23q0 -6 -3 -10q3 -3 7 -4.5t6.5 -3.5t3.5 -7q3 -6 9 -28q1 -4 4.5 -11.5t4.5 -8.5z
M798 306l-10 10q-2 5 -6.5 12t-7.5 13t-4 15q-13 13 -25 32q-13 10 -15 12q-3 2 -9.5 9t-10.5 9q-1 1 -2 2.5t-1.5 3.5t-1.5 4t-2 3t-2 1h-4h-1h-1h-1h-2q-5 0 -5 -1q-22 10 -29 19q-2 3 -4 3t-7 -3q-11 5 -22 8t-12 4q-7 3 -14.5 4.5t-16.5 2.5t-14 2q-1 1 -10 1
q-4 0 -4 -3q0 -2 1 -4q10 -7 10 -15q0 -10 -8.5 -18t-17.5 -8q-3 0 -5 1q-11 0 -20 3q-22 2 -27 2q-10 0 -33 -3h-5q-5 0 -8.5 2t-4.5 2q-4 0 -10 -6q-7 -1 -32 -10q-8 -8 -18 -8q-2 1 -3 1q-11 0 -19 -4q-13 -5 -15 -5l-1 1q-2 0 -4.5 0.5t-4.5 0.5q-2 -2 -3.5 -6t-3 -7
t-3.5 -3q-8 -1 -14.5 -6.5t-16.5 -5.5q0 -7 -6 -12q-4 -5 -22 -16.5t-21 -22.5q-1 -1 -9 -6t-9 -7q-11 -8 -11 -9v1q0 -1 -1 -2q-4 -8 -8.5 -13t-6 -8t-1.5 -9v-9q-6 -1 -12 -1q-3 0 -3 -4q0 -3 -3 -10l-2 -3q-2 -3 -4.5 -7t-4.5 -7q-2 -12 -6.5 -20t-6.5 -14q-1 -1 -1 -3
t7 -15q-11 -8 -11 -12q0 -1 3 -17q0 -5 -1.5 -14t-1.5 -10q0 -5 3 -10q8 -11 8 -19v-4q4 -14 42 -44q0 -4 3 -9.5t4 -10.5q6 2 12 5l2 1q2 0 4 -2q7 -1 12 -5q9 -4 33 -11q2 0 3 -1h1q2 0 3 -1h1q2 -1 6 -1l5 -2h-1q19 -1 37 -6q11 0 20 -11q5 4 13.5 6.5t9.5 2.5
q7 -1 22 -1h28q5 -3 13 -3q13 0 17 3l19 2q4 7 10 7h4q2 0 12 2q2 0 4.5 1.5t8.5 3.5q3 1 14 1q12 0 14 -1q1 1 3 2l2 2v0q0 1 1 1v0h1v1h1l2 2q2 1 5.5 3.5t7.5 5.5q43 11 52 23q19 3 31 13l4 3q0 1 0.5 2t5 3.5t14.5 7.5v-1q0 -1 2 -1q10 0 23 5v4q0 8 6 12q20 16 33 32
q7 7 17 13q6 7 21 31q3 4 5 4h4q4 0 6 1v1l-1 2q-1 1 -2.5 3.5t-2.5 5.5q5 19 12 28q-1 2 -1 6q0 5 4 20t4 24q0 8 -1 13v2q0 3 3.5 7t3.5 6t-1 3zM685 332v-4q0 -8 -6 -16t-18 -10q-8 -7 -14.5 -11.5t-11 -6.5t-14.5 -5.5t-17 -6.5q-1 1 -4 1q-2 0 -8 -1t-7 -1h-1
q-4 -4 -4 -6v0q0 -1 -6 -5q-6 -3 -35 -10q-5 -1 -13 -1q-24 0 -34 13q-6 8 -6 16q0 16 19 24q7 7 16 7q7 0 14 -4h6q5 0 40 8q6 2 14.5 6.5t13.5 6.5q3 1 9 1h3q4 0 8 7q3 1 9.5 2.5t10.5 3.5q10 5 17 5q12 0 19 -13zM404 287q3 -3 3 -8q0 -7 -4 -15q-15 -20 -24 -23
q-5 -1 -13 -1q-24 0 -45 22q-1 3 -1 6q0 2 1 5t1 7v6v3q0 21 24 32l6 -2q1 0 3 1t3 1q3 1 10 1q6 0 14 -3l7 -16q11 -5 11 -8q-1 0 -1 -1q0 -2 5 -7zM671 198q0 -7 -1.5 -12.5t-3.5 -8t-6.5 -7l-7.5 -7.5q-3 -1 -12 -8.5t-20 -8.5q-8 -6 -10 -6h-2q-2 1 -3 1q-3 0 -4 -1
q-8 -11 -12 -13q-5 -3 -15.5 -9t-15.5 -9q-15 -11 -28 -11h-4q-16 -10 -25 -10q-3 -2 -8 -5t-7 -4t-6.5 -2.5t-9.5 -1.5q-16 -6 -20 -6q-5 0 -16 4l-11 -8q-4 1 -12 1q-12 0 -19 -5q-8 -1 -18.5 -2.5t-12.5 -1.5q-8 0 -16 5q-86 14 -105 56q-7 24 -7 30q0 14 22 29
q12 9 22 9q7 0 14 -6q9 -9 9 -15q0 -4 -4 -11q-5 -12 -5 -14q0 -3 1 -5q2 -2 15.5 -8.5t16.5 -6.5q8 0 15 -1t12 -2.5t7 -1.5q6 2 9 2q7 0 14 -3q7 1 19 1q8 0 16 5q5 2 15.5 3t16.5 3q5 1 22 5t27 7q40 15 44 19q7 2 18 7.5l15 7.5q3 1 17 8t21 12q14 16 29 17q3 1 9 1
q8 0 21 -12z" />
    <glyph glyph-name="registered" unicode="&#xae;" horiz-adv-x="679" 
d="M676 276q5 -10 5 -18q0 -3 -1 -8t-3 -12.5t-3 -14.5q0 -20 -14 -52q-3 -8 -30 -54q-7 -4 -17.5 -20.5t-24.5 -19.5q-19 -15 -25 -18q0 -2 -2 -6q-7 -7 -20 -11q-6 -7 -7 -10q-6 -3 -24 -10t-26 -13q-1 -1 -5 -1h-5q-4 0 -5 -1q-2 -1 -3.5 -3t-3.5 -3l-1 -1h-9
q-4 -1 -7 -5.5t-9 -6.5q-22 -6 -29 -6l-5 -4l-16 2v-1h-2q-8 -5 -11 -5q-1 0 -2 0.5t-2 0.5q-3 0 -6 -3l-1 -1q-1 0 -6 4t-7 4q-2 -2 -4 -5t-3 -5l-1 -2l-1 1q-6 2 -7 2t-2.5 -1t-5.5 -2.5t-11 -1.5q-2 0 -5 0.5t-4 0.5q-5 -4 -11 -4q-1 0 -5.5 1t-8.5 1h-5v1l-10 -6l-24 2
q-5 0 -6 -1h-5q-7 0 -15 3t-12 5.5t-4 1.5l-6 -2l-16 2q-12 9 -14 9q-4 0 -9 -4q-8 4 -22 12q-6 4 -16.5 9t-15.5 9t-8 7.5l-9 10.5t-14 15q-33 34 -33 82v5q-6 11 -6 18q0 3 4 13t7 20q1 1 1 6q0 3 -2 13l7 5q0 9 7 21.5t9 17.5q10 34 40 64l13 3q1 2 1 5q0 1 -1 5t-1 8
l9 12t10 12q6 4 15.5 14.5t15.5 14.5q48 34 68 43q4 10 17 14t14 5q23 11 25 11q9 7 21.5 12t20.5 7l8 2l19 1q4 -4 7 -4q4 0 7 -4q6 8 13 12q17 10 43 10q28 0 53 -7q20 0 30 -8q1 1 3 1h3q3 -1 5 -1q15 -12 15 -15q0 5 3 5l26 -14q4 -3 6 -8t4 -6h7h6q3 -2 13 -20q1 1 4 1
q16 0 19 -19l9 -4q0 -1 9.5 -11t9.5 -19v-3q0 -7 7.5 -21t9.5 -20q2 -10 2 -16v-4l-1 -2q0 -9 5 -19zM614 252q0 5 2.5 6t2.5 4t-7 16q1 1 1 3q0 1 -11 27q0 5 2 13q-8 9 -14 25v1v1h-1v1v1v1v0v1h-1v1v1q-2 5 -8 6q-8 4 -10 11q-10 3 -13 5.5t-6 10.5q-21 7 -24 13
q-19 6 -27 11l-5 13l-2 -1q-2 -1 -5.5 -2t-6.5 -2q-15 7 -27 8h-11q-5 0 -6 -1q-10 -2 -11 -2q-1 1 -14 1q-13 -9 -37.5 -9.5t-32.5 -5.5q-8 -4 -13 -7h-1v-1h-1l-1 -1h-1l-1 -1q-1 0 -1 -1h-1h-1q0 -1 -1 -1l-1 -1h-1l-1 -1h-1v-1h-1q-14 -7 -21 -10q-4 -2 -56 -32
q-4 -16 -30 -23q-6 -2 -14 -12.5t-16 -14.5l-9 -18q-13 -4 -17.5 -10t-7 -16t-8.5 -16q0 -6 -6 -13.5t-9 -7.5h-1l-1 -15q-3 -12 -22 -38q4 -4 4 -9q0 -7 -5 -19q3 -6 3 -13q0 -3 -2 -11q-1 -2 -1 -5l-1 -2q0 -1 9 -7q-2 -12 -2 -14q0 -4 2 -7.5t6.5 -9.5t6.5 -9
q13 -4 17 -11q7 -3 20 -10l4 -6q4 -7 8 -9l14 2q6 3 10 3t11 -4.5t12 -6.5l11 1q8 -4 33 -4q7 0 19.5 0.5t16.5 0.5q14 2 18 2q9 0 19 6q4 -1 12 -1q11 0 26 5q27 9 38 9q7 7 16 7q2 0 4 -1h2q9 0 12 9q14 2 33.5 14t32.5 13l10 10q39 39 44 39q4 7 15.5 13.5t11.5 15.5
q7 3 7 7v2q0 4 4 11q-1 3 -1 7q0 7 8 15h1q2 0 2 6v4v1v2v3v1q2 2 3.5 16t2.5 17zM523 307v-6q0 -38 -26 -45l-2 -4t-3 -4q-12 -12 -29 -17q-7 -8 -18 -9.5t-16 -10.5h-1v-1h-1h-1q0 -1 -1 -1h-1l-1 -1h-1q-4 -3 -7 -3q-4 -6 -15 -8q-39 -18 -42 -19q8 -6 16.5 -12
t13.5 -9.5t8 -6.5q7 0 11 -2.5t8 -8t6 -7.5q19 -9 24 -13q10 -7 10 -21q0 -6 -3 -14q-11 -7 -19 -7h-6q-5 0 -8.5 -0.5t-5.5 -0.5l-2 -1q-4 0 -6 2l-2 1l-3 3l-1 1l-2 2l-1 1l-2 2l-2 2q-4 4 -6.5 6t-4 3.5t-3 2t-2 0.5h-3h-3.5q-2 1 -5 4h-1q-3 3 -9 7t-8 6l-1 1q-4 2 -5 3
l-1 1q-20 14 -31 21q-10 1 -19 14h2l-8 7v1q-3 -2 -3 -5q0 -1 -2 -7q-11 -18 -11 -21q0 -4 -5 -14.5t-5 -14.5q-8 -5 -8 -6h1q0 -1 -5 -9q-9 -11 -22 -11q-8 0 -15 3q-12 8 -12 19q0 1 3 9.5t3 14.5q2 11 14 31q8 3 8 11l4 23q10 1 10 8v6q0 7 1 10q3 10 14 20q6 14 10.5 24
t8.5 17.5t5 10.5q2 2 3 5.5t2 5.5q-1 2 -5.5 8t-5.5 8q-1 3 -1 7q0 13 12 23q20 9 39 9h7q30 6 47 6h8q2 -1 6 -5t5 -4l16 10q9 -3 18 -3q40 0 52 -12q12 -5 17 -7q2 -2 11.5 -11t13.5 -18zM446 285q7 7 7 11t-9 5q-3 1 -8 1q-1 0 -6.5 -0.5t-8.5 -0.5q-5 3 -8 3q-1 0 -5 -1
t-7 -1q-4 0 -6 1q-8 -5 -18 -5h-2q-2 1 -4 1q-7 0 -15 -2q-13 -5 -16 -15q-2 -4 -4.5 -13.5t-6.5 -16.5t-13 -14l-13 -29q6 2 15.5 5.5t15.5 5.5q0 1 6.5 6t8.5 5q3 4 16 10q8 2 13 3l13 9h2q14 0 25 15q2 -1 6 -1t10.5 8t11.5 10z" />
    <glyph glyph-name="macron" unicode="&#xaf;" horiz-adv-x="406" 
d="M459 421v-2q0 -12 -9 -20t-23 -8q-8 -2 -15 -2h-11q-10 0 -25 -5q-8 -3 -17 -3q-1 0 -13 1t-21 1q-5 -6 -8 -6t-17 6l-3 1q-2 0 -3 -4q-4 -1 -9 -1q-2 0 -5 0.5t-4 0.5q-6 0 -15 -4q-3 3 -11 3q-11 0 -14 -3q-6 1 -12 4t-10 3t-7 -1q-13 10 -16 12q-4 11 -4 18q0 6 5 18
q9 11 24 13q6 0 14.5 -2t11.5 -2q6 0 9 1q5 0 13 -2t9 -2q2 0 6 2q5 3 9 3l7 -1q7 -2 14 -2h2q1 0 14 -10q2 0 5 5t5 5q10 2 17 2t11 -1q10 5 16 5q4 0 7 -1q6 0 12 1h1q3 0 9 -2q8 3 20 3q31 0 31 -24z" />
    <glyph glyph-name="macron" unicode="&#x2c9;" horiz-adv-x="406" 
d="M459 421v-2q0 -12 -9 -20t-23 -8q-8 -2 -15 -2h-11q-10 0 -25 -5q-8 -3 -17 -3q-1 0 -13 1t-21 1q-5 -6 -8 -6t-17 6l-3 1q-2 0 -3 -4q-4 -1 -9 -1q-2 0 -5 0.5t-4 0.5q-6 0 -15 -4q-3 3 -11 3q-11 0 -14 -3q-6 1 -12 4t-10 3t-7 -1q-13 10 -16 12q-4 11 -4 18q0 6 5 18
q9 11 24 13q6 0 14.5 -2t11.5 -2q6 0 9 1q5 0 13 -2t9 -2q2 0 6 2q5 3 9 3l7 -1q7 -2 14 -2h2q1 0 14 -10q2 0 5 5t5 5q10 2 17 2t11 -1q10 5 16 5q4 0 7 -1q6 0 12 1h1q3 0 9 -2q8 3 20 3q31 0 31 -24z" />
    <glyph glyph-name="degree" unicode="&#xb0;" horiz-adv-x="309" 
d="M352 339q-14 -5 -18.5 -15t-10.5 -15q-13 -15 -40.5 -35t-36.5 -28q-7 -3 -13.5 -4.5t-10.5 -2.5t-8 -5q-1 -1 -2 -1t-2.5 2.5t-3.5 5.5t-5 5q-31 -20 -43 -20t-20 10q-8 0 -16 4.5t-17 12t-14 10.5q-1 10 -11 24q-1 1 -1 3q0 3 4 9t5 10q-5 5 -10 5t-5 10q0 7 1 16.5
t1 12.5v8q0 5 10 35l2 4l1 4l2 4l1 4l1 1l1 4q2 6 5 16q9 15 53 25q7 -6 13 -6q4 0 11 4q3 2 10.5 8t12.5 8q7 4 17 4q4 0 12 -2h6h5l2 -1q5 0 7 1q3 1 8 1q6 0 20 -4t19 -5q2 -1 9 -5.5t9.5 -6.5t8 -6.5t8.5 -8t6 -9t4 -11.5q12 -12 12 -25q0 -18 -1 -28v-1v-3v-1v-1v-1v-1
v-1q0 -1 0.5 -3.5t1 -7t0.5 -7.5zM292 396q-2 2 -7.5 6.5t-9 7.5t-3.5 7q-13 4 -30 4q-8 0 -19.5 -2.5t-31 -7t-33.5 -7.5q-2 -5 -3 -15t-4 -17.5t-10 -12.5l-2 -53q5 -3 7.5 -6.5t4.5 -8.5t3 -8q11 2 28.5 7.5t23.5 6.5q21 18 52 23q4 11 19.5 35.5t15.5 33.5q0 5 -1 7z
" />
    <glyph glyph-name="plusminus" unicode="&#xb1;" horiz-adv-x="926" 
d="M871 262q4 -15 4 -30t-7 -22l-6 -8q0 -2 5 -7q-9 -30 -20 -48q-7 -21 -19 -29q-15 -26 -33 -30q-10 -3 -10 -6q0 -1 -1 -8q-22 -17 -27 -21l-4 -4q-10 -9 -20 -10q-15 -11 -21 -13q-1 -1 -2 -1t-3.5 2.5t-5.5 3.5q0 -1 -2 -5q-3 -6 -6 -11q-20 -9 -27 -10q-8 -6 -24 -12
t-23 -11q-37 -9 -41 -10q-3 5 -11 5h-2q-2 -1 -3.5 -6t-3.5 -6q-17 -8 -67 -16l-24 -5q-2 -1 -5 -1q-4 0 -14 6h-1l-10 -11q-26 -6 -38 -6q-6 0 -8.5 2.5t-3.5 2.5q-2 0 -9 -5q-11 0 -30.5 0.5t-29.5 0.5q-11 0 -16 5v1l-7 -7q-7 1 -20 1q-9 0 -19 5l-7 9q-1 1 -2 1
q-3 0 -10 -6l-20 8l-9 4l2 -2q-47 25 -50 27q-8 3 -20.5 13.5t-15.5 16.5q-7 8 -11 14t-5.5 9t-2.5 4q-10 17 -12 24q-1 1 -1 4q0 2 3 7t3 8q0 8 -4 8t-11 3q-4 20 -4 27v21q11 61 15 69q1 7 9 20t9 22l13 22q17 27 25 30l4 3q-1 2 -2 7q18 28 35 49q1 1 11 7q6 12 28 28
q2 2 5 2q2 0 5.5 -2t4.5 -2q2 0 4 2q1 2 1 4q0 1 -0.5 2.5t-2 4t-2.5 6.5l11 11q29 29 42 29q32 25 51 36q9 3 12 3l1 -1q2 0 6 6q7 8 29 14q9 6 19 6h1q1 -1 2 -1q8 0 20 5q5 1 12 1q6 0 10 1q9 -4 11 -4q1 0 5 2q37 -5 61 -20q19 -12 31 -31q4 1 11 1q5 0 15.5 -2t17.5 -2
h7l13 -2q7 3 12 3q2 0 9 -2.5t14 -2.5q20 -3 28 -5q4 -1 6.5 -3t3 -4t1.5 -5.5t2 -5.5q7 0 7 1v0h1v0v0q0 3 6 6q4 -2 9 -3.5t7.5 -3t4.5 -2.5q13 -3 25 -10q4 -3 6 -20q6 3 19 7q9 -7 15 -15q10 -9 16 -13q2 -2 2 -3q5 -3 15 -17t10 -16l-2 2q2 -3 5 -9l4 -8q-2 -6 -2 -8
t2.5 -5.5t4.5 -9.5q0 -2 2 -6l3 -6q7 -17 7 -28q0 -7 -1 -10zM816 243q0 1 -3 4t-3 5q0 1 1 2q-1 4 -3 11t-4 11q1 1 1 4q0 1 -6 15q-13 20 -32 46q-3 3 -7 4q-10 11 -21 18q-4 1 -28 12v2q0 2 -4 8t-4 8q-5 -1 -7 -3.5t-6 -2.5l-10 2l-8 2q-3 1 -10 7t-13 6q-5 0 -8 -1
q-2 -1 -6 -1t-14 4.5t-19 4.5l-14 2q-1 -1 -6 -1q-4 0 -18.5 3t-20.5 3l-25 -1q-4 0 -9 4t-8 4h-1l-5 -5q-5 -6 -12 -6h-10q-3 0 -6 0.5t-5 0.5q-6 0 -10 -1h-3q-8 0 -15 5.5t-7 12.5q0 6 7 12q2 2 2 4q0 5 -13 5q-4 0 -5 -1q-2 -2 -6 -3t-6 -3q-22 -12 -44 -22
q-3 -1 -12.5 -12t-21.5 -11h-5v-1q-3 -14 -19.5 -24t-16.5 -11q-8 -15 -21 -18q-1 -2 -14 -17q-7 -2 -11 -6t-7.5 -10t-6.5 -9q-8 -21 -18 -25q-26 -33 -39 -60q-1 -11 -14 -20q1 -3 1 -8q0 -8 -4 -13q-7 -36 -7 -40q0 -8 -3 -13q2 -12 2 -16l-1 -2v-2q0 -6 11 -17
q-2 -6 -2 -7t1.5 -3.5t3 -7t1.5 -9.5q8 -11 16 -13q2 -7 3 -9.5t2 -4t5 -3t8 -3.5q2 -2 7.5 -4.5t9.5 -4.5q1 -3 1 -7v-6v-1l7 2q7 1 11 3q4 -2 10.5 -3t10.5 -2q43 -12 83 -12q11 0 33 2q3 -1 10 -1q6 0 15 1.5t20.5 4t18.5 3.5q3 1 6 1q4 0 8.5 -3.5t7.5 -3.5q3 3 9 7
l10 6q5 1 14 2.5t14 3.5q11 4 33 9.5t34 9.5q8 8 18 8q4 0 6 -1q4 2 12.5 4.5t13.5 4.5q1 0 3 -1.5t4 -2.5l2 -1q1 0 3 2q3 7 7 11q5 4 22 12q6 6 15.5 9t11.5 6q6 3 16 9.5t13 8.5q6 2 10 2q7 0 11 -4q2 2 5 17q5 12 15 15q3 4 11.5 11t9.5 14q24 27 30 64q1 3 6 9t5 10z
M643 284q-12 -17 -27 -17q-6 0 -10 1q-2 1 -8 1q-8 4 -13 11l-11 7q0 3 -10 16q-7 7 -7 18q0 7 1 11q3 13 23 18v-2l12 7q15 -2 42 -25q9 -21 9 -32q0 -9 -1 -14zM439 324q3 -6 3 -12q0 -10 -12 -18q-2 -1 -4 -5v-1v-1l-1 -1v-1v-1l-1 -1v-1q-2 -10 -7 -10q-4 -4 -7 -4h-2
q-2 1 -4 1t-6 -2q-6 -2 -9 -2q-15 0 -33 21q-3 9 -3 16q0 4 2 22q12 16 37 22q34 -2 47 -22zM649 143q4 -9 4 -21q0 -30 -28 -30h-5q-5 1 -8.5 3.5t-6.5 6.5t-4.5 7t-3.5 9t-3 8q-3 15 -9 25q0 2 -2.5 4t-6.5 4t-5 3q-1 2 -3 3.5t-4 2.5l-8 2q-7 1 -14 3q-19 3 -32 3
q-10 0 -12 -3q-13 2 -17 9q-8 0 -18 -10q-11 -7 -34 -11.5t-32 -7.5q-13 -7 -29 -13q-4 -2 -34 -15q-2 1 -3.5 3t-2.5 3l-2 1q-1 0 -2 -1q-1 -2 -3.5 -9.5t-6.5 -10.5q-11 0 -30 -15q-13 -19 -42 -19q-24 0 -25 24v5q0 15 16 26q46 33 66 38q35 16 43 19q41 19 84 27
q7 1 15 1q3 0 14 8q3 -1 8 -1q2 0 16 5q8 -2 12 -2q1 0 3 0.5t4 0.5q4 0 12 -2q4 1 13 1q23 0 45 -9h3q7 0 15 -6t12 -7q30 -18 51 -62zM306 -59l2 -1h-1z" />
    <glyph glyph-name="twosuperior" unicode="&#xb2;" horiz-adv-x="374" 
d="M396 269q3 -6 3 -13q0 -28 -20 -32h-3q-5 0 -8 1q-4 -2 -12.5 -2.5t-12.5 -2.5q-2 -1 -6 -1q-1 0 -4.5 1t-4.5 1q-4 0 -8 -6q-3 -1 -10 -1q-3 0 -6 0.5t-4 0.5q-8 0 -16 -7q-8 -5 -16 -5h-10q-9 0 -14 -1q-6 2 -8 2q-1 0 -1.5 -0.5t-1.5 -1t-4 -1.5t-8 -2q-19 -7 -34 -7
q-4 0 -5 1q-41 -2 -43 -4l-3 -3q-8 -1 -15 -2t-9 -1q-7 0 -11 1q-2 -1 -6 -1q-16 0 -26 17q-8 11 -8 20q0 11 11 27.5t13 21.5q24 11 36 24q8 10 33 24q1 4 4 6.5t5.5 3.5t7 2t6.5 2q24 18 36 24q6 -2 8 -2q4 1 5 1l4 12q25 16 55 40q7 6 10 6h2q1 0 7 2q0 10 7 14q4 1 4 5
q0 8 -10 8q-5 3 -8 3l-2 -1q-2 -1 -4.5 -2t-4.5 -1q-2 3 -6 3q-2 0 -32 -11q-7 2 -9 3h-1l-6 -2q-1 0 -6.5 -4t-7.5 -4q-6 -6 -12 -6t-14 -3q-14 -6 -23 -6q-10 0 -21 4q-15 13 -15 28q0 8 1 12q6 28 37 28h7q16 6 40 11q3 -1 7 -1q2 0 6 1t8 1h5q2 0 7 -4.5t8 -5.5
q3 2 10 7t11 6q15 3 30 3t30 -5q4 0 10 -2l1 -1q1 0 1 -1h1l1 -1q2 0 2 -1h1l1 -1h1q7 -1 12 -1q1 0 6 -8q16 -6 16 -38v-3q0 -5 -2.5 -10t-4.5 -8l-2 -3q-13 -27 -29 -31q-2 -9 -11 -13q-4 -7 -9 -7q-6 0 -15 -12q-3 0 -23 -16q-15 -11 -22 -15q-5 -5 -18 -12t-19 -16h-3
q-22 0 -30 -18q-4 -3 -15 -7q-8 -4 -8 -9q0 -3 5 -3h2l11 3q1 0 7 -2q15 5 30 5h10q1 1 3 1q1 0 3.5 -1.5t6 -3.5t6.5 -3q1 0 6 5.5t11 7.5q11 4 22 4q6 2 8 2q1 0 6 -2t7 -2q5 0 12 4q1 -1 3 -1t10 2t12 2h4h4q15 0 25 -10z" />
    <glyph glyph-name="threesuperior" unicode="&#xb3;" horiz-adv-x="367" 
d="M399 426q0 -7 -3 -12t-8.5 -10t-7.5 -9l-20 -3q-6 -1 -8 -9.5t-7 -10.5q-6 -4 -23 -10l-1 -1h-1h-1l-1 -1h-1h-1l-1 -1h-1h-1l-1 -1h-1h-1l-1 -1h-1h-1q-2 -1 -4.5 -1.5t-4.5 -1.5t-3 -1q-3 -4 -8 -6.5t-9.5 -4t-6.5 -2.5q8 -5 15 -5q2 0 6 0.5t5 0.5q6 0 9 -3l26 -6
q11 -6 11 -9t4 -7q4 -2 9.5 -10.5t8.5 -10.5q1 -5 1 -13q0 -24 -23 -41l-14 -17q-3 1 -8 1q-2 0 -6.5 -2t-10.5 -2q-3 -5 -12 -12q-2 -2 -12 -10q-5 -1 -10 -1q-2 0 -3 -1l-1 -1l-1 -1l-6 -4q-11 -11 -31 -15q-8 -11 -22 -12h-2q-3 0 -10 -5q-7 -7 -21.5 -11t-19.5 -7
q-6 -2 -7 -2l-2 1q-3 0 -5 -2q-6 3 -10 3q-3 0 -7 -2q-3 -1 -9.5 -6.5t-10.5 -7.5l1 1q-14 -10 -37 -10q-6 0 -12 2q-2 0 -9 3q-10 10 -10 18q0 6 19 28q13 3 22 6t19.5 8.5t18.5 8.5q5 4 15 4q6 0 19 8q2 2 6 3.5t6 2.5q3 0 5.5 3t8.5 5q1 1 10.5 3.5t11.5 7.5q14 4 45 21
q1 1 2 1t6 -2t6 -2q2 0 3 3q4 5 4 13l11 5.5t7 4.5t3 3.5t1 2.5v2v2q0 4 -5 6q-6 -2 -8 -2q-5 0 -12 5q-1 1 -4 1l-5 -1q-6 -1 -9 -1q-4 2 -11 2q-13 0 -17 -4l-14 6q-1 0 -4 -4t-7 -6q-3 1 -8 1q-6 0 -24 -5q-3 -1 -7 -1q-17 0 -25 24q-1 3 -1 8q0 13 8.5 21.5t35.5 19.5
q8 0 10 -2h1q2 0 7 3q5 2 5 6l-1 1q0 3 8 8q11 6 32 15.5t32 14.5q7 2 13 6q10 4 24 13t20 12l4 4q2 1 3 3t3 4l-3 2q-7 -1 -19 -1q-1 0 -8.5 0.5t-14.5 0.5q-8 -7 -19 -7q-6 0 -8 1q-9 3 -18 3h-3q-2 0 -5.5 -5t-6.5 -6q-8 -2 -22 -6t-15 -4q-7 -4 -14 -4h-3q-3 0 -8 0.5
t-10 0.5q-22 17 -22 33q0 18 26 28q23 10 53 14q9 2 21 3t19 2t8 2q4 -1 11 -1q4 0 11.5 1t10.5 1q8 0 11 -1q8 2 12 2l14 -3q15 -3 20 -3h5q1 -1 3 -1q2 -1 3 -1v-1q3 0 5 -1l1 -1q1 -1 3 -1q2 -1 3 -1q11 -4 13 -13q1 -7 8.5 -13.5t7.5 -9.5v-1q3 -4 3 -10q0 -1 -2 -7z
" />
    <glyph glyph-name="acute" unicode="&#xb4;" horiz-adv-x="351" 
d="M177 330q-5 7 -5 15q0 11 12 21q2 2 9.5 13t11.5 13q12 3 16 16q7 16 8 17t4 1q1 0 2 -0.5t2 -0.5q3 0 5 2v13q5 4 10.5 14t11.5 13q3 1 11 15q6 10 35 12q9 0 14.5 -3.5t10.5 -9.5t10 -9q3 -8 3 -15q0 -10 -7 -17q-1 -1 -4 -1h-6q-3 0 -4 -1l-1 -10q-2 -1 -4.5 -3
t-4 -2.5t-3 -3t-2.5 -5.5q-5 -3 -16 -12.5t-18 -11.5q-3 -10 -21 -24q0 -6 -17 -18q-18 -12 -20 -14q-2 -3 -16 -13l-7 -1h-3q-7 0 -17 10z" />
    <glyph glyph-name="uni00B5" unicode="&#xb5;" horiz-adv-x="933" 
d="M882 264v-2q0 -4 -6 -10t-7 -9q2 -4 4.5 -7t2.5 -4q0 -4 -3 -11q-4 -33 -28 -71q-2 -3 -5 -8.5t-7.5 -11.5t-12.5 -13q-1 0 -3 -2l-4 -4l-3 -3q-6 -6 -9 -11q-6 -6 -15.5 -19t-16.5 -18q-3 -1 -12.5 -8t-13.5 -9q-4 -4 -11 -4h-4q-1 0 -3.5 0.5t-3.5 1.5q-1 -2 -1.5 -4.5
t-1 -4t-3 -4t-7.5 -4.5l-4 -2q-5 -2 -7 -4t-2 -6q-13 -9 -21 -9q-4 0 -5 1q-25 -15 -30 -15h-2q-5 -8 -36 -19q-3 -2 -8 -3.5t-8 -2.5q-44 -15 -56 -17l-8 6q-1 0 -2 -1q-9 -12 -26 -12q-26 -11 -33 -11q-5 0 -11 2q-34 -6 -43 -6h-8q-5 -1 -15 -1q-8 0 -25 2.5t-26 2.5
q-10 0 -15 -1q-3 1 -5.5 3.5t-4.5 5.5t-3 4q-4 -2 -8.5 -5t-5.5 -4q-9 4 -26.5 8.5t-21.5 5.5q-6 1 -15.5 6t-11.5 5t-3 -1q-25 8 -68 49q1 2 1 6l-1 1q0 2 -0.5 4t-0.5 4h-7l-4 -1q-3 0 -7 2q-2 7 -9.5 21t-9.5 22q-7 9 -10 19t-5 24t-3 20l3 3l1 1l1 1q0 2 3 6q-9 4 -9 14
q0 2 2 8v4q0 7 3 14.5t3 9.5q0 6 -3 12l10 26q1 3 5 14.5t5.5 15t5 13t6 13.5t6.5 11.5t7.5 12.5t8.5 11.5t11 12.5q5 11 13 19l16 16q3 9 13.5 18t14.5 16l10 8q14 16 21 16h2h15q1 0 1 1t-0.5 4.5t-0.5 5.5v7q9 7 17.5 13.5t11.5 8.5h7q5 0 9 6q9 16 39 24q2 2 3 2l-1 -1
q1 0 2 1q8 6 27 16q6 -2 9 -2q4 0 12 5t14 7q18 5 42 5q28 0 43 -7q2 1 6 1q6 0 16 -10q40 -22 40 -49q5 1 17 3t17 4q8 1 18.5 2t15.5 1l23 1q5 1 16 1q22 0 33 -6q7 0 25 -4.5t19 -4.5q14 0 22 -8q4 -4 6 -4l11 3q3 -7 5.5 -10.5t4.5 -4.5t7 -3l10 -4q2 -4 16 -16
q0 -9 10 -9q10 -7 25 -35q10 -4 10 -24q0 -6 -1 -9q13 -18 13 -61v-9zM814 236q-1 3 -1 8t1.5 8.5t1.5 4.5q0 5 -6 12q0 7 -1.5 17.5t-1.5 12.5q0 9 4 14q-4 4 -10 15t-6 13v1q-10 4 -23 24q-8 6 -8 11q0 1 1 3l1 2q0 1 -2 3q-3 -1 -7 -1q-7 0 -14 5l-24 12q-11 0 -46 11
q-11 0 -19 3.5t-10 3.5q-6 0 -13 -3l-26 -2q-12 -4 -17 -4q-4 0 -10 2l-10 -2l-6 6l-14 -8q-9 -9 -22 -9q-14 0 -27 -8h-3q-3 0 -10.5 -1.5t-11.5 -1.5q-5 0 -19 2q-10 11 -10 19q0 13 28 30q4 0 11.5 4t10.5 4q-3 10 -16 10q-8 0 -11 -1q-6 0 -14 5q-5 -4 -10.5 -6
t-14 -3.5t-13.5 -3.5l-5 2.5l-5 2.5l-4 2l-2 1h-1q-1 -1 -3 -8t-5 -9q-5 -3 -15 -7t-13 -5q-4 -9 -23 -15q-6 -7 -14 -12l-1 -1q-1 -1 -2 -1h-1l-1 -1q-1 -1 -2 -1t-1 -1l-2 -1h-1q-1 0 -1 -1l-2 -1l-1 -1q-1 -1 -2 -1q-20 -12 -28 -24q-1 -1 -10 -4.5t-15 -7.5
q-1 -8 -7 -13t-6 -10q-14 -9 -17.5 -16t-8.5 -11q-6 -7 -16 -13q-7 -27 -18 -33l-9 -27q-8 -5 -8 -11q0 -8 -3 -12q1 -1 1 -2q0 -9 -8 -17q-4 -5 -4 -8t1 -5q0 -12 -0.5 -24t-0.5 -14q0 -25 13 -57q7 -4 9 -10.5t7 -11.5q6 -6 9 -13q26 -23 31 -24q21 -8 39 -20
q8 -1 19.5 -4.5t18.5 -4.5q5 4 12 4q8 0 15 -6q15 -4 40 -4q1 -1 2.5 -4t3 -5.5t2.5 -2.5l1 1q2 1 5.5 5.5t7.5 5.5q14 -2 20 -2q17 0 44 9q2 1 8 1q1 0 4.5 -0.5t5.5 -0.5q3 0 4 1q1 0 12.5 5t20.5 7q4 2 26.5 6.5t27.5 4.5h3q7 14 37 19q15 15 24 15q4 0 7 -1q53 27 67 38
h2l1 -1l9 -1q2 0 3 13q20 11 29 25q23 17 47 56q1 1 4 1q4 0 5 1q1 0 2.5 0.5t2.5 1.5l-4 6q-3 5 -3 7q0 1 1 2q2 5 8.5 17.5t8.5 18.5zM617 317q5 -12 5 -18t-1.5 -11t-3 -7.5t-6 -8t-6.5 -8.5q-17 -6 -25 -6q-10 0 -18 5q-5 2 -13 10.5t-13 12.5v8q0 20 12 35q13 13 28 13
q5 0 7 -1q18 0 23 -20q6 0 11 -4zM440 289q-5 -6 -10.5 -17t-12.5 -16t-22 -9q-5 3 -16.5 8.5t-19 11t-12.5 13.5q-4 5 -4 12t8 16l11 11q3 3 6 7t4 5t3.5 2.5t4.5 1.5h8h3q5 0 30 -16q14 -10 19 -30zM713 229q-1 -3 -3 -9.5t-4 -10.5q-1 -1 -2.5 -3.5t-2.5 -3.5
q-8 -10 -11 -13q-19 -19 -23 -22q-5 0 -8 -2.5t-6 -7t-5 -6.5t-7.5 -6t-6.5 -5q-12 -9 -29 -17l-12 -12q-12 -7 -29 -11q-4 2 -5 2q-4 0 -8 -6q-54 -19 -58 -19h-4q-9 -3 -15 -3h-1q-1 1 -2 1q-5 0 -11 -3q-6 -2 -13 -8q-9 7 -12 7l-2 -1h-2v0q-1 -1 -2 -1q-2 -1 -11 -1
l-61 9q-14 0 -21 7q-4 1 -4 5q0 1 0.5 3l0.5 2q0 4 -4 5q0 1 -1 1q-2 0 -7 -2.5t-6 -2.5t-1 1q-11 4 -19.5 11.5t-11.5 8.5q-19 19 -27 38q-15 19 -17 54q7 4 13 9.5t9.5 7.5t9.5 2q9 0 26 -7q2 -5 8.5 -21t12.5 -25.5t15 -17.5q1 -7 8 -7q8 0 14 -7l1 -1q11 -1 16.5 -6
t7.5 -5q1 0 11 2q7 -7 13 -7q3 0 9 2l13 -7q2 0 5 3t5 3q1 0 9 -2h3q4 0 13.5 4t15.5 4h17q2 0 6 -1.5t5 -1.5q2 0 8 2q2 1 5 7t6 6h1q3 1 18 7.5t25 10.5l8 -4l1 -1q1 0 4 3q1 2 2 6t3 6q5 3 11.5 5.5t11 5t8.5 9.5q4 0 13 9l6 10l17 6q0 1 4 11t8 14q8 13 27 13
q2 0 5.5 -0.5t9.5 -6t6 -15.5v-4z" />
    <glyph glyph-name="uni00B5" unicode="&#x3bc;" horiz-adv-x="933" 
d="M882 264v-2q0 -4 -6 -10t-7 -9q2 -4 4.5 -7t2.5 -4q0 -4 -3 -11q-4 -33 -28 -71q-2 -3 -5 -8.5t-7.5 -11.5t-12.5 -13q-1 0 -3 -2l-4 -4l-3 -3q-6 -6 -9 -11q-6 -6 -15.5 -19t-16.5 -18q-3 -1 -12.5 -8t-13.5 -9q-4 -4 -11 -4h-4q-1 0 -3.5 0.5t-3.5 1.5q-1 -2 -1.5 -4.5
t-1 -4t-3 -4t-7.5 -4.5l-4 -2q-5 -2 -7 -4t-2 -6q-13 -9 -21 -9q-4 0 -5 1q-25 -15 -30 -15h-2q-5 -8 -36 -19q-3 -2 -8 -3.5t-8 -2.5q-44 -15 -56 -17l-8 6q-1 0 -2 -1q-9 -12 -26 -12q-26 -11 -33 -11q-5 0 -11 2q-34 -6 -43 -6h-8q-5 -1 -15 -1q-8 0 -25 2.5t-26 2.5
q-10 0 -15 -1q-3 1 -5.5 3.5t-4.5 5.5t-3 4q-4 -2 -8.5 -5t-5.5 -4q-9 4 -26.5 8.5t-21.5 5.5q-6 1 -15.5 6t-11.5 5t-3 -1q-25 8 -68 49q1 2 1 6l-1 1q0 2 -0.5 4t-0.5 4h-7l-4 -1q-3 0 -7 2q-2 7 -9.5 21t-9.5 22q-7 9 -10 19t-5 24t-3 20l3 3l1 1l1 1q0 2 3 6q-9 4 -9 14
q0 2 2 8v4q0 7 3 14.5t3 9.5q0 6 -3 12l10 26q1 3 5 14.5t5.5 15t5 13t6 13.5t6.5 11.5t7.5 12.5t8.5 11.5t11 12.5q5 11 13 19l16 16q3 9 13.5 18t14.5 16l10 8q14 16 21 16h2h15q1 0 1 1t-0.5 4.5t-0.5 5.5v7q9 7 17.5 13.5t11.5 8.5h7q5 0 9 6q9 16 39 24q2 2 3 2l-1 -1
q1 0 2 1q8 6 27 16q6 -2 9 -2q4 0 12 5t14 7q18 5 42 5q28 0 43 -7q2 1 6 1q6 0 16 -10q40 -22 40 -49q5 1 17 3t17 4q8 1 18.5 2t15.5 1l23 1q5 1 16 1q22 0 33 -6q7 0 25 -4.5t19 -4.5q14 0 22 -8q4 -4 6 -4l11 3q3 -7 5.5 -10.5t4.5 -4.5t7 -3l10 -4q2 -4 16 -16
q0 -9 10 -9q10 -7 25 -35q10 -4 10 -24q0 -6 -1 -9q13 -18 13 -61v-9zM814 236q-1 3 -1 8t1.5 8.5t1.5 4.5q0 5 -6 12q0 7 -1.5 17.5t-1.5 12.5q0 9 4 14q-4 4 -10 15t-6 13v1q-10 4 -23 24q-8 6 -8 11q0 1 1 3l1 2q0 1 -2 3q-3 -1 -7 -1q-7 0 -14 5l-24 12q-11 0 -46 11
q-11 0 -19 3.5t-10 3.5q-6 0 -13 -3l-26 -2q-12 -4 -17 -4q-4 0 -10 2l-10 -2l-6 6l-14 -8q-9 -9 -22 -9q-14 0 -27 -8h-3q-3 0 -10.5 -1.5t-11.5 -1.5q-5 0 -19 2q-10 11 -10 19q0 13 28 30q4 0 11.5 4t10.5 4q-3 10 -16 10q-8 0 -11 -1q-6 0 -14 5q-5 -4 -10.5 -6
t-14 -3.5t-13.5 -3.5l-5 2.5l-5 2.5l-4 2l-2 1h-1q-1 -1 -3 -8t-5 -9q-5 -3 -15 -7t-13 -5q-4 -9 -23 -15q-6 -7 -14 -12l-1 -1q-1 -1 -2 -1h-1l-1 -1q-1 -1 -2 -1t-1 -1l-2 -1h-1q-1 0 -1 -1l-2 -1l-1 -1q-1 -1 -2 -1q-20 -12 -28 -24q-1 -1 -10 -4.5t-15 -7.5
q-1 -8 -7 -13t-6 -10q-14 -9 -17.5 -16t-8.5 -11q-6 -7 -16 -13q-7 -27 -18 -33l-9 -27q-8 -5 -8 -11q0 -8 -3 -12q1 -1 1 -2q0 -9 -8 -17q-4 -5 -4 -8t1 -5q0 -12 -0.5 -24t-0.5 -14q0 -25 13 -57q7 -4 9 -10.5t7 -11.5q6 -6 9 -13q26 -23 31 -24q21 -8 39 -20
q8 -1 19.5 -4.5t18.5 -4.5q5 4 12 4q8 0 15 -6q15 -4 40 -4q1 -1 2.5 -4t3 -5.5t2.5 -2.5l1 1q2 1 5.5 5.5t7.5 5.5q14 -2 20 -2q17 0 44 9q2 1 8 1q1 0 4.5 -0.5t5.5 -0.5q3 0 4 1q1 0 12.5 5t20.5 7q4 2 26.5 6.5t27.5 4.5h3q7 14 37 19q15 15 24 15q4 0 7 -1q53 27 67 38
h2l1 -1l9 -1q2 0 3 13q20 11 29 25q23 17 47 56q1 1 4 1q4 0 5 1q1 0 2.5 0.5t2.5 1.5l-4 6q-3 5 -3 7q0 1 1 2q2 5 8.5 17.5t8.5 18.5zM617 317q5 -12 5 -18t-1.5 -11t-3 -7.5t-6 -8t-6.5 -8.5q-17 -6 -25 -6q-10 0 -18 5q-5 2 -13 10.5t-13 12.5v8q0 20 12 35q13 13 28 13
q5 0 7 -1q18 0 23 -20q6 0 11 -4zM440 289q-5 -6 -10.5 -17t-12.5 -16t-22 -9q-5 3 -16.5 8.5t-19 11t-12.5 13.5q-4 5 -4 12t8 16l11 11q3 3 6 7t4 5t3.5 2.5t4.5 1.5h8h3q5 0 30 -16q14 -10 19 -30zM713 229q-1 -3 -3 -9.5t-4 -10.5q-1 -1 -2.5 -3.5t-2.5 -3.5
q-8 -10 -11 -13q-19 -19 -23 -22q-5 0 -8 -2.5t-6 -7t-5 -6.5t-7.5 -6t-6.5 -5q-12 -9 -29 -17l-12 -12q-12 -7 -29 -11q-4 2 -5 2q-4 0 -8 -6q-54 -19 -58 -19h-4q-9 -3 -15 -3h-1q-1 1 -2 1q-5 0 -11 -3q-6 -2 -13 -8q-9 7 -12 7l-2 -1h-2v0q-1 -1 -2 -1q-2 -1 -11 -1
l-61 9q-14 0 -21 7q-4 1 -4 5q0 1 0.5 3l0.5 2q0 4 -4 5q0 1 -1 1q-2 0 -7 -2.5t-6 -2.5t-1 1q-11 4 -19.5 11.5t-11.5 8.5q-19 19 -27 38q-15 19 -17 54q7 4 13 9.5t9.5 7.5t9.5 2q9 0 26 -7q2 -5 8.5 -21t12.5 -25.5t15 -17.5q1 -7 8 -7q8 0 14 -7l1 -1q11 -1 16.5 -6
t7.5 -5q1 0 11 2q7 -7 13 -7q3 0 9 2l13 -7q2 0 5 3t5 3q1 0 9 -2h3q4 0 13.5 4t15.5 4h17q2 0 6 -1.5t5 -1.5q2 0 8 2q2 1 5 7t6 6h1q3 1 18 7.5t25 10.5l8 -4l1 -1q1 0 4 3q1 2 2 6t3 6q5 3 11.5 5.5t11 5t8.5 9.5q4 0 13 9l6 10l17 6q0 1 4 11t8 14q8 13 27 13
q2 0 5.5 -0.5t9.5 -6t6 -15.5v-4z" />
    <glyph glyph-name="paragraph" unicode="&#xb6;" horiz-adv-x="509" 
d="M585 451q-6 -17 -12 -19q-4 -2 -6 -2h-1v0h-1h-1h-1h-1q-5 0 -10 -11l-9 -15v-4q0 -5 -2 -10t-5.5 -11.5t-5.5 -10.5q-2 -10 -5 -13t-13 -6q0 -4 1.5 -9t1.5 -7q0 -3 -1 -4q-18 -25 -18 -35v-3q0 -19 -19 -36q1 -2 1 -6q0 -3 -9 -21v-1l-1 -1q0 -1 -1 -1v-1q-1 -1 -3 -11
q-3 1 -6 1t-4 -4q3 -4 3 -9l-5 -15q-11 -9 -11 -12q1 -2 1 -3v-1q-4 -20 -20 -36l-4 -4q1 -1 1 -4q0 -5 -3 -8q0 -21 -10 -39q-18 -33 -20 -42q-5 -18 -7 -47h-2q-2 0 -3 -1.5t-2.5 -8t-2.5 -10.5q-2 -26 -20 -26q-7 0 -16 3q-14 4 -14 19q0 8 1 11q3 14 3 20v6v0v1v1
q0 5 4 12q-1 2 -1 5q0 4 4 8.5t4 8.5t-1 7q9 4 9 8v1q0 1 -0.5 3.5t-0.5 6.5v6q2 18 8 29q18 39 27 66q2 0 5.5 4t5.5 4t3 -1q-1 4 -3 7.5t-2 5.5q0 1 2 11q8 10 17 35q0 17 11 29q2 7 8.5 22.5t8.5 22.5q13 4 13 11l-1 5q-1 6 -1 8q0 3 2 11q3 5 6.5 17.5t9.5 19.5q2 1 5 1
h1l-2 6q2 11 8 24v1h1v1l1 1v1l1 1v1h1v1v1h1v1l1 1v1l1 1v1h1v1q-1 0 -9 -2.5t-10 -2.5h-2q-21 -4 -23 -6q-6 -4 -16 -32q-8 -5 -8 -8q1 -1 1 -5q0 -1 -2 -7q-2 -3 -5.5 -9t-5.5 -10t-4 -9.5t-2 -11.5q-11 -7 -11 -14v-3q1 -3 1 -6t-7 -9q-1 -1 -4 -15t-15 -19
q-15 -37 -18 -59q-10 -6 -10 -14q0 -7 -9 -17q-9 -15 -9 -25q0 -2 -0.5 -5t-0.5 -7q-13 -3 -14 -9v-1q3 -9 3 -14q0 -6 -1 -9l-8 -8l-8 -8q4 -3 4 -9q0 -7 -1 -10q-1 -1 -1.5 -3.5t-0.5 -3.5q1 0 1 -1l-1 -3q-1 -2 -3.5 -8t-6.5 -10q-4 -1 -4 -5l1 -2v-4q0 -3 -1 -5
q0 -10 -7 -19q-6 -2 -11 -3.5t-7 -2.5t-4 -1q-5 0 -14 3q-6 7 -11 21q2 8 2 11q0 1 -1 7.5t-1 8.5q0 8 8 13q1 1 1 5q0 1 -0.5 5.5t-0.5 9.5q0 15 10 25q7 37 11 42q9 35 23 57q-1 2 -1 5q0 5 5 11.5t5 7.5q10 10 10 13q0 1 -1 3l-1 2q0 2 5 10q0 18 14 22q5 5 5 7l-6 8
q15 37 23 43l13 40q4 1 9 13q1 3 3 11q-1 1 -5 1q-6 0 -18 -7h-14t-8.5 -1.5t-4.5 -2t-3.5 -3.5t-3.5 -4q-7 -6 -15 -6q-4 0 -6 1q-3 -3 -8 -3q-3 0 -5 1q-10 -5 -35.5 -9.5t-39.5 -18.5q-12 0 -27.5 -8.5t-26.5 -8.5q-5 -7 -16.5 -14.5t-16.5 -12.5q-12 -2 -14 -5.5
t-9 -5.5q-1 -3 -5 -10t-5 -12q13 -19 28 -24q1 0 23 -10q3 -1 8 -1t8 -1q17 -2 30 -3q2 0 11 -1t16.5 -2t9.5 -2q19 -6 19 -25q0 -4 -1.5 -9.5t-9 -12.5t-18.5 -8l-35 -2q-6 1 -12.5 3.5t-12.5 3.5l-2 1q-1 2 -2.5 4.5t-3.5 3.5q-2 0 -5.5 -2t-5.5 -2q-4 0 -6 1q-7 1 -23 8
l-14 7q-2 1 -6.5 2.5t-7 2.5t-5.5 3t-5 5t-3 7q-7 4 -12 10t-11 16.5t-8 12.5q-4 16 -4 20q0 5 5 13q-5 10 -5 15q0 7 14 20q3 2 12.5 11t18 16.5t10.5 7.5q7 13 26 18t24 10q1 1 2 1q2 0 5 -2l4 -2q2 0 4 3h1q2 0 4.5 6.5t6.5 8.5q20 5 26 11q12 0 23 6q9 7 21 7h4v0h1h1
q4 0 5 4q0 1 1 1t3.5 -1.5t5.5 -4t5 -3.5q2 2 3.5 6t3 7t3.5 3q3 0 10.5 4.5t18.5 6.5q13 5 25 5t24 5q8 2 17.5 6.5t13.5 4.5q5 0 13 -3q22 13 55 13h10q6 7 14 7q4 0 12 -2q5 1 26.5 6t32.5 7q6 1 20 1q27 0 37 -7q14 -9 14 -23q0 -3 -2 -11z" />
    <glyph glyph-name="periodcentered" unicode="&#xb7;" horiz-adv-x="244" 
d="M204 250l-10 -6q7 -12 7 -13v-1q-2 -5 -5 -9t-6.5 -8.5t-5.5 -6.5q-18 -18 -35 -18h-3q-3 6 -6 6q-1 0 -2 -1q0 -1 -1 -1t-2 -1t-2 -1l-2 -2q-1 -1 -5 -1t-7 1t-9 4.5t-9 5.5t-7 5.5t-5 8.5q-3 2 -5 8q0 5 -1 9t-1 5v9.5v6.5l-1 3q0 10 10 14v4q0 14 12 15q4 7 7 7
q4 0 8 7q4 0 9.5 2t7.5 2q4 0 5 -1q6 2 9 2q4 0 7 -1q6 -2 8 -2h1q1 1 2 1q3 0 11 -5q17 -20 18 -21q0 -1 1.5 -5t2.5 -5t1 -4q1 -1 1 -2t1 -2t1 -2v-7z" />
    <glyph glyph-name="periodcentered" unicode="&#x2219;" horiz-adv-x="244" 
d="M204 250l-10 -6q7 -12 7 -13v-1q-2 -5 -5 -9t-6.5 -8.5t-5.5 -6.5q-18 -18 -35 -18h-3q-3 6 -6 6q-1 0 -2 -1q0 -1 -1 -1t-2 -1t-2 -1l-2 -2q-1 -1 -5 -1t-7 1t-9 4.5t-9 5.5t-7 5.5t-5 8.5q-3 2 -5 8q0 5 -1 9t-1 5v9.5v6.5l-1 3q0 10 10 14v4q0 14 12 15q4 7 7 7
q4 0 8 7q4 0 9.5 2t7.5 2q4 0 5 -1q6 2 9 2q4 0 7 -1q6 -2 8 -2h1q1 1 2 1q3 0 11 -5q17 -20 18 -21q0 -1 1.5 -5t2.5 -5t1 -4q1 -1 1 -2t1 -2t1 -2v-7z" />
    <glyph glyph-name="cedilla" unicode="&#xb8;" horiz-adv-x="246" 
d="M168 -125l-2 -6q-1 -3 -7 -8t-7 -10t-5 -9.5t-9 -9t-8 -7.5q-4 1 -9 1q-4 0 -7 -7q-13 -13 -18 -13q-4 0 -6 1q-4 -3 -5 -3h-1v0v0l-1 -1v0v-1q-3 -3 -6 -7q-1 0 -17 -12q-4 0 -13 3q-11 -10 -32 -11q-16 4 -21 16q0 10 4 15.5t8 7.5t14 5q4 1 4 7q10 7 19 7t17 11h8h5
l3 -1q1 0 2 1v12q4 3 12.5 9t12.5 10l2 2q0 3 -3 4q-10 1 -21 6q-2 2 -5 12v-1q-1 0 -3 -1.5t-5 -2.5q-16 4 -21 13q-13 9 -13 23q0 17 11 34q11 1 13 2.5t2 10.5q3 4 6.5 7t8 6.5t7.5 5.5q15 12 27 12q11 0 18 -6t8 -10.5t1 -7.5q0 -6 -5 -13q-11 -11 -13 -11
q-5 -2 -8.5 -7t-4.5 -6q-8 -6 -9 -7v-1q4 -4 16.5 -7.5t17.5 -6.5q2 -1 3 -4t2 -3h5l4 1q3 0 4 -1q14 -8 18 -19q5 -7 5 -10l-1 -1q0 -2 -1 -5t-1 -8z" />
    <glyph glyph-name="onesuperior" unicode="&#xb9;" horiz-adv-x="240" 
d="M301 465q-2 -4 -5 -12.5t-4 -12.5t-9.5 -10t-9.5 -10q-7 -27 -21 -36q-3 -20 -11 -32q-1 -4 -5 -9.5t-5 -8.5q-3 -8 -9 -18q-4 0 -12 -6q0 -1 1 -1q1 -1 1 -2t1 -2q1 0 1 -1q1 -1 1 -3q0 -1 -1 -2q0 -1 -5 -13.5t-9 -17.5v-3q0 -15 -18 -33v-3q0 -7 -6.5 -17.5
t-8.5 -17.5q-6 -14 -7 -15q-5 -19 -24 -19q-7 0 -20 5q-13 4 -13 23q0 5 1 7t3.5 5.5t2.5 5.5q2 1 6 4t5 5l-2 6l1 3v4q0 3 2 9q1 2 2.5 6t3.5 6q2 4 2 5q0 7 4.5 15t5.5 10q6 19 18 45q6 2 12 24q1 3 1 7q0 6 -3 6q-1 0 -4 -3l-9 -6q0 -1 -4 -4.5t-6 -7.5q-11 -7 -18 -14
q-8 -8 -21 -8t-23 10q-7 8 -7 18q0 14 16 24q1 1 5 3q6 4 6 6q4 13 21 13q7 5 9 10q7 8 18 9l4 7q19 7 25 16q8 12 12 12q5 0 11 6l8 8q3 3 9 7q0 8 17 30q11 10 26 10q16 0 28 -10.5t12 -22.5q0 -3 -2 -9z" />
    <glyph glyph-name="ordmasculine" unicode="&#xba;" horiz-adv-x="409" 
d="M411 375q-10 -31 -32 -59q-4 -5 -18 -14q-2 -6 -5 -9l-7 -7l-13 -7q-2 -8 -16 -11l-13 -4q-1 -1 -2 -2.5t-2.5 -4.5t-3.5 -6l-8 2q-1 0 -9 -5q-12 -5 -15 -5h-3q-8 -9 -21 -9h-3q-2 -2 -8 -5t-9 -6q-4 0 -9 -0.5t-7.5 -1t-4.5 -0.5q-7 0 -10 1q-8 -8 -16 -8q-1 0 -7 2
q-4 -2 -6 -2q-2 1 -3 1q-3 0 -4 -1q-22 0 -35 16t-21 20q1 5 1 15q0 4 -0.5 8t-0.5 7v3q0 13 8 26q1 16 10 23l8 3l3 13l3 9q4 9 12 13q2 6 9.5 13t8.5 13q7 10 26 22q2 2 5 3t4.5 2.5t2.5 4.5q3 2 8.5 7t8.5 7l15 10t14.5 9t11.5 3q2 0 12 -2q4 -2 13 -9t15 -10q24 2 26 2
q12 0 20 -5l5 -14q4 1 9 4.5t7 3.5h2q4 -3 11.5 -6.5t12.5 -7.5t6 -12q7 -7 14 -33zM343 379q-3 5 -9 9q-4 1 -19 7q-7 0 -15 3q-3 -1 -7 -1q-2 0 -5.5 1t-6.5 1h-4q-3 -2 -9 -3.5t-9 -2.5q-4 -1 -7 -7q-11 -3 -22 -12.5t-16 -12.5q-2 -7 -11.5 -13t-13.5 -18q-3 1 -7 1h-3
v0h-1q-2 -8 -2 -11l1 -2q0 -6 -9 -16q-8 -13 -8 -31q8 -2 12 -2q5 0 11 2q7 3 16.5 4.5t17 4t14.5 8.5q10 0 25.5 8t25.5 8q2 6 10 12q3 0 8.5 7.5t15.5 8.5l14 15q4 6 12 20q-1 1 -1 4q0 2 2 8zM389 154q0 -23 -25 -23q-7 0 -10 1q-9 -4 -21 -4l-12 1q-12 1 -23 1h-6h-2
q-2 0 -7 -5q-26 -2 -32 -2q-3 0 -7 0.5t-7 0.5q-8 -2 -17 -2q-5 0 -15 6l-7 -5h-3q-4 0 -12.5 -3.5t-14.5 -3.5l-9 3h-4q-3 0 -9 2.5t-10 2.5h-1l-1 -1l-3 -1q-3 -1 -5 -3l-2 1q-4 -3 -9 -3q-6 0 -13 3l-11 -6q-6 6 -12 6q-5 0 -13 -5q-15 13 -15 27q0 13 11 26q5 1 14 1
q6 0 14 -3q3 3 19 3v1q12 5 16 5q3 0 8 -3q3 0 5.5 0.5t4.5 1t3 0.5h2q5 0 11 -3q9 3 12 3l14 -5q9 7 29 7h9l2 -5h1v0h1q8 0 14 10q12 -5 15 -5h5q6 0 11 -1l15 5h1v-1h1h1v-1h1h1l2 -2v1q0 2 14 2q5 0 13 -2q9 2 12 5q4 -1 11 -1q8 0 12 1l4 -4l2 -1q-1 1 -1 2q0 2 15 2
q13 -15 13 -27z" />
    <glyph glyph-name="guillemotright" unicode="&#xbb;" horiz-adv-x="454" 
d="M435 214q-2 -2 -9.5 -15t-12.5 -15q-17 -21 -29 -24q-3 -1 -9 -1q-5 0 -6 -3q-1 -2 -3 -8.5t-4 -8.5q-6 -3 -16 -12t-17 -11q-10 -11 -30.5 -22.5t-28.5 -19.5q-15 -17 -37 -17h-4q-15 0 -23 15q2 14 6 21q6 10 20.5 19.5t20.5 17.5q7 2 12.5 7.5t6.5 5.5q2 2 4 2
q2 -1 3 -1q3 0 5 1l2 13l6 3l6 3t4.5 4t3.5 7q3 6 18 14q2 4 5.5 6.5t8 6t7.5 5.5q8 5 8 10q0 1 -2 5q-5 5 -5 7q-3 4 -4.5 8t-2.5 6t-3 3q-1 0 -3.5 4.5t-7.5 5.5q0 3 -5 3q-4 0 -7 5q-14 25 -20 28q-20 10 -20 29q-1 1 -9 11v4q0 9 5 17q9 11 20 11q9 2 22 -9q3 -2 8 -5.5
t9 -7t6 -7.5q7 -3 7 -8l-1 -2q0 -5 5 -8q4 -2 8 -2q6 0 9 -3q11 -6 27.5 -26t28.5 -26q6 -6 9 -11.5t4 -9.5t2 -12t2 -13zM244 214q-2 -2 -9.5 -15t-12.5 -15q-17 -21 -29 -24q-3 -1 -9 -1q-4 0 -6 -3q-2 -2 -4 -8.5t-3 -8.5q-6 -3 -16 -12t-17 -11q-10 -11 -30.5 -22.5
t-28.5 -19.5q-15 -17 -37 -17h-4q-16 0 -23 15q1 14 6 21q6 10 20.5 19.5t20.5 17.5q7 2 12.5 7.5t6.5 5.5q2 2 4 2q2 -1 3 -1q3 0 5 1l2 13l6 3l6 3t4.5 4t3.5 7q3 6 18 14q2 4 5.5 6.5t8 6t7.5 5.5q8 5 8 10q0 1 -2 5q-5 5 -5 7q-3 4 -4.5 8t-2.5 6t-3 3q-1 0 -3.5 4.5
t-7.5 5.5q0 3 -5 3q-4 0 -7 5q-14 25 -20 28q-20 10 -20 29q-1 1 -9 11v4q0 9 5 17q9 11 20 11q9 2 22 -9q3 -2 8 -5.5t9 -7t6 -7.5q7 -3 7 -8l-1 -2q0 -5 5 -8q4 -2 8 -2q6 0 9 -3q11 -6 27.5 -26t28.5 -26q6 -6 9 -11.5t4 -9.5t2 -12t2 -13z" />
    <glyph glyph-name="onequarter" unicode="&#xbc;" horiz-adv-x="690" 
d="M269 461q-1 -4 -4 -12.5t-5 -12.5t-10 -10.5t-9 -9.5q-7 -27 -21 -36q-3 -20 -11 -32q0 -1 -10 -18q-3 -8 -9 -18q-4 0 -12 -6q0 -1 1 -1q0 -1 1 -1q0 -2 1 -3q1 0 1 -1q1 -1 1 -3q0 -1 -1 -2q-1 -3 -5 -14.5t-8 -16.5q0 -17 -19 -36v-3q0 -7 -6.5 -17.5t-8.5 -17.5
q-6 -14 -7 -15q-4 -19 -23 -19q-8 0 -21 5t-13 23q0 5 1 7q1 3 7 11q0 1 1.5 2.5t3 2t3 2l2.5 2.5q-1 2 -1 6q0 1 0.5 2t0.5 2q0 2 -1 3q0 3 2 9l8 17q0 7 4.5 15t5.5 10q3 8 9.5 23t8.5 22q6 1 12 24q1 3 1 7q0 6 -3 6q-1 0 -4 -3q-3 -1 -8 -6q0 -1 -4.5 -4.5t-6.5 -7.5
q-11 -7 -18 -14q-8 -8 -21 -8t-23 10q-7 8 -7 18q0 14 16 24q1 1 6 4t6 5q4 13 20 13q7 5 9 10q7 8 18 9l4 7q21 8 25 16q8 12 12 12q5 0 11 6l8 8q3 3 9 7q1 9 17 30q11 10 26 10q16 0 28 -10.5t12 -22.5q0 -3 -2 -9zM529 459q5 -5 5 -11q0 -17 -20 -34q-9 -2 -14 -14
q-4 -10 -9 -15.5t-16 -12t-14 -8.5q-4 -4 -12 -19q-1 0 -5.5 3.5t-6.5 3.5q-2 -2 -2 -8t-3 -12q-4 -2 -10 -10t-10 -10l-4 -8q-9 -1 -12 -5t-8 -11.5t-15 -14.5q-22 -22 -31 -22h-1l-1.5 -4.5t-1.5 -2.5t-4.5 -5.5t-7.5 -13.5q-9 -4 -11 -8l-4 -4q-4 -15 -17 -20.5
t-15 -13.5q-4 -7 -8 -10.5t-10 -6t-10 -5.5q-5 -11 -13 -14q-16 -29 -36 -39q-2 -5 -14 -14q-4 -2 -8 -5.5t-8.5 -9t-6.5 -7.5l-6 2q-2 0 -2 -2q0 -3 -1 -4q-3 -3 -13.5 -20t-22.5 -20q-7 -10 -7 -15v-5q-6 -7 -19 -14q-3 -5 -5 -8.5t-3.5 -5t-5.5 -4.5t-7 -5q-1 -1 -4 -2.5
t-5 -4t-3 -7.5q-6 -6 -15 -6q-13 0 -22 9t-9 22v4q12 26 35 43q1 4 3.5 6.5t7 6t6.5 5.5q1 1 2.5 3.5t4 6t4.5 6.5q13 7 22.5 23t21.5 22q8 10 12 13l1 1h1l2 2l2 1q2 1 2 2v1q1 0 2 1l1 1q11 8 20 25q6 3 13 11.5t11 10.5q8 4 17 15.5t10 12.5q5 5 18 21.5t22 22.5
q3 4 18 13q2 1 9 11.5t13 14.5q2 1 10.5 13t17.5 14q7 13 27 26q4 13 19.5 25t17.5 22q15 11 37 33q6 8 22 24l23 23q13 17 33 17t26 -22zM674 107q-3 -16 -27 -21q-5 -4 -12 -6q-1 -1 -4 -1q-6 0 -12 8l-4 -4l-5.5 -5.5t-4.5 -2.5q-2 -1 -7 -1h-2q-2 1 -5 1.5t-6 0.5
l-5 -2.5l-5 -2.5t-4 -3t-3 -6q-2 -2 -5 -4l-3 -1q-5 -11 -11 -22v-3q0 -6 -10 -13q-4 -1 -4 -3l1 -1v-2t-3 -6v-3q0 -5 -2.5 -8.5t-7 -8.5t-6.5 -9q-12 -22 -23 -22q-5 0 -11 3q-15 10 -15 23q0 3 1 5l1 11v0l1 -2l2 10v3q4 4 10 22t10 25q1 1 1 3q1 1 1 2q0 2 -1 2
q-2 0 -3 -1t-5 -1h-7q-7 0 -12 -4q-8 -5 -15 -5h-2q-3 1 -5 1q-6 0 -8 -1h-4l-28 -7h-1q-2 0 -7 4t-9 4t-10.5 -4.5t-9.5 -4.5t-25.5 -4t-36.5 -6h-2q-2 0 -26 11q-11 9 -11 26v5q0 6 2.5 11.5t5 9.5t8.5 8.5t9.5 6.5t11.5 6l10 5q4 2 23 17q4 4 8.5 7t6.5 5t4 3.5t3 2.5
q6 3 13.5 9t11.5 8q8 4 18.5 13t13.5 10q2 5 11 5h3h4h2h1h1h1h1h1q1 2 2.5 7t3.5 7q12 7 18 13q7 5 21.5 14.5t30.5 21.5q6 3 20 15q1 -1 2 -1q2 -1 3 -1l8 -2q6 7 6 13v1q4 3 7 7t6 5.5t10 3.5q5 2 10.5 4.5t9.5 2.5q6 0 19 -3q20 -13 21 -26q0 -6 -1.5 -11t-3 -8.5t-4 -6
t-5 -4t-4.5 -2t-3 -1.5v0v1q-6 -7 -6 -9l10 -4q22 -6 27 -30q-4 -11 -18 -31q-12 -3 -12 -10q0 -2 1 -5v-3q0 -3 -3 -7q-8 -15 -8 -14q0 -2 1 -3q-2 -4 -2 -5t4 -1h4q8 2 14 2q1 0 4.5 -0.5t5.5 -0.5q8 0 12 1q24 -3 24 -18q0 -2 -2 -8zM543 165l18 39q4 7 4 10t-2 3
q-3 0 -9 -6q-23 -15 -34 -17q-14 -14 -24 -14q-3 -6 -13 -18q-1 1 -3 1q-5 0 -16.5 -8.5t-25 -19.5t-18.5 -14q-7 -7 -19 -12q1 0 1 -1q-2 -2 -2 -3t2 -1q7 0 25 6q16 -2 19 -2q7 0 31 8q13 0 28 3t16 3l4 3l2.5 5t3.5 5q0 4 7 8.5t8 7.5q1 1 1 2t-2.5 5t-2.5 5t1 2z" />
    <glyph glyph-name="onehalf" unicode="&#xbd;" horiz-adv-x="702" 
d="M269 461q-1 -4 -4 -12.5t-5 -12.5q-1 -4 -9.5 -10t-9.5 -10q-7 -27 -21 -36q-3 -20 -11 -32q-1 -4 -5 -9.5t-5 -8.5q-3 -8 -9 -18q-4 0 -12 -6q0 -1 1 -1q0 -1 1 -1q0 -2 1 -3q1 0 1 -1q1 -1 1 -3q0 -1 -1 -2q-1 -3 -5 -14.5t-8 -16.5q0 -17 -19 -36v-3q0 -7 -6.5 -17.5
t-8.5 -17.5q-6 -14 -7 -15q-4 -19 -23 -19q-8 0 -21 5q-13 4 -13 23q0 5 1 7q1 3 7 11q0 1 1.5 2.5t3 2t3 2l2.5 2.5q-1 2 -1 6q0 1 0.5 2t0.5 2q0 2 -1 3q0 3 2 9q1 2 2.5 6t3.5 6q2 4 2 5q0 7 4.5 15t5.5 10q3 8 9.5 23t8.5 22q6 2 12 24q1 3 1 7q0 6 -3 6q-1 0 -4 -3
l-9 -6q0 -1 -4 -4.5t-6 -7.5q-11 -7 -18 -14q-8 -8 -21 -8t-23 10q-7 8 -7 18q0 14 16 24q1 1 5 3q6 4 6 6q4 13 21 13q7 5 9 10q7 8 18 9l4 7q19 7 25 16q8 12 12 12q5 0 11 6l8 8q3 3 9 7q0 8 17 30q11 10 26 10q16 0 28 -10.5t12 -22.5q0 -3 -2 -9zM519 459q5 -5 5 -11
q0 -15 -19 -34q-10 -3 -15 -14q-4 -10 -9 -15.5t-16 -12t-14 -8.5q-4 -4 -12 -19q-7 7 -11 7q-2 -2 -2 -8q0 -7 -4 -12q-4 -2 -10 -10t-10 -10l-4 -8q-9 -2 -16.5 -13.5t-18.5 -18.5l-7 -7q-14 -14 -22 -14h-2q-2 -3 -5 -6.5t-11 -19.5q-10 -5 -11 -6q-1 -3 -3 -6
q-4 -15 -17 -20.5t-15 -13.5q-5 -7 -9 -10t-10 -6.5t-10 -5.5q-5 -11 -12 -14q-16 -29 -37 -39q-3 -8 -14 -14q-4 -2 -8 -5.5t-8.5 -9t-6.5 -7.5q-1 0 -3 1t-3 1q-2 0 -2 -2l1 -1q0 -1 -2 -3q-3 -3 -12.5 -20t-22.5 -20q-8 -8 -8 -15v-5q-4 -5 -18 -14q-4 -7 -6 -10t-8 -7
t-8 -6q-1 -1 -4 -2.5t-5 -4t-3 -7.5q-6 -6 -15 -6q-12 0 -21 9t-9 22v4q8 24 34 43q1 2 17 18q1 1 4.5 6.5t7.5 9.5q12 7 22.5 23t20.5 22q8 10 12 13l1 1h1l2 2l2 1q2 1 2 2v1q1 0 2 1l1 1q12 9 21 25q6 3 12.5 11.5t10.5 10.5q9 4 18 15.5t10 12.5q4 5 11.5 15t14 17
t13.5 12q3 4 18 13q2 1 9 11.5t13 14.5q2 2 10.5 13.5t17.5 13.5q7 13 27 26q4 13 19.5 25t17.5 22q12 8 37 33q6 8 22 24l20 20l3 3q13 17 33 17t26 -22zM673 64q3 -6 3 -13q0 -8 -5 -18.5t-15 -13.5q-5 0 -11 2q-6 -3 -13 -3q-4 0 -12 -2q-3 -1 -7 -1q-3 0 -5 1l-2 1
q-3 0 -9 -6q-3 -1 -10 -1q-3 0 -6 0.5t-4 0.5q-8 0 -16 -7q-7 -6 -17 -6h-2q-2 1 -4 1q-6 0 -16 -2l-8 3q-2 0 -5.5 -2t-10.5 -3q-19 -7 -36 -7h-3q-36 0 -46 -6q-8 -1 -15 -2t-9 -1q-7 0 -11 1q-2 -1 -6 -1q-14 0 -26 17q-8 11 -8 20q0 11 11 26.5t13 21.5q27 14 36 25
q11 14 33 23q3 8 23 15q8 5 18.5 12t17.5 12l10 -2q2 0 3 1q2 6 5 11q10 7 27 20t27 21v-1q7 7 10 7h2q1 0 7 2q0 10 7 13q4 3 4 6q0 7 -10 8q-6 2 -7 2t-5.5 -1.5t-6.5 -1.5q-1 3 -6 3q-6 0 -32 -12q-7 3 -9 4h-1l-6 -2q-2 -1 -6.5 -5t-6.5 -4q-6 -6 -13 -6q-4 0 -14 -2
q-14 -6 -23 -6q-10 0 -21 4q-15 13 -15 29q0 7 1 11q6 28 37 28h7q23 9 40 10q3 -1 7 -1q1 0 6.5 1.5t12.5 1.5q2 0 7 -4.5t8 -5.5q3 1 10 6t11 6q15 3 29 3q18 0 31 -4q11 -2 19 -7q13 -1 15 -3q0 -1 3 -7q16 -5 16 -38v-3q0 -4 -2 -9t-4 -8l-3 -3v0q-13 -27 -29 -31
q-3 -10 -11 -14q-4 -7 -9 -7q-7 0 -15 -11q-4 -1 -23 -16q-7 -7 -22 -15q-6 -6 -18.5 -13t-18.5 -15q-8 0 -18.5 -5.5t-14.5 -12.5q-5 -2 -8.5 -4t-6.5 -4q-4 -1 -6 -3t-2 -4v-1q0 -4 4 -4q2 0 3 1l11 3q1 0 7 -2q15 5 30 5h10q1 1 3 1q1 0 3.5 -1.5t6 -3.5t6.5 -3h1
q1 0 3 2.5t5 6t8 4.5q11 4 17 4q4 0 5 -1q6 3 9 3l1 -1q2 -1 4.5 -2t5.5 -1q4 0 13 3q1 -1 3 -1t9.5 2.5t11.5 2.5q3 0 5 -1q2 1 6 1q12 0 23 -11z" />
    <glyph glyph-name="threequarters" unicode="&#xbe;" horiz-adv-x="842" 
d="M399 426q0 -7 -3 -12t-8.5 -10t-7.5 -9l-20 -3q-6 -1 -8 -9.5t-7 -10.5q-6 -4 -23 -10l-1 -1h-1h-1l-1 -1h-1h-1l-1 -1h-1h-1l-1 -1h-1h-1l-1 -1h-1h-1q-2 -1 -4.5 -1.5t-4.5 -1.5t-3 -1q-3 -4 -8 -6.5t-9.5 -4t-6.5 -2.5q8 -5 15 -5q2 0 6 0.5t5 0.5q6 0 9 -3l26 -6
q11 -6 11 -9t4 -7q4 -2 9.5 -10.5t8.5 -10.5q1 -5 1 -13q0 -24 -23 -41l-14 -17q-3 1 -8 1q-2 0 -6.5 -2t-10.5 -2q-3 -5 -12 -12q-2 -2 -12 -10q-5 -1 -10 -1q-2 0 -3 -1l-1 -1l-1 -1l-6 -4q-11 -11 -31 -15q-8 -11 -22 -12h-2q-3 0 -10 -5q-7 -7 -21.5 -11t-19.5 -7
q-6 -2 -7 -2l-2 1q-3 0 -5 -2q-6 3 -10 3q-3 0 -7 -2q-3 -1 -9.5 -6.5t-10.5 -7.5l1 1q-14 -10 -37 -10q-6 0 -12 2q-2 0 -9 3q-10 10 -10 18q0 6 19 28q13 3 22 6t19.5 8.5t18.5 8.5q5 4 15 4q6 0 19 8q2 2 6 3.5t6 2.5q3 0 5.5 3t8.5 5q1 1 10.5 3.5t11.5 7.5q14 4 45 21
q1 1 2 1t6 -2t6 -2q2 0 3 3q4 5 4 13l11 5.5t7 4.5t3 3.5t1 2.5v2v2q0 4 -5 6q-6 -2 -8 -2q-5 0 -12 5q-1 1 -4 1l-5 -1q-6 -1 -9 -1q-4 2 -11 2q-13 0 -17 -4l-14 6q-1 0 -4 -4t-7 -6q-3 1 -8 1q-6 0 -24 -5q-3 -1 -7 -1q-17 0 -25 24q-1 3 -1 8q0 13 8.5 21.5t35.5 19.5
q8 0 10 -2h1q2 0 7 3q5 2 5 6l-1 1q0 3 8 8q11 6 32 15.5t32 14.5q7 2 13 6q10 4 24 13t20 12l4 4q2 1 3 3t3 4l-3 2q-7 -1 -19 -1q-1 0 -8.5 0.5t-14.5 0.5q-8 -7 -19 -7q-6 0 -8 1q-9 3 -18 3h-3q-2 0 -5.5 -5t-6.5 -6q-8 -2 -22 -6t-15 -4q-7 -4 -14 -4h-3q-3 0 -8 0.5
t-10 0.5q-22 17 -22 33q0 18 26 28q23 10 53 14q9 2 21 3t19 2t8 2q4 -1 11 -1q4 0 11.5 1t10.5 1q8 0 11 -1q8 2 12 2l14 -3q15 -3 20 -3h5q1 -1 3 -1q2 -1 3 -1v-1q3 0 5 -1l1 -1q1 -1 3 -1q2 -1 3 -1q11 -4 13 -13q1 -7 8.5 -13.5t7.5 -9.5v-1q3 -4 3 -10q0 -1 -2 -7z
M688 459q5 -5 5 -11q0 -15 -19 -34q-10 -3 -15 -14q-4 -10 -9 -15.5t-16 -12t-14 -8.5q-4 -4 -12 -19q-7 7 -11 7q-2 -2 -2 -8q0 -7 -4 -12q-4 -2 -10 -10t-10 -10l-4 -8q-11 -2 -16.5 -12.5t-17.5 -18.5q-22 -22 -30 -22h-2q-2 -3 -5 -6.5t-11 -19.5q-10 -5 -11 -6
q-1 -3 -3 -6q-4 -15 -17 -20.5t-15 -13.5q-5 -7 -9 -10t-10 -6.5t-10 -5.5q-5 -11 -12 -14q-16 -29 -37 -39q-3 -8 -14 -14q-4 -2 -8 -5.5t-8.5 -9t-6.5 -7.5l-6 2q-2 0 -2 -2l1 -1q0 -1 -2 -3q-3 -3 -12.5 -20t-22.5 -20q-8 -8 -8 -15v-5q-4 -5 -18 -14q-4 -7 -6 -10t-8 -7
t-8 -6q-1 -1 -4 -2.5t-5 -4t-3 -7.5q-6 -6 -15 -6q-12 0 -21 9t-9 22v4q8 24 34 43q1 2 17 18q1 1 4.5 6.5t7.5 9.5q12 7 22.5 23t20.5 22q8 10 12 13l1 1h1l2 2q1 0 2 1l2 2v1q1 0 2 1l1 1q12 9 21 25q6 3 12.5 11.5t10.5 10.5q9 4 18 15.5t10 12.5q4 5 11.5 15t14 17
t13.5 12q3 4 18 13q2 1 9 11.5t13 14.5q2 2 10.5 13.5t17.5 13.5q7 13 27 26q4 13 19.5 25t17.5 22q12 8 37 33q6 8 22 24l23 23q13 17 33 17t26 -22zM833 107q-3 -16 -26 -21q-6 -5 -13 -6q-1 -1 -4 -1q-6 0 -12 8q-12 -12 -14 -12q-2 -1 -6 -1q-1 0 -3 0.5t-4.5 1
t-5.5 0.5q-2 -1 -5.5 -2.5t-5.5 -2.5t-4 -3t-2 -6q-1 0 -1 -1h-1q-2 -1 -3 -2q-2 -1 -3 -2l-5 -10t-7 -12v-3q0 -7 -10 -13q-4 -1 -4 -3v-1q1 -1 1 -2t-3 -6v-3q0 -6 -6.5 -14t-8.5 -12q-12 -22 -24 -22q-5 0 -11 3q-15 10 -15 23q0 3 1 5l1 11v0l2 -2l2 13q4 4 10 21.5
t10 25.5l2 6q0 1 -1 1q-3 0 -4 -1t-5 -1h-6q-6 0 -13 -4q-8 -5 -15 -5h-3q-2 1 -4 1q-6 0 -8 -1h-4l-6 -2t-5.5 -1.5t-5 -1.5t-5.5 -1.5t-6 -0.5h-1q-1 0 -6 4t-10 4q-2 0 -9 -4t-11 -5q-3 0 -25.5 -4t-36.5 -6h-2q-5 0 -11 3h-1v1h-1l-1 1h-1l-1 1q-1 0 -1 1h-1h-1v1h-1
l-1 1h-1l-1 1h-1v1h-1q-12 8 -12 31q0 6 2.5 11.5t5 9.5t8.5 8.5t9.5 6.5t11.5 6l10 5q4 2 23 17q4 4 8.5 7t6.5 5t4 3.5t3 2.5q6 3 13.5 9t11.5 8q8 4 18.5 13t13.5 10q3 5 11 5h3h4h2h1h1h1h1h1q1 2 2.5 7t3.5 7h1v1h1l1 1h1v1h1h1v1h1l1 1h1q0 1 1 1q6 4 9 7q7 5 21 14.5
t30 21.5q6 3 20 15q1 -1 2 -1q2 -1 3 -1l8 -2q6 7 6 13v1q4 3 7 7t6 5.5t10 3.5q19 7 21 7q6 0 19 -3q20 -13 20 -26q-2 -26 -20 -33h-1v1q-6 -7 -6 -9l10 -4q22 -6 27 -30q-4 -11 -18 -31q-12 -3 -12 -10v-5l1 -3q0 -3 -3 -7q-1 -3 -3 -6t-3 -5t-1 -4v-2q-2 -4 -2 -5t4 -1
h4q8 2 14 2q1 0 4.5 -0.5t5.5 -0.5q9 0 12 1q25 -3 25 -18q0 -3 -3 -8zM721 204q3 8 3 10q0 3 -2 3q-3 0 -9 -6q-23 -15 -34 -17q-14 -14 -24 -14q-3 -6 -13 -18q-1 1 -3 1q-7 0 -28 -16v-1h-1v-1h-1v-1h-2v-1h-1v-1h-1v-1h-1v-1h-1q0 -1 -1 -1t-1 -1h-1v-1h-1v-1h-1v-1h-1
l-1 -1h-1v-1h-1v-1h-1q-10 -8 -14 -11q-4 -4 -20 -13l2 1q0 -1 -1 -2t-1 -2t2 -1q9 0 25 6q16 -2 19 -2q7 0 31 8q14 0 29 3t16 3l3 3q2 2 4 5.5t3 4.5q0 4 6.5 8.5t7.5 7.5q1 1 1 3t-2 5t-2 4v2q4 6 10 19t9 20z" />
    <glyph glyph-name="questiondown" unicode="&#xbf;" horiz-adv-x="294" 
d="M334 429q-8 -32 -46 -32q-31 0 -42 17q-12 21 -12 37q0 10 6 22q2 3 5 3h3q4 -1 6 -1h3q5 5 5 7l-1 1q0 3 5 5l41 -6q15 -17 27 -53zM272 333q14 -15 14 -33t-18 -42q-6 -4 -10.5 -9.5t-7.5 -6.5v-1h-2v-1h-2l-1 -1q-1 0 -1 -1h-1h-1q0 -1 -1 -1l-13 -18q-5 -4 -14.5 -10
t-13.5 -9q-5 -6 -12 -6t-7 -6v-5q-13 -9 -24 -16q-7 -5 -11 -5q-1 0 -4 1.5t-5 1.5t-4 -2t-2 -3l5 -12q-4 -2 -10.5 -7t-12 -8.5t-10.5 -5.5q0 -11 -23.5 -24.5t-24.5 -23.5q-9 -2 -13.5 -7.5t-4.5 -9.5q1 -1 2.5 -4t3.5 -4q3 0 8 -2t9 -2q1 0 4.5 -0.5t5.5 -0.5q3 3 6 3
q1 0 16 -3q14 2 19 2q7 0 19 5q6 -2 9 -2q1 0 2 1t3.5 2.5t7.5 3.5q1 1 3 1q3 0 12 -7q1 2 3 5.5t3 5.5t3.5 3.5t4.5 1.5h3q26 11 34 11t18 -3q4 -2 7.5 -6.5t5.5 -5.5q10 -14 10 -28q0 -9 -6 -17q-4 -2 -11 -6.5t-11.5 -7t-8.5 -2.5q-5 0 -7 1q-21 -10 -44 -11q-3 1 -7 1
q-2 0 -4 -0.5t-6 -2t-8 -2.5t-11 -1q-3 0 -7 0.5t-6 0.5q-4 0 -6 -1q-4 -4 -10 -4t-16 5q-8 -2 -10 -2h-2q-2 0 -5.5 0.5t-7.5 0.5h-1q-4 0 -7 5l-3 6q-3 -1 -5.5 -6t-4.5 -5q-1 0 -2 1q-27 10 -36 10q-5 0 -7 -1q-7 9 -10 17q-10 3 -17 16q-4 7 -4 11q0 1 2 9l2 9
q0 5 -4 10q9 37 31 45q1 4 6.5 10.5t9.5 8.5q1 -1 6 -1q4 0 4 -1l5 14l2 1q2 2 6.5 6t9.5 7q8 1 16.5 10t13.5 11h2h4l2 -1q3 0 5 1q0 2 -0.5 4.5t-0.5 5.5q33 26 34 27q1 0 2 1h2h1q1 0 1 1h4q2 3 6 7l2 2l4 4q3 3 5.5 6t4 5t3.5 2q2 2 12 5.5t14 11.5t15 14l12 5q4 3 4 5
t-3 3q-24 4 -26 25v3q0 14 17 23q13 5 24 5q8 0 13 -1q19 -1 31 -15z" />
    </font>
</defs>
</svg>
